<?xml version="1.0" encoding="UTF-8" standalone="no"?>
<svg width="200px" height="200px" viewBox="0 0 200 200" version="1.1" xmlns="http://www.w3.org/2000/svg" xmlns:xlink="http://www.w3.org/1999/xlink">
    <!-- Generator: Sketch 40 (33762) - http://www.bohemiancoding.com/sketch -->
    <title>video chat</title>
    <desc>Created with Sketch.</desc>
    <defs></defs>
    <g id="LandingPage" stroke="none" stroke-width="1" fill="none" fill-rule="evenodd">
        <g id="Page" transform="translate(-140.000000, -1533.000000)">
            <g id="video-chat" transform="translate(140.000000, 1533.000000)">
                <g id="Layer_1">
                    <path d="M100.000391,199.999609 C155.078125,199.999609 200,155.077734 200,99.9996094 C200,44.9222656 155.078125,0.000390625 100.000391,0.000390625 C44.9222656,0.000390625 0,44.9222656 0,99.9996094 C0,155.077734 44.9222656,199.999609 100.000391,199.999609 L100.000391,199.999609 Z" id="Shape" fill="#FFCA4F"></path>
                    <path d="M91.0882812,70.8777344 L183.777344,70.8777344 C186.736328,70.8777344 189.158203,73.2996094 189.158203,76.259375 L189.158203,127.487109 C189.158203,130.446875 186.736328,132.867969 183.777344,132.867969 L91.0882812,132.867969 C88.1285156,132.867969 85.7066406,130.446875 85.7066406,127.487109 L85.7066406,76.259375 C85.7066406,73.2996094 88.1285156,70.8777344 91.0882812,70.8777344 L91.0882812,70.8777344 Z" id="Shape" fill="#666666"></path>
                    <polygon id="Shape" fill="#FFFFFF" points="90.7648437 74.9035156 184.101172 74.9035156 184.101172 128.843359 90.7648437 128.843359"></polygon>
                    <path d="M109.175781,132.868359 L115.969531,132.868359 L115.969531,134.953125 L109.175781,134.953125 L109.175781,132.868359 L109.175781,132.868359 Z M158.896875,132.868359 L158.896875,132.868359 L165.690234,132.868359 L165.690234,134.953125 L158.896875,134.953125 L158.896875,132.868359 L158.896875,132.868359 Z" id="Shape" fill="#666666"></path>
                    <polygon id="Shape" fill="#F0B97D" points="149.670703 91.0375 146.940625 91.0375 138.658984 91.0375 135.928516 91.0375 134.814844 102.61875 132.838672 104.205469 128.668359 106.860156 137.974609 128.844141 147.623828 128.844141 156.93125 106.860156 152.760937 104.205469 150.783203 102.619922 149.670703 91.0375"></polygon>
                    <polygon id="Shape" fill="#ECF0F1" points="154.205078 105.0625 165.595312 108.697266 151.035547 128.844141 136.019922 128.844141 123.405078 107.639063 131.452734 105.088281 138.539453 110.090625 147.035156 110.090625"></polygon>
                    <polygon id="Shape" fill="#FF5B61" points="145.342187 109.632422 144.367969 112.033594 145.697656 128.844141 139.899219 128.844141 141.228906 112.033594 140.254687 109.632422 142.798047 109.530078 145.342187 109.632422"></polygon>
                    <path d="M154.008984,105 L174.155859,111.43125 C174.155859,111.43125 176.764062,112.786328 177.551172,116.911328 C178.234375,120.488672 178.618359,124.139844 179.128125,128.844531 L145.998437,128.844531 L154.008984,105 L154.008984,105 Z M106.469141,128.844141 L106.469141,128.844141 C106.978906,124.138672 107.363281,120.488281 108.047656,116.910937 C108.833984,112.785937 111.442187,111.430859 111.442187,111.430859 L131.452344,105.088281 L139.553125,128.844141 L106.469141,128.844141 L106.469141,128.844141 L106.469141,128.844141 Z" id="Shape" fill="#15BDB1"></path>
                    <path d="M154.008984,105 L158.355078,106.3875 L159.190234,117.414063 C159.190234,117.414063 158.959375,118.320703 158.269141,118.238672 L154.347656,119.713281 C154.347656,119.713281 154.091406,119.970313 154.320312,120.294922 L157.676953,122.594922 L154.361328,128.844531 L145.998047,128.844531 L154.008984,105 L154.008984,105 L154.008984,105 Z M131.2375,128.844141 L131.2375,128.844141 L127.921484,122.594531 L131.277734,120.294531 C131.507031,119.969922 131.250391,119.712891 131.250391,119.712891 L127.328906,118.238281 C126.638672,118.320312 126.408984,117.413672 126.408984,117.413672 L127.241016,106.422656 L131.452734,105.088281 L139.553516,128.844141 L131.2375,128.844141 L131.2375,128.844141 L131.2375,128.844141 Z" id="Shape" fill="#20D0C2"></path>
                    <path d="M158.803516,67.4839844 C158.803516,68.5601563 159.196094,69.6136719 159.167187,70.6464844 C162.849219,69.9636719 161.071484,80.9015625 158.987109,82.4054688 C158.822656,82.5253906 158.414453,82.2582031 158.071094,82.0394531 C157.348828,86.0617188 151.180859,96.8128906 147.258203,101.3375 C146.16875,102.59375 139.508203,102.572266 138.430469,101.384766 C134.414062,96.9636719 128.252734,86.0847656 127.526172,82.0394531 C127.182812,82.2582031 126.775,82.5253906 126.609766,82.4054688 C124.526562,80.9015625 122.747656,69.9636719 126.43125,70.6464844 C126.401172,69.6136719 126.794141,68.5601563 126.794141,67.4839844 C126.998437,58.9898438 134.694531,54.7492188 142.798828,54.7128906 C150.903125,54.7496094 158.6,58.9898438 158.803516,67.4839844 L158.803516,67.4839844 Z" id="Shape" fill="#FED198"></path>
                    <path d="M153.86875,56.5953125 C155.030078,56.4605469 159.224609,57.7457031 159.728125,62.1835938 C160.232422,66.6222656 159.992188,70.7121094 159.992188,70.7121094 C159.992188,70.7121094 157.533984,71.3324219 157.224609,73.8511719 C156.915625,76.3707031 157.136328,76.3707031 157.136328,76.3707031 L156.245703,76.1703125 L155.612109,71.8515625 C151.934766,69.5480469 155.640234,66.1347656 151.961719,65.3359375 C142.029687,72.4148438 133.266016,71.203125 129.314453,67.8730469 C129.314453,67.8730469 130.236719,71.3558594 129.525781,72.5980469 C128.814062,73.8398438 129.239062,75.7972656 129.239062,75.7972656 L128.314844,75.753125 C128.314844,75.753125 128.482031,70.6230469 126.432031,70.6460938 C118.639062,57.7808594 143.306641,41.8003906 153.86875,56.5953125 L153.86875,56.5953125 L153.86875,56.5953125 Z" id="Shape" fill="#666666"></path>
                    <g id="Group" transform="translate(131.250000, 100.781250)" fill="#FFFFFF">
                        <path d="M19.628125,0.183984375 C19.3402344,0.204296875 22.9917969,4.3234375 22.9917969,4.3234375 L19.8839844,14.9675781 L11.5492188,8.74882812 C16.1335938,6.49960937 18.8691406,3.5859375 19.628125,0.183984375 L19.628125,0.183984375 L19.628125,0.183984375 Z" id="Shape"></path>
                        <path d="M3.46875,0.183984375 C3.75664063,0.204296875 0.10546875,4.3234375 0.10546875,4.3234375 L3.21445313,14.9675781 L11.5492187,8.74882812 C6.96445313,6.49960937 4.228125,3.5859375 3.46875,0.183984375 L3.46875,0.183984375 L3.46875,0.183984375 Z" id="Shape"></path>
                    </g>
                    <path d="M160.758594,72.9214844 C162.501563,64.2246094 159.131641,58.1476563 153.840234,54.778125 C150.563281,52.6910156 146.548047,51.6269531 142.545703,51.609375 C138.547266,51.5910156 134.567578,52.6164063 131.355078,54.7074219 C126.262891,58.0226563 123.098438,64.0605469 124.873437,72.921875 L123.519141,73.1917969 C121.612109,63.678125 125.066406,57.1585938 130.605859,53.553125 C134.046875,51.3128906 138.294531,50.2144531 142.551172,50.2335938 C146.803906,50.2523438 151.078516,51.3882813 154.578906,53.6179688 C160.323047,57.275 163.987891,63.8375 162.113281,73.1917969 L160.758594,72.9214844 L160.758594,72.9214844 L160.758594,72.9214844 Z" id="Shape" fill="#FF757C"></path>
                    <path d="M124.887109,71.3617187 C124.046484,71.4597656 123.439453,72.2277344 123.538281,73.06875 L124.735937,83.2792969 C124.834766,84.1199219 125.602344,84.7269531 126.442969,84.628125 C127.283594,84.5296875 127.890625,83.7617187 127.791797,82.9207031 L126.594141,72.7101562 C126.496094,71.8699219 125.728125,71.2632812 124.887109,71.3617187 L124.887109,71.3617187 Z" id="Shape" fill="#807D7D"></path>
                    <path d="M122.050781,73.2726562 L123.541797,73.0980469 L124.711328,83.0691406 L123.209766,83.2460937 C122.394922,83.3414062 121.650781,82.7535156 121.555859,81.9390625 L120.734375,74.9394531 C120.638281,74.1183594 121.230469,73.3691406 122.050781,73.2726562 L122.050781,73.2726562 Z" id="Shape" fill="#FF757C"></path>
                    <path d="M160.710547,71.3617187 C161.551172,71.4597656 162.158203,72.2277344 162.058594,73.06875 L160.861328,83.2792969 C160.762891,84.1199219 159.994922,84.7269531 159.153906,84.628125 C158.313281,84.5296875 157.706641,83.7617187 157.805859,82.9207031 L159.003516,72.7101562 C159.101953,71.8699219 159.869922,71.2632812 160.710547,71.3617187 L160.710547,71.3617187 L160.710547,71.3617187 Z" id="Shape" fill="#807D7D"></path>
                    <g id="Group" transform="translate(145.703125, 73.046875)" fill="#FF757C">
                        <path d="M17.8445312,0.22578125 L16.3527344,0.051171875 L15.1832031,10.0222656 L16.6851562,10.1992187 C17.5,10.2945312 18.24375,9.70664062 18.3390625,8.8921875 L19.1601562,1.89257812 C19.2566406,1.07148437 18.6640625,0.322265625 17.8445312,0.22578125 L17.8445312,0.22578125 L17.8445312,0.22578125 Z" id="Shape"></path>
                        <path d="M15.7929687,9.17773438 C14.8128906,13.5160156 12.2171875,16.771875 8.8375,18.9242187 C6.328125,20.5222656 3.38671875,21.5203125 0.34921875,21.9089844 L0.34921875,23.2949219 C3.64414062,22.8976562 6.84648437,21.8238281 9.57734375,20.0851562 C13.3425781,17.6875 16.2144531,14.0410156 17.2179687,9.178125 L15.7929687,9.17773438 L15.7929687,9.17773438 L15.7929687,9.17773438 Z" id="Shape"></path>
                    </g>
                    <path d="M142.119922,93.6859375 L146.809766,93.6859375 C147.144922,93.6859375 147.419531,93.959375 147.419531,94.2949219 L147.419531,96.7316406 C147.419531,97.0664062 147.145312,97.340625 146.809766,97.340625 L142.119922,97.340625 C141.784375,97.340625 141.510937,97.0664062 141.510937,96.7316406 L141.510937,94.2949219 C141.510937,93.9597656 141.784375,93.6859375 142.119922,93.6859375 L142.119922,93.6859375 Z" id="Shape" fill="#666666"></path>
                    <path d="M84.5003906,134.952344 L197.117578,134.952344 L197.117578,138.759766 C197.117578,140.853906 195.21875,142.566406 192.896875,142.566406 L88.7207031,142.566406 C86.3992188,142.566406 84.5003906,140.853906 84.5003906,138.759766 L84.5003906,134.952344 L84.5003906,134.952344 L84.5003906,134.952344 Z" id="Shape" fill="#807D7D"></path>
                    <path d="M84.8632812,140.300781 L196.754687,140.300781 C196.094922,141.632812 194.610937,142.566797 192.896875,142.566797 L88.7207031,142.566797 C87.0070312,142.566406 85.5230469,141.632812 84.8632812,140.300781 L84.8632812,140.300781 Z" id="Shape" fill="#666666"></path>
                    <path d="M37.9453125,53.5425781 C37.9453125,55.5363281 37.2183594,67.0652344 37.2730469,68.9777344 C30.4515625,67.7128906 35.1160156,87.9761719 38.9726562,90.7566406 C39.2742187,90.9753906 40.0335937,90.4839844 40.6703125,90.0792969 C41.6832031,95.7234375 47.1179687,103.022656 53.5140625,109.874219 L50.8511719,132.202734 L67.5996094,131.189844 L84.3484375,132.202734 L81.6917969,109.925781 C88.1296875,103.120312 93.4925781,95.7265625 94.5066406,90.0796875 C95.14375,90.484375 95.9007812,90.9757812 96.2035156,90.7570312 C100.061328,87.9769531 104.724219,67.7132812 97.9039062,68.978125 C97.9578125,67.065625 97.2308594,55.5367187 97.2308594,53.5429688 C96.8539062,37.8117188 82.5988281,29.9574219 67.5878906,29.890625 C52.5785156,29.9570312 38.3230469,37.8113281 37.9453125,53.5425781 L37.9453125,53.5425781 L37.9453125,53.5425781 Z" id="Shape" fill="#FED198"></path>
                    <polygon id="Shape" fill="#CCCCCC" points="46.4632812 126.870703 25.3671875 133.604688 67.5875 192.026953 103.509375 131.64375 88.6035156 126.919531 75.4785156 136.185156 59.7429687 136.185156 46.4632812 126.870703"></polygon>
                    <path d="M62.878125,135.335156 L64.68125,139.784375 L60.6730469,190.483594 L64.7453125,193.600391 C66.0304688,194.084375 67.3265625,194.542578 68.6359375,194.975391 L74.5042969,190.483594 L70.4960938,139.784375 L72.2992188,135.335156 L67.5882813,135.147656 L62.878125,135.335156 L62.878125,135.335156 L62.878125,135.335156 Z" id="Shape" fill="#0E5E9A"></path>
                    <path d="M46.825,126.756641 L9.5109375,138.666016 C9.5109375,138.666016 8.95703125,138.954687 8.16835938,139.631641 C23.5152344,175.144141 58.8523438,199.999219 100,199.999219 C113.744922,199.999219 126.841406,197.223437 138.762109,192.207031 C135.997656,173.746094 132.783203,153.161719 131.953516,148.816016 C130.525781,141.338672 125.664844,138.666016 125.664844,138.666016 L88.6042969,126.919531 C74.5289063,120.172266 60.5917969,119.620312 46.825,126.756641 L46.825,126.756641 L46.825,126.756641 Z" id="Shape" fill="#FF757C"></path>
                    <path d="M53.5304687,113.886719 C48.4488281,116.279297 48.8441406,118.733984 48.8441406,118.733984 L48.2703125,126.143359 C60.3417969,120.144531 74.8332031,120.14375 86.90625,126.143359 L86.3324219,118.733984 C86.3324219,118.733984 86.5925781,116.547266 81.646875,113.886719 C74.6578125,110.126953 61.8,109.991797 53.5304687,113.886719 L53.5304687,113.886719 Z" id="Shape" fill="#FFFFFF"></path>
                    <path d="M46.9085937,34.4851563 C39.5378906,39.8589844 30.4234375,46.6351563 33.7320312,57.1378906 L40.4335937,78.4207031 C43.4777344,88.0890625 43.9273437,105.676172 58.1894531,105.498047 L67.6050781,105.380078 L77.0207031,105.498047 C91.2828125,105.676172 91.7324219,88.090625 94.7769531,78.4207031 L101.478906,57.1378906 C104.786328,46.6339844 95.6707031,39.8589844 88.3011719,34.4851563 C79.8972656,28.359375 55.3132812,28.3585938 46.9085937,34.4851563 L46.9085937,34.4851563 L46.9085937,34.4851563 Z" id="Shape" fill="#666666"></path>
                    <path d="M35.2949219,68.10625 L35.2945312,68.10625 C33.7769531,68.3484375 32.7339844,69.7878906 32.9757812,71.3039062 L35.9152344,89.7421875 C36.1574219,91.2585937 37.596875,92.3023437 39.1144531,92.0601562 L39.1148437,92.0601562 C40.6320312,91.8183594 41.6753906,90.3792969 41.4335938,88.8625 L38.49375,70.425 C38.2511719,68.9078125 36.8121094,67.8640625 35.2949219,68.10625 L35.2949219,68.10625 Z" id="Shape" fill="#807D7D"></path>
                    <path d="M30.2910156,71.7875 L32.9835937,71.3582031 L35.8546875,89.3632813 L33.1441406,89.7953125 C31.6734375,90.0296875 30.278125,89.01875 30.04375,87.5484375 L28.0285156,74.9089844 C27.7921875,73.428125 28.8109375,72.0238281 30.2910156,71.7875 L30.2910156,71.7875 L30.2910156,71.7875 Z" id="Shape" fill="#20D0C2"></path>
                    <path d="M100.646484,68.10625 L100.646875,68.10625 C102.164453,68.3484375 103.208203,69.7878906 102.966016,71.3039062 L100.026172,89.7421875 C99.7847656,91.2585937 98.3453125,92.3023437 96.8277344,92.0601562 L96.8269531,92.0601562 C95.3101562,91.8183594 94.2667969,90.3792969 94.5085937,88.8625 L97.4484375,70.425 C97.6898438,68.9078125 99.1292969,67.8640625 100.646484,68.10625 L100.646484,68.10625 L100.646484,68.10625 Z" id="Shape" fill="#807D7D"></path>
                    <g id="Group" transform="translate(29.296875, 26.953125)" fill="#20D0C2">
                        <path d="M76.353125,44.834375 L73.6605469,44.4050781 L70.7894531,62.4101563 L73.5011719,62.8421875 C74.971875,63.0765625 76.3671875,62.065625 76.6015625,60.5953125 L78.6167969,47.9558594 C78.853125,46.475 77.834375,45.0707031 76.353125,44.834375 L76.353125,44.834375 L76.353125,44.834375 Z" id="Shape"></path>
                        <path d="M73.8785156,44.3949219 C77.2984375,27.3296875 70.68125,15.4023438 60.2910156,8.78710938 C53.8632813,4.69453125 45.9925781,2.60820313 38.1464844,2.57226563 C30.3070313,2.53671875 22.5039063,4.54882813 16.2027344,8.65 C6.203125,15.1589844 -0.01484375,27.0105469 3.46914063,44.3949219 L1.2125,44.8449219 C-2.48945312,26.3726563 4.20742188,13.7199219 14.953125,6.72539063 C21.6355469,2.37539063 29.884375,0.241796875 38.15625,0.280078125 C46.4195313,0.317578125 54.7238281,2.52460938 61.5226563,6.853125 C72.6664063,13.9484375 79.7753906,26.684375 76.1359375,44.8453125 L73.8785156,44.3949219 L73.8785156,44.3949219 L73.8785156,44.3949219 Z" id="Shape"></path>
                    </g>
                </g>
            </g>
        </g>
    </g>
</svg>