<?xml version="1.0" encoding="UTF-8" standalone="no"?>
<svg width="200px" height="200px" viewBox="0 0 200 200" version="1.1" xmlns="http://www.w3.org/2000/svg" xmlns:xlink="http://www.w3.org/1999/xlink">
    <!-- Generator: Sketch 40 (33762) - http://www.bohemiancoding.com/sketch -->
    <title>video chat copy 2</title>
    <desc>Created with Sketch.</desc>
    <defs>
        <ellipse id="path-1" cx="101.049884" cy="104.49816" rx="63.1188494" ry="63.1188494"></ellipse>
        <mask id="mask-2" maskContentUnits="userSpaceOnUse" maskUnits="objectBoundingBox" x="0" y="0" width="126.237699" height="126.237699" fill="white">
            <use xlink:href="#path-1"></use>
        </mask>
    </defs>
    <g id="LandingPage" stroke="none" stroke-width="1" fill="none" fill-rule="evenodd">
        <g id="Page" transform="translate(-1100.000000, -1533.000000)">
            <g id="video-chat-copy-2" transform="translate(1100.000000, 1533.000000)">
                <g id="Layer_1">
                    <path d="M100.000391,199.999219 C155.078125,199.999219 200,155.077344 200,99.9992188 C200,44.921875 155.078125,0 100.000391,0 C44.9222656,0 0,44.921875 0,99.9992187 C0,155.077344 44.9222656,199.999219 100.000391,199.999219 L100.000391,199.999219 Z" id="Shape" fill="#FFCA4F"></path>
                    <ellipse id="Oval-4" stroke="#979797" fill="#FFFFFF" cx="97.9891974" cy="96.6630099" rx="55.4604618" ry="52.4101364"></ellipse>
                    <use id="Oval-2" stroke="#0B606B" mask="url(#mask-2)" stroke-width="70" xlink:href="#path-1"></use>
                    <path d="M128.631091,84.5424554 C130.488138,87.0984614 129.9243,90.6739275 127.365073,92.5333148 L107.36055,107.067451 C104.804301,108.924675 101.227026,108.358762 99.3695702,105.802194 C97.5125232,103.246189 98.0763609,99.6707224 100.635588,97.811335 L120.640111,83.2771986 C123.19636,81.4199747 126.773635,81.9858875 128.631091,84.5424554 Z" id="Rectangle-8" fill="#15BDB1"></path>
                    <path d="M69.6846084,84.1834183 C68.2193508,83.0386335 67.9598255,80.9224312 69.1055052,79.4560282 L69.1055052,79.4560282 C70.2509329,77.9899475 72.3679502,77.7299846 73.8325693,78.8742705 L102.337291,101.144599 C103.802548,102.289384 104.062073,104.405586 102.916394,105.87199 L102.916394,105.87199 C101.770966,107.33807 99.6539488,107.598033 98.1893297,106.453747 L69.6846084,84.1834183" id="Rectangle-9" fill="#15BDB1"></path>
                    <circle id="Oval-3" fill="#0E7886" cx="100.507242" cy="104.53023" r="7.97850624"></circle>
                    <path d="M112.110906,25.2257928 C101.469778,28.3576018 88.5057471,36.0978927 88.5057471,36.0978927 C88.5057471,36.0978927 126.438281,27.6117263 153.535421,59.6441822 C180.632561,91.6766381 166.261554,127.316044 166.261554,127.316044 C166.261554,127.316044 174.289351,119.185633 179.640096,108.392024 C184.990842,97.5984156 187.743959,83.9813966 187.743959,83.9813966 C187.743959,83.9813966 179.385371,96.0155144 169.962002,85.4884477 C166.555295,81.6827356 170.262581,74.8899164 176.483323,74.8899164 C182.704064,74.8899164 195.316097,70.3212617 198.305784,57.3621355 C200.54058,47.675165 199.50533,36.976775 199.50533,36.976775 C199.50533,36.976775 190.610542,48.4895102 180.632561,51.7224674 C170.654581,54.9554246 170.987018,52.7419432 170.987018,52.7419432 C170.987018,52.7419432 186.975603,43.1029977 193.425182,30.276769 C199.874761,17.4505403 197.507933,0 197.507933,0 C197.507933,0 193.006172,7.36349638 178.571447,15.58302 C164.136723,23.8025436 149.080755,21.1430415 149.080755,21.1430415 C149.080755,21.1430415 149.82874,35.2190104 137.829122,36.0978927 C125.829504,36.976775 137.829122,21.5814438 137.829122,21.5814438 C137.829122,21.5814438 122.752034,22.0939837 112.110906,25.2257928 Z" id="Path-2" fill="#15BDB1"></path>
                </g>
            </g>
        </g>
    </g>
</svg>