<?xml version="1.0" encoding="UTF-8" standalone="no"?>
<svg width="150px" height="150px" viewBox="0 0 150 150" version="1.1" xmlns="http://www.w3.org/2000/svg" xmlns:xlink="http://www.w3.org/1999/xlink">
    <!-- Generator: Sketch 40 (33762) - http://www.bohemiancoding.com/sketch -->
    <title>chemistry</title>
    <desc>Created with Sketch.</desc>
    <defs></defs>
    <g id="LandingPage" stroke="none" stroke-width="1" fill="none" fill-rule="evenodd">
        <g id="Page" transform="translate(-1125.000000, -3117.000000)">
            <g id="chemistry" transform="translate(1125.000000, 3117.000000)">
                <g id="Layer_1">
                    <path d="M74.999707,0 C116.421387,0 149.999707,33.5783203 149.999707,75 C149.999707,116.42168 116.421387,150 74.999707,150 C33.5786133,150 0.00029296875,116.42168 0.00029296875,75 C0.00029296875,33.5777344 33.5786133,0 74.999707,0 L74.999707,0 Z" id="Shape" fill="#5DDDD3"></path>
                    <path d="M34.7053711,58.6438477 L54.7163086,58.6438477 L54.7163086,112.758398 C54.7163086,118.260645 50.2139648,122.76416 44.7105469,122.76416 C39.2071289,122.76416 34.7047852,118.261816 34.7047852,112.758398 L34.7047852,58.6438477 L34.7053711,58.6438477 L34.7053711,58.6438477 Z" id="Shape" fill="#FFFFFF"></path>
                    <path d="M37.7314453,82.1378906 L37.7314453,112.758398 C37.7314453,116.590723 40.8779297,119.737793 44.7102539,119.737793 C48.543457,119.737793 51.6896484,116.591309 51.6896484,112.758398 L51.6896484,82.1378906 L37.7314453,82.1378906 L37.7314453,82.1378906 Z" id="Shape" fill="#15BDB1"></path>
                    <path d="M33.7007812,56.1310547 L55.7211914,56.1310547 C57.103418,56.1310547 58.2339844,57.2613281 58.2339844,58.6438477 L58.2339844,58.6444336 C58.2339844,60.0266602 57.1037109,61.1566406 55.7211914,61.1566406 L33.7007812,61.1566406 C32.3185547,61.1566406 31.1879883,60.0263672 31.1879883,58.6444336 L31.1879883,58.6438477 C31.1879883,57.2616211 32.3185547,56.1310547 33.7007812,56.1310547 L33.7007812,56.1310547 Z" id="Shape" fill="#FFFFFF"></path>
                    <path d="M58.2339844,58.6438477 L58.2339844,58.6444336 C58.2339844,60.0266602 57.1037109,61.1566406 55.7211914,61.1566406 L33.7007812,61.1566406 C32.3185547,61.1566406 31.1879883,60.0263672 31.1879883,58.6444336 L31.1879883,58.6438477 L58.2339844,58.6438477 L58.2339844,58.6438477 Z" id="Shape" fill="#ECF0F1"></path>
                    <g id="Group" transform="translate(31.933594, 27.832031)" fill="#FFFFFF">
                        <path d="M53.9806641,0.0530273437 L53.9806641,41.8866211 L83.6671875,96.721875 C88.1132812,104.933789 82.8023437,109.806152 73.5231445,109.806152 L42.7470703,109.806152 L11.9695312,109.806152 C2.69033203,109.806152 -2.62324219,104.94082 1.82548828,96.721875 L31.5134766,41.8866211 L31.5134766,0.0530273437 L53.9806641,0.0530273437 L53.9806641,0.0530273437 Z" id="Shape"></path>
                        <path d="M113.477344,11.0217773 L113.477344,62.3800781 L79.1862305,62.3800781 L79.1862305,11.0217773 C74.7506836,11.0217773 115.862109,11.0217773 113.477344,11.0217773 L113.477344,11.0217773 Z" id="Shape"></path>
                    </g>
                    <path d="M126.800977,38.8538086 L126.800977,11.0264648 L112.121777,11.0264648 C111.550195,11.0264648 111.085547,10.5621094 111.085547,9.99023437 L111.085547,3.53408203 L107.127246,3.53408203 L107.127246,21.1374023 C107.127246,21.7089844 106.663477,22.1736328 106.091895,22.1736328 L99.8786133,22.1736328 C99.3070312,22.1736328 98.8423828,21.7092773 98.8423828,21.1374023 L98.8423828,11.9396484 L75.7166016,11.9396484 L75.7166016,27.8850586 L73.6444336,27.8850586 L73.6444336,10.9042969 C73.6444336,10.3327148 74.1087891,9.86806641 74.6806641,9.86806641 L99.8786133,9.86806641 C100.450781,9.86806641 100.914844,10.3324219 100.914844,10.9042969 L100.914844,20.1020508 L105.055957,20.1020508 L105.055957,2.4984375 C105.055957,1.92685547 105.519727,1.46220703 106.092187,1.46220703 L112.122656,1.46220703 C112.694238,1.46220703 113.158887,1.9265625 113.158887,2.4984375 L113.158887,8.95458984 L127.838086,8.95458984 C128.409668,8.95458984 128.874316,9.41835937 128.874316,9.99082031 L128.874316,38.8543945 L126.802148,38.8543945 L126.800977,38.8538086 L126.800977,38.8538086 Z" id="Shape" fill="#FF5B61"></path>
                    <g id="Group" transform="translate(73.535156, 27.832031)" fill="#C8CACC">
                        <path d="M55.3374023,17.8095703 C55.3374023,18.3811523 54.8730469,18.8458008 54.3011719,18.8458008 C53.7292969,18.8458008 53.2649414,18.3814453 53.2649414,17.8095703 L53.2649414,11.0226563 L55.3371094,11.0226563 L55.3371094,17.8095703 L55.3374023,17.8095703 Z" id="Shape"></path>
                        <path d="M2.18085938,0.0530273437 L2.18085938,14.4131836 C2.18085938,14.9847656 1.71650391,15.4494141 1.14462891,15.4494141 C0.573046875,15.4494141 0.108398438,14.9850586 0.108398438,14.4131836 L0.108398438,0.0530273437 L2.18085938,0.0530273437 L2.18085938,0.0530273437 Z" id="Shape"></path>
                    </g>
                    <path d="M60.7107422,85.2776367 L37.6933594,126.479004 C37.1405273,127.610156 36.2194336,129.894727 36.9583008,131.143359 C38.0220703,132.941016 42.1154297,133.258887 43.902832,133.258887 L105.457031,133.258887 C107.24502,133.258887 111.335742,132.94043 112.400977,131.141602 C113.139258,129.892969 112.220801,127.610156 111.666504,126.479004 L88.6494141,85.2776367 C77.1436523,82.7197266 72.2170898,88.9324219 60.7113281,85.2776367 L60.7107422,85.2776367 L60.7107422,85.2776367 Z" id="Shape" fill="#FF5B61"></path>
                    <polygon id="Shape" fill="#FFFFFF" points="111.119824 34.8017578 109.054102 34.8017578 109.054102 38.8538086 147.475781 38.8538086 147.475781 34.8017578 145.410059 34.8017578 111.119238 34.8017578"></polygon>
                    <path d="M114.704297,52.4144531 C133.720312,49.1414062 133.408301,56.6229492 141.825293,52.4144531 L141.825293,87.3287109 L114.704297,87.3287109 L114.704297,52.4144531 L114.704297,52.4144531 Z" id="Shape" fill="#20D0C2"></path>
                    <g id="Group" transform="translate(37.500000, 40.136719)" fill="#666666">
                        <path d="M77.2042969,0.11953125 L80.6879883,0.11953125 L80.6879883,1.28818359 L77.2042969,1.28818359 L77.2042969,0.11953125 L77.2042969,0.11953125 Z M77.2042969,46.162207 L77.2042969,46.162207 L78.9462891,46.162207 L78.9462891,47.3314453 L77.2042969,47.3314453 L77.2042969,46.162207 L77.2042969,46.162207 Z M77.2042969,43.4542969 L77.2042969,43.4542969 L80.6879883,43.4542969 L80.6879883,44.6235352 L77.2042969,44.6235352 L77.2042969,43.4542969 L77.2042969,43.4542969 Z M77.2042969,40.7452148 L77.2042969,40.7452148 L78.9462891,40.7452148 L78.9462891,41.9144531 L77.2042969,41.9144531 L77.2042969,40.7452148 L77.2042969,40.7452148 Z M77.2042969,38.0367188 L77.2042969,38.0367188 L80.6879883,38.0367188 L80.6879883,39.205957 L77.2042969,39.205957 L77.2042969,38.0367188 L77.2042969,38.0367188 Z M77.2042969,35.3282227 L77.2042969,35.3282227 L78.9462891,35.3282227 L78.9462891,36.4974609 L77.2042969,36.4974609 L77.2042969,35.3282227 L77.2042969,35.3282227 Z M77.2042969,32.6206055 L77.2042969,32.6206055 L80.6879883,32.6206055 L80.6879883,33.7892578 L77.2042969,33.7892578 L77.2042969,32.6206055 L77.2042969,32.6206055 Z M77.2042969,29.9121094 L77.2042969,29.9121094 L78.9462891,29.9121094 L78.9462891,31.0813477 L77.2042969,31.0813477 L77.2042969,29.9121094 L77.2042969,29.9121094 Z M77.2042969,27.2036133 L77.2042969,27.2036133 L80.6879883,27.2036133 L80.6879883,28.3728516 L77.2042969,28.3728516 L77.2042969,27.2036133 L77.2042969,27.2036133 Z M77.2042969,24.4945312 L77.2042969,24.4945312 L78.9462891,24.4945312 L78.9462891,25.6643555 L77.2042969,25.6643555 L77.2042969,24.4945312 L77.2042969,24.4945312 Z M77.2042969,21.7866211 L77.2042969,21.7866211 L80.6879883,21.7866211 L80.6879883,22.9558594 L77.2042969,22.9558594 L77.2042969,21.7866211 L77.2042969,21.7866211 Z M77.2042969,19.078125 L77.2042969,19.078125 L78.9462891,19.078125 L78.9462891,20.2473633 L77.2042969,20.2473633 L77.2042969,19.078125 L77.2042969,19.078125 Z M77.2042969,16.3705078 L77.2042969,16.3705078 L80.6879883,16.3705078 L80.6879883,17.5391602 L77.2042969,17.5391602 L77.2042969,16.3705078 L77.2042969,16.3705078 Z M77.2042969,13.6620117 L77.2042969,13.6620117 L78.9462891,13.6620117 L78.9462891,14.83125 L77.2042969,14.83125 L77.2042969,13.6620117 L77.2042969,13.6620117 Z M77.2042969,10.9535156 L77.2042969,10.9535156 L80.6879883,10.9535156 L80.6879883,12.1227539 L77.2042969,12.1227539 L77.2042969,10.9535156 L77.2042969,10.9535156 Z M77.2042969,8.24501953 L77.2042969,8.24501953 L78.9462891,8.24501953 L78.9462891,9.41425781 L77.2042969,9.41425781 L77.2042969,8.24501953 L77.2042969,8.24501953 Z M77.2042969,5.53652344 L77.2042969,5.53652344 L80.6879883,5.53652344 L80.6879883,6.70576172 L77.2042969,6.70576172 L77.2042969,5.53652344 L77.2042969,5.53652344 Z M77.2042969,2.82802734 L77.2042969,2.82802734 L78.9462891,2.82802734 L78.9462891,3.99726562 L77.2042969,3.99726562 L77.2042969,2.82802734 L77.2042969,2.82802734 Z" id="Shape"></path>
                        <path d="M0.231445312,26.1571289 L3.71572266,26.1571289 L3.71572266,27.3263672 L0.231445312,27.3263672 L0.231445312,26.1571289 L0.231445312,26.1571289 Z M0.231445312,72.1998047 L0.231445312,72.1998047 L1.9734375,72.1998047 L1.9734375,73.369043 L0.231445312,73.369043 L0.231445312,72.1998047 L0.231445312,72.1998047 Z M0.231445312,69.4913086 L0.231445312,69.4913086 L3.71572266,69.4913086 L3.71572266,70.6605469 L0.231445312,70.6605469 L0.231445312,69.4913086 L0.231445312,69.4913086 Z M0.231445312,66.7828125 L0.231445312,66.7828125 L1.9734375,66.7828125 L1.9734375,67.9520508 L0.231445312,67.9520508 L0.231445312,66.7828125 L0.231445312,66.7828125 Z M0.231445312,64.0743164 L0.231445312,64.0743164 L3.71572266,64.0743164 L3.71572266,65.2435547 L0.231445312,65.2435547 L0.231445312,64.0743164 L0.231445312,64.0743164 Z M0.231445312,61.3666992 L0.231445312,61.3666992 L1.9734375,61.3666992 L1.9734375,62.5359375 L0.231445312,62.5359375 L0.231445312,61.3666992 L0.231445312,61.3666992 Z M0.231445312,58.6587891 L0.231445312,58.6587891 L3.71572266,58.6587891 L3.71572266,59.8280273 L0.231445312,59.8280273 L0.231445312,58.6587891 L0.231445312,58.6587891 Z M0.231445312,55.949707 L0.231445312,55.949707 L1.9734375,55.949707 L1.9734375,57.1189453 L0.231445312,57.1189453 L0.231445312,55.949707 L0.231445312,55.949707 Z M0.231445312,53.2412109 L0.231445312,53.2412109 L3.71572266,53.2412109 L3.71572266,54.4104492 L0.231445312,54.4104492 L0.231445312,53.2412109 L0.231445312,53.2412109 Z M0.231445312,50.5327148 L0.231445312,50.5327148 L1.9734375,50.5327148 L1.9734375,51.7019531 L0.231445312,51.7019531 L0.231445312,50.5327148 L0.231445312,50.5327148 Z M0.231445312,47.8248047 L0.231445312,47.8248047 L3.71572266,47.8248047 L3.71572266,48.993457 L0.231445312,48.993457 L0.231445312,47.8248047 L0.231445312,47.8248047 Z M0.231445312,45.1163086 L0.231445312,45.1163086 L1.9734375,45.1163086 L1.9734375,46.2849609 L0.231445312,46.2849609 L0.231445312,45.1163086 L0.231445312,45.1163086 Z M0.231445312,42.4081055 L0.231445312,42.4081055 L3.71572266,42.4081055 L3.71572266,43.5773437 L0.231445312,43.5773437 L0.231445312,42.4081055 L0.231445312,42.4081055 Z M0.231445312,39.6996094 L0.231445312,39.6996094 L1.9734375,39.6996094 L1.9734375,40.8688477 L0.231445312,40.8688477 L0.231445312,39.6996094 L0.231445312,39.6996094 Z M0.231445312,36.9911133 L0.231445312,36.9911133 L3.71572266,36.9911133 L3.71572266,38.1603516 L0.231445312,38.1603516 L0.231445312,36.9911133 L0.231445312,36.9911133 Z M0.231445312,34.2826172 L0.231445312,34.2826172 L1.9734375,34.2826172 L1.9734375,35.4518555 L0.231445312,35.4518555 L0.231445312,34.2826172 L0.231445312,34.2826172 Z M0.231445312,31.5741211 L0.231445312,31.5741211 L3.71572266,31.5741211 L3.71572266,32.7433594 L0.231445312,32.7433594 L0.231445312,31.5741211 L0.231445312,31.5741211 Z M0.231445312,28.8662109 L0.231445312,28.8662109 L1.9734375,28.8662109 L1.9734375,30.0354492 L0.231445312,30.0354492 L0.231445312,28.8662109 L0.231445312,28.8662109 Z" id="Shape"></path>
                    </g>
                    <path d="M32.2836914,30.5411133 C34.3532227,30.5411133 36.0307617,32.2186523 36.0307617,34.2890625 C36.0307617,36.3585938 34.3532227,38.0370117 32.2836914,38.0370117 C30.2132813,38.0370117 28.5351563,36.3588867 28.5351563,34.2890625 C28.5351563,32.2186523 30.2132813,30.5411133 32.2836914,30.5411133 L32.2836914,30.5411133 Z" id="Shape" fill="#20D0C2"></path>
                    <path d="M38.7811523,44.5880859 C40.1182617,44.5880859 41.2022461,45.6720703 41.2022461,47.0091797 C41.2022461,48.3462891 40.1182617,49.4302734 38.7811523,49.4302734 C37.444043,49.4302734 36.3594727,48.3462891 36.3594727,47.0091797 C36.3594727,45.6720703 37.444043,44.5880859 38.7811523,44.5880859 L38.7811523,44.5880859 Z" id="Shape" fill="#FF5B61"></path>
                    <g id="Group" transform="translate(35.156250, 19.628906)" fill="#FFFFFF">
                        <path d="M2.70908203,0.0588867187 C4.17275391,0.0588867187 5.35869141,1.24482422 5.35869141,2.70849609 C5.35869141,4.17216797 4.17275391,5.35810547 2.70908203,5.35810547 C1.24599609,5.35810547 0.0600585938,4.17216797 0.0600585938,2.70849609 C0.0600585938,1.24482422 1.24599609,0.0588867187 2.70908203,0.0588867187 L2.70908203,0.0588867187 Z" id="Shape"></path>
                        <path d="M10.9069336,28.827832 C11.8157227,28.827832 12.5516602,29.5643555 12.5516602,30.4731445 C12.5516602,31.3813477 11.8160156,32.1169922 10.9069336,32.1169922 C9.99873047,32.1169922 9.26220703,31.3813477 9.26220703,30.4731445 C9.26220703,29.5640625 9.99873047,28.827832 10.9069336,28.827832 L10.9069336,28.827832 Z" id="Shape"></path>
                    </g>
                    <path d="M46.6365234,34.7501953 C48.3606445,34.7501953 49.7578125,36.1473633 49.7578125,37.8714844 C49.7578125,39.5950195 48.3606445,40.9921875 46.6365234,40.9921875 C44.9129883,40.9921875 43.5158203,39.5950195 43.5158203,37.8714844 C43.5161133,36.1473633 44.9132812,34.7501953 46.6365234,34.7501953 L46.6365234,34.7501953 Z" id="Shape" fill="#FBB429"></path>
                    <g id="Group" transform="translate(51.855469, 88.769531)" fill="#FFFFFF">
                        <path d="M17.5239258,12.1426758 C19.3666992,12.1426758 20.8614258,13.6368164 20.8614258,15.4801758 C20.8614258,17.3229492 19.3666992,18.8176758 17.5239258,18.8176758 C15.6802734,18.8176758 14.1864258,17.3229492 14.1864258,15.4801758 C14.1861328,13.6368164 15.6802734,12.1426758 17.5239258,12.1426758 L17.5239258,12.1426758 Z" id="Shape"></path>
                        <path d="M2.6390625,27.6351562 C3.97617188,27.6351562 5.06015625,28.7191406 5.06015625,30.05625 C5.06015625,31.3939453 3.97617188,32.4779297 2.6390625,32.4779297 C1.30136719,32.4779297 0.217382813,31.3939453 0.217382813,30.05625 C0.217382813,28.7191406 1.30136719,27.6351562 2.6390625,27.6351562 L2.6390625,27.6351562 Z" id="Shape"></path>
                        <path d="M39.3969727,14.1580078 C40.7496094,14.1580078 41.8450195,15.2542969 41.8450195,16.6054687 C41.8450195,17.9575195 40.7496094,19.0535156 39.3969727,19.0535156 C38.0449219,19.0535156 36.9495117,17.9572266 36.9495117,16.6054687 C36.9495117,15.2537109 38.0455078,14.1580078 39.3969727,14.1580078 L39.3969727,14.1580078 Z" id="Shape"></path>
                        <path d="M24.7066406,0.27421875 C25.6910156,0.27421875 26.4893555,1.07255859 26.4893555,2.0578125 C26.4893555,3.0421875 25.6904297,3.84052734 24.7066406,3.84052734 C23.7216797,3.84052734 22.9230469,3.04160156 22.9230469,2.0578125 C22.9233398,1.07255859 23.7216797,0.27421875 24.7066406,0.27421875 L24.7066406,0.27421875 Z" id="Shape"></path>
                        <path d="M45.3914062,33.749707 C46.5773437,33.749707 47.5379883,34.7109375 47.5379883,35.8962891 C47.5379883,37.0816406 46.5773437,38.0428711 45.3914062,38.0428711 C44.2060547,38.0428711 43.2448242,37.0816406 43.2448242,35.8962891 C43.2448242,34.7109375 44.2060547,33.749707 45.3914062,33.749707 L45.3914062,33.749707 Z" id="Shape"></path>
                        <path d="M11.1082031,39.0111328 C11.8807617,39.0111328 12.5074219,39.637793 12.5074219,40.4103516 C12.5074219,41.1829102 11.8807617,41.8095703 11.1082031,41.8095703 C10.3356445,41.8095703 9.70898438,41.1829102 9.70898438,40.4103516 C9.70898438,39.637793 10.3356445,39.0111328 11.1082031,39.0111328 L11.1082031,39.0111328 Z" id="Shape"></path>
                        <path d="M28.2439453,26.4228516 C30.2507812,26.4228516 31.8779297,28.05 31.8779297,30.0568359 C31.8779297,32.0636719 30.2507812,33.6902344 28.2439453,33.6902344 C26.2371094,33.6902344 24.6105469,32.0630859 24.6105469,30.0568359 C24.6105469,28.05 26.2376953,26.4228516 28.2439453,26.4228516 L28.2439453,26.4228516 Z" id="Shape"></path>
                    </g>
                    <path d="M74.409375,46.5852539 C75.2484375,46.5852539 75.9287109,47.2655273 75.9287109,48.1045898 C75.9287109,48.9430664 75.2484375,49.6233398 74.409375,49.6233398 C73.5708984,49.6233398 72.890625,48.9430664 72.890625,48.1045898 C72.890625,47.2655273 73.5708984,46.5852539 74.409375,46.5852539 L74.409375,46.5852539 Z" id="Shape" fill="#20D0C2"></path>
                    <path d="M73.1141602,55.2946289 C74.7445313,55.2946289 76.0666992,56.6167969 76.0666992,58.247168 C76.0666992,59.8775391 74.7445313,61.1991211 73.1141602,61.1991211 C71.4837891,61.1991211 70.162207,59.8769531 70.162207,58.247168 C70.162207,56.6167969 71.4837891,55.2946289 73.1141602,55.2946289 L73.1141602,55.2946289 Z" id="Shape" fill="#FF5B61"></path>
                    <path d="M63.4461914,22.0101562 L58.7211914,22.0101562 C54.8572266,22.0101562 54.8572266,27.8850586 58.7211914,27.8850586 L63.4461914,27.8850586 L85.9136719,27.8850586 L90.6380859,27.8850586 C94.5020508,27.8850586 94.5020508,22.0101562 90.6380859,22.0101562 L85.9136719,22.0101562 L63.4461914,22.0101562 L63.4461914,22.0101562 Z" id="Shape" fill="#FFFFFF"></path>
                    <g id="Group" transform="translate(55.664062, 24.902344)" fill="#ECF0F1">
                        <path d="M7.78212891,2.98271484 L3.05712891,2.98271484 C1.44755859,2.98271484 0.121289062,1.66318359 0.121289062,0.0474609375 L0.121289062,0.0454101562 L37.9107422,0.0454101562 L37.9107422,0.0474609375 C37.9107422,1.65644531 36.5844727,2.98271484 34.9743164,2.98271484 L30.2499023,2.98271484 L7.78212891,2.98271484 L7.78212891,2.98271484 Z" id="Shape"></path>
                        <polygon id="Shape" points="55.4557617 13.9514648 53.3900391 13.9514648 53.3900391 11.925 91.8117187 11.925 91.8117187 13.9514648 89.7459961 13.9514648 55.4551758 13.9514648"></polygon>
                    </g>
                    <path d="M78.8425781,66.1045898 C79.8773437,66.1045898 80.7158203,66.9436523 80.7158203,67.977832 C80.7158203,69.0125977 79.8767578,69.8510742 78.8425781,69.8510742 C77.8083984,69.8510742 76.9693359,69.0125977 76.9693359,67.977832 C76.969043,66.9436523 77.8083984,66.1045898 78.8425781,66.1045898 L78.8425781,66.1045898 Z" id="Shape" fill="#FBB429"></path>
                    <path d="M71.8066406,72.9899414 C74.0595703,72.9899414 75.8871094,74.8166016 75.8871094,77.0704102 C75.8871094,79.3233398 74.0595703,81.150293 71.8066406,81.150293 C69.5537109,81.150293 67.7261719,79.3236328 67.7261719,77.0704102 C67.7261719,74.8171875 69.553125,72.9899414 71.8066406,72.9899414 L71.8066406,72.9899414 Z" id="Shape" fill="#ECF0F1"></path>
                    <path d="M81.309375,78.1658203 C81.8267578,78.1658203 82.246582,78.5850586 82.246582,79.1024414 C82.246582,79.6198242 81.8267578,80.0390625 81.309375,80.0390625 C80.7919922,80.0390625 80.3733398,79.6204102 80.3733398,79.1024414 C80.3733398,78.5850586 80.7919922,78.1658203 81.309375,78.1658203 L81.309375,78.1658203 Z" id="Shape" fill="#20D0C2"></path>
                    <g id="Group" transform="translate(34.863281, 35.742188)" fill="#FFFFFF">
                        <path d="M27.6708984,65.0610352 C28.3394531,65.0610352 28.8814453,65.6024414 28.8814453,66.2709961 C28.8814453,66.9395508 28.3394531,67.4821289 27.6708984,67.4821289 C27.0023437,67.4821289 26.4603516,66.9395508 26.4603516,66.2709961 C26.4603516,65.6024414 27.0023437,65.0610352 27.6708984,65.0610352 L27.6708984,65.0610352 Z" id="Shape"></path>
                        <path d="M1.84248047,0.041015625 C2.75068359,0.041015625 3.48720703,0.776660156 3.48720703,1.68574219 C3.48720703,2.59394531 2.75068359,3.33046875 1.84248047,3.33046875 C0.933691406,3.33046875 0.197753906,2.59394531 0.197753906,1.68574219 C0.198046875,0.776660156 0.933691406,0.041015625 1.84248047,0.041015625 L1.84248047,0.041015625 Z" id="Shape"></path>
                    </g>
                </g>
            </g>
        </g>
    </g>
</svg>