<?xml version="1.0" encoding="UTF-8"?>
<!DOCTYPE svg PUBLIC "-//W3C//DTD SVG 1.1//EN" "http://www.w3.org/Graphics/SVG/1.1/DTD/svg11.dtd">
<!-- Creator: CorelDRAW X8 -->
<svg xmlns="http://www.w3.org/2000/svg" xml:space="preserve" width="86.6986mm" height="86.6986mm" version="1.1" style="shape-rendering:geometricPrecision; text-rendering:geometricPrecision; image-rendering:optimizeQuality; fill-rule:evenodd; clip-rule:evenodd"
viewBox="0 0 8670 8670"
 xmlns:xlink="http://www.w3.org/1999/xlink">
 <defs>
  <style type="text/css">
   <![CDATA[
    .fil0 {fill:#E9505D}
    .fil7 {fill:#F4F4F4}
    .fil3 {fill:#FEFEFE;fill-rule:nonzero}
    .fil1 {fill:#15BDB1;fill-rule:nonzero}
    .fil5 {fill:#F4F4F4;fill-rule:nonzero}
    .fil8 {fill:#F4F4F4;fill-rule:nonzero}
    .fil2 {fill:#FFCA4F;fill-rule:nonzero}
    .fil4 {fill:#FDFDFD;fill-rule:nonzero}
    .fil6 {fill:#FDFDFD;fill-rule:nonzero}
   ]]>
  </style>
 </defs>
 <g id="Layer_x0020_1">
  <metadata id="CorelCorpID_0Corel-Layer"/>
  <circle class="fil0" cx="4466" cy="4272" r="3795"/>
  <path class="fil1" d="M5141 5469c0,0 -135,-63 -107,-165 0,0 73,37 220,-76 147,-113 377,-240 862,-73 518,178 763,771 120,1196 0,0 -19,86 41,162l42 -15c0,0 -8,20 64,126 71,105 240,438 240,438l-1094 0c0,0 -42,-136 34,-263 75,-128 26,-192 -38,-185 -64,8 -339,109 -376,34 -38,-75 11,-132 -34,-154 -45,-23 -36,-59 -14,-70 0,0 -48,-24 -51,-57 -3,-33 47,-35 46,-95 0,0 -111,-45 -134,-87 -22,-41 140,-79 143,-250 4,-171 -65,-269 36,-466z"/>
  <path class="fil2" d="M4060 836c-1052,285 -1675,1370 -1390,2422 193,712 751,1227 1418,1398l452 1259 465 -1245c29,-6 58,-13 87,-21 1053,-285 1676,-1370 1391,-2422 -285,-1053 -1370,-1676 -2423,-1391z"/>
  <g id="_676434023664">
   <path class="fil3" d="M3555 3614c2,-1 239,-81 295,-100 -28,-71 -97,-78 -162,-82l-13 46c-2,7 -9,11 -16,9 -6,-2 -10,-9 -8,-16l11 -40c0,0 -1,0 -1,0 -14,-1 -28,-2 -42,-3l-17 49c-3,7 -10,10 -16,8 -7,-2 -10,-9 -8,-16l15 -43c-15,-1 -31,-3 -45,-5l-24 50c-3,6 -11,9 -17,6 -6,-3 -9,-11 -6,-17l22 -44c-14,-3 -27,-7 -39,-11l-35 48c-4,5 -12,7 -17,3 -6,-4 -7,-12 -3,-18l32 -44c-11,-5 -21,-11 -31,-19 0,0 0,0 0,0l-46 39c-5,4 -13,4 -18,-1 -4,-6 -3,-13 2,-18l43 -36c-10,-9 -18,-17 -26,-27l-51 27c-7,3 -14,0 -17,-6 -3,-6 -1,-14 5,-17l49 -24c-8,-11 -14,-23 -20,-36l-52 20c-7,2 -14,-1 -16,-7 -3,-7 1,-14 7,-16l52 -20c-1,-3 -2,-5 -3,-8 -4,-11 -8,-21 -11,-31l-53 19c-7,2 -14,-2 -16,-8 -2,-7 1,-14 8,-16l53 -18c-6,-20 -10,-31 -10,-31 -16,-46 -22,-65 -55,-74 -27,-7 -63,22 -63,22l-160 99c33,80 47,149 72,259 18,83 43,154 51,177l163 -55c0,0 234,26 237,26z"/>
   <path class="fil3" d="M3885 3597c-15,-13 -34,-26 -34,-26l-47 16c0,0 14,12 35,35 20,23 15,48 -62,74 -76,26 -90,-15 -94,-28 -5,-13 -12,-36 -12,-36l-38 13 16 46c13,38 -28,52 -28,52l-253 86c-53,18 -66,-28 -66,-28l-23 -68 -43 14c0,0 10,28 23,68 14,40 -32,52 -32,52l-49 16 1 52 685 -232c26,-9 51,-25 52,-52 2,-25 -23,-47 -31,-54z"/>
  </g>
  <g id="_676434022288">
   <path class="fil4" d="M5102 1364c-8,7 -16,12 -24,16 -21,20 -48,27 -68,16 -28,-15 -33,-59 -12,-98 7,-13 16,-23 25,-30l72 -109 30 -45c-50,-75 -140,-131 -275,-135 -190,-5 -321,131 -351,282l0 1c-16,85 0,174 56,245 146,188 257,100 345,-5 10,-12 30,-16 44,-12 48,14 147,27 204,-87 16,-32 25,-69 27,-107l-73 68zm-402 -232c33,6 54,38 48,71 -6,33 -38,54 -71,48 -33,-6 -54,-38 -48,-71 6,-32 38,-54 71,-48zm-86 267c-33,-6 -55,-38 -48,-71 6,-33 37,-55 70,-49 33,7 55,38 49,71 -6,33 -38,55 -71,49zm95 141c-33,-6 -55,-38 -49,-71 6,-33 38,-54 71,-48 33,6 55,38 49,71 -6,33 -38,54 -71,48zm119 -367c-33,-7 -55,-38 -49,-71 6,-33 38,-55 71,-49 33,6 55,38 48,71 -6,33 -38,55 -70,49z"/>
   <path class="fil4" d="M5258 1024c-39,-4 -75,28 -75,28l0 0c-2,1 -4,3 -5,4 -33,27 -37,74 -11,106 27,32 74,37 106,11 12,-10 20,-22 24,-36 27,-64 6,-115 6,-115 0,0 -6,7 -45,2z"/>
   <path class="fil4" d="M5017 1370c13,11 39,5 58,-12l89 -83c-31,-14 -57,-40 -73,-60 -2,-2 -3,-3 -5,-5l-66 100c-15,22 -16,48 -3,60z"/>
   <path class="fil4" d="M5159 1169c-10,-12 -16,-26 -19,-40l-30 46c15,22 50,62 88,69l48 -45c-31,7 -65,-3 -87,-30z"/>
  </g>
  <g id="_676434022832">
   <path class="fil5" d="M5662 3428c15,12 21,32 15,51l-36 104 14 20c35,47 79,84 131,107 52,24 109,34 168,29l24 -3 55 -95c10,-16 29,-25 48,-22 80,15 159,-26 192,-101 35,-79 6,-174 -68,-220 -20,-12 -42,-21 -66,-24 -12,-54 -48,-98 -98,-121 -50,-23 -108,-21 -156,5 -18,-16 -39,-27 -62,-34 -83,-26 -174,14 -211,93 -34,74 -14,160 50,211zm122 227c-3,6 -10,9 -16,6 -7,-3 -10,-11 -7,-17l42 -91c3,-6 10,-9 16,-6 7,3 10,10 7,17l-42 91zm68 31c-3,6 -10,9 -16,6 -7,-3 -9,-10 -6,-17l41 -91c3,-6 10,-9 17,-6 6,3 9,10 6,17l-42 91zm110 -89c4,-6 11,-8 17,-5 6,4 8,12 4,18l-53 86c-3,5 -10,7 -15,4 -1,0 -1,0 -2,0 -6,-4 -8,-12 -4,-18l53 -85zm-17 -403c28,-6 91,-3 127,58 4,6 2,14 -4,17 -4,2 -8,2 -12,1 -2,-1 -4,-3 -5,-5 -36,-61 -100,-47 -101,-46 -6,1 -13,-3 -15,-10 -1,-7 3,-13 10,-15zm-196 293c6,2 10,9 8,16l-30 96c-2,7 -9,10 -16,8 0,0 -1,0 -1,0 -6,-3 -9,-9 -7,-15l30 -97c2,-6 9,-10 16,-8zm-57 -263c0,0 54,-69 149,-25 6,3 9,10 6,17 -3,6 -10,8 -17,6 -77,-37 -118,17 -118,17 -4,5 -10,7 -15,4 -1,0 -2,-1 -3,-1 -5,-4 -6,-12 -2,-18z"/>
   <path class="fil5" d="M5945 3756c-64,6 -124,-5 -181,-30 -56,-26 -103,-65 -141,-116l-4 -6 -10 31c-5,14 -1,30 10,50 1,1 3,3 4,4 2,3 4,6 6,8 4,7 8,10 8,10 29,32 63,57 102,75 39,17 80,27 123,28 0,0 5,0 13,0 3,0 6,-1 10,-1 2,0 4,0 5,-1 23,-3 38,-12 45,-24l16 -29 -6 1z"/>
  </g>
  <g id="_676434017552">
   <path class="fil6" d="M4169 4040c60,20 131,-30 158,-111 27,-81 0,-163 -60,-183 -61,-20 -132,29 -159,110 -27,81 0,164 61,184z"/>
   <path class="fil6" d="M4446 4291c-1,-4 -2,-8 -3,-11 -7,-60 -53,-144 -161,-182l-5 -1c-107,-36 -193,0 -238,46 -1,2 -4,4 -7,5 -4,3 -7,5 -10,7 -35,28 -59,64 -70,101 -11,39 -5,76 17,103 9,11 19,18 32,23 26,8 55,2 88,-6 22,-5 43,-10 66,-12 3,0 13,2 28,7 18,6 30,12 33,14 17,15 30,32 43,49 20,25 39,49 65,58 12,4 24,4 36,2 68,-13 108,-99 90,-190 -1,-4 -2,-9 -4,-13z"/>
   <path class="fil6" d="M4402 4117c60,20 131,-29 158,-111 27,-81 0,-163 -60,-183 -61,-20 -132,30 -159,111 -27,81 0,163 61,183z"/>
   <path class="fil6" d="M4607 4101c-49,-16 -103,22 -125,86 -21,64 0,127 49,143 48,16 103,-21 124,-86 21,-64 0,-126 -48,-143z"/>
   <path class="fil6" d="M4071 4050c22,-64 1,-127 -48,-143 -48,-16 -103,22 -124,86 -21,64 0,127 48,143 49,16 103,-22 124,-86z"/>
  </g>
  <path class="fil7" d="M4168 1979c-151,-80 -216,-67 -248,-53 -53,21 -78,75 -83,96 -5,24 2,49 -5,72 -9,27 -29,56 -56,67 -21,10 -50,10 -73,23 -30,16 -78,46 -83,111 -1,15 -1,132 161,303 9,9 18,18 27,25l1 1c87,73 157,48 154,49 24,-6 73,-25 83,-97 6,-48 -11,-107 -11,-107 0,0 -12,-29 -9,-52 3,-16 21,-28 21,-28l48 -57c0,0 13,-20 29,-28 16,-8 35,-4 35,-4 0,0 79,3 134,-12 24,-6 87,-58 75,-122 -5,-25 -31,-64 -79,-106l-14 -12c-29,-23 -65,-47 -107,-69zm-266 294c10,8 11,22 3,32l-36 43 44 37c10,8 11,22 3,31l-11 13c-8,10 -22,11 -32,3l-44 -37 -36 43c-8,10 -22,11 -32,3l-13 -11c-10,-9 -11,-23 -3,-32l36 -43 -44 -37c-10,-8 -11,-23 -3,-32l11 -13c8,-10 22,-11 32,-3l44 37 36 -43c8,-9 22,-10 32,-2l13 11zm163 -70c-15,18 -42,20 -60,5 -18,-16 -21,-42 -6,-60 15,-18 42,-20 60,-5 18,15 21,42 6,60zm-23 -121c-15,18 -42,20 -60,5 -18,-15 -20,-41 -6,-59 15,-18 42,-20 60,-5 18,15 20,42 6,59z"/>
  <g id="_676418940864">
   <path class="fil6" d="M4205 2789l0 0c-9,0 -19,3 -25,10 -7,7 -11,16 -11,26l0 550c0,20 16,36 36,36 86,0 229,18 327,121l0 -575c0,-6 -2,-13 -5,-18 -81,-130 -236,-150 -322,-150z"/>
   <path class="fil6" d="M4952 3375l0 -550c0,-10 -3,-19 -10,-26 -7,-7 -16,-10 -26,-10l0 0c-86,0 -241,20 -322,150 -3,5 -5,12 -5,18l0 575c99,-103 241,-121 327,-121 20,0 36,-16 36,-36z"/>
   <path class="fil6" d="M5036 2915l-27 0 0 460c0,51 -42,93 -93,93 -72,0 -192,14 -276,94 146,-35 300,-12 388,8 11,2 22,0 31,-7 8,-7 13,-18 13,-29l0 -582c1,-20 -16,-37 -36,-37z"/>
   <path class="fil6" d="M4112 3375l0 -460 -27 0c-20,0 -36,17 -36,37l0 582c0,11 5,22 14,29 8,7 20,9 31,7 87,-20 241,-43 387,-8 -84,-80 -203,-94 -276,-94 -51,0 -93,-42 -93,-93z"/>
  </g>
  <g id="_676418940352">
   <path class="fil8" d="M5772 1861c-79,0 -144,65 -144,144 0,80 65,144 144,144 80,0 144,-64 144,-144 0,-79 -64,-144 -144,-144z"/>
   <path class="fil8" d="M6075 1801l-103 0 -48 -120 -304 0 -48 120 -16 0 0 -60 -72 0 0 60 -14 0c-32,0 -58,26 -58,58l0 352c0,32 26,58 58,58l604 0c32,0 58,-26 58,-58l0 -352c0,-32 -26,-58 -57,-58zm-543 0l-24 0 0 -36 24 0 0 36zm240 420c-119,0 -216,-97 -216,-216 0,-119 97,-216 216,-216 119,0 216,97 216,216 0,119 -97,216 -216,216zm264 -276c-26,0 -48,-21 -48,-48 0,-26 22,-48 48,-48 27,0 48,22 48,48 0,27 -21,48 -48,48z"/>
  </g>
  <path class="fil6" d="M4031 1307c-69,-48 -160,-51 -241,-48 -80,3 -111,25 -144,80 -9,-5 -17,-9 -27,-10 -15,-1 -30,6 -41,16 -4,-5 -8,-10 -13,-15 -27,-35 -68,-55 -112,-63 -20,-3 -29,26 -9,30 47,8 84,28 108,69 -13,11 -22,26 -22,46 -1,25 3,48 19,63 -62,69 -108,151 -158,230 -5,7 -3,14 3,19 22,89 74,163 119,243 5,8 14,10 23,7 118,-48 233,-103 347,-162 75,-38 165,-68 234,-119 25,-18 23,-51 20,-78 -12,-97 -87,-178 -99,-278 -1,-2 -1,-4 -2,-6 5,-8 3,-19 -5,-24zm-465 180c2,1 3,2 5,2 57,23 128,-34 116,-94 -2,-10 -7,-20 -13,-30 42,-62 90,-71 175,-70 42,0 83,8 123,19 41,11 -61,81 -64,84 -139,112 -302,193 -461,275 40,-62 81,-123 119,-186zm500 197c-36,20 -77,35 -113,53 -115,58 -228,118 -345,171 -52,23 -90,1 -120,-39 121,-22 256,-81 366,-137 81,-41 164,-75 245,-114 4,26 -2,49 -33,66zm-27 -213c-3,-1 -6,-1 -9,0 -18,0 -37,9 -50,20 -1,1 -2,2 -3,3 -87,32 -180,111 -253,144 -43,20 -156,54 -226,100 -2,0 -4,0 -7,0 -20,4 -38,13 -56,23 -2,1 -4,2 -5,4 -6,-14 -12,-27 -18,-39 206,-109 416,-212 592,-366 7,39 20,75 35,111z"/>
  <path class="fil8" d="M3392 2202c-10,-8 -24,-11 -36,-8l-362 85c-19,5 -32,22 -32,42l0 305c-15,-4 -28,-7 -43,-7 -71,0 -128,57 -128,128 0,70 57,128 127,128 71,0 128,-58 128,-128l0 -243 277 -66 0 146c-14,-5 -28,-8 -43,-8 -70,0 -128,58 -128,128 0,71 58,128 128,128 71,0 128,-57 128,-128l0 -468c0,-13 -6,-26 -16,-34zm-346 214l0 -62 277 -65 0 62 -277 65z"/>
  <path class="fil6" d="M5718 2608c-1,1 -1,2 -2,2l-116 -105 19 -16c6,-5 8,-12 8,-19 0,-7 -4,-14 -10,-18l-58 -38c-8,-6 -19,-5 -27,2l-76 64c-10,8 -11,23 -3,32 8,10 23,11 32,3l64 -54 18 13 -16 13c-5,5 -9,10 -9,17 0,7 3,13 8,17l48 44 -187 209 -23 -14 18 -33c5,-10 3,-22 -6,-29 -8,-7 -20,-6 -29,1l-86 72c-13,12 -15,32 -4,45 18,21 49,23 69,6 5,-4 8,-8 11,-13 0,0 0,0 0,-1l5 -8 20 12c0,0 0,0 0,0l5 102c-28,5 -55,17 -78,36 -40,32 -64,77 -68,128 -3,46 12,91 41,127l2 2c1,1 2,2 3,3 63,70 170,79 243,20 2,-1 3,-2 5,-3 37,-32 59,-77 63,-125 2,-39 -7,-77 -29,-110l24 -20c23,8 49,5 69,-12 30,-25 33,-69 9,-98 -11,-13 -26,-21 -42,-24l10 -233 43 39c-44,65 -42,153 11,216 63,75 176,85 252,21 75,-63 85,-176 21,-252 -64,-75 -177,-85 -252,-21zm-121 27l-9 211c-4,2 -8,4 -12,8 -5,4 -9,8 -12,13l-113 -69 146 -163zm-164 205l118 72c1,11 5,23 10,31l-17 14c-30,-26 -69,-43 -108,-46l-3 -71zm5 117c26,3 51,14 70,30l-65 55 -5 -85zm118 142c-2,37 -20,72 -50,96 -55,43 -135,36 -182,-16 -24,-27 -36,-62 -34,-98 3,-36 20,-69 47,-93 2,-1 3,-2 4,-3 16,-12 34,-21 53,-25l5 93c-1,1 -3,2 -4,3 -19,16 -21,45 -5,63 16,19 44,21 63,5 13,-11 18,-26 15,-43l70 -59c14,23 20,49 18,77zm363 -252c-56,47 -140,40 -187,-16 -39,-45 -42,-109 -12,-156l97 87c8,8 21,8 29,1 1,-1 2,-2 3,-3 8,-9 7,-23 -2,-32l-97 -87c56,-45 139,-38 185,18 48,56 41,140 -16,188z"/>
  <path class="fil6" d="M5236 2076c0,161 -119,296 -274,319 1,-7 1,-14 0,-22 0,0 0,-8 -2,-18 55,-9 105,-35 145,-71 -3,-2 -5,-5 -7,-8 -11,-15 3,-30 3,-44 0,-13 -27,-12 -28,-20 -3,-30 19,-31 30,-43 12,-11 -11,-38 -26,-36 -15,2 -57,-7 -53,-39 4,-40 -51,-36 -58,-54 -12,-27 7,-60 32,-68 35,-10 70,-39 67,-71 -3,-36 -19,-69 -46,-88 -28,-11 -59,-18 -90,-20 -29,1 -53,7 -52,20 2,32 93,40 78,70 -8,15 -68,37 -57,60 8,15 25,2 19,31 -3,13 -15,38 -33,40 -18,1 -33,-47 -83,-49 -23,0 -56,37 -28,63 17,16 49,-19 58,9 7,19 -1,60 30,77 11,6 29,12 46,20 -26,6 -57,15 -94,29l-31 -8c13,-11 34,-18 29,-42 -8,-34 -68,-21 -109,-63 -13,-13 -40,-55 -40,-106 -21,39 -33,84 -33,132 0,14 1,29 3,43 0,0 -1,0 -1,0 -13,0 -26,2 -38,8 -2,-17 -4,-34 -4,-51 0,-179 145,-324 324,-324 178,0 323,145 323,324zm-243 94l-79 36 2 -17 51 -23c-7,-1 -15,-1 -23,-1 -28,0 -76,15 -128,36l-170 -45c-16,-4 -33,-2 -47,7l-8 5c-8,5 -8,17 0,22l102 66c-24,13 -48,26 -68,38l-52 -28c-9,-5 -19,-5 -28,-2l-5 2c-5,3 -8,7 -8,13l0 0c0,2 1,4 2,6l28 51 1 0c-11,10 -18,17 -18,23 0,16 20,20 38,20 31,0 441,-94 441,-179 0,-17 -12,-25 -31,-30zm-173 166l91 -32c4,-1 8,2 8,6l8 67c2,17 -7,34 -22,41l-9 4c-5,2 -11,1 -15,-3l-63 -72c-3,-4 -2,-9 2,-11z"/>
  <path class="fil1" d="M3917 5484c0,0 136,-63 108,-165 0,0 -74,37 -221,-76 -146,-113 -376,-240 -861,-73 -518,178 -764,771 -121,1196 0,0 19,86 -41,162l-41 -15c0,0 7,20 -64,126 -72,105 -241,438 -241,438l1095 0c0,0 41,-135 -34,-263 -75,-128 -26,-192 38,-185 64,8 338,109 376,34 37,-75 -12,-132 34,-154 45,-23 35,-58 14,-70 0,0 48,-24 51,-57 2,-33 -47,-35 -47,-95 0,0 111,-45 134,-87 23,-41 -139,-79 -143,-250 -4,-171 66,-269 -36,-466z"/>
  <g id="_676418933120">
   <path class="fil6" d="M5567 4026c-22,-26 -56,-40 -101,-41 -1,-11 -10,-19 -21,-19l-429 0c-12,0 -21,9 -21,21l0 249c0,49 27,93 72,115 -2,5 -4,11 -4,16 0,23 19,42 42,42l251 0c23,0 42,-19 42,-42 0,-5 -2,-11 -4,-16 38,-19 64,-54 70,-94 37,-8 68,-29 92,-62 21,-31 28,-61 29,-64l0 -1c3,-12 4,-23 4,-34l0 -4c0,-26 -8,-48 -22,-66zm-45 91c0,2 -5,21 -19,40 -10,15 -23,26 -37,32l0 -140c16,1 40,4 51,18 8,10 10,27 5,50z"/>
   <path class="fil6" d="M5136 3725c35,4 70,5 100,5 10,0 20,0 30,0 15,0 30,0 45,0l2 0c4,0 9,0 13,0 5,0 10,-1 15,-1 -9,2 -21,4 -31,6 -20,4 -41,8 -57,11l-2 1c-30,7 -75,17 -89,49 -6,13 -5,27 1,39 7,13 19,22 33,24 5,1 11,2 16,2 10,0 19,-1 28,-3 47,-9 47,3 47,5 0,7 -15,21 -22,27 -1,1 -2,2 -3,3 -2,2 -4,4 -6,6 -13,11 -32,28 -29,46 0,2 2,3 4,3 0,0 0,0 0,0 2,0 4,-1 4,-4 1,-7 8,-13 15,-19 6,-5 13,-10 19,-14 3,-2 6,-4 9,-6l0 0c12,-9 32,-24 35,-41 1,-7 -1,-14 -5,-20 -13,-18 -36,-19 -57,-19l-2 0c-3,0 -7,0 -11,0 -4,0 -7,0 -11,0 -7,0 -12,0 -17,-1 -10,-1 -13,-6 -11,-10 7,-11 41,-21 102,-29 4,-1 6,-1 8,-1 4,-1 7,-2 11,-2 22,-3 44,-7 66,-13 38,-11 45,-31 44,-45 0,0 0,0 0,0l0 0 0 -1c0,0 0,0 0,-1 0,0 0,0 0,0l0 0c0,0 0,0 0,0l0 0c-2,-15 -12,-27 -29,-34 -24,-9 -52,-9 -77,-9l-7 0c-21,-1 -43,0 -64,0 -18,1 -37,1 -56,1 -19,0 -35,0 -50,-1 -12,-1 -26,-2 -40,-4 -10,-2 -23,-5 -32,-12 -7,-6 1,-20 6,-26 16,-20 43,-28 68,-34 22,-5 47,-7 78,-8 19,0 38,0 57,1 0,0 0,1 0,1 0,0 0,0 0,0 2,0 4,-2 4,-5 0,-2 -1,-4 -3,-4 -35,-10 -72,-15 -108,-15 -11,0 -22,0 -32,1 -41,4 -93,19 -110,66 -6,16 -6,31 2,43 17,27 63,38 99,42z"/>
  </g>
 </g>
</svg>
