<?xml version="1.0" encoding="UTF-8" standalone="no"?>
<svg width="150px" height="150px" viewBox="0 0 150 150" version="1.1" xmlns="http://www.w3.org/2000/svg" xmlns:xlink="http://www.w3.org/1999/xlink">
    <!-- Generator: Sketch 40 (33762) - http://www.bohemiancoding.com/sketch -->
    <title>hourglass</title>
    <desc>Created with Sketch.</desc>
    <defs></defs>
    <g id="LandingPage" stroke="none" stroke-width="1" fill="none" fill-rule="evenodd">
        <g id="Page" transform="translate(-1125.000000, -2634.000000)">
            <g id="hourglass" transform="translate(1125.000000, 2634.000000)">
                <g id="Layer_1">
                    <path d="M75,0 C116.421387,0 150,33.5786133 150,75 C150,116.421387 116.421387,150 75,150 C33.5786133,150 0,116.421387 0,75 C0,33.5786133 33.5786133,0 75,0 L75,0 Z" id="Shape" fill="#FFCA4F"></path>
                    <path d="M76.6813477,31.1288086 C70.6297852,71.6449219 96.4614258,61.4466797 97.7378906,71.2239258 L97.7378906,83.5798828 C96.4614258,93.3577148 70.6297852,83.1594727 76.6813477,123.675879 L102.27627,123.675879 L127.87207,123.675879 C133.923047,83.1597656 108.090527,93.3580078 106.815527,83.5798828 L106.815527,71.2239258 C108.090527,61.4469727 133.922754,71.6449219 127.87207,31.1288086 L102.27627,31.1288086 L76.6813477,31.1288086 L76.6813477,31.1288086 Z" id="Shape" fill="#20D0C2"></path>
                    <path d="M106.816406,76.5714844 L106.816406,71.2239258 C108.091406,61.4469727 133.923633,71.6449219 127.872949,31.1288086 L122.653711,31.1288086 C122.653711,31.1288086 133.34209,58.7211914 111.192773,64.5369141 C105.240234,66.0999023 105.85957,70.3256836 105.864258,76.5717773 L105.864258,76.8430664 C105.851953,83.0291016 105.27627,87.3234375 111.192773,88.8755859 C133.34209,94.6913086 122.653711,123.675879 122.653711,123.675879 L127.872949,123.675879 C133.923926,83.1597656 108.091406,91.9661133 106.816406,82.1882812 L106.816406,76.8427734 L106.816406,76.5714844 L106.816406,76.5714844 Z" id="Shape" fill="#15BDB1"></path>
                    <g id="Group" transform="translate(51.269531, 43.945312)" fill="#FFFFFF">
                        <path d="M29.0135742,0.244042969 C28.2527344,7.65351563 29.2180664,11.7125977 34.8890625,16.1510742 C39.2071289,19.5316406 45.5929687,19.7220703 49.2421875,23.953125 C50.4193359,24.8267578 51.5953125,24.7854492 52.7724609,23.953125 C56.4219727,19.7220703 62.8069336,19.5313477 67.1255859,16.1501953 C72.796875,11.7117187 73.7613281,7.65263672 73.0004883,0.243164062 L29.0135742,0.243164062 L29.0135742,0.244042969 L29.0135742,0.244042969 Z M51.084375,25.9397461 L51.084375,25.9397461 C52.0942383,25.9397461 52.9133789,26.7588867 52.9133789,27.76875 C52.9133789,28.7786133 52.0942383,29.596875 51.084375,29.596875 C50.0745117,29.596875 49.25625,28.7777344 49.25625,27.76875 C49.25625,26.7588867 50.0753906,25.9397461 51.084375,25.9397461 L51.084375,25.9397461 Z M51.084375,41.8954102 L51.084375,41.8954102 C52.0942383,41.8954102 52.9133789,42.7145508 52.9133789,43.7244141 C52.9133789,44.7333984 52.0942383,45.5525391 51.084375,45.5525391 C50.0745117,45.5525391 49.25625,44.7333984 49.25625,43.7244141 C49.25625,42.7145508 50.0753906,41.8954102 51.084375,41.8954102 L51.084375,41.8954102 Z M51.084375,36.5768555 L51.084375,36.5768555 C52.0942383,36.5768555 52.9133789,37.3959961 52.9133789,38.4049805 C52.9133789,39.4148438 52.0942383,40.2339844 51.084375,40.2339844 C50.0745117,40.2339844 49.25625,39.4148438 49.25625,38.4049805 C49.25625,37.3951172 50.0753906,36.5768555 51.084375,36.5768555 L51.084375,36.5768555 Z M51.084375,31.2583008 L51.084375,31.2583008 C52.0942383,31.2583008 52.9133789,32.0774414 52.9133789,33.0864258 C52.9133789,34.0962891 52.0942383,34.9154297 51.084375,34.9154297 C50.0745117,34.9154297 49.25625,34.097168 49.25625,33.0864258 C49.25625,32.0768555 50.0753906,31.2583008 51.084375,31.2583008 L51.084375,31.2583008 Z M29.8743164,74.6586914 L29.8743164,74.6586914 L72.140332,74.6586914 C67.4794922,38.0493164 34.4736328,37.6535156 29.8743164,74.6586914 L29.8743164,74.6586914 Z" id="Shape"></path>
                        <path d="M18.0178711,28.2591797 C18.7341797,28.4789063 19.4203125,28.7648438 20.0704102,29.1105469 L22.8046875,27.2124023 L26.8268555,31.2345703 L24.928125,33.9688477 C25.2738281,34.6189453 25.5597656,35.305957 25.7794922,36.0213867 L29.0540039,36.6114258 L29.0540039,42.2988281 L25.7794922,42.8888672 C25.5597656,43.6051758 25.2738281,44.2913086 24.9272461,44.9422852 L26.8259766,47.6756836 L22.8038086,51.6969727 L20.0704102,49.7982422 C19.4194336,50.1448242 18.7333008,50.4307617 18.0169922,50.6504883 L17.4269531,53.925 L11.7395508,53.925 L11.1495117,50.6504883 C10.4332031,50.4313477 9.74707031,50.1448242 9.09609375,49.7982422 L6.36269531,51.6963867 L2.34140625,47.6750977 L4.24013672,44.9416992 C3.89443359,44.2907227 3.60761719,43.6045898 3.38876953,42.8876953 L0.114257812,42.2976563 L0.114257812,36.609668 L3.38876953,36.0196289 C3.60791016,35.3033203 3.89443359,34.6163086 4.24013672,33.9662109 L2.34140625,31.2328125 L6.36269531,27.2106445 L9.09609375,29.109375 C9.74707031,28.7636719 10.4332031,28.4777344 11.1495117,28.2580078 L11.7395508,24.9834961 L17.4269531,24.9834961 L18.0169922,28.2580078 L18.0178711,28.2591797 L18.0178711,28.2591797 Z M14.5833984,33.3799805 L14.5833984,33.3799805 C11.2283203,33.3799805 8.50869141,36.0996094 8.50869141,39.4546875 C8.50869141,42.8097656 11.2283203,45.5293945 14.5833984,45.5293945 C17.9384766,45.5293945 20.6581055,42.8097656 20.6581055,39.4546875 C20.6581055,36.1004883 17.9384766,33.3799805 14.5833984,33.3799805 L14.5833984,33.3799805 Z" id="Shape"></path>
                    </g>
                    <path d="M40.6652344,35.0223633 C41.4852539,35.1861328 42.2874023,35.4020508 43.0666992,35.6648437 L46.6655273,30.8381836 L52.087793,33.9688477 L49.7047852,39.5033203 C50.3255859,40.0505859 50.9126953,40.6376953 51.4599609,41.2584961 L56.9944336,38.8763672 L60.1250977,44.2977539 L55.2993164,47.896582 C55.5621094,48.6758789 55.7780273,49.4780273 55.9417969,50.2989258 L61.9212891,51.0020508 L61.9212891,57.262793 L55.9417969,57.965918 C55.7780273,58.7865234 55.5629883,59.5889648 55.2993164,60.3682617 L60.1250977,63.9662109 L56.9944336,69.3884766 L51.4599609,67.0054687 C50.9126953,67.6271484 50.3255859,68.2133789 49.7047852,68.7606445 L52.0869141,74.2951172 L46.6655273,77.4257812 L43.0666992,72.5991211 C42.2874023,72.8619141 41.4858398,73.077832 40.6652344,73.2416016 L39.9621094,79.2216797 L33.7013672,79.2216797 L32.9982422,73.2421875 C32.1776367,73.078418 31.3751953,72.8625 30.5958984,72.5991211 L26.9979492,77.4249023 L21.5765625,74.2942383 L23.9586914,68.7597656 C23.3370117,68.2125 22.7507813,67.6262695 22.2035156,67.0037109 L16.669043,69.3867187 L13.5383789,63.965332 L18.3650391,60.3665039 C18.1022461,59.587207 17.8863281,58.7856445 17.7225586,57.9650391 L11.7424805,57.2610352 L11.7424805,51.0011719 L17.7219727,50.297168 C17.8857422,49.4765625 18.1016602,48.675 18.3650391,47.8948242 L13.5395508,44.296875 L16.6702148,38.8746094 L22.2046875,41.2576172 C22.7519531,40.6368164 23.3381836,40.049707 23.9607422,39.5024414 L21.5777344,33.9679687 L26.9991211,30.8373047 L30.5979492,35.6639648 C31.3772461,35.4011719 32.1788086,35.1852539 32.9994141,35.0214844 L33.703418,29.0414062 L39.9632813,29.0414062 L40.6672852,35.0214844 L40.6652344,35.0223633 L40.6652344,35.0223633 Z M36.8314453,41.2148438 L36.8314453,41.2148438 C29.6979492,41.2148438 23.9144531,46.9983398 23.9144531,54.1318359 C23.9144531,61.265332 29.6979492,67.0488281 36.8314453,67.0488281 C43.9649414,67.0488281 49.7484375,61.265332 49.7484375,54.1318359 C49.7484375,46.9983398 43.9649414,41.2148438 36.8314453,41.2148438 L36.8314453,41.2148438 Z" id="Shape" fill="#20D0C2"></path>
                    <path d="M36.8314453,38.2930664 C45.5789063,38.2930664 52.6702148,45.3852539 52.6702148,54.1318359 C52.6702148,62.8798828 45.5780273,69.9706055 36.8314453,69.9706055 C28.0833984,69.9706055 20.9926758,62.8801758 20.9926758,54.1318359 C20.9926758,45.384375 28.0833984,38.2930664 36.8314453,38.2930664 L36.8314453,38.2930664 Z" id="Shape" fill="#FFFFFF"></path>
                    <path d="M23.1474609,53.6068359 L26.4287109,53.6068359 L26.4287109,54.6574219 L23.146875,54.6574219 L23.1477539,53.60625 L23.1477539,53.6068359 L23.1474609,53.6068359 Z M50.5145508,54.6574219 L50.5145508,54.6574219 L47.2324219,54.6574219 L47.2324219,53.6068359 L50.5145508,53.6068359 L50.5145508,54.6574219 L50.5145508,54.6574219 Z M36.3049805,67.8158203 L36.3049805,67.8158203 L36.3049805,64.5345703 L37.3555664,64.5345703 L37.3555664,67.8166992 L36.3049805,67.8158203 L36.3049805,67.8158203 Z M37.3555664,40.4484375 L37.3555664,40.4484375 L37.3555664,43.7305664 L36.3049805,43.7305664 L36.3049805,40.4484375 L37.3555664,40.4484375 L37.3555664,40.4484375 Z" id="Shape" fill="#0E7886"></path>
                    <path d="M36.8176758,45.675 C37.2257813,45.675 37.5591797,46.0092773 37.5591797,46.4173828 L37.5591797,53.6293945 L44.7711914,53.6293945 C45.1798828,53.6293945 45.5135742,53.962793 45.5135742,54.3717773 C45.5135742,54.7804688 45.1792969,55.1141602 44.7711914,55.1141602 L36.8176758,55.1141602 L36.8176758,54.3717773 L36.074707,54.3717773 L36.074707,46.4179688 C36.074707,46.0092773 36.4089844,45.6755859 36.8176758,45.6755859 L36.8176758,45.675 L36.8176758,45.675 Z" id="Shape" fill="#FF5B61"></path>
                    <g id="Group" transform="translate(35.156250, 27.539062)" fill="#0E7886">
                        <path d="M1.67519531,25.1472656 C2.47353516,25.1472656 3.12070313,25.7944336 3.12070313,26.5927734 C3.12070313,27.3911133 2.47353516,28.0391602 1.67519531,28.0391602 C0.876855469,28.0391602 0.229101563,27.3919922 0.229101563,26.5927734 C0.228808594,25.7941406 0.875976563,25.1472656 1.67519531,25.1472656 L1.67519531,25.1472656 Z" id="Shape"></path>
                        <path d="M27.1133789,0.187792969 L107.126953,0.187792969 L107.126953,3.58974609 L100.913965,3.58974609 L100.913965,96.1359375 L107.126953,96.1359375 L107.126953,99.5378906 L27.1133789,99.5378906 L27.1133789,96.1359375 L33.3263672,96.1359375 L33.3263672,3.58974609 L27.1133789,3.58974609 L27.1133789,0.187792969 L27.1133789,0.187792969 Z M97.8855469,3.58974609 L97.8855469,3.58974609 L36.3541992,3.58974609 L36.3541992,96.1359375 L97.8855469,96.1359375 L97.8855469,3.58974609 L97.8855469,3.58974609 Z" id="Shape"></path>
                    </g>
                </g>
            </g>
        </g>
    </g>
</svg>