<?xml version="1.0" encoding="UTF-8" standalone="no"?>
<svg width="150px" height="150px" viewBox="0 0 150 150" version="1.1" xmlns="http://www.w3.org/2000/svg" xmlns:xlink="http://www.w3.org/1999/xlink">
    <!-- Generator: Sketch 40 (33762) - http://www.bohemiancoding.com/sketch -->
    <title>travel</title>
    <desc>Created with Sketch.</desc>
    <defs></defs>
    <g id="LandingPage" stroke="none" stroke-width="1" fill="none" fill-rule="evenodd">
        <g id="Page" transform="translate(-165.000000, -2634.000000)">
            <g id="travel" transform="translate(165.000000, 2634.000000)">
                <g id="Layer_1">
                    <path d="M75,150 C116.30918,150 150,116.307715 150,75 C150,33.6908203 116.30918,0 75,0 C33.6908203,0 0,33.6922852 0,75 C0,116.307715 33.6922852,150 75,150 L75,150 Z" id="Shape" fill="#FF757C"></path>
                    <path d="M75,37.3957031 C111.660937,37.3957031 141.377637,67.1135742 141.377637,103.77334 C141.377637,106.075195 141.259863,108.34834 141.03252,110.589258 C128.35752,134.055762 103.542187,150 75,150 C46.4578125,150 21.6436523,134.057227 8.96865234,110.590723 C8.73984375,108.349805 8.62236328,106.075195 8.62236328,103.773633 C8.62236328,67.1124023 38.3416992,37.3957031 75,37.3957031 L75,37.3957031 Z" id="Shape" fill="#0E7886"></path>
                    <path d="M116.471484,51.9477539 C128.814844,61.8380859 137.549707,76.0420898 140.384473,92.278418 C140.184082,91.9713867 139.979883,91.5679688 139.774219,90.9700195 C138.477832,91.3948242 138.435937,91.4299805 136.905469,91.6845703 L136.837793,91.7780273 C136.229004,92.6455078 136.868848,92.2787109 135.798633,93.1825195 C134.525391,94.2541992 133.695703,95.7169922 132.272168,96.5844727 C132.100195,98.1 132.398145,98.4410156 132.016406,100.243359 C131.867578,100.907813 131.123437,102.694043 130.251855,102.558691 C129.975879,102.507129 128.806641,99.6143555 128.530664,98.8145508 C128.0625,97.453418 127.531934,96.4491211 127.192383,94.8834961 C127.00166,94.0485352 126.873047,92.4492188 126.682324,91.8875977 C125.768848,92.0229492 125.80957,92.6033203 124.937988,91.9904297 C124.322168,91.546582 124.599609,91.2758789 124.257422,90.6114258 C123.536133,89.9308594 122.791992,89.250293 122.049023,88.5694336 C121.473926,88.3828125 119.264355,88.7047852 118.327734,88.603125 C116.649902,88.4487305 116.502246,88.5515625 115.503809,87.2080078 C113.738086,87.2947266 113.888086,87.95625 112.16543,86.4758789 C111.039551,85.5231445 111.251953,83.9915039 109.616016,84.8589844 C109.553906,86.2541016 110.233008,86.5625977 110.848828,87.2080078 C111.294141,87.7019531 111.847559,88.0415039 112.080176,88.7044922 C112.101855,88.7235352 112.208789,89.3513672 112.230469,89.4366211 C113.824512,89.5394531 114.205957,88.7748047 115.077539,88.1282227 C115.928613,88.9265625 115.099219,89.0645508 116.332031,89.6923828 C117.309082,90.1875 117.118359,89.8980469 117.754102,90.6963867 C118.073437,91.7680664 115.567383,94.6787109 114.736523,95.2063477 C114.099316,95.6150391 113.760937,95.3768555 113.18584,95.8505859 C112.335938,96.5677734 113.292773,96.4649414 111.805664,97.0089844 C110.211621,97.5881836 108.637793,98.812793 106.959961,98.915625 C106.59873,97.9265625 106.2375,96.9251953 105.875977,95.9211914 C104.8125,92.5004883 104.855566,93.8279297 103.77041,92.0578125 C103.260352,91.2905273 103.472754,90.7980469 103.133203,90.1174805 C102.897656,89.6074219 102.539062,89.3853516 102.218555,88.7575195 C101.730176,87.787207 101.157715,86.2731445 100.030371,86.4260742 C99.7962891,87.1907227 101.070996,89.7779297 101.388867,90.4069336 C101.708203,91.0374023 102.218262,91.3095703 102.36709,92.2119141 C102.579492,93.4526367 102.325195,93.2985352 103.004297,94.1320313 C104.429297,95.8491211 102.940723,95.5447266 105.151758,97.228125 C106.80791,98.4893555 106.38457,98.8625977 107.085352,100.548633 C108.169336,100.853027 111.399316,99.4092773 111.949805,99.834082 C112.608691,101.007129 111.186621,102.878613 110.825391,103.900195 C109.634473,107.320898 107.552051,107.270801 105.958008,109.890527 C105.087891,111.304688 104.683301,111.491309 103.875586,113.193457 C102.960937,115.116211 105.723926,120.442383 104.067773,122.673633 C103.706543,123.18252 102.537305,123.489551 101.071875,125.039063 C99.5197266,126.722461 101.11377,126.43418 100.518457,129.240527 C100.051758,129.887402 99.477832,129.921094 98.9041992,130.38252 C98.6917969,131.044336 98.8623047,131.570508 98.4996094,132.389355 C98.1166992,133.375781 98.0542969,132.848145 97.499707,133.649121 C97.096582,134.276953 97.1396484,134.532715 96.6714844,135.111914 C96.2683594,135.641016 96.0544922,135.791309 95.6742187,136.133496 C93.8244141,137.835645 89.850293,137.885742 89.5107422,137.647559 C88.5744141,136.849219 89.2130859,136.644727 88.9801758,135.521777 C88.752832,134.533887 88.2292969,133.707129 87.7921875,132.94541 L87.7476562,132.866895 C87.5364258,132.493359 87.3445313,132.134766 87.2375977,131.79375 C86.4717773,129.377051 86.7492188,127.542188 85.4109375,125.090332 C83.7316406,121.923926 86.3446289,120.274512 86.2376953,118.486816 C86.1958008,118.010449 86.0264648,117.720996 85.9819336,117.345996 C85.6640625,115.37168 85.4745117,113.603027 84.1564453,112.053809 C82.7100586,110.37041 82.9019531,110.964551 83.3689453,108.191895 C83.9630859,105.009375 82.6042969,105.825293 80.690918,105.741211 C79.7545898,102.849609 77.9264648,104.259375 76.0998047,105.111914 C74.9510742,105.638379 74.5274414,104.958984 73.2298828,105.145605 C70.3394531,105.536719 72.6140625,106.780078 68.7454102,103.716797 C67.1296875,102.439453 68.2136719,103.086328 67.2583008,101.486719 C66.9404297,100.90752 65.9619141,100.143164 65.5139648,99.5625 C64.0485352,97.725 65.7914063,95.8696289 65.5356445,93.7602539 C65.0891602,89.8456055 64.4516602,93.2487305 66.6413086,88.5181641 C67.7900391,85.9998047 69.5317383,85.9836914 69.9796875,84.8592773 C70.3625977,83.8564453 70.1068359,83.1407227 70.8295898,82.2219727 C71.4667969,81.4737305 72.3817383,81.6266602 72.7429688,80.4521484 C73.2530273,79.0057617 72.2748047,78.8203125 71.2125,78.7836914 C70.7671875,77.2696289 70.7671875,77.6428711 71.1055664,76.2477539 C71.2977539,75.4643555 71.1272461,75.0893555 71.2977539,74.3074219 C71.7225586,72.3506836 75.0594727,74.2913086 76.0163086,73.4900391 C76.4616211,72.656543 76.5263672,71.840625 76.0163086,71.0393555 C75.4831055,70.2395508 74.7834961,70.3412109 74.4222656,69.5765625 C75.2299805,69.0325195 74.634668,69.5088867 75.3357422,69.3547852 C76.1639648,69.1681641 76.0570313,68.9285156 77.0352539,68.7430664 C77.9080078,68.5710938 78.4614258,67.7727539 79.3098633,67.2290039 C80.5209961,66.4456055 79.9470703,65.7459961 81.4139648,65.5104492 C83.7726563,65.1005859 82.2421875,65.1694336 82.4991211,62.9733398 C82.8591797,62.8379883 83.1987305,62.6824219 83.5382813,62.530957 C84.2824219,63.5012695 83.3475586,63.1101563 84.2393555,63.7555664 C84.4734375,63.6202148 84.7494141,63.4848633 85.0051758,63.3495117 C84.8765625,62.2927734 84.3893555,62.4969727 84.0700195,61.1885742 C82.9007813,61.3751953 82.4759766,62.3616211 81.5411133,62.0044922 C80.6276367,61.6649414 80.5845703,60.3536133 80.6276367,59.2643555 C80.9671875,58.4484375 82.6666992,58.0060547 83.3244141,57.8003906 C84.3893555,57.4432617 84.2390625,56.7287109 85.2161133,55.7572266 C86.4919922,54.4813477 85.5556641,55.7748047 86.1726563,54.1253906 C87.5759766,54.0726563 86.9167969,54.0225586 87.7450195,53.5977539 L87.7869141,53.5816406 L87.872168,53.5464844 C88.3620117,53.324707 88.9992188,53.2746094 89.6367188,53.0540039 C91.9737305,52.2717773 92.9302734,52.6628906 94.6297852,53.3583984 C95.9478516,53.9036133 99.9219727,53.9200195 100.219629,55.5896484 C99.2642578,56.5910156 98.3507813,55.8603516 96.9679688,55.9467773 C97.2222656,57.2390625 97.3280273,57.2390625 98.4984375,57.5961914 C98.690625,56.9833008 98.4131836,57.2226563 98.7325195,56.8303711 C99.1154297,56.915625 99.4983398,56.9833008 99.8800781,57.0536133 C100.264453,55.7422852 100.709473,55.9303711 102.007324,55.7762695 C101.793457,54.8736328 101.559375,55.1293945 102.048047,54.4151367 C103.388965,54.553125 102.303809,54.4341797 102.962695,55.5058594 C103.897852,55.3854492 104.8125,54.3474609 106.107422,54.2121094 C106.915137,54.1268555 106.873242,54.4338867 108.019336,54.3134766 C108.954492,54.2121094 108.911133,53.8710938 109.848926,54.2633789 C110.187305,53.6329102 109.848926,53.6490234 110.677148,53.4975586 C111.950391,53.2757813 113.057227,54.0577148 114.288867,54.2296875 C113.376855,53.1079102 112.504102,53.3270508 113.631152,51.4558594 C115.054688,51.1664063 115.181836,51.3706055 115.798828,52.44375 C116.148047,52.2474609 116.296875,52.05 116.47002,51.9498047 L116.471484,51.9477539 L116.471484,51.9477539 Z M44.9882813,143.74834 L44.9882813,143.74834 C42.7772461,142.782129 40.6230469,141.711914 38.5297852,140.545312 C38.5040039,140.458594 38.4811523,140.363965 38.4606445,140.254395 C38.1427734,138.36416 38.9504883,138.159668 38.0560547,135.01084 C37.4701172,132.928418 37.7056641,127.994824 37.0857422,125.465625 C36.9870117,125.0625 36.8651367,124.72002 36.7177734,124.458984 C36.1441406,123.507715 34.7408203,123.065332 33.6164063,122.298047 C33.5513672,122.283105 33.5094727,122.264355 33.4892578,122.230371 C31.9371094,121.141113 30.4705078,116.869043 29.2376953,115.271191 C28.6652344,114.503906 28.3040039,114.843457 28.0482422,113.636719 C27.7722656,112.531055 28.1970703,112.719141 28.5597656,111.797754 C26.6680664,108.326953 31.003418,108.377051 30.1119141,104.207812 C29.9197266,103.441992 29.3689453,102.370312 28.9007813,102.031934 C28.0078125,102.423047 28.4311523,102.642187 27.9644531,103.391895 C27.2431641,102.983203 26.5207031,102.57334 25.8196289,102.167285 C23.6302734,100.056445 24.7980469,101.586914 24.1836914,100.209375 C22.865625,97.3163086 21.6099609,98.934668 20.0375977,97.5043945 C19.3353516,96.9076172 19.2082031,95.9712891 18.0404297,96.1432617 C16.2758789,96.3814453 17.2529297,96.6533203 15.4262695,95.8007812 C13.8741211,95.0686523 12.2598633,94.219043 11.174707,93.2311523 C11.1328125,91.6995117 11.6862305,91.6303711 10.7293945,90.2027344 C10.5603516,89.9375977 10.3693359,89.6912109 10.1759766,89.4556641 C13.1663086,75.8496094 20.3273438,63.8091797 30.2540039,54.7432617 C31.0253906,55.0125 32.0455078,54.8352539 32.8113281,54.8041992 C33.0861328,54.2941406 33.2566406,53.850293 33.7464844,53.6633789 C33.937207,53.5957031 34.1712891,53.5795898 34.4894531,53.5957031 C34.5313477,53.8488281 34.5963867,54.1057617 34.6599609,54.3603516 C34.6599609,54.3793945 34.7033203,54.5484375 34.6816406,54.5147461 C34.7033203,54.4795898 34.7235352,54.6161133 34.74375,54.6662109 C36.084668,53.8839844 34.9576172,53.8664062 35.6789063,52.4537109 C34.5530273,52.2319336 34.7018555,52.3669922 33.9996094,51.6527344 C34.6816406,50.9044922 35.9967773,50.6487305 36.975293,50.7175781 C36.9102539,51.3996094 36.5923828,51.3820312 36.8493164,51.9597656 C37.6139648,51.4833984 38.1457031,50.2086914 39.3770508,50.4457031 C39.6111328,50.6147461 39.8885742,50.7691406 40.1428711,50.9220703 C39.5041992,51.5173828 38.5488281,51.5525391 37.7206055,51.8923828 C37.3579102,55.5864258 38.8898438,52.4891602 38.3783203,55.0248047 C39.2917969,54.9571289 40.1847656,54.2926758 40.5243164,53.6121094 C40.1847656,53.1697266 39.6949219,53.1697266 39.4201172,52.6417969 C39.6339844,51.9612305 40.0913086,51.4456055 40.7381836,51.1385742 C41.175293,50.9314453 41.6976563,50.8207031 42.290332,50.8207031 C49.0479492,50.8722656 45.8381836,51.177832 47.9220703,52.1320312 C48.3887695,52.3350586 49.2169922,52.4390625 49.4944336,52.846582 C49.9192383,53.493457 49.5161133,54.1048828 50.1955078,54.6164062 C50.7908203,55.0587891 50.8760742,54.5988281 51.6624023,55.5878906 C51.4933594,56.1480469 51.0887695,56.7272461 50.2605469,56.7448242 C49.1129883,56.7609375 49.7923828,55.9775391 48.5595703,56.0979492 C48.5827148,57.253418 49.7288086,57.6972656 48.6650391,58.3265625 C47.7298828,58.8893555 48.3240234,58.1235352 47.6244141,58.5146484 C47.6027344,58.5322266 47.5391602,58.5662109 47.5189453,58.5837891 C47.4770508,58.6174805 47.4336914,58.669043 47.4120117,58.7027344 C47.2860352,58.8392578 47.1779297,58.9584961 47.0736328,59.0789062 C45.3741211,58.6174805 45.693457,58.8231445 44.671875,57.6999023 C44.2904297,57.2750977 44.2265625,57.1722656 43.5459961,57.2235352 C43.1211914,57.2396484 42.5689453,57.4265625 42.1643555,57.0530273 C42.99375,56.0150391 43.3983398,57.0193359 44.6094727,56.4049805 C44.821875,56.3021484 46.1601562,55.265625 46.3740234,55.0259766 C46.012793,54.2085937 46.3306641,54.8879883 45.8015625,54.3615234 C44.6106445,53.1544922 44.268457,53.4588867 42.6568359,53.4588867 C41.9003906,54.3290039 41.334668,55.4047852 40.5108398,55.8770508 C40.012793,56.1626953 39.421582,56.2274414 38.6393555,55.8931641 C39.0005859,57.3574219 39.9357422,56.2341797 40.0195312,58.002832 C39.4037109,57.8838867 39.084375,57.5765625 38.447168,57.7986328 C37.0860352,58.3086914 38.2983398,58.2574219 38.4038086,58.5307617 C38.4038086,58.5483398 39.0410156,58.6160156 38.4038086,58.8541992 C37.7015625,59.1084961 38.296875,58.7176758 36.9383789,57.9178711 C37.1291016,57.5783203 37.3212891,57.2208984 37.5120117,56.8637695 C36.4078125,57.2047852 35.025,57.7488281 33.7300781,58.377832 C32.2620117,59.1099609 30.881543,59.9449219 30.0521484,60.7092773 C30.0304688,61.9866211 30.2645508,61.134082 30.3931641,62.6510742 C32.3686523,62.7688477 31.7314453,63.3626953 33.7083984,63.9257812 C34.0886719,64.0300781 34.5796875,64.1314453 35.175293,64.2328125 C35.175293,65.1867187 34.3242188,65.9012695 34.9180664,66.8891602 C36.299707,67.856543 36.3416016,65.9689453 36.6826172,64.7619141 C41.3604492,63.7848633 39.1060547,62.4102539 40.3145508,59.8365234 C40.4958984,59.4521484 40.752832,59.0422852 41.1237305,58.5996094 C41.4837891,58.6171875 42.9503906,58.771582 43.2697266,58.837793 C44.3332031,59.0244141 43.7595703,59.2801758 44.9071289,59.7905273 C44.8854492,60.7107422 44.41875,61.9013672 45.778418,61.6807617 C46.8202148,61.4953125 46.5875977,60.6767578 47.8608398,60.4722656 C48.4333008,61.8172852 48.2856445,62.3964844 48.5402344,64.012207 C51.6011719,65.2042969 50.2397461,66.1731445 49.6444336,68.4046875 C50.0288086,68.5913086 50.4307617,68.7618164 50.8353516,68.9311523 C50.8151367,69.5780273 50.7919922,70.2084961 50.7717773,70.8389648 C50.7082031,70.8389648 47.4972656,70.1393555 47.2860352,70.0731445 C47.7744141,68.6765625 48.6676758,68.6604492 49.2413086,67.2316406 C48.09375,67.434668 48.177832,67.7917969 47.3496094,68.0475586 C46.6066406,68.2693359 46.0330078,68.1152344 45.2466797,68.2180664 C44.9707031,69.1356445 45.225,67.4170898 45.3117188,68.5901367 C45.3536133,69.0339844 45.5674805,68.6091797 45.2683594,69.084082 C44.2048828,68.5901367 44.5672852,67.4332031 42.590332,68.5048828 C43.0368164,68.709082 43.4821289,68.8959961 43.950293,69.084082 C43.8881836,70.3924805 43.78125,69.4060547 43.5049805,70.275 C42.8244141,72.5036133 45.3533203,71.1249023 46.0125,71.0071289 C45.8419922,72.1816406 45.1195313,72.1816406 44.0991211,72.5036133 C42.974707,72.8446289 42.6336914,73.3045898 41.7404297,73.509082 C41.7404297,72.1125 41.5291992,73.2873047 42.1435547,72.3181641 C41.2505859,72.4019531 40.5914063,72.8106445 39.7417969,73.1692383 L39.6580078,73.2017578 C38.5661133,73.6470703 38.4008789,73.7132812 38.2751953,75.1083984 C37.3400391,75.3966797 36.2563477,75.7227539 35.597168,76.4033203 C34.9394531,77.0326172 34.2791016,77.6604492 33.6404297,78.2733398 C33.5783203,78.3249023 33.5334961,78.3761719 33.4942383,78.4101562 C33.7283203,80.1624023 33.4942383,80.1963867 32.4292969,80.8795898 C31.5375,81.4561523 31.2398438,81.4397461 30.4116211,82.171875 C27.7552734,84.5548828 29.0314453,83.446582 29.1776367,87.5493164 C28.6256836,87.3802734 28.0951172,87.1921875 27.5850586,87.0052734 C27.1804687,84.28125 27.7324219,85.1853516 25.5445312,84.5545898 C23.184668,83.8740234 23.5025391,85.030957 22.5257813,85.2351562 C21.4417969,85.471875 20.9100586,84.2472656 19.3376953,85.2688477 C18.4675781,85.8629883 17.6381836,86.2552734 17.4257812,87.309375 C17.1714844,88.5867187 16.5975586,89.5204102 16.6816406,90.9345703 C16.8319336,94.7654297 20.3162109,94.9845703 21.2091797,93.1983398 C21.8033203,92.0074219 21.6556641,91.3608398 23.5892578,91.6666992 C23.7799805,92.6882812 23.4823242,93.4365234 23.2265625,94.2202148 C23.0575195,94.6790039 22.5893555,95.5125 22.8234375,96.1444336 C24.2050781,96.7060547 24.2469727,95.6493164 26.0750977,96.7385742 C26.2037109,98.5584961 25.246875,100.600488 26.6487305,101.656055 C27.73125,102.455859 27.7962891,101.741309 28.7516602,101.572266 C29.8151367,101.385645 29.6244141,102.048633 30.6026367,102.202734 C31.1545898,101.520703 30.9205078,101.948437 31.2832031,101.112012 C31.9204102,99.6682617 32.0897461,100.347363 33.599707,99.4637695 C33.7470703,99.3785156 33.8745117,99.2917969 34.0245117,99.1904297 C34.1935547,99.5475586 34.3857422,99.8885742 34.5536133,100.228418 C35.6592773,98.9185547 35.7864258,100.194727 37.0623047,100.551855 C37.6116211,100.702148 38.0012695,100.756055 38.3030273,100.760156 C39.2299805,100.773633 39.3246094,100.323047 40.5899414,100.770996 C40.7402344,100.841309 40.930957,100.891406 41.1014648,100.942969 C41.1216797,100.942969 41.1852539,100.97666 41.1852539,101.012109 C41.2083984,101.029687 41.2705078,101.079785 41.2921875,101.098828 C41.5045898,101.335547 41.5277344,101.575195 41.6967773,101.829492 C42.5680664,102.662988 43.4396484,103.497949 44.2895508,104.313867 C45.9673828,104.97832 45.9673828,103.734668 47.8807617,105.588574 C48.6884766,106.354395 48.3260742,106.339453 48.7725586,107.324707 C48.8375977,107.479102 48.9647461,107.630566 49.0485352,107.818652 C49.219043,108.278613 49.4097656,108.719824 49.6019531,109.162207 C50.4720703,110.303027 51.6626953,109.588477 52.8738281,110.762988 C53.5749023,111.443555 53.0443359,111.239355 54.5950195,111.51123 C56.9967773,111.902344 56.0630859,111.681738 57.8900391,113.060449 C58.5911133,113.570508 58.7601563,113.281055 59.419043,113.723437 C60.3336914,114.999316 60.0996094,116.37832 59.3352539,117.501562 C56.9753906,120.938672 57.7831055,120.377051 57.6761719,123.100781 C57.590918,124.664941 57.1444336,127.899023 55.6775391,128.290137 C50.3446289,129.789551 53.4462891,130.827246 52.0444336,133.464551 C51.6413086,134.214258 51.3421875,134.400879 51.0878906,134.997656 C50.0270508,137.480566 50.7700195,138.315527 47.6238281,137.753906 C47.9229492,138.280371 47.7307617,137.922949 48.028418,138.399316 C48.9635742,139.845703 49.1124023,140.936426 47.1990234,141.290918 C45.6049805,141.597949 46.2855469,141.290918 46.1367188,143.060742 C45.5197266,143.316504 45.24375,143.060742 44.840332,143.469434 L44.990625,143.749512 L44.9882813,143.74834 L44.9882813,143.74834 Z M30.9817383,54.0922852 L30.9817383,54.0922852 C31.3930664,54.0380859 31.3916016,53.859668 32.4688477,53.5983398 C32.3835938,53.2412109 32.3185547,53.2412109 32.2347656,53.1058594 L32.2010742,53.0381836 C31.7912109,53.3844727 31.3836914,53.737793 30.9817383,54.09375 L30.9817383,54.0922852 L30.9817383,54.0922852 Z M87.7886719,73.8269531 L87.7886719,73.8269531 L87.7467773,73.7970703 C87.5979492,73.6957031 87.450293,73.594043 87.3231445,73.4750977 C86.3879883,72.6401367 86.1946289,71.8933594 85.1554688,72.0799805 C85.1323242,72.8633789 85.2407227,72.8958984 85.622168,73.4074219 C87.0673828,75.2112305 86.6208984,74.5995117 87.7464844,75.2625 L87.7883789,75.2868164 C88.0549805,75.4397461 88.3634766,75.6536133 88.7871094,75.9606445 C87.3418945,77.2338867 88.6816406,77.3707031 87.7883789,77.7969727 L87.7464844,77.8171875 C87.6597656,77.849707 87.5774414,77.8848633 87.5138672,77.9185547 C87.2147461,77.1688477 87.8739258,77.5274414 87.1092773,76.4381836 C86.6844727,75.8765625 86.2810547,75.7060547 85.622168,75.3975586 C83.9630859,74.615332 84.1769531,74.0039063 83.1568359,72.9820313 C82.0081055,73.0171875 82.2650391,73.3743164 81.4573242,73.7830078 C80.4802734,74.2579102 80.6291016,73.6992188 79.4803711,73.7991211 C78.5452148,75.4514648 79.8834961,74.0724609 78.1839844,75.4335938 C76.143457,77.015332 77.8227539,78.6662109 74.5508789,79.1616211 C74.3167969,79.1953125 74.231543,79.1616211 73.9989258,79.2454102 C73.3804688,79.4660156 73.7416992,79.2791016 73.3804688,79.6365234 C73.6579102,80.2845703 73.275,80.1805664 74.3803711,80.334668 C76.3992188,80.6053711 76.6549805,79.3643555 78.121875,79.0573242 C78.8431641,78.9043945 83.3707031,78.7163086 83.6888672,78.8015625 C84.665918,79.8922852 83.859375,80.6581055 83.859375,81.5756836 C84.9243164,82.1373047 86.4316406,82.2738281 87.0486328,82.8530273 C87.749707,83.5160156 87.4098633,83.4131836 87.749707,83.5324219 L87.7916016,83.5458984 C87.9202148,83.5825195 88.1056641,83.6487305 88.4302734,83.7717773 C89.2801758,84.0600586 89.2368164,84.2305664 90.15,84.2982422 C90.9793945,81.5241211 90.1283203,81.8138672 94.1241211,83.0885742 C98.2892578,84.4526367 96.4189453,83.2089844 98.1834961,83.3956055 C99.05625,83.4823242 98.822168,83.7527344 100.033301,83.5998047 C100.265918,83.1234375 101.987109,78.8000977 99.7558594,79.3456055 C99.0969727,79.5146484 99.5446289,79.752832 98.6083008,79.5146484 C97.63125,79.2615234 98.5664063,79.0734375 97.4838867,79.2251953 C96.4189453,79.3795898 95.1457031,80.315918 94.3160156,77.0994141 C93.9981445,75.9410156 93.4230469,74.9384766 92.1064453,76.6892578 C92.4459961,77.2845703 92.6800781,77.3361328 93.0618164,77.915332 C92.9563477,78.084375 92.5951172,78.5106445 92.4676758,78.6474609 C91.7463867,79.3620117 92.7667969,79.022168 91.5963867,79.1739258 C90.9591797,78.6975586 91.0875,78.084668 90.4705078,77.2347656 C89.3865234,75.6500977 90.0875977,76.3836914 89.5353516,74.8681641 C89.1008789,74.4867188 88.3798828,74.2010742 87.7910156,73.8263672 L87.7886719,73.8263672 L87.7886719,73.8269531 Z M110.486426,119.643164 L110.486426,119.643164 C109.552734,120.119531 109.424121,121.210254 108.72334,121.82168 C107.958691,122.519824 106.937109,122.197852 106.640918,123.490137 C106.258008,125.105859 107.278125,124.613379 106.152539,126.722754 C105.749414,127.50498 105.727734,129.461426 106.344727,130.04209 C108.191895,131.826855 109.191797,127.319531 109.616602,125.906836 C109.935938,124.902832 110.233594,123.763477 110.573145,122.825684 C110.912695,121.821973 111.401367,120.938379 110.486426,119.643164 L110.486426,119.643164 Z M107.426953,72.1623047 L107.426953,72.1623047 C107.575781,74.240625 108.807129,75.0392578 109.679883,75.9916992 C109.574414,76.9795898 109.338867,76.7238281 109.360547,78.1013672 C110.402344,78.8522461 111.165527,79.3098633 112.528418,78.9375 C112.719141,77.269043 112.187402,77.352832 111.678516,76.2134766 C111.76377,76.0769531 111.996387,75.9076172 112.038574,75.8739258 C112.422949,75.3638672 112.230762,76.0769531 112.422949,75.2094727 C111.424219,74.8875 109.808789,73.8644531 109.682813,72.5220703 C110.171191,72.130957 110.022363,72.3676758 110.382422,72.130957 C111.16875,71.6194336 110.574609,72.4016602 111.041309,71.5341797 C110.638184,70.7519531 110.191406,70.6154297 109.214648,71.006543 C108.789844,71.1770508 107.6625,71.9768555 107.428418,72.1634766 L107.426953,72.1623047 L107.426953,72.1623047 Z M98.7342773,72.7078125 L98.7342773,72.7078125 C98.0765625,71.7902344 98.1172852,71.3288086 96.8425781,71.2951172 C96.3336914,71.840332 95.7383789,72.65625 95.4624023,73.4900391 C95.0375977,74.7498047 95.3352539,73.8811523 95.3771484,75.24375 C95.3554688,75.2938477 95.3771484,75.3641602 95.3771484,75.4142578 C95.3554688,76.2301758 95.1632812,75.2598633 95.2918945,76.0095703 C96.2917969,75.8039062 95.5274414,75.8214844 96.271582,75.5833008 C96.9726562,75.3451172 99.1186523,74.6982422 99.7356445,74.8526367 C101.201074,75.1921875 102.433887,76.3505859 104.092676,75.1921875 C104.005957,73.7118164 102.221191,73.1501953 100.988672,72.5021484 C101.053711,71.1421875 101.413477,72.2138672 101.328223,70.902832 C100.903418,70.8852539 100.647656,70.8175781 100.244238,70.9880859 C99.2876953,71.4128906 99.8194336,71.5333008 99.8194336,71.6862305 C99.8613281,72.4168945 100.775977,71.5333008 99.7992188,72.4359375 C99.5232422,72.6726562 99.075293,72.6726562 98.7357422,72.7078125 L98.7342773,72.7078125 L98.7342773,72.7078125 Z M73.9107422,62.3953125 L73.9107422,62.3953125 C73.8700195,64.7783203 74.6982422,63.9770508 75.4831055,65.1530273 C75.1230469,66.1570312 75.0583008,65.3748047 74.6563477,66.4113281 C74.2951172,67.2799805 74.7401367,66.4980469 74.5060547,68.0106445 C75.1230469,68.0458008 76.0365234,67.8251953 76.8442383,67.7563477 C77.9929688,67.6535156 77.9701172,67.5521484 78.374707,66.3773437 C77.7375,65.5951172 77.1,64.8117187 76.4411133,64.0294922 C75.6102539,62.7682617 76.4411133,63.637207 76.1868164,62.5816406 C75.9960938,62.2069336 75.8241211,61.8345703 75.6550781,61.4583984 C74.5494141,61.8351562 74.6563477,61.7323242 73.9107422,62.3953125 L73.9107422,62.3953125 Z" id="Shape" fill="#15BDB1"></path>
                    <path d="M115.91543,58.1789063 L115.272656,57.5361328 L112.623047,54.8865234 L111.980273,54.24375 C109.889648,55.0368164 107.272559,58.4642578 106.240137,60.6266602 L106.560938,60.9486328 L109.210547,63.5982422 L109.53252,63.9202148 C111.694922,62.8863281 115.122363,60.2707031 115.91543,58.1800781 L115.91543,58.1789063 L115.91543,58.1789063 Z" id="Shape" fill="#FBB429"></path>
                    <path d="M115.91543,58.1789063 L115.272656,57.5361328 L112.623047,54.8865234 L111.980273,54.24375 C111.497168,54.4277344 110.988281,54.7511719 110.474121,55.1666016 L114.992285,59.6847656 C115.407715,59.1717773 115.731152,58.6617188 115.915137,58.1800781 L115.915137,58.1789063 L115.91543,58.1789063 Z" id="Shape" fill="#FFFFFF"></path>
                    <path d="M120.352441,70.7780273 L119.709668,70.1352539 L117.060059,67.4856445 L116.417285,66.8428711 C114.32666,67.6359375 111.70957,71.0633789 110.677148,73.2257813 L110.999121,73.5477539 L113.64873,76.1973633 L113.970703,76.5193359 C116.133105,75.4854492 119.560547,72.8698242 120.353613,70.7780273 L120.352441,70.7780273 L120.352441,70.7780273 Z" id="Shape" fill="#FBB429"></path>
                    <path d="M120.352441,70.7780273 L119.709668,70.1367187 L117.060059,67.4859375 L116.417285,66.8446289 C115.93418,67.0274414 115.425293,67.3505859 114.911133,67.7674805 L119.429297,72.2856445 C119.844727,71.7726562 120.169336,71.2625977 120.352148,70.7794922 L120.352148,70.7780273 L120.352441,70.7780273 Z" id="Shape" fill="#FFFFFF"></path>
                    <path d="M84.1798828,26.4433594 L84.8226563,27.0861328 L87.4722656,29.7357422 L88.1150391,30.3785156 C87.3219727,32.4691406 83.8945313,35.0862305 81.7321289,36.1198242 L81.4101563,35.7978516 L78.7605469,33.1482422 L78.4385742,32.8262695 C79.4724609,30.665332 82.0880859,27.2364258 84.1787109,26.4433594 L84.1798828,26.4433594 L84.1798828,26.4433594 Z" id="Shape" fill="#FBB429"></path>
                    <path d="M84.1798828,26.4433594 L84.8226563,27.0861328 L87.4722656,29.7357422 L88.1150391,30.3785156 C87.9322266,30.8616211 87.609082,31.3716797 87.1921875,31.884668 L82.6737305,27.3662109 C83.1867188,26.9493164 83.6967773,26.6261719 84.1798828,26.4433594 L84.1798828,26.4433594 Z" id="Shape" fill="#FFFFFF"></path>
                    <path d="M71.5804687,22.0078125 L72.2232422,22.6505859 L74.8728516,25.3001953 L75.515625,25.9429687 C74.7225586,28.0335937 71.2951172,30.6506836 69.1327148,31.6831055 L68.8107422,31.3611328 L66.1611328,28.7115234 L65.8391602,28.3895508 C66.8730469,26.2286133 69.4886719,22.799707 71.5792969,22.0066406 L71.5804687,22.0078125 L71.5804687,22.0078125 Z" id="Shape" fill="#FBB429"></path>
                    <g id="Group" transform="translate(47.460938, 19.921875)" fill="#FFFFFF">
                        <path d="M24.1195313,2.0859375 L24.7623047,2.72871094 L27.4130859,5.37832031 L28.0543945,6.02109375 C27.871582,6.50419922 27.5484375,7.01425781 27.1330078,7.52724609 L22.6136719,3.00878906 C23.1263672,2.59189453 23.6364258,2.26845703 24.1195313,2.0859375 L24.1195313,2.0859375 Z" id="Shape"></path>
                        <path d="M14.7084961,61.8166992 L22.4824219,72.8692383 L24.9615234,69.871875 L20.5623047,58.2495117 C21.1142578,57.7731445 20.0765625,58.7176758 22.3470703,56.6745117 C24.6175781,54.6313477 34.5946289,45.459668 43.630957,38.1131836 L69.65625,74.9027344 L72.0295898,72.5293945 L57.6442383,26.6750977 C63.5238281,21.8282227 68.0730469,17.962207 69.2988281,16.5615234 C73.0456055,12.2800781 76.4352539,6.56982422 73.7601563,1.21816406 C68.4070313,-1.45839844 62.6982422,1.93271484 58.4167969,5.67802734 C57.0149414,6.90410156 53.1503906,11.4533203 48.3032227,17.3326172 L2.44892578,2.94785156 L0.0755859375,5.32119141 L36.8639648,31.3464844 C29.5189453,40.3842773 20.3460938,50.3595703 18.3041016,52.6303711 C16.2594727,54.9008789 17.2054688,53.8631836 16.7291016,54.4151367 L5.10673828,50.015918 L2.109375,52.4950195 L13.1619141,60.2689453 C11.9616211,62.3337891 12.6451172,63.0172852 14.7099609,61.8169922 L14.7084961,61.8169922 L14.7084961,61.8166992 Z" id="Shape"></path>
                    </g>
                    <g id="Group" transform="translate(47.460938, 24.316406)" fill="#C8CACC">
                        <polygon id="Shape" points="14.7084961 57.422168 22.4824219 68.474707 23.0803711 67.7522461 15.5446289 56.8458984 14.709668 57.4224609 14.7084961 57.4224609"></polygon>
                        <polygon id="Shape" points="2.83037109 47.5022461 2.10791016 48.1004883 13.1604492 55.8744141 13.7370117 55.0394531 2.82919922 47.5022461"></polygon>
                        <polygon id="Shape" points="43.6321289 33.7177734 69.6574219 70.5073242 70.5720703 69.5912109 45.1693359 32.4632812"></polygon>
                        <polygon id="Shape" points="0.988769531 0.010546875 0.0741210938 0.926660156 36.8625 26.9519531 38.1169922 25.4147461 0.987304688 0.0120117187"></polygon>
                    </g>
                    <path d="M118.984277,23.3745117 C118.457812,22.8480469 117.820605,22.4774414 117.112793,22.2568359 L116.683887,23.4544922 C117.130371,23.7210937 117.549902,24.0457031 117.932812,24.4274414 C118.314258,24.8103516 118.63916,25.2298828 118.905762,25.6751953 L120.103418,25.2462891 C119.882812,24.5399414 119.512207,23.9027344 118.985742,23.3748047 L118.984277,23.3748047 L118.984277,23.3745117 Z M116.15625,22.0538086 L116.15625,22.0538086 C115.064355,21.9225586 113.866699,22.0945313 112.679883,22.5503906 C113.748926,22.4610352 114.823242,22.6166016 115.809668,23.0185547 L116.15625,22.0538086 L116.15625,22.0538086 Z M119.341699,26.550293 L119.341699,26.550293 C119.744824,27.5367188 119.899219,28.6098633 119.809863,29.6800781 C120.267188,28.4932617 120.437695,27.2958984 120.306445,26.2037109 L119.341699,26.550293 L119.341699,26.550293 Z" id="Shape" fill="#15BDB1"></path>
                    <path d="M54.1546875,88.9429688 L54.1640625,88.9335938 L54.3210938,88.7821289 L54.4766602,88.6318359 L54.6348633,88.4789063 L54.7930664,88.3259766 L54.9512695,88.1730469 L55.1109375,88.0186523 L55.2706055,87.8642578 L55.4317383,87.7098633 L55.594043,87.5542969 L55.7551758,87.3987305 L55.9174805,87.2416992 L56.0797852,87.0834961 L56.2435547,86.925293 L56.4073242,86.765625 L56.5722656,86.605957 L56.7386719,86.4462891 L56.9050781,86.2851562 L57.0714844,86.1240234 L57.2393555,85.9617188 L57.4072266,85.7979492 L57.5762695,85.6341797 L57.7453125,85.4704102 L57.9143555,85.3051758 L58.0848633,85.1387695 L58.2553711,84.9723633 L58.4273438,84.8044922 L58.5993164,84.6366211 L58.7724609,84.4675781 L58.9456055,84.2970703 L59.11875,84.1265625 L58.1513672,83.1416016 L57.9782227,83.3106445 L57.80625,83.4796875 L57.6342773,83.6475586 L57.4623047,83.8166016 L57.2917969,83.9830078 L57.1227539,84.1494141 L56.9537109,84.3146484 L56.784668,84.4795898 L56.6167969,84.6433594 L56.4489258,84.8056641 L56.2810547,84.9679687 L56.1146484,85.1302734 L55.9482422,85.2914062 L55.7818359,85.4525391 L55.6168945,85.612207 L55.4519531,85.771875 L55.2881836,85.9300781 L55.1244141,86.0871094 L54.9621094,86.2453125 L54.7998047,86.4023438 L54.6375,86.5579102 L54.4763672,86.7134766 L54.3152344,86.8678711 L54.1555664,87.0222656 L53.9958984,87.1751953 L53.8362305,87.328125 L53.6780273,87.4810547 L53.5209961,87.6325195 L53.3639648,87.7854492 L53.2069336,87.9357422 L53.1975586,87.9451172 L54.1555664,88.9397461 L54.1546875,88.9429688 L54.1546875,88.9429688 Z M131.519824,88.3731445 L131.519824,88.3731445 L131.356055,88.8008789 L131.192285,89.2230469 L131.028516,89.6384766 L130.864746,90.047168 L130.699805,90.450293 L130.53457,90.8466797 L130.369629,91.237793 L130.204687,91.622168 L130.039453,92.0009766 L129.873047,92.3730469 L129.708105,92.7410156 L129.541699,93.1022461 L129.375293,93.4567383 L129.208887,93.805957 L129.200684,93.8220703 L130.441406,94.4296875 L130.453711,94.4053711 L130.624219,94.0467773 L130.794727,93.6829102 L130.96377,93.3134766 L131.134277,92.9387695 L131.30332,92.5584961 L131.472363,92.1714844 L131.641406,91.7791992 L131.809277,91.3798828 L131.977148,90.9767578 L132.146191,90.5654297 L132.312598,90.1485352 L132.480469,89.7263672 L132.646875,89.2974609 L132.813281,88.8618164 L131.522461,88.3719727 L131.519824,88.3731445 L131.519824,88.3731445 Z M127.275,97.4258789 L127.275,97.4258789 L127.189746,97.5665039 L127.020703,97.8451172 L126.85166,98.118457 L126.682617,98.3876953 L126.512109,98.6501953 L126.341602,98.9074219 L126.171094,99.1605469 L126.000586,99.4081055 L125.830078,99.6515625 L125.65957,99.8897461 L125.489062,100.123828 L125.31709,100.352637 L125.146582,100.577344 L124.974609,100.796484 L124.802637,101.011523 L124.629492,101.222754 L124.45752,101.428418 L124.285547,101.62998 L124.113574,101.82627 L123.94043,102.019629 L123.768457,102.207715 L123.595312,102.391699 L123.422168,102.571582 L123.249023,102.747363 L123.219141,102.777246 L124.186523,103.763672 L124.228418,103.721777 L124.413867,103.533691 L124.597852,103.341504 L124.781836,103.145215 L124.96582,102.944824 L125.148633,102.740625 L125.331445,102.532324 L125.512793,102.318457 L125.694141,102.100488 L125.875488,101.877246 L126.056836,101.651367 L126.236719,101.419922 L126.416602,101.184375 L126.596484,100.944727 L126.775195,100.699805 L126.953906,100.449609 L127.132617,100.195313 L127.309863,99.9354492 L127.488574,99.6714844 L127.664355,99.4022461 L127.841602,99.1289063 L128.017383,98.850293 L128.194629,98.5661133 L128.37041,98.2766602 L128.454199,98.1345703 L127.270313,97.4229492 L127.275,97.4258789 L127.275,97.4258789 Z M120.111621,105.260742 L120.111621,105.260742 L120.10752,105.263379 L119.930273,105.370313 L119.753027,105.474609 L119.575781,105.574805 L119.398535,105.672363 L119.219824,105.766992 L119.042578,105.85752 L118.863867,105.946875 L118.685156,106.032129 L118.506445,106.114746 L118.327734,106.194727 L118.147852,106.271777 L117.967969,106.346191 L117.788086,106.417969 L117.608203,106.488281 L117.426855,106.554492 L117.245508,106.619531 L117.06416,106.681641 L116.882812,106.741113 L116.7,106.799414 L116.517187,106.853613 L116.333203,106.906348 L116.150391,106.95791 L115.966406,107.005371 L115.782422,107.051367 L115.596973,107.094727 L115.411523,107.136621 L115.226074,107.175879 L115.039453,107.213672 L114.852832,107.248828 L114.666211,107.28252 L114.478125,107.315039 L114.290039,107.344922 L114.101953,107.37334 L113.912402,107.400293 L113.901562,107.401758 L114.077344,108.772559 L114.100488,108.768457 L114.303516,108.740039 L114.505078,108.710156 L114.705469,108.677637 L114.907031,108.643945 L115.108594,108.607324 L115.310156,108.569531 L115.510547,108.528809 L115.710937,108.485449 L115.909863,108.440918 L116.110254,108.393457 L116.310645,108.343359 L116.511035,108.290625 L116.711426,108.236426 L116.908887,108.17959 L117.107812,108.120117 L117.305273,108.058008 L117.502734,107.992969 L117.70166,107.925293 L117.899121,107.85498 L118.09541,107.782031 L118.292871,107.706152 L118.48916,107.627637 L118.685449,107.546484 L118.881738,107.46123 L119.078027,107.37334 L119.272852,107.282812 L119.467676,107.189355 L119.6625,107.093262 L119.857324,106.993066 L120.052148,106.890234 L120.245508,106.783301 L120.438867,106.67373 L120.632227,106.561523 L120.824414,106.445215 L120.828516,106.442578 L120.107227,105.26543 L120.111621,105.260742 L120.111621,105.260742 Z M109.860059,107.632617 L109.860059,107.632617 L109.836914,107.632617 L109.637988,107.631152 L109.437598,107.628516 L109.237207,107.625879 L109.035645,107.621777 L108.834082,107.617676 L108.63252,107.612402 L108.429492,107.607129 L108.226465,107.600391 L108.022266,107.593652 L107.818066,107.586914 L107.613867,107.580176 L107.409668,107.571973 L107.204004,107.56377 L106.996875,107.557031 L106.789746,107.548828 L106.582617,107.540625 L106.375488,107.53125 L106.168359,107.523047 L105.960059,107.514844 L105.751758,107.506641 L105.541992,107.498437 L105.332227,107.490234 L105.122461,107.482031 L104.91123,107.473828 L104.7,107.465625 L104.487598,107.457422 L104.275195,107.450684 L104.062793,107.443945 L103.848926,107.437207 L103.635059,107.430469 L103.421191,107.425195 L103.206152,107.419922 L102.991113,107.41582 L102.969434,107.414355 L102.945117,108.795996 L102.96416,108.795996 L103.175391,108.800098 L103.386621,108.805371 L103.597852,108.810645 L103.807617,108.817383 L104.018848,108.824121 L104.230078,108.830859 L104.439844,108.837598 L104.649609,108.845801 L104.859375,108.854004 L105.069141,108.862207 L105.277441,108.87041 L105.485742,108.878613 L105.694043,108.886816 L105.902344,108.89502 L106.110645,108.903223 L106.318945,108.911426 L106.527246,108.919629 L106.735547,108.927832 L106.943848,108.936035 L107.150977,108.944238 L107.358105,108.952441 L107.566406,108.960645 L107.77207,108.967383 L107.979199,108.974121 L108.186328,108.980859 L108.393457,108.986133 L108.600586,108.991406 L108.807715,108.99668 L109.013379,109.000781 L109.219043,109.004883 L109.424707,109.00752 L109.630371,109.010156 L109.836035,109.011621 L109.85918,109.011621 L109.864453,107.62998 L109.860059,107.632617 L109.860059,107.632617 Z M98.7585938,107.50957 L98.7585938,107.50957 L98.5798828,107.523047 L98.3551758,107.54209 L98.127832,107.562305 L97.903125,107.583984 L97.6757812,107.607129 L97.4484375,107.63291 L97.2210937,107.659863 L96.99375,107.688281 L96.7649414,107.718164 L96.5361328,107.751855 L96.3061523,107.787012 L96.0761719,107.824805 L95.8461914,107.862598 L95.6162109,107.904492 L95.3847656,107.947852 L95.1533203,107.992383 L94.9207031,108.039844 L94.6880859,108.089941 L94.4554687,108.142676 L94.2213867,108.198047 L93.9873047,108.256348 L93.7517578,108.31582 L93.5176758,108.376758 L93.2821289,108.441797 L93.046582,108.509473 L92.8110352,108.579785 L92.5743164,108.652734 L92.3375977,108.728613 L92.0994141,108.807129 L91.8612305,108.889746 L91.8301758,108.900586 L92.2983398,110.201074 L92.3173828,110.194336 L92.5420898,110.117285 L92.765332,110.044336 L92.9885742,109.972559 L93.2118164,109.903418 L93.4350586,109.838379 L93.6583008,109.77334 L93.8800781,109.712402 L94.1018555,109.65293 L94.3236328,109.596094 L94.5454102,109.541895 L94.7660156,109.48916 L94.9866211,109.440527 L95.2072266,109.393066 L95.4263672,109.348535 L95.6455078,109.305176 L95.8661133,109.264453 L96.0852539,109.22666 L96.3043945,109.188867 L96.5235352,109.153711 L96.7415039,109.121191 L96.9606445,109.090137 L97.1786133,109.060254 L97.396582,109.033301 L97.6145508,109.00752 L97.8310547,108.983203 L98.0475586,108.960059 L98.2655273,108.938379 L98.4805664,108.919336 L98.6970703,108.901758 L98.8757813,108.888281 L98.7673828,107.510742 L98.7585938,107.50957 L98.7585938,107.50957 Z M87.946875,110.652832 L87.946875,110.652832 L87.7628906,110.755664 L87.5179688,110.896289 L87.2730469,111.041016 L87.028125,111.188379 L86.7817383,111.341309 L86.5368164,111.496875 L86.2904297,111.656543 L86.0455078,111.818848 L85.7991211,111.986719 L85.5527344,112.157227 L85.3051758,112.333008 L85.0576172,112.512891 L84.8112305,112.696875 L84.5636719,112.883496 L84.3161133,113.075684 L84.0685547,113.271973 L83.8195312,113.472363 L83.5705078,113.676563 L83.3214844,113.884863 L83.0712891,114.097266 L82.8210937,114.316406 L82.5720703,114.538184 L82.321875,114.764063 L82.2597656,114.822363 L83.2016602,115.833105 L83.2543945,115.785645 L83.4952148,115.566504 L83.7360352,115.352637 L83.9756836,115.144336 L84.215332,114.940137 L84.4535156,114.739746 L84.6931641,114.543457 L84.9298828,114.35127 L85.1680664,114.164648 L85.4047852,113.981836 L85.6415039,113.801953 L85.8782227,113.626172 L86.1137695,113.455664 L86.3493164,113.289258 L86.5848633,113.125488 L86.8189453,112.967285 L87.0530273,112.811719 L87.2871094,112.660254 L87.5211914,112.512891 L87.7538086,112.369336 L87.9864258,112.228711 L88.2178711,112.092187 L88.4493164,111.958301 L88.6333008,111.855469 L87.9500977,110.654004 L87.946875,110.652832 L87.946875,110.652832 Z M79.3166016,117.82998 L79.3166016,117.82998 L79.2922852,117.855762 L79.0379883,118.145215 L78.7904297,118.429395 L78.5428711,118.709473 L78.2953125,118.986914 L78.0489258,119.260254 L77.8025391,119.530957 L77.5561523,119.797559 L77.3112305,120.060059 L77.0663086,120.319922 L76.8228516,120.577148 L76.5793945,120.830273 L76.3359375,121.080469 L76.0936523,121.326855 L75.8513672,121.570312 L75.609082,121.809961 L75.3682617,122.04668 L75.1274414,122.280762 L74.887793,122.510742 L74.6481445,122.738086 L74.6021484,122.77998 L75.5425781,123.790723 L75.5941406,123.743262 L75.8405273,123.510645 L76.0869141,123.275098 L76.3333008,123.036914 L76.5796875,122.794629 L76.8272461,122.548242 L77.0748047,122.299219 L77.3223633,122.046094 L77.5713867,121.791797 L77.8204102,121.533398 L78.0706055,121.272363 L78.3196289,121.007227 L78.5698242,120.737988 L78.8200195,120.466113 L79.0716797,120.191309 L79.3233398,119.912695 L79.575,119.62998 L79.828125,119.344336 L80.08125,119.056055 L80.3276367,118.774512 L80.3519531,118.74873 L79.3180664,117.832617 L79.3166016,117.82998 L79.3166016,117.82998 Z M71.5101563,125.452441 L71.5101563,125.452441 L71.34375,125.583691 L71.1137695,125.763574 L70.8823242,125.94082 L70.6523438,126.11543 L70.4223633,126.287402 L70.1935547,126.456445 L69.9662109,126.621387 L69.7388672,126.783691 L69.5115234,126.943359 L69.2856445,127.100391 L69.0597656,127.254785 L68.8338867,127.40625 L68.6091797,127.555078 L68.3859375,127.70127 L68.1626953,127.843359 L67.9394531,127.982812 L67.7176758,128.120801 L67.4958984,128.254687 L67.2741211,128.385937 L67.0549805,128.514551 L66.8358398,128.640527 L66.6166992,128.763574 L66.3987305,128.885449 L66.1807617,129.003223 L65.9642578,129.118359 L65.8599609,129.172559 L66.4933594,130.40127 L66.6084961,130.341797 L66.8358398,130.219922 L67.0631836,130.096875 L67.2905273,129.970898 L67.5193359,129.841113 L67.7481445,129.709863 L67.9769531,129.575977 L68.2069336,129.437988 L68.4369141,129.298535 L68.6683594,129.156445 L68.8998047,129.010254 L69.1324219,128.862891 L69.3650391,128.711426 L69.5976563,128.557031 L69.8317383,128.4 L70.0658203,128.240332 L70.3013672,128.078027 L70.5369141,127.912793 L70.7724609,127.74375 L71.0091797,127.571777 L71.2458984,127.397168 L71.4826172,127.219922 L71.7208008,127.040039 L71.9604492,126.856055 L72.1986328,126.669434 L72.3635742,126.538184 L71.5098633,125.451562 L71.5101563,125.452441 L71.5101563,125.452441 Z M62.1571289,130.758105 L62.1571289,130.758105 L61.9757813,130.817578 L61.7727539,130.882617 L61.5697266,130.944727 L61.3681641,131.005664 L61.1677734,131.063965 L60.9673828,131.119336 L60.768457,131.17207 L60.5695313,131.223633 L60.3720703,131.272266 L60.1757813,131.318262 L59.9794922,131.361621 L59.7832031,131.403516 L59.5883789,131.442773 L59.3950195,131.480566 L59.2016602,131.515723 L59.0083008,131.549414 L58.8175781,131.580469 L58.6268555,131.608887 L58.4361328,131.63584 L58.246582,131.660156 L58.0584961,131.683301 L57.8704102,131.703516 L57.6837891,131.722559 L57.497168,131.738672 L57.3105469,131.752148 L57.1265625,131.764453 L56.9425781,131.773828 L56.7585938,131.782031 L56.5757813,131.78877 L56.3944336,131.792871 L56.2145508,131.795508 L56.034668,131.795508 L55.8547852,131.794043 L55.6775391,131.791406 L55.6083984,131.78877 L55.5583008,133.168945 L55.6435547,133.171582 L55.8369141,133.175684 L56.0302734,133.177148 L56.2250977,133.177148 L56.4213867,133.174512 L56.6176758,133.169238 L56.8139648,133.1625 L57.0114258,133.154297 L57.2118164,133.141992 L57.4107422,133.128516 L57.6111328,133.113574 L57.8115234,133.095996 L58.0130859,133.076953 L58.2161133,133.053809 L58.4191406,133.029492 L58.6233398,133.002539 L58.8263672,132.974121 L59.0320313,132.944238 L59.2376953,132.910547 L59.4448242,132.873926 L59.6519531,132.837305 L59.8602539,132.796582 L60.0685547,132.754688 L60.2768555,132.710156 L60.4866211,132.662695 L60.6978516,132.612598 L60.909082,132.561035 L61.1203125,132.506836 L61.3327148,132.45 L61.546582,132.390527 L61.7604492,132.328418 L61.9743164,132.264844 L62.1893555,132.198633 L62.4043945,132.129492 L62.5857422,132.07002 L62.1594727,130.756055 L62.1571289,130.758105 L62.1571289,130.758105 Z M51.6890625,131.187012 L51.6890625,131.187012 L51.6213867,131.167969 L51.4631836,131.121973 L51.3061523,131.07334 L51.1479492,131.023242 L50.990918,130.97168 L50.8338867,130.91748 L50.6783203,130.863281 L50.5253906,130.80791 L50.3709961,130.749609 L50.2180664,130.690137 L50.0666016,130.629199 L49.9151367,130.56709 L49.7648438,130.503516 L49.6160156,130.438477 L49.4671875,130.372266 L49.3198242,130.303125 L49.1736328,130.233984 L49.0274414,130.163672 L48.88125,130.091895 L48.7376953,130.018945 L48.5956055,129.944531 L48.4520508,129.86748 L48.3099609,129.79043 L48.1693359,129.710742 L48.0298828,129.630762 L47.8904297,129.549609 L47.7509766,129.46582 L47.6144531,129.382031 L47.4776367,129.296777 L47.3422852,129.210059 L47.2069336,129.122168 L47.0730469,129.032813 L46.9391602,128.943457 L46.8079102,128.851465 L46.6766602,128.759473 L46.5454102,128.664844 L46.415625,128.570215 L46.2870117,128.474121 L46.1598633,128.376563 L46.0327148,128.279004 L45.9067383,128.180273 L45.8499023,128.134277 L44.9797852,129.207422 L45.0448242,129.260156 L45.1801758,129.36709 L45.3166992,129.472559 L45.4535156,129.576855 L45.5929688,129.681152 L45.7324219,129.783984 L45.8730469,129.88418 L46.0151367,129.984375 L46.1586914,130.083105 L46.3022461,130.179199 L46.4469727,130.275293 L46.5931641,130.369922 L46.7393555,130.463379 L46.8867188,130.556836 L47.0355469,130.647363 L47.184375,130.736719 L47.3358398,130.824609 L47.4873047,130.911328 L47.6402344,130.996582 L47.7946289,131.080371 L47.9490234,131.162988 L48.1045898,131.244141 L48.2616211,131.323828 L48.4186523,131.400879 L48.5768555,131.47793 L48.7365234,131.553809 L48.8961914,131.626758 L49.0573242,131.698535 L49.2196289,131.768848 L49.3833984,131.837988 L49.5457031,131.905664 L49.7106445,131.971875 L49.8770508,132.036914 L50.043457,132.099023 L50.2113281,132.161133 L50.3803711,132.220605 L50.5494141,132.278906 L50.7199219,132.334277 L50.8918945,132.388477 L51.0638672,132.441211 L51.2370117,132.492773 L51.3046875,132.511816 L51.6890625,131.184375 L51.6890625,131.187012 L51.6890625,131.187012 Z M43.0180664,125.319727 L43.0180664,125.319727 L42.9612305,125.249414 L42.8610352,125.124902 L42.7608398,125.000391 L42.6632813,124.874414 L42.5657227,124.747266 L42.4696289,124.620117 L42.375,124.492969 L42.2803711,124.364355 L42.1869141,124.23457 L42.0949219,124.104785 L42.0029297,123.975 L41.9135742,123.84375 L41.8242188,123.7125 L41.7363281,123.579785 L41.6496094,123.44707 L41.5628906,123.313184 L41.4791016,123.179297 L41.3953125,123.043945 L41.3126953,122.908594 L41.231543,122.773242 L41.1503906,122.636719 L41.0704102,122.500195 L40.9918945,122.362207 L40.9148438,122.225684 L40.8389648,122.087695 L40.7630859,121.948242 L40.6886719,121.810254 L40.6157227,121.670801 L40.5427734,121.531348 L40.4724609,121.390723 L40.4021484,121.25127 L40.3330078,121.110645 L40.265332,120.968555 L40.1991211,120.826465 L40.134082,120.684375 L40.0705078,120.542285 L40.0069336,120.400195 L39.9448242,120.258105 L39.8838867,120.114551 L39.8244141,119.972461 L39.7661133,119.828906 L39.7078125,119.685352 L39.6603516,119.564941 L38.3736328,120.06416 L38.4251953,120.19541 L38.4861328,120.34834 L38.5482422,120.50127 L38.6118164,120.654199 L38.6768555,120.805664 L38.7418945,120.957129 L38.8095703,121.110059 L38.8787109,121.261523 L38.9490234,121.412988 L39.0193359,121.563281 L39.0911133,121.713574 L39.1640625,121.863867 L39.2384766,122.01416 L39.3143555,122.162988 L39.3902344,122.311816 L39.4672852,122.45918 L39.5472656,122.606543 L39.6272461,122.752734 L39.7083984,122.900098 L39.7910156,123.046289 L39.8748047,123.19248 L39.9600586,123.337207 L40.0453125,123.481934 L40.1332031,123.62666 L40.2210938,123.770215 L40.3089844,123.912305 L40.3995117,124.055859 L40.4900391,124.197949 L40.5820313,124.340039 L40.6754883,124.480664 L40.7701172,124.620117 L40.8662109,124.75957 L40.9637695,124.899023 L41.0613281,125.037012 L41.1615234,125.175 L41.2617188,125.311816 L41.3630859,125.44834 L41.465918,125.583691 L41.56875,125.719043 L41.6730469,125.85293 L41.7785156,125.986816 L41.8854492,126.120703 L41.94375,126.191016 L43.0154297,125.319727 L43.0180664,125.319727 L43.0180664,125.319727 Z M38.5664062,115.709766 L38.5664062,115.709766 C38.1670898,113.517773 38.1023437,111.30791 38.5839844,109.122656 L37.2348633,108.825 C36.7072266,111.156445 36.7801758,113.619141 37.2079102,115.958789 L38.5664062,115.708594 L38.5664062,115.709766 L38.5664062,115.709766 Z M39.8938477,105.372949 L39.8938477,105.372949 C40.8316406,103.38252 42.2267578,101.467676 43.6151367,99.7696289 L42.5501953,98.8901367 C41.099707,100.642383 39.6234375,102.708691 38.6516602,104.769727 L39.8938477,105.372949 L39.8938477,105.372949 Z M46.3321289,96.7004883 L46.3321289,96.7004883 L46.3415039,96.6911133 L46.4592773,96.5666016 L46.5770508,96.4420898 L46.6959961,96.3175781 L46.8164062,96.1916016 L46.9368164,96.065625 L47.0572266,95.9396484 L47.1791016,95.8136719 L47.3021484,95.6865234 L47.4251953,95.559375 L47.5482422,95.4322266 L47.6727539,95.3050781 L47.7987305,95.1764648 L47.924707,95.0478516 L48.0518555,94.9192383 L48.1790039,94.790625 L48.3076172,94.6608398 L48.4374023,94.5295898 L48.5671875,94.3983398 L48.6969727,94.2685547 L48.8282227,94.1373047 L48.9594727,94.0060547 L49.0933594,93.8733398 L49.2272461,93.740625 L49.3611328,93.6079102 L49.4964844,93.4740234 L49.6318359,93.3401367 L49.7683594,93.20625 L49.9051758,93.0708984 L50.0431641,92.9355469 L50.1811523,92.8001953 L50.3206055,92.6636719 L50.4600586,92.5271484 L50.6006836,92.390625 L50.7413086,92.2526367 L50.8833984,92.1146484 L51.0254883,91.9766602 L51.169043,91.837207 L51.178418,91.8290039 L50.2148438,90.8384766 L50.2054688,90.8478516 L50.0619141,90.9873047 L49.9183594,91.1267578 L49.7762695,91.2647461 L49.6341797,91.4041992 L49.4935547,91.5407227 L49.3529297,91.6787109 L49.2134766,91.8152344 L49.0740234,91.9517578 L48.9360352,92.0882813 L48.7980469,92.2236328 L48.6600586,92.3589844 L48.5232422,92.4943359 L48.3878906,92.6282227 L48.2525391,92.7635742 L48.1186523,92.8974609 L47.9847656,93.0301758 L47.8508789,93.1640625 L47.7196289,93.2967773 L47.5883789,93.4280273 L47.4571289,93.5607422 L47.3273437,93.6919922 L47.1975586,93.8232422 L47.0689453,93.9544922 L46.940332,94.0842773 L46.8131836,94.2140625 L46.6860352,94.3438477 L46.5588867,94.4736328 L46.4329102,94.6022461 L46.3083984,94.7308594 L46.1838867,94.8594727 L46.0608398,94.9880859 L45.937793,95.1166992 L45.815918,95.2438477 L45.6955078,95.3698242 L45.5736328,95.4969727 L45.4532227,95.6241211 L45.3342773,95.7500977 L45.3249023,95.7609375 L46.331543,96.7069336 L46.331543,96.7004883 L46.3321289,96.7004883 Z" id="Shape" fill="#FFFFFF"></path>
                </g>
            </g>
        </g>
    </g>
</svg>