<?xml version="1.0" encoding="UTF-8" standalone="no"?>
<svg width="150px" height="150px" viewBox="0 0 150 150" version="1.1" xmlns="http://www.w3.org/2000/svg" xmlns:xlink="http://www.w3.org/1999/xlink">
    <!-- Generator: Sketch 40 (33762) - http://www.bohemiancoding.com/sketch -->
    <title>graduates 3</title>
    <desc>Created with Sketch.</desc>
    <defs></defs>
    <g id="LandingPage" stroke="none" stroke-width="1" fill="none" fill-rule="evenodd">
        <g id="Page" transform="translate(-645.000000, -3117.000000)">
            <g id="graduates-3" transform="translate(645.000000, 3117.000000)">
                <g id="Layer_1">
                    <path d="M74.9339181,149.868421 C116.206725,149.868421 149.868421,116.206725 149.868421,74.9345029 C149.868421,33.6616959 116.206725,0 74.9339181,0 C33.6616959,0 0,33.6616959 0,74.9345029 C0,116.206725 33.6616959,149.868421 74.9339181,149.868421 L74.9339181,149.868421 Z" id="Shape" fill="#FF757C"></path>
                    <g id="Group" transform="translate(106.725146, 57.309942)" fill="#666666">
                        <polygon id="Shape" points="0.189766082 8.41315789 19.448538 17.1555556 37.5766082 8.92631579 18.3178363 0.183333333"></polygon>
                        <path d="M5.55877193,38.8201754 C7.45292398,35.6377193 10.4353801,31.944152 7.40584795,26.3289474 C2.94561404,6.82748538 23.5002924,2.87309942 26.6084795,10.9210526 C31.6649123,12.8280702 31.5307018,23.3260234 28.9292398,28.8181287 C28.8137427,31.0789474 26.4631579,33.05 30.7105263,38.8827485 L31.0157895,38.8149123 L31.0152047,38.8149123 C25.5055556,40.4122807 11.3821637,39.6766082 5.55818713,38.8187135 L5.55877193,38.8201754 L5.55877193,38.8201754 Z" id="Shape"></path>
                    </g>
                    <path d="M121.732456,92.0195906 C121.54386,95.5116959 120.304094,96.8309942 118.584795,97.748538 C117.710819,98.5204678 110.036842,99.4453216 108.99883,102.248246 C108.70848,103.032456 107.646784,135.066374 106.907018,142.718129 C122.268421,135.459649 134.762865,123.134795 142.240351,107.899123 C142.133918,104.319298 142.044737,101.940351 141.977778,101.834503 C140.224269,99.1064327 133.030994,98.5160819 132.226608,97.8453216 C130.545322,96.904386 129.338012,95.521345 129.15,92.0187135 C129.15,92.0187135 126.637427,93.9678363 125.075731,93.6684211 C123.514035,93.3684211 121.732749,92.0187135 121.732749,92.0187135 L121.732456,92.0195906 L121.732456,92.0195906 Z" id="Shape" fill="#F0B97D"></path>
                    <path d="M117.684503,86.2912281 C119.234795,89.6111111 119.807895,90.9070175 121.733041,92.398538 C121.733041,92.398538 123.514327,93.7730994 125.076901,94.0798246 C126.638596,94.3850877 129.150585,92.398538 129.150585,92.398538 C131.075731,90.9064327 131.64883,89.6105263 133.198538,86.2912281 C133.578655,86.4938596 133.975439,86.7681287 134.284211,86.4146199 C134.59269,86.0616959 136.060819,81.4684211 135.797076,80.8502924 C135.532456,80.2307018 135.275731,80.625731 134.881287,80.9064327 C134.902047,80.772807 134.570175,82.5652047 134.575439,82.2926901 C134.612281,80.1254386 133.089181,79.7821637 132.611404,74.0459064 C125.587135,81.0154971 119.024854,77.8169591 116.738304,78.2842105 C116.076023,78.419883 115.881871,80.1157895 116.003801,80.9064327 C113.524854,79.1362573 116.538304,86.3429825 116.600877,86.4146199 C116.909357,86.7684211 117.30614,86.4932749 117.685673,86.2912281 L117.684503,86.2912281 L117.684503,86.2912281 Z" id="Shape" fill="#FED198"></path>
                    <path d="M118.584211,97.7473684 C115.683333,98.9631579 111.167544,99.0169591 108.90731,101.972807 C108.322515,102.737719 104.738889,139.733918 103.580409,143.817251 C103.697953,143.894152 103.818421,143.969591 103.940643,144.045029 C120.967836,136.890351 134.791813,123.625731 142.676316,106.997076 C142.298246,103.920468 142.038012,101.919883 141.97807,101.83538 C139.738596,98.669883 134.643275,99.0078947 132.279825,97.7385965 L125.688596,111.210819 L118.584211,97.7473684 L118.584211,97.7473684 Z" id="Shape" fill="#FFBA1B"></path>
                    <path d="M114.931871,66.6160819 C119.894152,63.2897661 131.976901,63.4324561 136.404971,66.7935673 L136.861988,72.3593567 C129.136257,70.3406433 122.321053,70.4444444 114.421345,72.4850877 L114.931871,66.6160819 L114.931871,66.6160819 Z" id="Shape" fill="#807D7D"></path>
                    <g id="Group" transform="translate(110.526316, 63.450292)" fill="#FFFFFF">
                        <path d="M11.1678363,40.1824561 C13.2181287,40.9131579 16.7064327,40.9169591 18.869883,40.1792398 L15.1614035,47.7611111 L11.1672515,40.1824561 L11.1678363,40.1824561 L11.1678363,40.1824561 Z" id="Shape"></path>
                        <path d="M0.711988304,0.383625731 L0.743567251,9.86549708 L0.743567251,10.1596491 L0.178947368,10.1596491 L0.178947368,9.86549708 L0.178947368,0.56374269 C0.199707602,0.0195906433 0.674561404,-0.0546783626 0.712573099,0.383625731 L0.711988304,0.383625731 L0.711988304,0.383625731 Z" id="Shape"></path>
                    </g>
                    <path d="M109.950292,75.0479532 C109.950292,77.6102339 109.412573,79.8146199 109.383041,79.9619883 C109.352632,80.1090643 109.870175,80.5923977 109.970468,80.1090643 C110.070468,79.625731 109.960234,80.1201754 110.419006,80.1508772 C110.869591,80.1818713 110.963743,79.9578947 110.966959,79.9508772 C110.969591,79.9578947 111.063743,80.1818713 111.514912,80.1508772 C111.97193,80.1192982 111.862865,79.6254386 111.962865,80.1090643 C112.062865,80.5918129 112.579825,80.1090643 112.550292,79.9619883 C112.519883,79.8149123 111.983041,77.6102339 111.983041,75.0479532 C111.959064,74.0669591 111.574561,73.6040936 110.967251,73.4622807 C110.358772,73.604386 109.974561,74.0669591 109.951462,75.0479532 L109.950292,75.0479532 L109.950292,75.0479532 Z" id="Shape" fill="#FFBA1B"></path>
                    <path d="M110.966667,73.4622807 C111.972807,73.4622807 112.002632,74.1017544 111.951462,74.6944444 C111.729532,74.501462 111.37076,74.3769006 110.966667,74.3769006 C110.561404,74.3769006 110.202632,74.5020468 109.981287,74.6944444 C109.945029,74.0070175 109.959942,73.4622807 110.966667,73.4622807 L110.966667,73.4622807 Z" id="Shape" fill="#807D7D"></path>
                    <g id="Group" transform="translate(5.555556, 57.309942)" fill="#666666">
                        <polygon id="Shape" points="0.209064327 8.41315789 19.4678363 17.1555556 37.5959064 8.92631579 18.3371345 0.183333333"></polygon>
                        <path d="M5.57865497,38.8201754 C7.47163743,35.6377193 10.4552632,31.944152 7.42573099,26.3289474 C2.96491228,6.82748538 23.5195906,2.87309942 26.6283626,10.9210526 C31.6847953,12.8280702 31.5505848,23.3260234 28.9491228,28.8181287 C28.8336257,31.0789474 26.4830409,33.05 30.7304094,38.8827485 L31.0356725,38.8149123 L31.0350877,38.8149123 C25.5260234,40.4122807 11.4026316,39.6766082 5.57807018,38.8187135 L5.57865497,38.8201754 L5.57865497,38.8201754 Z" id="Shape"></path>
                    </g>
                    <path d="M20.5824561,92.0195906 C20.3926901,95.5116959 19.1535088,96.8309942 17.4342105,97.748538 C16.5602339,98.5204678 8.88625731,99.4453216 7.84824561,102.248246 C7.77660819,102.441228 7.65906433,104.525731 7.51081871,107.666959 C14.8649123,122.787719 27.1549708,135.061988 42.2845029,142.39883 C41.6333333,134.5 41.0795322,102.228363 40.8266082,101.83538 C39.0730994,99.1073099 31.8798246,98.5169591 31.0754386,97.8461988 C29.394152,96.9052632 28.1868421,95.5222222 27.9994152,92.0195906 C27.9994152,92.0195906 25.4868421,93.9687135 23.9245614,93.6692982 C22.3628655,93.3692982 20.5815789,92.0195906 20.5815789,92.0195906 L20.5824561,92.0195906 L20.5824561,92.0195906 L20.5824561,92.0195906 Z" id="Shape" fill="#F0B97D"></path>
                    <path d="M16.5347953,86.2912281 C18.0850877,89.6111111 18.6567251,90.9070175 20.5827485,92.398538 C20.5827485,92.398538 22.3634503,93.7730994 23.925731,94.0798246 C25.4883041,94.3850877 28.0005848,92.398538 28.0005848,92.398538 C29.925731,90.9064327 30.4988304,89.6105263 32.048538,86.2912281 C32.4292398,86.4938596 32.8254386,86.7681287 33.1342105,86.4146199 C33.4426901,86.0616959 34.9102339,81.4684211 34.647076,80.8502924 C34.3824561,80.2307018 34.124269,80.625731 33.7312865,80.9064327 C33.7520468,80.772807 33.4201754,82.5652047 33.4248538,82.2926901 C33.4622807,80.1254386 31.9391813,79.7821637 31.4608187,74.0459064 C24.4359649,81.0154971 17.874269,77.8169591 15.5877193,78.2842105 C14.9248538,78.419883 14.7312865,80.1157895 14.8532164,80.9064327 C12.3736842,79.1362573 15.3868421,86.3429825 15.4502924,86.4146199 C15.7581871,86.7681287 16.1552632,86.4932749 16.5347953,86.2912281 L16.5347953,86.2912281 Z" id="Shape" fill="#FED198"></path>
                    <path d="M17.4336257,97.7473684 C14.5327485,98.9631579 10.0169591,99.0169591 7.75614035,101.972807 C7.63274854,102.134795 7.3754386,103.918713 7.03450292,106.664035 C14.7921053,123.236257 28.4365497,136.499415 45.2766082,143.765789 C45.6263158,143.550292 45.9646199,143.328947 46.2865497,143.101754 C45.1611111,139.062281 41.0891813,102.205848 40.8266082,101.834795 C38.5871345,98.6692982 33.4918129,99.0073099 31.1277778,97.7380117 L24.5371345,111.210234 L17.4327485,97.747076 L17.4336257,97.7473684 L17.4336257,97.7473684 Z" id="Shape" fill="#FFBA1B"></path>
                    <path d="M13.7815789,66.6160819 C18.7438596,63.2897661 30.8266082,63.4324561 35.2546784,66.7935673 L35.7116959,72.3593567 C27.9859649,70.3406433 21.1707602,70.4444444 13.2710526,72.4850877 L13.7815789,66.6160819 L13.7815789,66.6160819 Z" id="Shape" fill="#807D7D"></path>
                    <g id="Group" transform="translate(9.356725, 63.450292)" fill="#FFFFFF">
                        <path d="M11.1877193,40.1824561 C13.2374269,40.9131579 16.7263158,40.9169591 18.8897661,40.1792398 L15.1812865,47.7611111 L11.1877193,40.1824561 L11.1877193,40.1824561 Z" id="Shape"></path>
                        <path d="M0.731871345,0.383625731 L0.762865497,9.86549708 L0.762865497,10.1596491 L0.198245614,10.1596491 L0.198245614,9.86549708 L0.198245614,0.56374269 C0.21754386,0.0195906433 0.693859649,-0.0546783626 0.731871345,0.383625731 L0.731871345,0.383625731 Z" id="Shape"></path>
                    </g>
                    <path d="M8.8002924,75.0479532 C8.8002924,77.6102339 8.2625731,79.8146199 8.23245614,79.9619883 C8.20263158,80.1090643 8.72046784,80.5923977 8.82046784,80.1090643 C8.92046784,79.625731 8.81023392,80.1201754 9.26900585,80.1508772 C9.71959064,80.1818713 9.81374269,79.9578947 9.81637427,79.9508772 C9.81900585,79.9578947 9.91374269,80.1818713 10.3643275,80.1508772 C10.8219298,80.1192982 10.7128655,79.6254386 10.8128655,80.1090643 C10.9116959,80.5918129 11.4292398,80.1090643 11.4002924,79.9619883 C11.369883,79.8149123 10.8324561,77.6102339 10.8324561,75.0479532 C10.8093567,74.0669591 10.4245614,73.6040936 9.81666667,73.4622807 C9.20906433,73.604386 8.82426901,74.0669591 8.8002924,75.0479532 L8.8002924,75.0479532 Z" id="Shape" fill="#FFBA1B"></path>
                    <path d="M9.81549708,73.4622807 C10.822807,73.4622807 10.8526316,74.1017544 10.8008772,74.6944444 C10.5789474,74.501462 10.2201754,74.3769006 9.81549708,74.3769006 C9.41081871,74.3769006 9.05146199,74.5020468 8.83011696,74.6944444 C8.79473684,74.0070175 8.80877193,73.4622807 9.81549708,73.4622807 L9.81549708,73.4622807 Z" id="Shape" fill="#807D7D"></path>
                    <g id="Group" transform="translate(34.795322, 18.421053)" fill="#666666">
                        <polygon id="Shape" points="0.232748538 18.2391813 42.775731 37.5523392 82.8216374 19.3725146 40.278655 0.0599415205"></polygon>
                        <path d="M12.0935673,85.4102339 C16.2763158,78.380117 22.8669591,70.219883 16.1730994,57.8143275 C6.31988304,14.7353801 51.7269006,6.00087719 58.5926901,23.7798246 C69.7643275,27.9929825 69.4672515,51.1827485 63.7216374,63.3163743 C63.4660819,68.3096491 58.2733918,72.6646199 67.655848,85.5476608 L68.3315789,85.4005848 L68.3309942,85.4011696 C56.1596491,88.9280702 24.9619883,87.304386 12.0944444,85.4102339 L12.0935673,85.4102339 L12.0935673,85.4102339 L12.0935673,85.4102339 Z" id="Shape"></path>
                    </g>
                    <path d="M67.7611111,94.751462 C67.3429825,102.466374 64.6046784,105.378947 60.8078947,107.40731 C58.8763158,109.113158 44.3377193,109.57193 40.0891813,116.433041 C39.6225146,117.187427 36.2847953,129.354971 34.6590643,138.133918 C46.2915205,145.561696 60.1090643,149.868129 74.9333333,149.868129 C90.1125731,149.868129 104.234211,145.350585 116.036257,137.592398 C114.454971,128.436257 113.069591,117.380409 112.482749,116.433626 C107.996199,109.18655 92.7192982,109.102047 90.9423977,107.621637 C87.2289474,105.543567 84.5614035,102.486257 84.147076,94.751462 C84.147076,94.751462 78.5967836,99.0567251 75.1459064,98.3932749 C71.6959064,97.7312865 67.7611111,94.751462 67.7611111,94.751462 L67.7611111,94.751462 Z" id="Shape" fill="#F0B97D"></path>
                    <path d="M58.8187135,82.0976608 C62.2423977,89.4298246 63.5087719,92.2926901 67.7611111,95.5880117 C67.7611111,95.5880117 71.6959064,98.6251462 75.1461988,99.3008772 C78.597076,99.9766082 84.1473684,95.5880117 84.1473684,95.5880117 C88.3997076,92.2926901 89.6654971,89.4298246 93.0891813,82.0976608 C93.9280702,82.5450292 94.805848,83.1508772 95.4868421,82.369883 C96.1684211,81.5888889 99.4114035,71.4450292 98.8280702,70.0766082 C98.2438596,68.7078947 97.6754386,69.5804094 96.8061404,70.2 C96.8520468,69.905848 96.1195906,73.8657895 96.1298246,73.2637427 C96.2116959,68.4763158 92.8467836,67.7154971 91.7915205,55.0473684 C76.2733918,70.4429825 61.7774854,63.3780702 56.7266082,64.4084795 C55.2628655,64.7067251 54.8336257,68.454386 55.1035088,70.2008772 C49.6260234,66.2918129 56.2827485,82.2108187 56.4219298,82.3701754 C57.1032164,83.1502924 57.9798246,82.5447368 58.8187135,82.0976608 L58.8187135,82.0976608 Z" id="Shape" fill="#FED198"></path>
                    <path d="M52.7371345,38.6339181 C63.6988304,31.2856725 90.3912281,31.6005848 100.172515,39.0269006 L101.182456,51.3207602 C84.1154971,46.8625731 69.0599415,47.0909357 51.6108187,51.5982456 L52.7377193,38.6339181 L52.7371345,38.6339181 L52.7371345,38.6339181 Z" id="Shape" fill="#807D7D"></path>
                    <path d="M67.2266082,121.089181 C71.8087719,122.723684 79.6061404,122.733333 84.4421053,121.083333 L76.1523392,138.02924 L67.2260234,121.089181 L67.2266082,121.089181 L67.2266082,121.089181 Z" id="Shape" fill="#20D0C2"></path>
                    <path d="M44.5795322,32.4877193 L44.6479532,53.4347953 L44.6479532,54.0833333 L43.4017544,54.0833333 L43.4017544,53.4347953 L43.4017544,32.8850877 C43.4444444,31.6850877 44.4959064,31.519883 44.5795322,32.4877193 L44.5795322,32.4877193 Z" id="Shape" fill="#FFFFFF"></path>
                    <path d="M41.7336257,57.2593567 C41.7336257,62.9207602 40.5461988,67.7912281 40.4804094,68.1160819 C40.4140351,68.4412281 41.5576023,69.5081871 41.7783626,68.4412281 C41.998538,67.3730994 41.7564327,68.4637427 42.7684211,68.5327485 C43.7643275,68.6017544 43.9719298,68.1073099 43.978655,68.0926901 C43.9850877,68.1081871 44.1935673,68.6017544 45.1888889,68.5327485 C46.2008772,68.4637427 45.9587719,67.3730994 46.1795322,68.4412281 C46.3997076,69.5081871 47.5426901,68.4412281 47.4774854,68.1160819 C47.4111111,67.7909357 46.2233918,62.9201754 46.2233918,57.2593567 C46.1704678,55.0921053 45.3210526,54.0692982 43.978655,53.7576023 C42.6356725,54.0692982 41.7871345,55.0915205 41.7336257,57.2593567 L41.7336257,57.2593567 Z" id="Shape" fill="#FFBA1B"></path>
                    <path d="M43.9774854,53.7576023 C46.2020468,53.7576023 46.2672515,55.1704678 46.1538012,56.4792398 C45.6640351,56.0532164 44.8719298,55.7763158 43.9774854,55.7763158 C43.0830409,55.7763158 42.2912281,56.0532164 41.8011696,56.4792398 C41.7225146,54.9599415 41.7535088,53.7576023 43.9774854,53.7576023 L43.9774854,53.7576023 Z" id="Shape" fill="#807D7D"></path>
                    <path d="M74.9339181,149.868421 C90.1201754,149.868421 104.273099,145.306725 116.100877,137.489766 C114.652339,125.503216 113.58655,116.850877 113.396199,116.581871 C108.274561,109.342105 97.9239766,109.97807 91.0891813,107.45614 L76.1418129,138.023684 L60.1201754,107.555263 C53.4856725,110.335673 44.9192982,109.663158 39.7488304,116.423099 C39.5049708,116.743567 36.0020468,130.290351 34.5552632,138.009064 C46.2210526,145.510526 60.0847953,149.868421 74.9339181,149.868421 L74.9339181,149.868421 Z" id="Shape" fill="#0E7886"></path>
                </g>
            </g>
        </g>
    </g>
</svg>