<?xml version="1.0" encoding="UTF-8" standalone="no"?>
<svg width="200px" height="200px" viewBox="0 0 200 200" version="1.1" xmlns="http://www.w3.org/2000/svg" xmlns:xlink="http://www.w3.org/1999/xlink">
    <!-- Generator: Sketch 40 (33762) - http://www.bohemiancoding.com/sketch -->
    <title>learning</title>
    <desc>Created with Sketch.</desc>
    <defs></defs>
    <g id="LandingPage" stroke="none" stroke-width="1" fill="none" fill-rule="evenodd">
        <g id="Page" transform="translate(-1159.000000, -4078.000000)">
            <g id="learning" transform="translate(1159.000000, 4078.000000)">
                <g id="Layer_1">
                    <path d="M99.9996094,0 C155.229297,0 199.999609,44.7710937 199.999609,100 C199.999609,155.228906 155.229297,200 99.9996094,200 C44.7714844,200 0.000390625,155.228906 0.000390625,100 C0.000390625,44.7710937 44.7714844,0 99.9996094,0 L99.9996094,0 Z" id="Shape" fill="#FF757C"></path>
                    <path d="M64.2171875,92.8246094 C69.3660156,84.1707031 77.4796875,74.1257812 69.2402344,58.8535156 C57.1101562,5.81953125 113.008984,-4.93320313 121.460547,16.9539062 C135.214062,22.1394531 134.847266,50.6878906 127.774609,65.6265625 C127.459375,71.7734375 121.067969,77.1347656 132.618359,92.9949219 L133.449609,92.8132812 L133.448828,92.8140625 C118.464453,97.1570312 80.0578125,95.1578125 64.2171875,92.8246094 L64.2171875,92.8246094 Z" id="Shape" fill="#666666"></path>
                    <path d="M89.9132812,81.6472656 C89.3984375,91.1453125 86.0273438,94.7308594 81.353125,97.2277344 C78.975,99.3285156 61.0796875,99.8917969 55.846875,108.339062 C54.7554687,110.101172 54.196875,128.643359 51.1796875,137.220703 C73.053125,151.546094 126.946094,151.546094 148.819922,137.220703 C145.801953,128.643359 146.060547,110.102734 144.969141,108.340625 C139.444922,99.41875 120.638281,99.3152344 118.450781,97.4921875 C113.879297,94.9332031 110.595313,91.1703125 110.086328,81.6472656 C110.086328,81.6472656 103.253906,86.9476562 99.00625,86.1320312 C94.7570312,85.3171875 89.9132812,81.6472656 89.9132812,81.6472656 L89.9132812,81.6472656 Z" id="Shape" fill="#FED198"></path>
                    <path d="M89.6851563,84.2398437 C92.175,85.7210937 96.3273438,90.3574219 100.213281,90.4101562 C104.085547,90.4625 109.539063,84.7371094 110.317578,84.3148437 C110.250391,83.775 110.194531,83.2125 110.149609,82.6277344 L110.085938,82.6777344 L110.082422,82.6804687 L110.079688,82.68125 C109.871094,82.8449219 103.187109,88.0667969 99.0046875,87.2484375 C94.884375,86.4421875 90.2042969,82.9007812 89.9261719,82.6871094 L89.846875,82.6269531 C89.8039063,83.1847656 89.7488281,83.7230469 89.6851563,84.2398437 L89.6851563,84.2398437 Z" id="Shape" fill="#F0B97D"></path>
                    <path d="M78.9046875,66.0703125 C83.1195312,75.0964844 84.6785156,78.6207031 89.9132812,82.678125 C89.9132812,82.678125 94.7570312,86.4175781 99.0058594,87.2496094 C103.253516,88.0796875 110.085937,82.678125 110.085937,82.678125 C115.321484,78.6207031 116.878906,75.0964844 121.09375,66.0703125 C122.127344,66.6207031 123.207422,67.3671875 124.045312,66.4054688 C124.884375,65.4433594 128.876172,52.9566406 128.157812,51.2722656 C127.439453,49.5867188 126.738281,50.6617188 125.66875,51.4246094 C125.724609,51.0613281 124.823047,55.9367187 124.835937,55.1960938 C124.936719,49.3015625 120.794141,48.3652344 119.495312,32.7695312 C100.391406,51.7234375 82.5453125,43.0246094 76.3277344,44.2949219 C74.5269531,44.6617187 73.9972656,49.2757813 74.3296875,51.4253906 C67.5859375,46.6125 75.7808594,66.2097656 75.9523437,66.4054687 C76.7921875,67.3675781 77.8710937,66.6207031 78.9039062,66.0703125 L78.9046875,66.0703125 L78.9046875,66.0703125 Z" id="Shape" fill="#FED198"></path>
                    <path d="M81.3503906,97.2242187 C74.9296875,100.654687 63.1726563,96.509375 55.8464844,108.338672 C54.7578125,110.099219 50.5808594,128.642969 47.5621094,137.220312 C69.4347656,154.085547 130.5625,154.183984 152.436719,137.220312 C149.41875,128.642969 146.058984,110.1 144.96875,108.339453 C137.625391,96.4773437 125.022656,100.649219 118.593359,97.1980469 L100.669531,133.836328 L81.3496094,97.2238281 L81.3503906,97.2238281 L81.3503906,97.2242187 Z" id="Shape" fill="#0E7886"></path>
                    <g id="Group" transform="translate(43.750000, 108.593750)" fill="#FFFFFF">
                        <path d="M46.0589844,4.634375 C51.6355469,6.62226562 61.1226562,6.634375 67.0066406,4.6265625 L56.9203125,25.2445312 L46.0589844,4.634375 L46.0589844,4.634375 Z" id="Shape"></path>
                        <path d="M0.127734375,1.55351563 C34.7367188,-2.97070312 48.5113281,5.71328125 56.2503906,12.5511719 C44.7480469,5.92890625 22.6703125,6.36640625 1.1,10.2207031 L0.127734375,1.55351563 L0.127734375,1.55351563 Z" id="Shape"></path>
                        <path d="M112.373047,1.55351562 C77.7640625,-2.97070313 63.990625,5.7125 56.2503906,12.55 C69.9746094,4.64804687 95.7644531,7.48320312 111.381641,10.3425781 L112.373047,1.55351562 L112.373047,1.55351562 Z" id="Shape"></path>
                    </g>
                    <path d="M35.3433594,120.177734 C59.7492188,114.616406 87.0996094,112.860547 100.371484,120.501562 C113.64375,112.860547 140.25,114.616406 164.656641,120.177734 C163.258984,168.191797 164.425,128.117578 162.562891,192.202734 C161.133203,191.933203 122.560547,186.196094 103.914844,191.791016 C100.810156,191.789453 100.090625,191.789453 96.9730469,191.791016 C76.5023438,185.837109 38.7789063,191.950391 37.4355469,192.202734 C35.5128906,126.034375 36.7859375,169.922656 35.3433594,120.177734 L35.3433594,120.177734 Z" id="Shape" fill="#15BDB1"></path>
                    <g id="Group" transform="translate(38.281250, 112.500000)" fill="#DFE1E3">
                        <path d="M0.14375,3.384375 L0.51484375,7.19960937 C24.0910156,2.19492187 49.7027344,0.89609375 62.4097656,8.2125 L62.4105469,8.21171875 C62.365625,8.17734375 43.5410156,-5.97695313 0.14453125,3.38359375 L0.14375,3.384375 L0.14375,3.384375 Z" id="Shape"></path>
                        <path d="M123.294531,3.59609375 L122.923437,7.41132812 C99.3472656,2.40664062 73.7347656,1.1078125 61.0285156,8.42421875 L61.0277344,8.4234375 C61.0726562,8.38984375 79.8972656,-5.76523438 123.294922,3.5953125 L123.294922,3.59609375 L123.294531,3.59609375 Z" id="Shape"></path>
                    </g>
                    <path d="M48.6148438,139.75 L41.8167969,140.113281 L35.0507813,140.592187 C32.25,140.792187 32.7175781,145.808203 35.5082031,145.477344 L42.8839844,144.603906 L48.4847656,144.132812 C51.2855469,143.896094 50.4957031,139.648437 48.6148438,139.75 L48.6148438,139.75 Z M47.6800781,155.354687 L47.6800781,155.354687 L37.1363281,156.587109 C34.8746094,156.849609 35.4199219,161.888281 37.59375,161.471484 L48.1691406,159.437109 C50.3792969,159.011328 49.9117188,155.093359 47.6800781,155.354687 L47.6800781,155.354687 Z M49.0203125,149.884766 L49.0203125,149.884766 C51.8175781,149.623047 52.3886719,153.944922 49.6007813,154.301172 L36.2519531,156.006641 C33.4648438,156.363281 32.9980469,151.384375 35.7945313,151.122266 L49.0203125,149.884766 L49.0203125,149.884766 Z M50.8839844,144.425 L50.8839844,144.425 C54.159375,144.118359 54.6167969,149.002734 51.3414063,149.309375 L35.828125,150.7625 C32.5535156,151.069141 32.0972656,146.184766 35.3707031,145.878125 L50.8839844,144.425 L50.8839844,144.425 Z" id="Shape" fill="#FED198"></path>
                    <g id="Group" transform="translate(46.875000, 140.234375)" fill="#FFFFFF">
                        <path d="M0.859375,0.62578125 L1.09804687,3.17851563 L2.8,3.01835938 C3.08671875,2.0625 2.96523437,1.15976563 2.54414062,0.28828125 L0.85859375,0.625 L0.859375,0.62578125 L0.859375,0.62578125 Z" id="Shape"></path>
                        <path d="M3.78359375,5.37148437 L4.05390625,8.27070312 L5.64375,8.121875 C6.20625,7.02617188 6.18125,5.9859375 5.35351562,5.02148438 L3.78242187,5.37109375 L3.78359375,5.37148437 L3.78359375,5.37148437 Z" id="Shape"></path>
                        <path d="M1.66132812,10.790625 L1.9,13.3425781 L3.84921875,13.1601563 C4.0515625,12.2238281 3.97421875,11.3136719 3.59335937,10.4308594 L1.66132812,10.790625 L1.66132812,10.790625 Z" id="Shape"></path>
                        <path d="M0.063671875,16.4308594 L0.373828125,18.4503906 L2.328125,18.1152344 C2.50546875,17.3460938 2.403125,16.6242188 1.99648437,15.9542969 L0.063671875,16.4296875 L0.063671875,16.4308594 L0.063671875,16.4308594 Z" id="Shape"></path>
                    </g>
                    <path d="M151.385547,139.75 L158.183594,140.113281 L164.949609,140.592187 C167.750391,140.792187 167.282813,145.808203 164.492188,145.477344 L157.116406,144.603906 L151.515625,144.132812 C148.714453,143.896094 149.504297,139.648437 151.385547,139.75 L151.385547,139.75 Z M152.319922,155.354687 L152.319922,155.354687 L162.863672,156.587109 C165.125391,156.849609 164.580078,161.888281 162.40625,161.471484 L151.830859,159.437109 C149.621484,159.011328 150.088281,155.093359 152.319922,155.354687 L152.319922,155.354687 Z M150.979688,149.884766 L150.979688,149.884766 C148.182422,149.623047 147.611328,153.944922 150.399219,154.301172 L163.748047,156.006641 C166.535156,156.363281 167.001953,151.384375 164.205469,151.122266 L150.979688,149.884766 L150.979688,149.884766 Z M149.116016,144.425 L149.116016,144.425 C145.840625,144.118359 145.383203,149.002734 148.658594,149.309375 L164.171875,150.7625 C167.446484,151.069141 167.902734,146.184766 164.629297,145.878125 L149.116016,144.425 L149.116016,144.425 Z" id="Shape" fill="#FED198"></path>
                    <g id="Group" transform="translate(146.875000, 140.234375)" fill="#FFFFFF">
                        <path d="M5.390625,0.62578125 L5.15195313,3.17851563 L3.44921875,3.01835938 C3.1625,2.0625 3.28398438,1.15976563 3.70507813,0.28828125 L5.390625,0.625 L5.390625,0.62578125 L5.390625,0.62578125 Z" id="Shape"></path>
                        <path d="M2.465625,5.37148437 L2.1953125,8.27070312 L0.60546875,8.121875 C0.04296875,7.02617188 0.06796875,5.9859375 0.895703125,5.02148438 L2.46679687,5.37109375 L2.465625,5.37148437 L2.465625,5.37148437 Z" id="Shape"></path>
                        <path d="M4.58867188,10.790625 L4.35,13.3425781 L2.40078125,13.1601563 C2.1984375,12.2238281 2.27578125,11.3136719 2.65664063,10.4308594 L4.58867188,10.790625 L4.58867188,10.790625 Z" id="Shape"></path>
                        <path d="M6.18632813,16.4308594 L5.87617188,18.4503906 L3.921875,18.1152344 C3.74453125,17.3460938 3.846875,16.6242188 4.25351563,15.9542969 L6.18632813,16.4296875 L6.18632813,16.4308594 L6.18632813,16.4308594 Z" id="Shape"></path>
                    </g>
                    <polygon id="Shape" fill="#20D0C2" points="97.0507812 118.903125 103.915234 118.903125 103.915234 191.789453 97.0507812 191.789453"></polygon>
                </g>
            </g>
        </g>
    </g>
</svg>