<?xml version="1.0" encoding="UTF-8" standalone="no"?>
<svg width="200px" height="200px" viewBox="0 0 200 200" version="1.1" xmlns="http://www.w3.org/2000/svg" xmlns:xlink="http://www.w3.org/1999/xlink">
    <!-- Generator: Sketch 40 (33762) - http://www.bohemiancoding.com/sketch -->
    <title>rocket</title>
    <desc>Created with Sketch.</desc>
    <defs></defs>
    <g id="LandingPage" stroke="none" stroke-width="1" fill="none" fill-rule="evenodd">
        <g id="Page" transform="translate(-95.000000, -4078.000000)">
            <g id="rocket" transform="translate(95.000000, 4078.000000)">
                <g id="Layer_1">
                    <path d="M99.8070175,199.610136 C154.778558,199.610136 199.612086,154.774659 199.612086,99.8050682 C199.612086,44.8354776 154.778168,0 99.8070175,0 C44.8358674,0 0.00194931774,44.8354776 0.00194931774,99.8050682 C0.00194931774,154.776608 44.837037,199.610136 99.8070175,199.610136 L99.8070175,199.610136 Z" id="Shape" fill="#5DDDD3"></path>
                    <g id="Group" transform="translate(30.799220, 28.849903)" fill="#FFFFFF">
                        <path d="M53.8495127,11.2962963 C54.7497076,11.2962963 55.6194932,11.4311891 56.4389864,11.679922 C57.8253411,5.09668616 63.6615984,0.15711501 70.6553606,0.15711501 C78.6736842,0.15711501 85.174269,6.65224172 85.1832359,14.6690058 C85.4822612,14.6331384 85.7847953,14.6132554 86.094347,14.6132554 C90.0974659,14.6132554 93.3384016,17.8545809 93.3384016,21.8573099 C93.3384016,25.860039 90.097076,29.1013645 86.094347,29.1013645 C83.5461988,29.1013645 81.3025341,27.7867446 80.0132554,25.797271 C77.4849903,27.9294347 74.2202729,29.2148148 70.6549708,29.2148148 C66.9130604,29.2148148 63.5025341,27.8011696 60.9294347,25.4783626 C59.3122807,27.6265107 56.7426901,29.011306 53.8491228,29.011306 C48.9582846,29.011306 44.991423,25.0444444 44.991423,20.1536062 C44.9918129,15.2615984 48.9586745,11.2962963 53.8495127,11.2962963 L53.8495127,11.2962963 Z" id="Shape"></path>
                        <path d="M74.7465887,111.592982 C75.4382066,111.592982 76.1044834,111.697466 76.7345029,111.888109 C77.7988304,106.837037 82.2752437,103.048343 87.6393762,103.048343 C93.788694,103.048343 98.7766082,108.030799 98.7840156,114.180117 C99.0128655,114.151267 99.2448343,114.136842 99.4826511,114.136842 C102.552827,114.136842 105.039766,116.623782 105.039766,119.695517 C105.039766,122.765692 102.552827,125.252632 99.4826511,125.252632 C97.5270955,125.252632 95.8074074,124.244055 94.817154,122.717349 C92.8779727,124.353996 90.3730994,125.339181 87.6397661,125.339181 C84.7695906,125.339181 82.1532164,124.254971 80.1793372,122.472515 C78.9403509,124.120078 76.9668616,125.182456 74.7465887,125.182456 C70.9937622,125.182456 67.9508772,122.141131 67.9508772,118.388304 C67.9508772,114.635478 70.9922027,111.592982 74.7465887,111.592982 L74.7465887,111.592982 Z" id="Shape"></path>
                        <path d="M3.50565302,31.3524366 C3.84249513,31.3524366 4.16452242,31.402729 4.47251462,31.4962963 C4.98947368,29.0401559 7.16647173,27.1980507 9.7754386,27.1980507 C12.7664717,27.1980507 15.1918129,29.6218324 15.1953216,32.6128655 C15.3068226,32.5984405 15.4202729,32.5929825 15.5356725,32.5929825 C17.0304094,32.5929825 18.2385965,33.8031189 18.2385965,35.2959064 C18.2385965,36.7906433 17.0304094,37.9988304 15.5356725,37.9988304 C14.5847953,37.9988304 13.7477583,37.5072125 13.2666667,36.7653021 C12.3231969,37.5614035 11.1040936,38.0401559 9.77504873,38.0401559 C8.37933723,38.0401559 7.10643275,37.5126706 6.14658869,36.6463938 C5.54346979,37.4475634 4.58557505,37.9645224 3.50487329,37.9645224 C1.6791423,37.9645224 0.200779727,36.4842105 0.200779727,34.6604288 C0.200779727,32.8366472 1.68109162,31.3563353 3.50487329,31.3563353 L3.50487329,31.3524366 L3.50565302,31.3524366 Z" id="Shape"></path>
                    </g>
                    <polygon id="Shape" fill="#EC4B53" points="180.825341 39.6729045 163.102924 21.9504873 112.409747 72.6432749 130.132164 90.365692"></polygon>
                    <polygon id="Shape" fill="#FFFFFF" points="125.787135 94.7107212 108.064717 76.9883041 112.409747 72.6413255 130.132164 90.3637427 125.785185 94.7107212"></polygon>
                    <path d="M125.787135,94.7107212 L108.064717,76.9883041 L101.706433,83.3465887 C100.545029,84.5060429 100.546979,86.4042885 101.706433,87.565692 L115.211696,101.070955 C116.37115,102.230409 118.269396,102.230409 119.42885,101.070955 L125.787135,94.7126706 L125.787135,94.7107212 L125.787135,94.7107212 Z" id="Shape" fill="#15BDB1"></path>
                    <polygon id="Shape" fill="#FF5B61" points="175.965302 34.8109162 167.964912 26.8120858 117.271735 77.5052632 125.272125 85.5040936"></polygon>
                    <polygon id="Shape" fill="#F0B97D" points="180.825341 39.6729045 163.102924 21.9504873 181.62846 14.834308 187.94347 21.1473684 180.82729 39.6729045"></polygon>
                    <polygon id="Shape" fill="#807D7D" points="191.101754 12.2826511 190.493177 11.6740741 181.62846 14.834308 187.94347 21.1473684 191.103704 12.2842105"></polygon>
                    <polygon id="Shape" fill="#FED198" points="175.965302 34.8109162 167.964912 26.8120858 183.362573 16.5660819 186.212865 19.4148148 175.966862 34.8105263 175.965302 34.8105263"></polygon>
                    <g id="Group" transform="translate(127.485380, 70.175439)" fill="#FFBA1B">
                        <path d="M14.9419103,37.8588694 C14.9419103,37.8588694 15.6226121,40.6966862 10.3107212,45.0148148 C4.99883041,49.3329435 0.273684211,50.3879142 0.273684211,50.3879142 C0.273684211,50.3879142 1.32904483,45.6647173 5.64678363,40.3508772 C9.96491228,35.037037 12.802729,35.7196881 12.802729,35.7196881 L14.0397661,36.6237817 L14.9419103,37.8588694 L14.9419103,37.8588694 Z" id="Shape"></path>
                        <polygon id="Shape" points="23.1730994 27.3247563 22.7645224 0.073294347 5.8705653 16.965692 13.9844055 37.3676413"></polygon>
                    </g>
                    <path d="M154.906043,100.350487 L154.711501,100.51423 L154.51345,100.681871 L154.311891,100.851072 L154.104873,101.023782 L153.894347,101.198441 L153.681871,101.376608 L153.681871,101.376608 L153.467446,101.556725 L153.247953,101.738791 L153.026511,101.922417 L153.026511,101.922417 L152.801559,102.107992 L152.574659,102.293567 L152.574659,102.293567 L152.345809,102.482651 L152.116959,102.671735 L151.8846,102.862768 L151.652242,103.053801 L151.652242,103.053801 L151.418324,103.242885 L151.418324,103.242885 L151.184405,103.433918 L150.948538,103.626511 L150.71462,103.817544 L150.71462,103.817544 L150.478752,104.008577 L150.478752,104.008577 L150.242885,104.19961 L150.008967,104.388694 L150.007018,104.390643 L149.773099,104.579727 L149.773099,104.579727 L149.540741,104.768811 L149.308382,104.955945 L149.308382,104.957895 L149.077973,105.145029 L149.077973,105.145029 L148.847563,105.328655 L148.847563,105.330604 L148.618713,105.51423 L148.393762,105.695906 L148.393762,105.695906 L148.17037,105.876023 L147.948928,106.054191 L147.948928,106.054191 L147.730994,106.22885 L147.729045,106.22885 L147.51462,106.401559 L147.304094,106.57076 L147.095127,106.738402 L147.095127,106.740351 L146.891618,106.902534 L146.889669,106.902534 L146.689669,107.062768 L146.493567,107.221053 L146.300975,107.374269 L146.299025,107.376218 L146.111891,107.525536 L145.928265,107.671345 L145.928265,107.671345 L145.751657,107.813645 L145.751657,107.813645 L145.580507,107.950487 L145.578558,107.950487 L145.412865,108.083821 L145.412865,108.083821 L145.252632,108.211696 L145.252632,108.211696 L145.097856,108.336062 L144.950097,108.454971 L144.950097,108.454971 L144.809747,108.568421 L144.809747,108.568421 L144.674854,108.676413 L144.674854,108.676413 L144.546979,108.777388 L144.546979,108.777388 L144.42807,108.874464 L144.426121,108.874464 L144.312671,108.964522 L144.312671,108.964522 L144.206238,109.047173 L144.109162,109.124756 L144.109162,109.124756 L144.019103,109.196881 L144.017154,109.196881 L143.936062,109.260039 L143.936062,109.260039 L143.863938,109.317739 L143.863938,109.317739 L143.802729,109.368031 L143.80078,109.368031 L143.746589,109.409357 L143.746589,109.409357 L143.701754,109.445224 L143.701754,109.445224 L143.665887,109.472125 L143.665887,109.472125 L143.640546,109.492008 L143.624172,109.504483 L143.624172,109.504483 L143.618713,109.507992 L143.618713,109.509942 L141.221832,107.11306 L138.823392,104.716179 C138.823392,104.716179 144.522417,97.5204678 147.983626,93.4311891 C149.789864,91.2974659 155.561014,88.1173489 157.764912,90.57154 C157.802729,90.605848 157.840546,90.6417154 157.876413,90.6779727 C157.912281,90.71423 157.946589,90.7500975 157.978947,90.7879142 L157.978947,90.7879142 C158.011306,90.825731 158.043665,90.8654971 158.074464,90.9033138 C158.105263,90.9430799 158.133723,90.9824561 158.161014,91.0237817 C158.189864,91.0651072 158.216764,91.1064327 158.240156,91.1481481 C158.265497,91.1894737 158.288889,91.2327485 158.312281,91.2779727 L158.312281,91.2779727 C158.335673,91.3212476 158.357115,91.3660819 158.376998,91.411306 L158.376998,91.4132554 L158.434698,91.5500975 C158.452632,91.5968811 158.469006,91.6436647 158.48499,91.6923977 L158.529825,91.8362573 L158.529825,91.8362573 L158.567641,91.985575 L158.567641,91.985575 L158.598441,92.1368421 L158.598441,92.1387914 C158.607407,92.1890838 158.614815,92.2413255 158.621832,92.2920078 L158.621832,92.2920078 L158.639766,92.4502924 L158.650682,92.6105263 L158.650682,92.6105263 L158.65614,92.774269 L158.65614,92.774269 L158.654191,92.939961 L158.654191,92.939961 L158.648733,93.1076023 L158.648733,93.1076023 L158.637817,93.2768031 L158.637817,93.2787524 L158.621442,93.4499025 L158.621442,93.4499025 L158.598051,93.6226121 L158.57115,93.7992203 L158.538791,93.9758285 L158.538791,93.9758285 L158.502924,94.1539961 L158.461598,94.3341131 L158.414815,94.51423 L158.366082,94.6959064 L158.311891,94.8775828 L158.311891,94.8775828 L158.252632,95.0596491 L158.191423,95.2413255 L158.191423,95.2413255 L158.126706,95.4230019 L158.126706,95.4249513 L158.05653,95.6066277 L157.984405,95.7883041 L157.984405,95.7902534 L157.908772,95.9719298 L157.82963,96.1539961 L157.748538,96.3341131 L157.750487,96.3341131 L157.665887,96.5122807 L157.579337,96.6904483 L157.489279,96.8670565 L157.397271,97.0417154 L157.303704,97.214425 L157.208187,97.385575 L157.109162,97.5547758 L157.109162,97.5567251 L157.010136,97.7243665 L156.909162,97.8900585 L156.806628,98.0522417 L156.702144,98.2124756 L156.597661,98.3707602 L156.493177,98.5239766 L156.386745,98.6752437 L156.278752,98.8230019 L156.17232,98.9672515 L156.066277,99.1076023 L155.958285,99.2424951 L155.850292,99.3758285 L155.74386,99.5037037 L155.635867,99.6261209 L155.529825,99.7450292 L155.421832,99.8584795 L155.317349,99.9664717 L155.212865,100.070955 L155.108382,100.169981 L155.007407,100.263548 L154.906433,100.350097 L154.906043,100.350487 L154.906043,100.350487 Z M157.877193,90.6756335 L157.877193,90.6756335 L157.979727,90.785575 C157.947368,90.7477583 157.911501,90.711501 157.877193,90.6756335 L157.877193,90.6756335 Z" id="Shape" fill="#20D0C2"></path>
                    <path d="M144.31462,109.651072 L138.681871,104.018324 C138.553996,103.890448 138.34347,103.890448 138.215595,104.018324 L136.413255,105.820663 C136.28538,105.948538 136.28538,106.159064 136.413255,106.28694 L142.046004,111.919688 C142.173879,112.047563 142.384405,112.047563 142.512281,111.919688 L144.31462,110.117349 C144.442495,109.989864 144.442495,109.778947 144.31462,109.651072 L144.31462,109.651072 Z" id="Shape" fill="#FFFFFF"></path>
                    <path d="M151.495517,92.679922 C150.490838,93.3192982 149.630019,94.0323587 149.104094,94.6518519 C146.338402,97.9001949 142.133723,103.118519 140.566862,105.070565 C140.419103,105.254191 140.295127,105.410916 140.197661,105.533333 L139.072125,104.407797 C139.263158,104.168421 139.558285,103.797271 139.930994,103.329045 C141.760624,101.036647 145.468226,96.4109162 147.987135,93.4323587 C148.703704,92.5844055 150.045224,91.5738791 151.539961,90.8159844 C153.812476,89.6615984 156.439766,89.0927875 157.768421,90.5727096 L157.879922,90.6791423 L157.982456,90.7906433 L158.164133,91.0265107 L158.243275,91.1508772 L158.3154,91.2807018 L158.340741,91.3473684 C156.729045,90.1824561 153.746979,91.2483431 151.496296,92.6818713 L151.495517,92.679922 L151.495517,92.679922 Z" id="Shape" fill="#15BDB1"></path>
                    <g id="Group" transform="translate(81.871345, 51.851852)" fill="#FFBA1B">
                        <path d="M12.8701754,8.4962963 C12.8701754,8.4962963 10.0304094,7.81364522 5.71423002,13.1274854 C1.39610136,18.4413255 0.341130604,23.1645224 0.341130604,23.1645224 C0.341130604,23.1645224 5.0662768,22.1111111 10.380117,17.7929825 C15.6920078,13.4748538 15.011306,10.6350877 15.011306,10.6350877 L14.1072125,9.4 L12.8721248,8.49590643 L12.8701754,8.49590643 L12.8701754,8.4962963 Z" id="Shape"></path>
                        <polygon id="Shape" points="23.4042885 0.265497076 50.6557505 0.674074074 33.7617934 17.5664717 13.3598441 9.45419103 23.4023392 0.26705653"></polygon>
                    </g>
                    <path d="M102.424951,47.8693957 L102.261209,48.0639376 L102.093567,48.2619883 L101.924366,48.4654971 L101.751657,48.6709552 L101.576998,48.8814815 L101.40039,49.0939571 L101.40039,49.0939571 L101.220273,49.3099415 L101.038596,49.5294347 L100.854971,49.7508772 L100.854971,49.7508772 L100.671345,49.974269 L100.484211,50.2011696 L100.482261,50.2011696 L100.295127,50.4300195 L100.106043,50.6604288 L99.9169591,50.8908382 L99.7259259,51.1247563 L99.5348928,51.3586745 L99.5348928,51.3586745 L99.3438596,51.5945419 L99.1528265,51.82846 L99.1528265,51.82846 L98.9617934,52.0643275 L98.7707602,52.3001949 L98.7707602,52.3001949 L98.5797271,52.5360624 L98.3906433,52.7699805 L98.3906433,52.7699805 L98.2015595,53.0038986 L98.2015595,53.0038986 L98.0124756,53.2362573 L98.0124756,53.2362573 L97.8253411,53.468616 L97.8253411,53.468616 L97.6397661,53.6990253 L97.6397661,53.6990253 L97.454191,53.9294347 L97.454191,53.9294347 L97.2705653,54.1563353 L97.0888889,54.3812865 L97.0888889,54.3812865 L96.9087719,54.6046784 L96.7306043,54.8261209 L96.7306043,54.8280702 L96.5559454,55.0460039 L96.5559454,55.0460039 L96.3832359,55.2604288 L96.2140351,55.4709552 L96.2120858,55.4709552 L96.0444444,55.679922 L96.0444444,55.6818713 L95.8807018,55.8853801 L95.8807018,55.8853801 L95.7204678,56.0869396 L95.5637427,56.2830409 L95.5637427,56.2830409 L95.4105263,56.4740741 L95.2612086,56.6612086 L95.2612086,56.6612086 L95.1153996,56.842885 L95.1153996,56.842885 L94.9730994,57.0210526 L94.9730994,57.0210526 L94.8362573,57.1922027 L94.8362573,57.1922027 L94.7013645,57.3578947 L94.5754386,57.5181287 L94.5754386,57.5181287 L94.4510721,57.671345 L94.4510721,57.671345 L94.3341131,57.8191033 L94.3321637,57.8191033 L94.2187135,57.9594542 L94.2187135,57.9594542 L94.1122807,58.094347 L94.1122807,58.0962963 L94.011306,58.2241715 L94.0093567,58.2241715 L93.9138402,58.3446394 L93.9138402,58.3446394 L93.8237817,58.4580897 L93.8218324,58.4580897 L93.7391813,58.5625731 L93.7391813,58.5625731 L93.6615984,58.6596491 L93.6615984,58.6596491 L93.591423,58.7477583 L93.5267057,58.8288499 L93.5267057,58.8288499 L93.4690058,58.9009747 L93.4690058,58.9009747 L93.4187135,58.9641326 L93.4187135,58.9641326 L93.3754386,59.0183236 L93.3395712,59.0631579 L93.3395712,59.0631579 L93.3107212,59.0990253 L93.3107212,59.0990253 L93.2908382,59.1243665 L93.2908382,59.1243665 L93.2783626,59.1387914 L93.2764133,59.1387914 L93.2729045,59.1442495 L93.2729045,59.1442495 L95.6697856,61.5411306 L98.0682261,63.9395712 C98.0682261,63.9395712 105.263938,58.2405458 109.353216,54.7793372 C111.48694,52.9730994 114.667057,47.2019493 112.212865,44.9980507 C112.176998,44.9602339 112.14269,44.9243665 112.106823,44.8865497 C112.069006,44.8506823 112.033138,44.8163743 111.995322,44.7840156 L111.995322,44.7840156 C111.957505,44.7497076 111.919688,44.7192982 111.879922,44.688499 C111.840156,44.6576998 111.80078,44.6292398 111.759454,44.6003899 L111.759454,44.6003899 C111.718129,44.5734893 111.676803,44.5461988 111.635088,44.5212476 L111.635088,44.5212476 C111.591813,44.4959064 111.550487,44.4709552 111.505263,44.4491228 L111.505263,44.4491228 C111.460429,44.425731 111.417154,44.4042885 111.37193,44.3844055 L111.37193,44.3844055 L111.235088,44.328655 C111.188304,44.3087719 111.14152,44.2927875 111.092788,44.2783626 L110.946979,44.2350877 L110.946979,44.2350877 L110.79922,44.1992203 L110.79922,44.1992203 L110.647953,44.1684211 L110.647953,44.1684211 C110.597661,44.1594542 110.545419,44.1504873 110.493177,44.1430799 L110.491228,44.1430799 L110.332943,44.1251462 L110.17271,44.11423 L110.008967,44.1087719 L110.008967,44.1087719 L109.843275,44.1087719 L109.843275,44.1087719 L109.675634,44.1157895 L109.675634,44.1138402 L109.504483,44.1263158 L109.504483,44.1263158 L109.331774,44.1442495 L109.331774,44.1442495 L109.157115,44.165692 L108.980507,44.1925926 L108.803899,44.2249513 L108.803899,44.2249513 L108.625731,44.2608187 L108.445614,44.3021442 L108.265497,44.3469786 L108.083431,44.397271 L107.901754,44.451462 L107.718129,44.5091618 L107.536452,44.5723197 L107.536452,44.5723197 L107.352827,44.637037 L107.352827,44.637037 L107.17115,44.705653 L106.989474,44.7777778 L106.989474,44.7777778 L106.807797,44.8534113 L106.626121,44.9325536 L106.446004,45.0136452 L106.446004,45.0136452 L106.265887,45.0982456 L106.087719,45.1863548 L105.911111,45.2764133 L105.736452,45.3684211 L105.561793,45.4619883 L105.390643,45.5575049 L105.221442,45.6545809 L105.221442,45.6545809 L105.053801,45.7536062 L104.888109,45.8545809 L104.725926,45.957115 L104.565692,46.0596491 L104.408967,46.1641326 L104.254191,46.2705653 L104.104873,46.3769981 L103.957115,46.4834308 L103.812865,46.591423 L103.672515,46.6994152 L103.535673,46.8074074 L103.404288,46.9138402 L103.276413,47.0218324 L103.152047,47.1298246 L103.033138,47.2362573 L102.919688,47.3426901 L102.809747,47.4471735 L102.707212,47.5516569 L102.608187,47.654191 L102.516179,47.7551657 L102.42807,47.8576998 L102.424951,47.8693957 L102.424951,47.8693957 Z M112.100195,44.8982456 L112.100195,44.8982456 L111.988694,44.7957115 C112.026511,44.8280702 112.062378,44.8643275 112.100195,44.8982456 L112.100195,44.8982456 Z" id="Shape" fill="#20D0C2"></path>
                    <path d="M93.1243665,58.4592593 L98.757115,64.0920078 C98.8849903,64.219883 98.8849903,64.4304094 98.757115,64.5582846 L96.9547758,66.3606238 C96.8269006,66.488499 96.6163743,66.4904483 96.488499,66.3625731 L90.854191,60.7298246 C90.7263158,60.6019493 90.7263158,60.391423 90.854191,60.2635478 L92.6565302,58.4612086 C92.7844055,58.3333333 92.9949318,58.3333333 93.122807,58.4612086 L93.1243665,58.4592593 L93.1243665,58.4592593 Z" id="Shape" fill="#FFFFFF"></path>
                    <path d="M110.095906,51.279922 C109.45653,52.2846004 108.74347,53.1454191 108.123977,53.6729045 C104.875634,56.4385965 99.6573099,60.6432749 97.7068226,62.2081871 C97.5212476,62.3575049 97.3664717,62.4818713 97.2440546,62.5789474 L98.3676413,63.7025341 C98.6089669,63.511501 98.9797271,63.2163743 99.4463938,62.8436647 C101.740351,61.0159844 106.364522,57.3083821 109.34308,54.7875244 C110.189474,54.0709552 111.201559,52.7294347 111.959454,51.2346979 C113.11384,48.9621832 113.682651,46.3348928 112.204288,45.0062378 L112.098246,44.8947368 L111.986745,44.7922027 L111.750877,44.6105263 L111.626511,44.531384 L111.496686,44.4592593 L111.430019,44.4323587 C112.594932,46.045614 111.527096,49.025731 110.095517,51.2768031 L110.095517,51.279922 L110.095906,51.279922 Z" id="Shape" fill="#15BDB1"></path>
                    <path d="M120.561793,89.4853801 L113.290448,82.2124756 L106.635088,88.8678363 C105.637427,89.8654971 105.637427,91.4951267 106.635088,92.4908382 L110.28499,96.1407407 C111.280702,97.1364522 112.912281,97.1364522 113.907992,96.1407407 L120.563353,89.4853801 L120.561793,89.4853801 L120.561793,89.4853801 Z" id="Shape" fill="#20D0C2"></path>
                    <g id="Group" transform="translate(0.000000, 91.228070)" fill="#FFFFFF">
                        <path d="M91.7216374,43.3341131 C93.0846004,43.3341131 94.1902534,44.4397661 94.1902534,45.802729 C94.1902534,47.165692 93.0846004,48.2732943 91.7216374,48.2732943 C90.3567251,48.2732943 89.2510721,47.1676413 89.2510721,45.802729 C89.2510721,44.4393762 90.3567251,43.3341131 91.7216374,43.3341131 L91.7216374,43.3341131 Z" id="Shape"></path>
                        <path d="M71.5052632,20.079922 C71.7789474,20.079922 71.9988304,20.3013645 71.9988304,20.5734893 C71.9988304,20.8471735 71.7773879,21.0670565 71.5052632,21.0670565 C71.2315789,21.0670565 71.0116959,20.845614 71.0116959,20.5734893 C71.0120858,20.2994152 71.2335283,20.079922 71.5052632,20.079922 L71.5052632,20.079922 Z" id="Shape"></path>
                        <path d="M62.6155945,22.4350877 C63.3918129,22.4350877 64.0218324,23.0654971 64.0218324,23.8413255 C64.0218324,24.617154 63.391423,25.2475634 62.6155945,25.2475634 C61.8397661,25.2475634 61.2093567,24.617154 61.2093567,23.8413255 C61.2093567,23.0654971 61.8393762,22.4350877 62.6155945,22.4350877 L62.6155945,22.4350877 Z" id="Shape"></path>
                        <path d="M39.0191033,32.9980507 C40.4038986,32.9980507 41.5255361,34.120078 41.5255361,35.5044834 C41.5255361,36.8892788 40.4038986,38.0128655 39.0191033,38.0128655 C37.634308,38.0128655 36.5107212,36.8908382 36.5107212,35.5044834 C36.5107212,34.1196881 37.6327485,32.9980507 39.0191033,32.9980507 L39.0191033,32.9980507 Z" id="Shape"></path>
                        <path d="M75.1157895,15.6697856 C75.8721248,15.6697856 76.4842105,16.2818713 76.4842105,17.0382066 C76.4842105,17.7925926 75.8721248,18.4066277 75.1157895,18.4066277 C74.3594542,18.4066277 73.7473684,17.7945419 73.7473684,17.0382066 C73.7473684,16.2822612 74.3594542,15.6697856 75.1157895,15.6697856 L75.1157895,15.6697856 Z" id="Shape"></path>
                        <path d="M81.4994152,59.2916179 C82.5079922,59.2916179 83.3235867,60.1091618 83.3235867,61.1157895 C83.3235867,62.1243665 82.5079922,62.939961 81.4994152,62.939961 C80.4927875,62.939961 79.6752437,62.1243665 79.6752437,61.1157895 C79.6752437,60.1091618 80.4927875,59.2916179 81.4994152,59.2916179 L81.4994152,59.2916179 Z" id="Shape"></path>
                        <path d="M92.479922,37.1017544 C93.0038986,37.1017544 93.4307992,37.5267057 93.4307992,38.0506823 C93.4307992,38.5746589 93.005848,39.0015595 92.479922,39.0015595 C91.9559454,39.0015595 91.5309942,38.5766082 91.5309942,38.0506823 C91.5309942,37.5267057 91.9559454,37.1017544 92.479922,37.1017544 L92.479922,37.1017544 Z" id="Shape"></path>
                        <path d="M85.7793372,98.31423 C84.677193,97.5111111 83.445614,96.9602339 82.1688109,96.6666667 C83.3754386,93.5138402 82.7091618,89.8077973 80.1684211,87.2651072 C77.7013645,84.7964912 74.1325536,84.0959064 71.0405458,85.1637427 C72.6054581,82.1384016 72.1208577,78.3267057 69.5836257,75.7894737 C68.9173489,75.1251462 68.1664717,74.602729 67.3653021,74.2191033 C69.7711501,71.7539961 70.1364522,68.0409357 68.460039,65.1957115 C69.6124756,64.8643275 70.7001949,64.2448343 71.6077973,63.337232 C73.4986355,61.4463938 74.1395712,58.7777778 73.5290448,56.3594542 C74.9805068,56.2584795 76.4031189,55.6553606 77.5103314,54.5461988 C78.4557505,53.6007797 79.0335283,52.42846 79.2460039,51.2042885 C80.0346979,50.9808967 80.780117,50.5578947 81.4031189,49.9364522 C82.6904483,48.6491228 83.1247563,46.8339181 82.7103314,45.1879142 C83.697076,45.1192982 84.4300195,44.9411306 85.4187135,43.954386 C86.4074074,42.965692 87.6460039,40.4916179 86.0775828,38.5937622 L111.317739,5.95087719 L108.45653,3.08966862 L105.595322,0.228460039 L72.1169591,25.1660819 C70.5988304,24.5844055 68.8163743,24.9048733 67.5918129,26.1274854 C66.8374269,26.8818713 66.4269006,27.8491228 66.3582846,28.8358674 C64.7122807,28.419883 62.8974659,28.8557505 61.6116959,30.1430799 C60.988694,30.7641326 60.5672515,31.5099415 60.3423002,32.3001949 C59.1177388,32.5126706 57.9454191,33.0908382 57.0003899,34.0362573 C55.8912281,35.1454191 55.2881092,36.5660819 55.1871345,38.0175439 C52.7688109,37.4089669 50.1001949,38.0483431 48.2093567,39.9407407 C47.271345,40.877193 46.6409357,42.0062378 46.3185185,43.2019493 C43.5220273,41.7380117 39.9925926,42.1610136 37.6194932,44.4768031 C37.2358674,43.6736842 36.7138402,42.922807 36.0491228,42.2584795 C33.5118908,39.7212476 29.6998051,39.237037 26.6729045,40.8015595 C27.7407407,37.7099415 27.0421053,34.1426901 24.5734893,31.6736842 C22.0307992,29.1309942 18.3251462,28.4647173 15.1719298,29.6732943 C14.8768031,28.3964912 14.3274854,27.1668616 13.5243665,26.062768 C15.0748538,25.4432749 16.5259259,24.5052632 17.7812865,23.2499025 C22.7423002,18.2888889 22.7423002,10.2452242 17.7812865,5.28460039 C12.9033138,0.40662768 5.04483431,0.325536062 0.0662768031,5.03976608 C0.0253411306,6.21637427 0,7.39376218 0,8.57894737 C0,63.6998051 44.6842105,108.384016 99.8050682,108.384016 C103.006628,108.384016 106.174269,108.230799 109.298246,107.935673 C114.588694,95.2424951 98.411306,84.2366472 88.5902534,94.0596491 C87.3352827,95.3146199 86.3968811,96.7660819 85.7773879,98.3181287 L85.7793372,98.31423 L85.7793372,98.31423 Z" id="Shape"></path>
                    </g>
                    <path d="M85.7793372,189.5423 C84.677193,188.739181 83.445614,188.188304 82.1688109,187.894737 C83.3754386,184.74191 82.7091618,181.035867 80.1684211,178.493177 C77.7013645,176.024561 74.1325536,175.323977 71.0405458,176.391813 C72.6054581,173.366472 72.1208577,169.554776 69.5836257,167.017544 C68.9173489,166.353216 68.1664717,165.830799 67.3653021,165.447173 C69.7711501,162.982066 70.1364522,159.269006 68.460039,156.423782 C69.6124756,156.092398 70.7001949,155.472904 71.6077973,154.565302 C73.4986355,152.674464 74.1395712,150.005848 73.5290448,147.587524 C74.9805068,147.48655 76.4031189,146.883431 77.5103314,145.774269 C78.4557505,144.82885 79.0335283,143.65653 79.2460039,142.432359 C80.0346979,142.208967 80.780117,141.785965 81.4031189,141.164522 C82.6904483,139.877193 83.1247563,138.061988 82.7103314,136.415984 C85.9766082,136.191033 88.0261209,132.283431 86.0775828,129.821832 L111.317739,97.1789474 L84.7341131,129.602339 C86.1980507,132.416764 84.48577,135.244055 81.2569201,135.530214 C82.8307992,138.196881 80.4233918,141.550097 77.7040936,141.209747 C78.6982456,144.591423 75.4748538,146.473294 72.651462,146.224561 C73.0584795,150.612865 71.4846004,154.673294 66.9918129,155.780897 C69.6803119,159.274074 68.0849903,163.392593 65.6233918,165.241715 C71.4035088,168.499025 71.4756335,173.573489 68.8140351,177.704483 C75.4783626,176.044055 82.5442495,179.206238 80.8210526,188.269006 C80.8210526,188.269006 84.4654971,188.735283 86.2931774,191.537232 C86.2931774,191.537232 92.9341131,179.396881 102.508382,184.336452 C109.649903,188.020663 108.490448,195.670175 107.438596,199.318129 C108.059649,199.271345 108.677583,199.219103 109.295127,199.159844 C114.585575,186.466667 98.4081871,175.460819 88.5871345,185.283821 C87.3321637,186.538791 86.3937622,187.990253 85.774269,189.5423 L85.7793372,189.5423 L85.7793372,189.5423 Z" id="Shape" fill="#DFE1E3"></path>
                    <path d="M26.5890838,139.897466 C32.0631579,139.897466 36.6424951,143.732943 37.7859649,148.861209 C38.4846004,148.665107 39.2210526,148.558674 39.982846,148.558674 C43.1555556,148.558674 45.9017544,150.379337 47.2358674,153.033528 C48.4350877,152.189084 49.8990253,151.692008 51.4764133,151.692008 C55.5497076,151.692008 58.8518519,154.994542 58.8518519,159.067446 C58.8518519,160.502534 58.4413255,161.840546 57.7337232,162.973099 C58.9832359,164.692788 59.7235867,166.810526 59.7235867,169.099025 C59.7235867,170.973489 59.22846,172.732943 58.3621832,174.252632 C62.2912281,174.416374 65.4261209,177.652242 65.4261209,181.621053 C65.4261209,183.092398 64.9957115,184.462378 64.2522417,185.613255 C64.4483431,185.586355 64.6467836,185.57193 64.8499025,185.57193 C66.9079922,185.57193 68.6385965,186.969201 69.1461988,188.867057 C71.0440546,189.374659 72.4413255,191.105263 72.4413255,193.163353 C72.4413255,194.061988 72.1746589,194.895517 71.7173489,195.596101 C48.045614,188.665107 28.0218324,173.20078 15.1992203,152.759454 C15.1867446,152.654971 15.1738791,152.552437 15.1649123,152.446004 L15.0226121,152.476803 C10.322807,144.930214 6.60623782,136.709942 4.04366472,127.996491 C4.39844055,127.940741 4.76023392,127.911891 5.1294347,127.911891 C8.9539961,127.911891 12.0530214,131.010916 12.0530214,134.835478 C12.0530214,135.433138 11.9773879,136.014815 11.8350877,136.567641 C12.3302144,136.474074 12.8417154,136.421832 13.3637427,136.421832 C16.7434698,136.421832 19.6389864,138.488889 20.860039,141.42768 C22.5454191,140.455361 24.5009747,139.899025 26.5863548,139.899025 L26.5890838,139.897466 L26.5890838,139.897466 Z" id="Shape" fill="#ECF0F1"></path>
                    <g id="Group" transform="translate(12.085770, 87.719298)" fill="#FFFFFF">
                        <path d="M46.8038986,103.137622 C28.748538,95.0109162 13.5469786,81.6732943 3.11384016,65.0405458 C3.10136452,64.9360624 3.08849903,64.8335283 3.07953216,64.7270955 L2.93723197,64.7578947 C1.98479532,63.2272904 1.07173489,61.6697856 0.2,60.0834308 C1.07680312,60.8810916 1.77738791,61.8678363 2.24015595,62.9808967 C3.92553606,62.0066277 5.88109162,61.4502924 7.96647173,61.4502924 C13.4405458,61.4502924 18.019883,65.28577 19.1633528,70.4140351 C19.8619883,70.2179337 20.6003899,70.111501 21.3621832,70.111501 C24.5333333,70.111501 27.2810916,71.9321637 28.6136452,74.5863548 C29.8128655,73.7419103 31.2768031,73.2448343 32.8561404,73.2448343 C36.9274854,73.2448343 40.2300195,76.5473684 40.2300195,80.6202729 C40.2300195,82.0553606 39.8214425,83.3933723 39.1118908,84.5259259 C40.3614035,86.245614 41.0998051,88.3633528 41.0998051,90.6518519 C41.0998051,92.5263158 40.6046784,94.28577 39.7384016,95.8054581 C43.6549708,95.9676413 46.782846,99.1851852 46.8023392,103.138012 L46.8038986,103.138012 L46.8038986,103.137622 Z" id="Shape"></path>
                        <polygon id="Shape" points="82.5352827 8.65730994 89.754386 2.04522417 91.2740741 3.71812865"></polygon>
                        <polygon id="Shape" points="93.9173489 20.4822612 99.7298246 12.3504873 101.37193 13.8736842 93.9153996 20.4822612"></polygon>
                        <polygon id="Shape" points="98.0803119 19.9711501 102.124756 14.5547758 103.329435 15.5883041 98.0822612 19.9711501"></polygon>
                        <polygon id="Shape" points="82.7567251 5.3079922 88.2253411 0.282261209 88.8986355 1.21130604 82.7582846 5.3079922 82.7567251 5.3079922"></polygon>
                    </g>
                </g>
            </g>
        </g>
    </g>
</svg>