<?xml version="1.0" encoding="UTF-8" standalone="no"?>
<svg width="40px" height="40px" viewBox="0 0 40 40" version="1.1" xmlns="http://www.w3.org/2000/svg" xmlns:xlink="http://www.w3.org/1999/xlink">
    <!-- Generator: Sketch 40 (33762) - http://www.bohemiancoding.com/sketch -->
    <title>notepad</title>
    <desc>Created with Sketch.</desc>
    <defs></defs>
    <g id="LandingPage" stroke="none" stroke-width="1" fill="none" fill-rule="evenodd">
        <g id="Page" transform="translate(-330.000000, -5478.000000)">
            <g id="Group-3" transform="translate(330.000000, 5478.000000)">
                <g id="notepad">
                    <g id="Layer_1">
                        <path d="M20.0000781,0 C31.0457031,0 40,8.95429687 40,20.0000781 C40,31.0457031 31.0457031,40 20.0000781,40 C8.95445312,40 0,31.0457031 0,20.0000781 C0,8.95445312 8.95429687,0 20.0000781,0 L20.0000781,0 Z" id="Shape" fill="#FFCA4F"></path>
                        <path d="M7.80382812,7.57507812 L32.19625,7.57507812 L32.19625,35.8503906 C28.8205469,38.4517969 24.5913281,40 20.0000781,40 C15.4086719,40 11.1796094,38.4519531 7.80398437,35.8505469 L7.80398437,7.57523437 L7.80382812,7.57507812 L7.80382812,7.57507812 Z" id="Shape" fill="#FF5B61"></path>
                        <path d="M9.7303125,8.59359375 L30.2695313,8.59359375 L30.2695313,37.1642187 C27.2675,38.9642187 23.7546875,40 19.9999219,40 C16.2449219,40 12.7323438,38.9642187 9.7303125,37.1645312 L9.7303125,8.59375 L9.7303125,8.59359375 L9.7303125,8.59359375 Z" id="Shape" fill="#FFFFFF"></path>
                        <path d="M19.5524219,3.68671875 L20.4476563,3.68671875 C21.0014844,3.68671875 21.4546875,4.13976563 21.4546875,4.69390625 L21.4546875,7.01585938 L18.5453125,7.01585938 L18.5453125,4.69390625 C18.5452344,4.13992188 18.9985938,3.68671875 19.5524219,3.68671875 L19.5524219,3.68671875 Z M19.9999219,4.27773438 L19.9999219,4.27773438 C19.5554688,4.27773438 19.1957031,4.63773438 19.1957031,5.0821875 C19.1957031,5.52640625 19.5555469,5.88640625 19.9999219,5.88640625 C20.444375,5.88640625 20.8041406,5.52640625 20.8041406,5.0821875 C20.8041406,4.63773438 20.4442969,4.27773438 19.9999219,4.27773438 L19.9999219,4.27773438 Z" id="Shape" fill="#15BDB1"></path>
                        <path d="M16.1069531,6.495 L23.8932031,6.495 C24.3367188,6.495 24.6995313,6.85773437 24.6995313,7.30148437 L24.6995313,9.53304687 L15.300625,9.53304687 L15.300625,7.30148437 C15.300625,6.8578125 15.6634375,6.495 16.1069531,6.495 L16.1069531,6.495 Z" id="Shape" fill="#20D0C2"></path>
                        <g id="Group" transform="translate(17.031250, 12.812500)" fill="#D0D1D4">
                            <path d="M0.04859375,0.003203125 L11.4896875,0.003203125 L11.4896875,0.618515625 L0.04859375,0.618515625 L0.04859375,0.003203125 L0.04859375,0.003203125 Z M0.04859375,2.91257813 L0.04859375,2.91257813 L8.1328125,2.91257813 L8.1328125,3.52789063 L0.04859375,3.52789063 L0.04859375,2.91257813 L0.04859375,2.91257813 Z M0.04859375,1.45789062 L0.04859375,1.45789062 L11.4896875,1.45789062 L11.4896875,2.07320312 L0.04859375,2.07320312 L0.04859375,1.45789062 L0.04859375,1.45789062 Z" id="Shape"></path>
                            <path d="M0.04859375,7.6084375 L11.4896875,7.6084375 L11.4896875,8.22375 L0.04859375,8.22375 L0.04859375,7.6084375 L0.04859375,7.6084375 Z M0.04859375,10.5178125 L0.04859375,10.5178125 L8.1328125,10.5178125 L8.1328125,11.1332813 L0.04859375,11.1332813 L0.04859375,10.5178125 L0.04859375,10.5178125 Z M0.04859375,9.06328125 L0.04859375,9.06328125 L11.4896875,9.06328125 L11.4896875,9.67859375 L0.04859375,9.67859375 L0.04859375,9.06328125 L0.04859375,9.06328125 Z" id="Shape"></path>
                            <path d="M0.04859375,15.2134375 L11.4896875,15.2134375 L11.4896875,15.82875 L0.04859375,15.82875 L0.04859375,15.2134375 L0.04859375,15.2134375 Z M0.04859375,18.1228125 L0.04859375,18.1228125 L8.1328125,18.1228125 L8.1328125,18.7382812 L0.04859375,18.7382812 L0.04859375,18.1228125 L0.04859375,18.1228125 Z M0.04859375,16.668125 L0.04859375,16.668125 L11.4896875,16.668125 L11.4896875,17.2835937 L0.04859375,17.2835937 L0.04859375,16.668125 L0.04859375,16.668125 Z" id="Shape"></path>
                        </g>
                        <polygon id="Shape" fill="#20D0C2" points="33.9935156 22.7647656 35.9407031 22.7647656 35.9407031 4.60984375 33.9935156 4.60984375"></polygon>
                        <g id="Group" transform="translate(33.750000, 2.812500)" fill="#0E7886">
                            <polygon id="Shape" points="1.218125 23.8195313 2.19046875 19.9522656 0.243671875 19.9522656"></polygon>
                            <path d="M0.643125,0.0259375 L1.79101562,0.0259375 C2.1065625,0.0259375 2.36476562,0.33015625 2.36476562,0.70171875 L2.36476562,9.14164063 L0.069140625,9.14164063 L0.069140625,0.701640625 C0.069140625,0.329921875 0.327421875,0.0259375 0.643125,0.0259375 L0.643125,0.0259375 Z" id="Shape"></path>
                        </g>
                        <polygon id="Shape" fill="#FFFFFF" points="34.9283594 26.9114063 35.0092969 26.9114063 35.3329687 25.1821094 34.6071094 25.1821094"></polygon>
                        <g id="Group" transform="translate(10.859375, 4.218750)" fill="#20D0C2">
                            <path d="M22.960625,0.07609375 L25.7659375,0.0978125 L25.9425,0.098984375 L25.9425,0.305546875 L25.9425,6.59195312 L25.9425,6.65617187 L25.9097656,6.7109375 L25.6439844,7.1584375 C25.5075781,7.36632812 25.2235156,7.206875 25.3546094,6.92023437 L25.5880469,6.5275 L25.5880469,0.51203125 L22.9592969,0.491875 L22.9608594,0.076015625 L22.960625,0.076015625 L22.960625,0.07609375 Z" id="Shape"></path>
                            <path d="M1.02289062,10.3963281 C0.965546875,10.328125 0.974296875,10.2263281 1.04273437,10.1689844 C1.11078125,10.1116406 1.21273437,10.1203906 1.27007812,10.1885937 L1.84210937,10.8689844 L3.40585937,9.49820312 C3.47304687,9.43945312 3.57515625,9.44617187 3.6340625,9.51351562 C3.6928125,9.58070312 3.68609375,9.6828125 3.61875,9.7415625 L1.93117187,11.2210156 L1.93101562,11.2207031 L1.92859375,11.2229687 C1.86039062,11.2803125 1.75859375,11.2714062 1.70125,11.2033594 L1.023125,10.3964844 L1.02289062,10.3963281 L1.02289062,10.3963281 Z" id="Shape"></path>
                            <path d="M2.32960938,8.06695313 C2.9628125,8.06695313 3.53570313,8.32359375 3.95070313,8.7384375 C4.36546875,9.15335938 4.62234375,9.72648438 4.62234375,10.3595313 C4.62234375,10.9924219 4.36554688,11.565625 3.95070313,11.980625 C3.5359375,12.3953906 2.9628125,12.6521094 2.32960938,12.6521094 C1.69671875,12.6521094 1.12351563,12.3954688 0.708671875,11.980625 C0.29390625,11.5658594 0.0371875,10.9925781 0.0371875,10.3595313 C0.0371875,9.72632813 0.293828125,9.1534375 0.708671875,8.7384375 C1.12351563,8.32359375 1.69671875,8.06695313 2.32960938,8.06695313 L2.32960938,8.06695313 Z M3.735,8.95421875 L3.735,8.95421875 C3.3753125,8.5946875 2.87835938,8.3721875 2.32960938,8.3721875 C1.78078125,8.3721875 1.2840625,8.59476563 0.924375,8.95421875 C0.5646875,9.31390625 0.34234375,9.81085938 0.34234375,10.3596094 C0.34234375,10.9082031 0.5646875,11.4051563 0.924375,11.7648438 C1.2840625,12.1245313 1.78101563,12.346875 2.32960938,12.346875 C2.8784375,12.346875 3.37539063,12.1245313 3.735,11.7648438 C4.09453125,11.4051563 4.31703125,10.9082031 4.31703125,10.3596094 C4.31710938,9.81085938 4.09453125,9.31390625 3.735,8.95421875 L3.735,8.95421875 Z" id="Shape"></path>
                            <path d="M1.02289062,18.0014844 C0.965546875,17.933125 0.974296875,17.8313281 1.04273437,17.7739063 C1.11078125,17.7165625 1.21273437,17.7254688 1.27007812,17.7935156 L1.84210937,18.4739063 L3.40585937,17.1032813 C3.47304687,17.044375 3.57515625,17.05125 3.6340625,17.1184375 C3.6928125,17.1857813 3.68609375,17.2877344 3.61875,17.3466406 L1.93117187,18.8259375 L1.93101562,18.8257813 L1.92859375,18.8278125 C1.86039062,18.8851563 1.75859375,18.8764063 1.70125,18.8082031 L1.023125,18.0015625 L1.02289062,18.0014844 L1.02289062,18.0014844 Z" id="Shape"></path>
                            <path d="M2.32960938,15.6721094 C2.9628125,15.6721094 3.53570313,15.92875 3.95070313,16.3435938 C4.36546875,16.7583594 4.62234375,17.3316406 4.62234375,17.9645313 C4.62234375,18.5977344 4.36554688,19.170625 3.95070313,19.585625 C3.5359375,20.0003906 2.9628125,20.2571094 2.32960938,20.2571094 C1.69671875,20.2571094 1.12351563,20.0004688 0.708671875,19.585625 C0.29390625,19.1707031 0.0371875,18.5975781 0.0371875,17.9645313 C0.0371875,17.3316406 0.293828125,16.7584375 0.708671875,16.3435938 C1.12351563,15.92875 1.69671875,15.6721094 2.32960938,15.6721094 L2.32960938,15.6721094 Z M3.735,16.559375 L3.735,16.559375 C3.3753125,16.1996875 2.87835938,15.9773437 2.32960938,15.9773437 C1.78078125,15.9773437 1.2840625,16.1996875 0.924375,16.559375 C0.5646875,16.9190625 0.34234375,17.4160156 0.34234375,17.9646094 C0.34234375,18.5134375 0.5646875,19.0103906 0.924375,19.37 C1.2840625,19.7295312 1.78101563,19.9520312 2.32960938,19.9520312 C2.8784375,19.9520312 3.37539063,19.7294531 3.735,19.37 C4.09453125,19.0103125 4.31703125,18.5133594 4.31703125,17.9646094 C4.31710938,17.4160156 4.09453125,16.9190625 3.735,16.559375 L3.735,16.559375 Z" id="Shape"></path>
                            <path d="M1.02289062,25.6067187 C0.965546875,25.5383594 0.974296875,25.4367187 1.04273437,25.3791406 C1.11078125,25.3217969 1.21273437,25.3305469 1.27007812,25.39875 L1.84210937,26.0791406 L3.40585937,24.7083594 C3.47304687,24.6496094 3.57515625,24.6563281 3.6340625,24.7236719 C3.6928125,24.7908594 3.68609375,24.8929687 3.61875,24.9517187 L1.93117187,26.4310156 L1.93101562,26.4308594 L1.92859375,26.433125 C1.86039062,26.4904687 1.75859375,26.4815625 1.70125,26.4132812 L1.023125,25.6066406 L1.02289062,25.6066406 L1.02289062,25.6067187 Z" id="Shape"></path>
                            <path d="M2.32960938,23.2771875 C2.9628125,23.2771875 3.53570313,23.5338281 3.95070313,23.9488281 C4.36546875,24.3635937 4.62234375,24.9367187 4.62234375,25.5699219 C4.62234375,26.2028125 4.36554688,26.7760156 3.95070313,27.1908594 C3.5359375,27.605625 2.9628125,27.8623437 2.32960938,27.8623437 C1.69671875,27.8623437 1.12351563,27.6057031 0.708671875,27.1908594 C0.293828125,26.7760156 0.0371875,26.2028125 0.0371875,25.5699219 C0.0371875,24.9367187 0.293828125,24.3638281 0.708671875,23.9488281 C1.12351563,23.5338281 1.69671875,23.2771875 2.32960938,23.2771875 L2.32960938,23.2771875 Z M3.735,24.1644531 L3.735,24.1644531 C3.3753125,23.8049219 2.87835938,23.5824219 2.32960938,23.5824219 C1.78078125,23.5824219 1.2840625,23.805 0.924375,24.1644531 C0.5646875,24.5241406 0.34234375,25.0210937 0.34234375,25.5698437 C0.34234375,26.1184375 0.5646875,26.6153906 0.924375,26.9750781 C1.2840625,27.3347656 1.78101563,27.5571094 2.32960938,27.5571094 C2.8784375,27.5571094 3.37539063,27.3347656 3.735,26.9750781 C4.09453125,26.6153906 4.31703125,26.1184375 4.31703125,25.5698437 C4.31710938,25.0210156 4.09453125,24.5240625 3.735,24.1644531 L3.735,24.1644531 Z" id="Shape"></path>
                        </g>
                    </g>
                </g>
            </g>
        </g>
    </g>
</svg>