<?xml version="1.0" encoding="UTF-8" standalone="no"?>
<svg width="404px" height="321px" viewBox="0 0 404 321" version="1.1" xmlns="http://www.w3.org/2000/svg" xmlns:xlink="http://www.w3.org/1999/xlink">
    <!-- Generator: Sketch 40 (33762) - http://www.bohemiancoding.com/sketch -->
    <title>logo BlubUUU</title>
    <desc>Created with Sketch.</desc>
    <defs></defs>
    <g id="LandingPage" stroke="none" stroke-width="1" fill="none" fill-rule="evenodd">
        <g id="Page" transform="translate(-509.000000, -367.000000)" fill="#FFFFFF">
            <g id="logo-BlubUUU" transform="translate(509.000000, 367.819361)">
                <g id="Layer_1">
                    <g id="Group">
                        <g transform="translate(0.000000, 174.862724)" id="Shape">
                            <path d="M1.18931731,0.495902605 L7.73056251,0.495902605 L8.82077004,1.58688834 L8.82077004,45.6230396 C8.82077004,63.1779918 17.6415401,75.1788349 35.3821899,81.4272077 C37.9590441,82.5181934 41.6261058,83.014096 46.2842653,83.014096 C62.8355978,83.014096 74.4314416,74.1870297 80.9726868,56.4337164 C82.0628943,53.8550229 82.5584432,50.1853436 82.5584432,45.5238591 C82.5584432,28.9607121 73.7376732,17.3565912 55.9970233,10.8106768 C53.4201691,9.71969105 49.7531074,9.22378845 45.094948,9.22378845 C31.7151282,11.1082183 24.9756635,15.9680639 24.9756635,23.9025055 L24.4801146,27.1754627 L24.4801146,40.6640136 L23.3899071,41.7549993 L16.8486619,41.7549993 L15.8575641,40.6640136 L15.8575641,28.7623511 C15.8575641,15.8688834 22.6961386,7.04181699 36.4723975,2.18197146 C38.6528125,1.09098573 41.9234351,0.595083126 46.2842653,0.595083126 C65.412452,0.595083126 79.6842597,10.9098573 89.1987982,31.5394057 C90.6854448,37.1926954 91.3792133,42.3500824 91.3792133,46.7140254 C91.3792133,65.8558659 81.0717966,80.1378609 60.4569632,89.6591909 C54.807706,91.1468987 49.6539977,91.8411624 45.2931675,91.8411624 C26.1649808,91.8411624 11.7940633,81.5263882 2.37863462,60.8968399 C0.891987982,55.2435502 0.198219552,50.0861631 0.198219552,45.7222202 L0.198219552,1.68606886 L1.18931731,0.495902605 L1.18931731,0.495902605 Z"></path>
                            <path d="M103.767935,0.495902605 L108.128765,0.495902605 L109.218973,1.58688834 L109.218973,63.4755334 C109.218973,71.013253 114.471791,77.4599869 124.977427,83.014096 L134.789295,84.6009844 C145.493151,84.6009844 153.620152,78.9476947 159.1703,67.7402958 L164.621338,67.7402958 L165.711545,68.8312815 C158.97208,84.0059012 148.466444,91.6428014 134.194636,91.6428014 C119.52639,91.6428014 109.218973,83.5099986 103.272386,67.2443932 L102.776837,62.8804503 L102.776837,1.48770781 L103.767935,0.495902605 L103.767935,0.495902605 Z"></path>
                            <path d="M176.81184,27.0762822 L181.17267,27.0762822 L182.262878,28.1672679 L182.262878,63.4755334 C182.262878,71.013253 187.515696,77.4599869 198.021332,83.014096 L207.8332,84.6009844 C220.221922,84.6009844 228.547143,77.8567089 232.808863,64.4673386 L232.808863,28.0680874 L233.899071,26.9771017 L238.259901,26.9771017 L239.350108,28.0680874 L239.350108,62.7812698 C239.350108,72.9968634 233.007083,81.7247493 220.321032,88.8657468 C215.662872,90.6509961 211.401152,91.5436208 207.337651,91.5436208 C192.669404,91.5436208 182.361987,83.4108181 176.415401,67.1452127 L175.919852,62.7812698 L175.919852,28.0680874 L176.81184,27.0762822 L176.81184,27.0762822 Z"></path>
                            <path d="M250.846842,0.694263647 L255.306782,0.694263647 L256.29788,1.78524938 L256.29788,40.4656525 L256.793429,40.4656525 C263.136455,31.8369472 271.659895,27.5721848 282.462861,27.5721848 C299.608852,29.8533368 310.015379,37.9861395 313.484221,51.8714125 L314.574428,60.0042152 C314.574428,74.3853907 306.348317,84.6009844 289.995204,90.5518156 L281.868202,91.6428014 C265.01954,90.7501767 254.712124,82.7165545 250.846842,67.4427542 L249.756635,57.2271606 L249.756635,1.68606886 L250.846842,0.694263647 L250.846842,0.694263647 Z M256.793429,59.9050347 C256.39699,71.211614 262.442686,79.0468752 274.732298,83.5099986 L282.462861,84.7001649 C294.950693,84.7001649 303.275914,78.05507 307.537634,64.7648802 L307.438524,58.2189658 C307.934073,48.0033721 301.392828,40.366472 287.913899,35.3082655 L282.8593,34.6140018 C269.77681,34.9115434 261.055149,41.6558188 256.793429,54.9460086 L256.793429,59.9050347 L256.793429,59.9050347 Z"></path>
                            <path d="M325.773833,17.3565912 L331.125761,17.3565912 L332.017749,18.2492159 L332.017749,54.251745 C332.017749,68.6329205 339.252762,78.4517921 353.821899,83.6091792 C356.002315,84.5018038 358.975608,84.8985259 362.741779,84.8985259 C376.319819,84.8985259 385.834357,77.6583479 391.186285,63.0788113 C392.078273,60.8968399 392.474712,57.9214242 392.474712,54.1525644 L392.474712,18.1500353 L393.3667,17.2574106 L398.718628,17.2574106 L399.610616,18.1500353 L399.610616,54.1525644 C399.610616,71.4099751 390.591626,83.6091792 372.454537,90.6509961 L366.70617,91.5436208 L357.786291,91.5436208 C348.370862,91.5436208 339.153653,85.7911506 330.233773,74.1870297 C326.665821,67.6411153 324.881845,60.9960204 324.881845,54.1525644 L324.881845,18.1500353 L325.773833,17.3565912 L325.773833,17.3565912 Z" stroke="#FFFFFF" stroke-width="8"></path>
                        </g>
                        <g transform="translate(86.225505, 0.000000)" id="Shape">
                            <g transform="translate(48.563790, 46.919852)">
                                <path d="M37.1661659,14.083634 C33.3008847,14.083634 30.1293718,10.9098573 30.1293718,7.04181699 C30.1293718,3.17377667 33.3008847,-5.68434189e-14 37.1661659,-5.68434189e-14 C41.0314472,-5.68434189e-14 44.20296,3.17377667 44.20296,7.04181699 C44.20296,10.9098573 41.0314472,14.083634 37.1661659,14.083634 L37.1661659,14.083634 Z M37.1661659,4.06640136 C35.4812997,4.06640136 34.0937629,5.45492865 34.0937629,7.14099751 C34.0937629,8.82706636 35.4812997,10.2155937 37.1661659,10.2155937 C38.8510321,10.2155937 40.238569,8.82706636 40.238569,7.14099751 C40.238569,5.45492865 38.8510321,4.06640136 37.1661659,4.06640136 L37.1661659,4.06640136 Z"></path>
                                <path d="M7.23501363,14.083634 C3.36973238,14.083634 0.198219552,10.9098573 0.198219552,7.04181699 C0.198219552,3.17377667 3.36973238,-5.68434189e-14 7.23501363,-5.68434189e-14 C11.1002949,-5.68434189e-14 14.2718077,3.17377667 14.2718077,7.04181699 C14.2718077,10.9098573 11.1002949,14.083634 7.23501363,14.083634 L7.23501363,14.083634 Z M7.23501363,4.06640136 C5.55014744,4.06640136 4.16261058,5.45492865 4.16261058,7.14099751 C4.16261058,8.82706636 5.55014744,10.2155937 7.23501363,10.2155937 C8.91987982,10.2155937 10.3074167,8.82706636 10.3074167,7.14099751 C10.3074167,5.45492865 8.91987982,4.06640136 7.23501363,4.06640136 L7.23501363,4.06640136 Z"></path>
                            </g>
                            <path d="M19.5246258,150.365135 C18.5335281,150.365135 17.6415401,150.067593 16.8486619,149.47251 C15.461125,148.480705 14.8664664,146.695456 15.1637957,145.009387 L20.4166138,119.123271 C7.63145273,105.932262 0.594658655,88.6748509 0.594658655,70.227274 C0.594658655,31.5468709 32.1115673,0.0074652005 70.7643799,0.0074652005 C109.417192,0.0074652005 140.934101,31.5468709 140.934101,70.227274 C140.934101,108.907677 109.417192,140.447083 70.7643799,140.447083 C62.7364881,140.447083 55.0059255,139.157736 47.4735826,136.479862 L21.6059311,149.869232 C20.9121627,150.265954 20.2183943,150.365135 19.5246258,150.365135 L19.5246258,150.365135 Z M29.633823,118.825729 L25.7685417,137.670028 L45.1940577,127.652796 C46.2842653,127.057713 47.6718021,126.958532 48.8611195,127.454435 C55.8979135,130.132309 63.2320369,131.520836 70.8634897,131.520836 C104.659923,131.520836 132.113331,104.047832 132.113331,70.227274 C132.113331,36.4067164 104.659923,8.93371209 70.8634897,8.93371209 C37.0670561,8.93371209 9.61364825,36.4067164 9.61364825,70.227274 C9.61364825,87.0879626 16.353113,102.758485 28.4445056,114.461786 C29.5347132,115.552772 30.0302621,117.238841 29.633823,118.825729 L29.633823,118.825729 Z"></path>
                        </g>
                        <path d="M289.004106,158.89466 C288.607667,158.89466 288.211228,158.795479 287.814789,158.696299 C287.31924,158.497938 276.119835,154.431536 269.6777,151.852843 C263.037345,155.324161 255.604112,157.208591 248.071769,157.208591 C222.600556,157.208591 201.886613,136.479862 201.886613,110.990468 C201.886613,85.5010743 222.600556,64.7723454 248.071769,64.7723454 C273.542981,64.7723454 294.256924,85.5010743 294.256924,110.990468 C294.256924,120.115076 291.58096,128.942142 286.625472,136.479862 L292.274729,154.332356 C292.671168,155.621703 292.274729,157.01023 291.382741,157.902855 C290.788082,158.597118 289.896094,158.89466 289.004106,158.89466 L289.004106,158.89466 Z M248.170879,71.7149818 C226.564947,71.7149818 208.923407,89.3691146 208.923407,110.990468 C208.923407,132.611822 226.564947,150.265954 248.170879,150.265954 C255.009453,150.265954 261.848028,148.480705 267.794614,145.009387 C268.686602,144.513484 269.875919,144.414304 270.867017,144.811026 C274.03853,146.100373 279.390458,148.083983 283.652178,149.670871 L279.687787,136.876584 C279.390458,135.785598 279.588677,134.694613 280.183336,133.801988 C285.039715,127.057713 287.517459,119.123271 287.517459,110.891288 C287.41835,89.3691146 269.875919,71.7149818 248.170879,71.7149818 L248.170879,71.7149818 Z" id="Shape"></path>
                        <g transform="translate(233.594771, 97.501917)" id="Shape">
                            <path d="M24.6853041,8.82706636 C23.3968771,8.82706636 22.3066695,8.33116376 21.6129011,7.53771959 C20.324474,6.24837282 19.6307056,3.66967927 21.4146815,1.38852729 C21.5137913,1.28934677 21.5137913,1.28934677 21.6129011,1.19016625 C23.9915357,-0.595083126 26.4692801,3.81500387e-14 27.7577072,1.38852729 C29.0461343,2.67787407 29.7399027,5.25656761 27.9559267,7.53771959 C27.856817,7.63690011 27.856817,7.63690011 27.7577072,7.73608063 C26.6674997,8.5295248 25.6764019,8.82706636 24.6853041,8.82706636 L24.6853041,8.82706636 Z M22.9013282,2.67787407 C21.9102304,4.16558188 22.3066695,5.45492865 23.000438,6.1491923 C23.6942064,6.84345595 24.9826335,7.24017803 26.4692801,6.24837282 C27.4603779,4.76066501 27.0639388,3.47131823 26.3701703,2.77705459 C25.6764019,2.08279094 24.288865,1.68606886 22.9013282,2.67787407 L22.9013282,2.67787407 Z"></path>
                            <path d="M4.56601967,8.82706636 C3.27759258,8.82706636 2.18738505,8.33116376 1.49361662,7.53771959 C0.205189536,6.24837282 -0.488578895,3.66967927 1.29539707,1.38852729 C1.39450684,1.28934677 1.39450684,1.28934677 1.49361662,1.19016625 C3.87225124,-0.595083126 6.34999563,3.81500387e-14 7.63842272,1.38852729 C8.9268498,2.67787407 9.62061823,5.25656761 7.83664227,7.53771959 C7.73753249,7.63690011 7.73753249,7.63690011 7.63842272,7.73608063 C6.54821518,8.5295248 5.55711743,8.82706636 4.56601967,8.82706636 L4.56601967,8.82706636 Z M2.78204371,2.67787407 C1.79094595,4.16558188 2.18738505,5.45492865 2.88115348,6.1491923 C3.57492191,6.84345595 4.863349,7.24017803 6.34999563,6.24837282 C7.34109339,4.76066501 6.94465429,3.47131823 6.25088586,2.77705459 C5.55711743,2.08279094 4.26869034,1.68606886 2.78204371,2.67787407 L2.78204371,2.67787407 Z"></path>
                        </g>
                        <path d="M156.989885,104.940456 C141.826089,104.940456 128.14894,95.4191264 122.896122,81.1371313 L127.554281,79.4510625 C132.113331,91.7494471 143.907394,99.9814303 156.989885,99.9814303 C170.072375,99.9814303 181.866439,91.7494471 186.425488,79.4510625 L191.083648,81.1371313 C185.83083,95.4191264 172.153681,104.940456 156.989885,104.940456 L156.989885,104.940456 Z" id="Shape"></path>
                        <path d="M248.170879,134.793793 C238.45812,134.793793 229.63735,128.644601 226.267618,119.519993 L231.817766,117.437202 C234.29551,124.280658 240.935865,128.842962 248.170879,128.842962 C255.405892,128.842962 262.046247,124.280658 264.523992,117.437202 L270.074139,119.519993 C266.704407,128.644601 257.982746,134.793793 248.170879,134.793793 L248.170879,134.793793 Z" id="Shape"></path>
                        <g transform="translate(4.955489, 289.912128)" id="Shape" stroke="#FFFFFF" stroke-width="3">
                            <path d="M2.27952484,3.17377667 L2.57685417,3.47131823 L2.57685417,15.4721613 C2.57685417,20.2328263 4.85637901,23.5057835 9.4154287,25.2910328 C10.1091971,25.5885744 11.0011851,25.6877549 12.1905024,25.6877549 C16.4522228,25.6877549 19.425516,23.3074224 21.1103822,18.4475769 C21.4077116,17.7533132 21.5068213,16.761508 21.5068213,15.4721613 L21.5068213,3.47131823 L21.8041507,3.17377667 L23.4890169,3.17377667 L23.7863462,3.47131823 L23.7863462,15.4721613 C23.7863462,20.2328263 26.065871,23.5057835 30.6249207,25.2910328 C31.3186891,25.5885744 32.2106771,25.6877549 33.3999944,25.6877549 C37.6617148,25.6877549 40.6350081,23.3074224 42.3198743,18.4475769 C42.6172036,17.7533132 42.7163134,16.761508 42.7163134,15.4721613 L42.7163134,8.23198324 L42.418984,8.23198324 C40.9323374,8.0336222 40.238569,7.24017803 40.238569,5.85165074 L40.238569,5.55410917 C40.4367885,3.96722084 41.2296667,3.17377667 42.418984,3.17377667 L42.7163134,3.17377667 C44.20296,3.37213771 44.8967284,4.16558188 44.8967284,5.55410917 L44.8967284,15.4721613 C44.8967284,21.2246315 42.0225449,25.2910328 36.3732877,27.6713653 C35.1839704,27.9689069 34.0937629,28.0680874 33.0035553,28.0680874 C28.5436154,28.0680874 25.173883,25.7869354 22.6961386,21.125451 L22.3988093,21.125451 C20.0201747,25.7869354 16.4522228,28.0680874 11.7940633,28.0680874 C6.9376843,28.0680874 3.2706226,25.2910328 0.792878206,19.6377431 C0.396439103,18.0508548 0.198219552,16.6623275 0.198219552,15.4721613 L0.198219552,3.47131823 L0.594658655,3.17377667 L2.27952484,3.17377667 Z"></path>
                            <path d="M54.9068158,10.4139547 C58.0783286,10.4139547 60.0605241,11.802482 60.7542925,14.6787171 L60.7542925,15.3729807 C60.7542925,17.1582301 59.5649752,18.5467574 57.0872308,19.3402016 L55.6005842,19.3402016 C53.2219496,19.3402016 51.8344127,18.1500353 51.4379736,15.6705223 L51.4379736,15.5713418 C51.4379736,14.5795366 51.9335225,13.5877314 52.8255105,12.4967456 L52.7264007,12.4967456 C51.3388638,12.4967456 49.951327,13.4885508 48.3655706,15.5713418 C47.6718021,16.761508 47.3744728,17.9516743 47.3744728,19.1418405 C47.3744728,22.2164367 48.9602292,24.3984082 52.1317421,25.6877549 L54.1139376,25.9852965 C56.0961331,25.9852965 57.880109,25.0926718 59.5649752,23.2082419 L61.0516219,23.2082419 L61.1507316,23.4066029 L61.2498414,23.4066029 C59.4658655,26.5803796 56.9881211,28.1672679 53.915718,28.1672679 C50.1495465,28.1672679 47.4735826,25.9852965 45.986936,21.522173 L45.8878262,20.3320068 L45.8878262,18.4475769 C45.8878262,15.2738002 47.8700217,12.7942872 51.7353029,10.9098573 L54.9068158,10.4139547 L54.9068158,10.4139547 Z M52.4290714,15.4721613 C52.4290714,17.0590496 53.4201691,17.9516743 55.5014744,18.2492159 L56.1952429,18.2492159 C58.0783286,18.2492159 59.2676459,17.3565912 59.5649752,15.5713418 L59.5649752,15.2738002 C59.5649752,13.2901898 57.9792188,12.2983846 54.807706,12.2983846 L54.5103767,12.2983846 C53.1228398,13.5877314 52.4290714,14.6787171 52.4290714,15.4721613 L52.4290714,15.4721613 Z"></path>
                            <polygon points="64.9169031 0.297541563 68.1875257 0.297541563 68.1875257 4.36394292 67.2955377 9.32296897 65.9080009 9.32296897 65.0160129 4.36394292 65.0160129 0.297541563"></polygon>
                            <path d="M72.3501363,3.17377667 L73.4403438,3.17377667 L73.7376732,3.47131823 L73.7376732,20.3320068 C73.7376732,22.4147977 75.12521,24.2000471 77.801174,25.6877549 L80.2789184,26.084477 C83.0539921,26.084477 85.1352974,24.5967692 86.5228342,21.522173 L87.9103711,21.522173 L88.2077004,21.8197146 C86.4237245,25.9852965 83.7477605,28.0680874 80.0806988,28.0680874 C76.3145273,28.0680874 73.6385634,25.886116 72.1519168,21.4229925 L72.052807,20.2328263 L72.052807,3.47131823 L72.3501363,3.17377667 L72.3501363,3.17377667 Z"></path>
                            <path d="M91.1809937,3.17377667 L92.2712012,3.17377667 L92.5685306,3.47131823 L92.5685306,20.3320068 C92.5685306,22.4147977 93.9560674,24.2000471 96.6320314,25.6877549 L99.1097758,26.084477 C101.884849,26.084477 103.966155,24.5967692 105.353692,21.522173 L106.741228,21.522173 L107.038558,21.8197146 C105.254582,25.9852965 102.578618,28.0680874 98.9115562,28.0680874 C95.1453847,28.0680874 92.4694208,25.886116 90.9827742,21.4229925 L90.8836644,20.2328263 L90.8836644,3.47131823 L91.1809937,3.17377667 L91.1809937,3.17377667 Z"></path>
                            <path d="M122.202354,3.27295719 L123.391671,3.27295719 L123.58989,3.57049875 L123.58989,14.1828145 L123.689,14.1828145 C125.274757,11.802482 127.554281,10.7114963 130.230245,10.7114963 C134.690185,11.3065794 137.267039,13.5877314 138.159027,17.3565912 L138.456357,19.5385626 C138.456357,23.5057835 136.375051,26.2828381 132.113331,27.8697264 L130.032026,28.1672679 C125.671196,27.9689069 123.094341,25.6877549 122.103244,21.522173 L121.805914,18.7451185 L121.805914,3.57049875 L122.202354,3.27295719 L122.202354,3.27295719 Z M123.78811,19.4393821 C123.689,22.5139783 125.274757,24.6959497 128.34716,25.886116 L130.329355,26.1836575 C133.500868,26.1836575 135.681283,24.3984082 136.771491,20.7287289 L136.771491,18.9434795 C136.8706,16.1664249 135.185734,14.083634 131.716892,12.6951067 L130.428465,12.4967456 C127.058733,12.5959262 124.878317,14.3811755 123.78811,18.0508548 L123.78811,19.4393821 L123.78811,19.4393821 Z"></path>
                            <path d="M141.42965,3.17377667 L142.519858,3.17377667 L142.817187,3.47131823 L142.817187,20.3320068 C142.817187,22.4147977 144.204724,24.2000471 146.880688,25.6877549 L149.358432,26.084477 C152.133506,26.084477 154.214811,24.5967692 155.602348,21.522173 L156.989885,21.522173 L157.287214,21.8197146 C155.503238,25.9852965 152.827274,28.0680874 149.160213,28.0680874 C145.394041,28.0680874 142.718077,25.886116 141.23143,21.4229925 L141.132321,20.2328263 L141.132321,3.47131823 L141.42965,3.17377667 L141.42965,3.17377667 Z"></path>
                            <path d="M168.09018,10.4139547 C171.856351,10.4139547 174.532315,12.5959262 176.018962,17.0590496 L176.118072,18.2492159 L176.118072,27.7705459 L175.820742,28.0680874 L174.829644,28.0680874 L174.532315,27.7705459 L174.532315,24.4975887 L174.433205,24.4975887 C172.847449,26.8779212 170.667034,28.0680874 167.89196,28.0680874 C164.125789,28.0680874 161.449825,25.886116 159.963178,21.4229925 L159.864068,20.2328263 L159.864068,18.3483964 C159.864068,15.5713418 161.449825,13.1910093 164.720447,11.2073989 C165.909765,10.7114963 166.999972,10.4139547 168.09018,10.4139547 L168.09018,10.4139547 Z M161.350715,19.1418405 C161.350715,22.2164367 162.936471,24.3984082 166.107984,25.6877549 L168.09018,25.9852965 C171.261693,25.9852965 173.442108,24.2000471 174.532315,20.5303678 L174.631425,19.8361042 L174.631425,19.2410211 L174.631425,18.844299 C174.631425,16.761508 173.541217,14.9762587 171.261693,13.3893703 C170.171485,12.7942872 169.081277,12.4967456 167.89196,12.4967456 C164.720447,12.4967456 162.540032,14.281995 161.449825,17.9516743 L161.350715,19.1418405 L161.350715,19.1418405 Z"></path>
                            <polygon points="180.379792 16.563147 189.497891 16.563147 189.497891 19.3402016 180.379792 19.3402016"></polygon>
                            <path d="M194.156051,3.27295719 L195.345368,3.27295719 L195.543588,3.57049875 L195.543588,14.1828145 L195.642697,14.1828145 C197.228454,11.802482 199.507979,10.7114963 202.183943,10.7114963 C206.643882,11.3065794 209.220737,13.5877314 210.112725,17.3565912 L210.410054,19.5385626 C210.410054,23.5057835 208.328749,26.2828381 204.067028,27.8697264 L201.985723,28.1672679 C197.624893,27.9689069 195.048039,25.6877549 194.056941,21.522173 L193.759612,18.7451185 L193.759612,3.57049875 L194.156051,3.27295719 L194.156051,3.27295719 Z M195.741807,19.4393821 C195.642697,22.5139783 197.228454,24.6959497 200.300857,25.886116 L202.283052,26.1836575 C205.454565,26.1836575 207.63498,24.3984082 208.725188,20.7287289 L208.725188,18.9434795 C208.824298,16.1664249 207.139431,14.083634 203.670589,12.6951067 L202.382162,12.4967456 C199.01243,12.5959262 196.832015,14.3811755 195.741807,18.0508548 L195.741807,19.4393821 L195.741807,19.4393821 Z"></path>
                            <path d="M213.284237,3.17377667 L214.374445,3.17377667 L214.671774,3.47131823 L214.671774,20.3320068 C214.671774,22.4147977 216.059311,24.2000471 218.735275,25.6877549 L221.21302,26.084477 C223.988093,26.084477 226.069399,24.5967692 227.456935,21.522173 L228.844472,21.522173 L229.141802,21.8197146 C227.357826,25.9852965 224.681862,28.0680874 221.0148,28.0680874 C217.248628,28.0680874 214.572665,25.886116 213.086018,21.4229925 L212.986908,20.2328263 L212.986908,3.47131823 L213.284237,3.17377667 L213.284237,3.17377667 Z"></path>
                            <path d="M240.043877,10.4139547 C243.810048,10.4139547 246.486012,12.5959262 247.972659,17.0590496 L248.071769,18.2492159 L248.071769,27.7705459 L247.774439,28.0680874 L246.783342,28.0680874 L246.486012,27.7705459 L246.486012,24.4975887 L246.386903,24.4975887 C244.801146,26.8779212 242.620731,28.0680874 239.845657,28.0680874 C236.079486,28.0680874 233.403522,25.886116 231.916875,21.4229925 L231.817766,20.2328263 L231.817766,18.3483964 C231.817766,15.5713418 233.403522,13.1910093 236.674145,11.2073989 C237.863462,10.7114963 238.953669,10.4139547 240.043877,10.4139547 L240.043877,10.4139547 Z M233.304412,19.1418405 C233.304412,22.2164367 234.890169,24.3984082 238.061681,25.6877549 L240.043877,25.9852965 C243.21539,25.9852965 245.395805,24.2000471 246.486012,20.5303678 L246.585122,19.8361042 L246.585122,19.2410211 L246.585122,18.844299 C246.585122,16.761508 245.494915,14.9762587 243.21539,13.3893703 C242.125182,12.7942872 241.034975,12.4967456 239.845657,12.4967456 C236.674145,12.4967456 234.493729,14.281995 233.403522,17.9516743 L233.304412,19.1418405 L233.304412,19.1418405 Z"></path>
                            <polygon points="252.333489 16.563147 261.451588 16.563147 261.451588 19.3402016 252.333489 19.3402016"></polygon>
                            <path d="M266.407077,3.17377667 L268.091943,3.17377667 L268.389273,3.47131823 L268.389273,15.4721613 C268.389273,20.2328263 270.668798,23.5057835 275.227847,25.2910328 C275.921616,25.5885744 276.813604,25.6877549 278.002921,25.6877549 C282.264641,25.6877549 285.237935,23.3074224 286.922801,18.4475769 C287.22013,17.7533132 287.31924,16.761508 287.31924,15.4721613 C287.31924,10.9098573 285.039715,7.83526115 280.480665,5.95083126 C279.786897,5.65328969 278.894909,5.55410917 277.705592,5.55410917 C274.23675,6.05001178 272.551883,7.43853907 272.551883,9.52133001 L272.452774,10.4139547 L272.452774,14.083634 L272.155444,14.3811755 L270.470578,14.3811755 L270.173249,14.083634 L270.173249,10.9098573 C270.173249,7.43853907 271.957225,4.95902605 275.426067,3.66967927 C276.020726,3.37213771 276.813604,3.27295719 277.903811,3.27295719 C282.76019,3.27295719 286.427252,6.05001178 288.904996,11.7033015 C289.301435,13.2901898 289.499655,14.6787171 289.499655,15.8688834 C289.499655,21.125451 286.823691,24.9934913 281.570873,27.5721848 C280.084226,27.9689069 278.795799,28.1672679 277.705592,28.1672679 C272.750103,28.1672679 269.083041,25.3902134 266.704407,19.7369237 C266.307967,18.1500353 266.109748,16.761508 266.109748,15.5713418 L266.109748,3.57049875 L266.407077,3.17377667 L266.407077,3.17377667 Z"></path>
                            <path d="M292.770278,3.17377667 L293.860485,3.17377667 L294.157814,3.47131823 L294.157814,20.3320068 C294.157814,22.4147977 295.545351,24.2000471 298.221315,25.6877549 L300.69906,26.084477 C303.474133,26.084477 305.555439,24.5967692 306.942976,21.522173 L308.330512,21.522173 L308.627842,21.8197146 C306.843866,25.9852965 304.167902,28.0680874 300.50084,28.0680874 C296.734669,28.0680874 294.058705,25.886116 292.572058,21.4229925 L292.472948,20.2328263 L292.472948,3.47131823 L292.770278,3.17377667 L292.770278,3.17377667 Z"></path>
                            <path d="M311.502025,10.4139547 L312.592233,10.4139547 L312.889562,10.7114963 L312.889562,20.3320068 C312.889562,22.4147977 314.277099,24.2000471 316.953063,25.6877549 L319.430807,26.084477 C322.60232,26.084477 324.782735,24.2992276 325.872943,20.6295484 L325.872943,10.7114963 L326.170272,10.4139547 L327.26048,10.4139547 L327.557809,10.7114963 L327.557809,20.2328263 C327.557809,23.0098809 325.972052,25.3902134 322.70143,27.3738238 C321.512113,27.8697264 320.421905,28.0680874 319.331698,28.0680874 C315.565526,28.0680874 312.889562,25.886116 311.402915,21.4229925 L311.303806,20.2328263 L311.303806,10.7114963 L311.502025,10.4139547 L311.502025,10.4139547 Z"></path>
                            <path d="M330.531102,3.27295719 L331.720419,3.27295719 L331.918639,3.57049875 L331.918639,14.1828145 L332.017749,14.1828145 C333.603505,11.802482 335.88303,10.7114963 338.558994,10.7114963 C343.018934,11.3065794 345.595788,13.5877314 346.487776,17.3565912 L346.785105,19.5385626 C346.785105,23.5057835 344.7038,26.2828381 340.44208,27.8697264 L338.360774,28.1672679 C333.999944,27.9689069 331.42309,25.6877549 330.431992,21.522173 L330.134663,18.7451185 L330.134663,3.57049875 L330.531102,3.27295719 L330.531102,3.27295719 Z M332.017749,19.4393821 C331.918639,22.5139783 333.504395,24.6959497 336.576798,25.886116 L338.558994,26.1836575 C341.730507,26.1836575 343.910922,24.3984082 345.001129,20.7287289 L345.001129,18.9434795 C345.100239,16.1664249 343.415373,14.083634 339.946531,12.6951067 L338.658104,12.4967456 C335.288371,12.5959262 333.107956,14.3811755 332.017749,18.0508548 L332.017749,19.4393821 L332.017749,19.4393821 Z"></path>
                            <path d="M350.055728,3.37213771 L351.740594,3.37213771 L352.037924,3.66967927 L352.037924,15.6705223 C352.037924,20.4311873 354.317448,23.7041445 358.876498,25.4893939 C359.570266,25.7869354 360.462254,25.886116 361.651572,25.886116 C365.913292,25.886116 368.886585,23.5057835 370.571452,18.6459379 C370.868781,17.9516743 370.967891,16.9598691 370.967891,15.6705223 L370.967891,3.66967927 L371.26522,3.37213771 L372.950086,3.37213771 L373.247416,3.66967927 L373.247416,15.6705223 C373.247416,21.4229925 370.373232,25.4893939 364.723975,27.8697264 L362.939999,28.1672679 L360.164925,28.1672679 C357.191632,28.1672679 354.317448,26.2828381 351.542375,22.4147977 C350.452167,20.2328263 349.857508,18.0508548 349.857508,15.7697028 L349.857508,3.7688598 L350.055728,3.37213771 L350.055728,3.37213771 Z"></path>
                            <path d="M380.977978,0.297541563 L380.680649,20.4311873 L378.103795,20.4311873 L377.806465,0.297541563 L380.977978,0.297541563 L380.977978,0.297541563 Z M380.977978,24.2992276 L380.977978,28.0680874 L377.905575,28.0680874 L377.905575,24.2992276 L380.977978,24.2992276 L380.977978,24.2992276 Z"></path>
                        </g>
                    </g>
                </g>
            </g>
        </g>
    </g>
</svg>