<?xml version="1.0" encoding="UTF-8" standalone="no"?>
<svg width="75px" height="50px" viewBox="0 0 75 50" version="1.1" xmlns="http://www.w3.org/2000/svg" xmlns:xlink="http://www.w3.org/1999/xlink">
    <!-- Generator: Sketch 40 (33762) - http://www.bohemiancoding.com/sketch -->
    <title>logo BlubU 1 Copy 2</title>
    <desc>Created with Sketch.</desc>
    <defs></defs>
    <g id="LandingPage" stroke="none" stroke-width="1" fill="none" fill-rule="evenodd">
        <g id="Page" transform="translate(-11.000000, -11.000000)">
            <g id="logo-BlubU-1-Copy-2" transform="translate(11.000000, 11.000000)">
                <g id="Layer_1">
                    <g id="Group">
                        <g transform="translate(0.000000, 32.122222)" id="Shape">
                            <path d="M0.217777778,0.0907407407 L1.41555556,0.0907407407 L1.61518519,0.29037037 L1.61518519,8.34814815 C1.61518519,11.5603704 3.23037037,13.7562963 6.47888889,14.8996296 C6.95074074,15.0992593 7.62222222,15.19 8.47518519,15.19 C11.5059259,15.19 13.6292593,13.5748148 14.827037,10.3262963 C15.0266667,9.85444444 15.1174074,9.18296296 15.1174074,8.33 C15.1174074,5.29925926 13.5022222,3.17592593 10.2537037,1.97814815 C9.78185185,1.77851852 9.11037037,1.68777778 8.25740741,1.68777778 C5.80740741,2.03259259 4.57333333,2.92185185 4.57333333,4.3737037 L4.48259259,4.97259259 L4.48259259,7.44074074 L4.28296296,7.64037037 L3.08518519,7.64037037 L2.9037037,7.44074074 L2.9037037,5.26296296 C2.9037037,2.9037037 4.15592593,1.28851852 6.67851852,0.399259259 C7.07777778,0.19962963 7.67666667,0.108888889 8.47518519,0.108888889 C11.9777778,0.108888889 14.5911111,1.9962963 16.3333333,5.77111111 C16.6055556,6.80555556 16.7325926,7.74925926 16.7325926,8.54777778 C16.7325926,12.0503704 14.8451852,14.6637037 11.0703704,16.4059259 C10.0359259,16.6781481 9.09222222,16.8051852 8.2937037,16.8051852 C4.79111111,16.8051852 2.15962963,14.9177778 0.435555556,11.142963 C0.163333333,10.1085185 0.0362962963,9.16481481 0.0362962963,8.3662963 L0.0362962963,0.308518519 L0.217777778,0.0907407407 L0.217777778,0.0907407407 Z" fill="#E84E24"></path>
                            <path d="M19.0011111,0.0907407407 L19.7996296,0.0907407407 L19.9992593,0.29037037 L19.9992593,11.6148148 C19.9992593,12.9940741 20.9611111,14.1737037 22.8848148,15.19 L24.6814815,15.4803704 C26.6414815,15.4803704 28.1296296,14.4459259 29.1459259,12.3951852 L30.1440741,12.3951852 L30.3437037,12.5948148 C29.1096296,15.3714815 27.1859259,16.7688889 24.5725926,16.7688889 C21.8866667,16.7688889 19.9992593,15.2807407 18.9103704,12.3044444 L18.8196296,11.5059259 L18.8196296,0.272222222 L19.0011111,0.0907407407 L19.0011111,0.0907407407 Z" fill="#E84E24"></path>
                            <path d="M32.3762963,4.95444444 L33.1748148,4.95444444 L33.3744444,5.15407407 L33.3744444,11.6148148 C33.3744444,12.9940741 34.3362963,14.1737037 36.26,15.19 L38.0566667,15.4803704 C40.3251852,15.4803704 41.8496296,14.2462963 42.63,11.7962963 L42.63,5.13592593 L42.8296296,4.9362963 L43.6281481,4.9362963 L43.8277778,5.13592593 L43.8277778,11.4877778 C43.8277778,13.357037 42.6662963,14.9540741 40.3433333,16.2607407 C39.4903704,16.5874074 38.71,16.7507407 37.9659259,16.7507407 C35.28,16.7507407 33.3925926,15.2625926 32.3037037,12.2862963 L32.212963,11.4877778 L32.212963,5.13592593 L32.3762963,4.95444444 L32.3762963,4.95444444 Z" fill="#E84E24"></path>
                            <path d="M45.932963,0.127037037 L46.7496296,0.127037037 L46.9311111,0.326666667 L46.9311111,7.40444444 L47.0218519,7.40444444 C48.1833333,5.82555556 49.7440741,5.04518519 51.7222222,5.04518519 C54.8618519,5.46259259 56.7674074,6.95074074 57.4025926,9.49148148 L57.6022222,10.9796296 C57.6022222,13.6111111 56.0959259,15.4803704 53.1014815,16.5692593 L51.6133333,16.7688889 C48.5281481,16.6055556 46.6407407,15.1355556 45.932963,12.3407407 L45.7333333,10.4714815 L45.7333333,0.308518519 L45.932963,0.127037037 L45.932963,0.127037037 Z M47.0218519,10.9614815 C46.9492593,13.0303704 48.0562963,14.4640741 50.3066667,15.2807407 L51.7222222,15.4985185 C54.0088889,15.4985185 55.5333333,14.2825926 56.3137037,11.8507407 L56.2955556,10.652963 C56.3862963,8.7837037 55.1885185,7.3862963 52.7203704,6.46074074 L51.7948148,6.3337037 C49.3992593,6.38814815 47.8022222,7.62222222 47.0218519,10.0540741 L47.0218519,10.9614815 L47.0218519,10.9614815 Z" fill="#E84E24"></path>
                            <path d="M59.652963,3.17592593 L60.632963,3.17592593 L60.7962963,3.33925926 L60.7962963,9.92703704 C60.7962963,12.5585185 62.1211111,14.3551852 64.7888889,15.2988889 C65.1881481,15.4622222 65.7325926,15.5348148 66.4222222,15.5348148 C68.9085185,15.5348148 70.6507407,14.21 71.6307407,11.5422222 C71.7940741,11.142963 71.8666667,10.5985185 71.8666667,9.90888889 L71.8666667,3.32111111 L72.03,3.15777778 L73.01,3.15777778 L73.1733333,3.32111111 L73.1733333,9.90888889 C73.1733333,13.0666667 71.5218519,15.2988889 68.2007407,16.5874074 L67.1481481,16.7507407 L65.5148148,16.7507407 C63.7907407,16.7507407 62.102963,15.6981481 60.4696296,13.5748148 C59.8162963,12.377037 59.4896296,11.1611111 59.4896296,9.90888889 L59.4896296,3.32111111 L59.652963,3.17592593 L59.652963,3.17592593 Z" stroke="#4FBAAA" stroke-width="2"></path>
                        </g>
                        <g transform="translate(15.788889, 0.000000)" id="Shape" fill="#E94D27">
                            <g transform="translate(8.892593, 8.711111)">
                                <path d="M6.80555556,2.57703704 C6.09777778,2.57703704 5.51703704,1.9962963 5.51703704,1.28851852 C5.51703704,0.580740741 6.09777778,0 6.80555556,0 C7.51333333,0 8.09407407,0.580740741 8.09407407,1.28851852 C8.09407407,1.9962963 7.51333333,2.57703704 6.80555556,2.57703704 L6.80555556,2.57703704 Z M6.80555556,0.744074074 C6.49703704,0.744074074 6.24296296,0.998148148 6.24296296,1.30666667 C6.24296296,1.61518519 6.49703704,1.86925926 6.80555556,1.86925926 C7.11407407,1.86925926 7.36814815,1.61518519 7.36814815,1.30666667 C7.36814815,0.998148148 7.11407407,0.744074074 6.80555556,0.744074074 L6.80555556,0.744074074 Z"></path>
                                <path d="M1.32481481,2.57703704 C0.617037037,2.57703704 0.0362962963,1.9962963 0.0362962963,1.28851852 C0.0362962963,0.580740741 0.617037037,0 1.32481481,0 C2.03259259,0 2.61333333,0.580740741 2.61333333,1.28851852 C2.61333333,1.9962963 2.03259259,2.57703704 1.32481481,2.57703704 L1.32481481,2.57703704 Z M1.32481481,0.744074074 C1.0162963,0.744074074 0.762222222,0.998148148 0.762222222,1.30666667 C0.762222222,1.61518519 1.0162963,1.86925926 1.32481481,1.86925926 C1.63333333,1.86925926 1.88740741,1.61518519 1.88740741,1.30666667 C1.88740741,0.998148148 1.63333333,0.744074074 1.32481481,0.744074074 L1.32481481,0.744074074 Z"></path>
                            </g>
                            <path d="M3.57518519,27.6396296 C3.3937037,27.6396296 3.23037037,27.5851852 3.08518519,27.4762963 C2.83111111,27.2948148 2.72222222,26.9681481 2.77666667,26.6596296 L3.73851852,21.922963 C1.39740741,19.5092593 0.108888889,16.3514815 0.108888889,12.9759259 C0.108888889,5.89814815 5.88,0.127037037 12.9577778,0.127037037 C20.0355556,0.127037037 25.8066667,5.89814815 25.8066667,12.9759259 C25.8066667,20.0537037 20.0355556,25.8248148 12.9577778,25.8248148 C11.4877778,25.8248148 10.0722222,25.5888889 8.69296296,25.0988889 L3.9562963,27.5488889 C3.82925926,27.6214815 3.70222222,27.6396296 3.57518519,27.6396296 L3.57518519,27.6396296 Z M5.4262963,21.8685185 L4.71851852,25.3166667 L8.27555556,23.4837037 C8.47518519,23.3748148 8.72925926,23.3566667 8.94703704,23.4474074 C10.2355556,23.9374074 11.5785185,24.1914815 12.9759259,24.1914815 C19.1644444,24.1914815 24.1914815,19.1644444 24.1914815,12.9759259 C24.1914815,6.78740741 19.1644444,1.76037037 12.9759259,1.76037037 C6.78740741,1.76037037 1.76037037,6.78740741 1.76037037,12.9759259 C1.76037037,16.0611111 2.99444444,18.9285185 5.20851852,21.07 C5.40814815,21.2696296 5.49888889,21.5781481 5.4262963,21.8685185 L5.4262963,21.8685185 Z"></path>
                        </g>
                        <path d="M52.92,29.2003704 C52.8474074,29.2003704 52.7748148,29.1822222 52.7022222,29.1640741 C52.6114815,29.1277778 50.5607407,28.3837037 49.3811111,27.9118519 C48.1651852,28.547037 46.8040741,28.8918519 45.4248148,28.8918519 C40.7607407,28.8918519 36.9677778,25.0988889 36.9677778,20.4348148 C36.9677778,15.7707407 40.7607407,11.9777778 45.4248148,11.9777778 C50.0888889,11.9777778 53.8818519,15.7707407 53.8818519,20.4348148 C53.8818519,22.1044444 53.3918519,23.7196296 52.4844444,25.0988889 L53.5188889,28.3655556 C53.5914815,28.6014815 53.5188889,28.8555556 53.3555556,29.0188889 C53.2466667,29.1459259 53.0833333,29.2003704 52.92,29.2003704 L52.92,29.2003704 Z M45.442963,13.2481481 C41.4866667,13.2481481 38.2562963,16.4785185 38.2562963,20.4348148 C38.2562963,24.3911111 41.4866667,27.6214815 45.442963,27.6214815 C46.6951852,27.6214815 47.9474074,27.2948148 49.0362963,26.6596296 C49.1996296,26.5688889 49.4174074,26.5507407 49.5988889,26.6233333 C50.1796296,26.8592593 51.1596296,27.2222222 51.94,27.5125926 L51.2140741,25.1714815 C51.1596296,24.9718519 51.1959259,24.7722222 51.3048148,24.6088889 C52.1940741,23.3748148 52.6477778,21.922963 52.6477778,20.4166667 C52.6296296,16.4785185 49.4174074,13.2481481 45.442963,13.2481481 L45.442963,13.2481481 Z" id="Shape" fill="#4FBAAA"></path>
                        <g transform="translate(42.648148, 17.966667)" id="Shape" fill="#4FBAAA">
                            <path d="M4.64592593,1.61518519 C4.41,1.61518519 4.21037037,1.52444444 4.08333333,1.37925926 C3.84740741,1.14333333 3.72037037,0.671481481 4.04703704,0.254074074 C4.06518519,0.235925926 4.06518519,0.235925926 4.08333333,0.217777778 C4.51888889,-0.108888889 4.97259259,-4.92487995e-15 5.20851852,0.254074074 C5.44444444,0.49 5.57148148,0.961851852 5.24481481,1.37925926 C5.22666667,1.39740741 5.22666667,1.39740741 5.20851852,1.41555556 C5.00888889,1.56074074 4.82740741,1.61518519 4.64592593,1.61518519 L4.64592593,1.61518519 Z M4.31925926,0.49 C4.13777778,0.762222222 4.21037037,0.998148148 4.33740741,1.12518519 C4.46444444,1.25222222 4.70037037,1.32481481 4.97259259,1.14333333 C5.15407407,0.871111111 5.08148148,0.635185185 4.95444444,0.508148148 C4.82740741,0.381111111 4.57333333,0.308518519 4.31925926,0.49 L4.31925926,0.49 Z"></path>
                            <path d="M0.961851852,1.61518519 C0.725925926,1.61518519 0.526296296,1.52444444 0.399259259,1.37925926 C0.163333333,1.14333333 0.0362962963,0.671481481 0.362962963,0.254074074 C0.381111111,0.235925926 0.381111111,0.235925926 0.399259259,0.217777778 C0.834814815,-0.108888889 1.28851852,-4.92487995e-15 1.52444444,0.254074074 C1.76037037,0.49 1.88740741,0.961851852 1.56074074,1.37925926 C1.54259259,1.39740741 1.54259259,1.39740741 1.52444444,1.41555556 C1.32481481,1.56074074 1.14333333,1.61518519 0.961851852,1.61518519 L0.961851852,1.61518519 Z M0.635185185,0.49 C0.453703704,0.762222222 0.526296296,0.998148148 0.653333333,1.12518519 C0.78037037,1.25222222 1.0162963,1.32481481 1.28851852,1.14333333 C1.47,0.871111111 1.39740741,0.635185185 1.27037037,0.508148148 C1.14333333,0.381111111 0.907407407,0.308518519 0.635185185,0.49 L0.635185185,0.49 Z"></path>
                        </g>
                        <path d="M28.7466667,19.3277778 C25.97,19.3277778 23.4655556,17.5855556 22.5037037,14.9722222 L23.3566667,14.6637037 C24.1914815,16.9140741 26.3511111,18.4203704 28.7466667,18.4203704 C31.1422222,18.4203704 33.3018519,16.9140741 34.1366667,14.6637037 L34.9896296,14.9722222 C34.0277778,17.5855556 31.5233333,19.3277778 28.7466667,19.3277778 L28.7466667,19.3277778 Z" id="Shape" fill="#E94D27"></path>
                        <path d="M45.442963,24.7903704 C43.6644444,24.7903704 42.0492593,23.6651852 41.4322222,21.9955556 L42.4485185,21.6144444 C42.9022222,22.8666667 44.1181481,23.7014815 45.442963,23.7014815 C46.7677778,23.7014815 47.9837037,22.8666667 48.4374074,21.6144444 L49.4537037,21.9955556 C48.8366667,23.6651852 47.2396296,24.7903704 45.442963,24.7903704 L45.442963,24.7903704 Z" id="Shape" fill="#4FBAAA"></path>
                    </g>
                </g>
            </g>
        </g>
    </g>
</svg>