<?xml version="1.0" encoding="UTF-8" standalone="no"?>
<svg width="200px" height="200px" viewBox="0 0 200 200" version="1.1" xmlns="http://www.w3.org/2000/svg" xmlns:xlink="http://www.w3.org/1999/xlink">
    <!-- Generator: Sketch 40 (33762) - http://www.bohemiancoding.com/sketch -->
    <title>video chat copy</title>
    <desc>Created with Sketch.</desc>
    <defs></defs>
    <g id="LandingPage" stroke="none" stroke-width="1" fill="none" fill-rule="evenodd">
        <g id="Page" transform="translate(-620.000000, -1533.000000)">
            <g id="video-chat-copy" transform="translate(620.000000, 1533.000000)">
                <g id="Layer_1">
                    <path d="M100.000391,199.999609 C155.078125,199.999609 200,155.077734 200,99.9996094 C200,44.9222656 155.078125,0.000390625 100.000391,0.000390625 C44.9222656,0.000390625 0,44.9222656 0,99.9996094 C0,155.077734 44.9222656,199.999609 100.000391,199.999609 L100.000391,199.999609 Z" id="Shape" fill="#FFCA4F"></path>
                    <path d="M94.2346944,60.7875809 C94.2346944,60.7875809 87.6489341,64.0992558 80.7919962,67.1323989 C75.7566987,69.3597456 51.2786333,78.5987844 40.9382228,90.8053462 C30.2026874,103.478342 33.7052271,119.161051 34.5718448,123.046883 C36.1024614,129.910023 44.2677123,145.284544 44.2677123,145.284544 C44.2677123,145.284544 45.4253013,147.473317 48.1528867,146.428251 C51.1379275,145.284541 49.32098,142.48199 49.32098,142.48199 C49.32098,142.48199 42.6170843,128.201786 40.9382228,121.243533 C39.2593614,114.28528 40.2190408,108.607797 40.2190408,108.607797 C40.2190408,108.607797 40.8021145,102.018552 44.2677123,97.2189511 C47.3080914,93.0082476 54.7287491,88.2948284 57.3823903,86.4337871 C65.4853053,80.7510822 82.506022,75.5798356 84.6291747,74.0701186 C86.7523274,72.5604016 86.0470045,110.671403 86.0470045,110.671403 L113.176231,110.671403 C113.176231,110.671403 112.363288,70.2641388 115.420708,73.2820339 C116.139471,73.9915057 128.931914,76.2750109 139.52777,75.6119458 C148.923982,75.0239517 155.594374,67.3389287 158.353538,60.7875806 C164.224138,46.8484532 143.279117,30.2201203 129.17284,21.3378904 C118.59187,14.6754228 105.879018,7.65703579 105.879018,7.65703579 C105.879018,7.65703579 102.995353,6.57776579 102.079405,9.93399789 C101.163456,13.29023 103.319659,14.6686422 103.319659,14.6686422 C103.319659,14.6686422 161.733342,44.0299642 151.085444,59.5040863 C140.437545,74.9782085 125.331049,68.2222938 118.223554,65.654183 C112.874607,63.7214781 107.983986,61.1260508 106.525465,60.7875798 L94.2346944,60.7875809 Z" id="Path-3" fill="#15BDB1"></path>
                    <path d="M86.2068966,110.91954 L89.240494,175.766558 C89.240494,175.766558 89.7902635,178.81474 94.2060168,178.81474 C98.6217701,178.81474 98.6217701,176.095092 98.6217701,176.095092 L100.705669,110.91954 L86.2068966,110.91954 Z" id="Path-4" fill="#666666"></path>
                    <path d="M112.774634,110.91954 L109.741037,175.766558 C109.741037,175.766558 109.191267,178.81474 104.775514,178.81474 C100.359761,178.81474 100.359761,176.095092 100.359761,176.095092 L98.2758621,110.91954 L112.774634,110.91954" id="Path-4-Copy" fill="#666666"></path>
                    <path d="M92.9655149,39.6270583 C94.4957659,38.1858709 96.3840679,37.7515896 96.3840679,37.7515896 L105.282727,37.3563218 C105.282727,37.3563218 107.041155,37.5752591 107.72928,38.4204649 C108.417405,39.2656706 108.417405,40.818765 108.417405,40.818765 C108.417405,40.818765 109.229758,48.6328755 108.417405,52.2571475 C107.605053,55.8814195 106.008325,59.9094293 100.310822,59.9094293 C94.6133195,59.9094293 92.9655149,53.6470015 92.9655149,53.6470015 L92.5143179,50.7505464 L91.3793103,43.6551964 C91.3793103,43.6551964 91.4352638,41.0682457 92.9655149,39.6270583 Z" id="Path-5" fill="#FED198"></path>
                    <path d="M92.9655149,39.6270583 C94.4957659,38.1858709 96.3840679,37.7515896 96.3840679,37.7515896 L105.282727,37.3563218 C105.282727,37.3563218 107.041155,37.5752591 107.72928,38.4204649 C108.417405,39.2656706 108.417405,40.818765 108.417405,40.818765 C108.417405,40.818765 105.577035,42.4233031 102.448092,42.8007506 C99.3191489,43.1781982 95.8894698,42.3300226 95.8894698,42.3300226 C95.8894698,42.3300226 95.136668,45.9619801 94.4739491,47.2159432 C93.8112302,48.4699063 92.2245161,49.2646623 92.2245161,49.2646623 L91.3793103,43.6551964 C91.3793103,43.6551964 91.4352638,41.0682457 92.9655149,39.6270583 Z" id="Path-5-Copy" fill="#666666"></path>
                    <path d="M97.7491372,68.0097891 C97.7152086,66.4431342 95.4022989,66.4985314 95.4022989,66.4985314 L99.7738579,62.0689655 L103.650562,66.1078837 C103.650562,66.1078837 101.957969,66.7174687 102.307165,68.0097891 C102.656361,69.3021094 104.219081,99.8824896 104.219081,99.8824896 L100.740981,107.308134 L96.1764077,102.24306 C96.1764077,102.24306 97.7830658,69.576444 97.7491372,68.0097891 Z" id="Path-6" fill="#FF5B61"></path>
                </g>
            </g>
        </g>
    </g>
</svg>