<?xml version="1.0" encoding="utf-8"?>
<!-- Generator: Adobe Illustrator 22.1.0, SVG Export Plug-In . SVG Version: 6.00 Build 0)  -->
<svg version="1.1" id="Ebene_1" xmlns="http://www.w3.org/2000/svg" xmlns:xlink="http://www.w3.org/1999/xlink" x="0px" y="0px"
	 width="150px" height="150px" viewBox="0 0 150 150" style="enable-background:new 0 0 150 150;" xml:space="preserve">
<style type="text/css">
	.st0{fill:#E9505D;}
	.st1{fill:#15BDB1;}
	.st2{fill:#FFCA4F;}
	.st3{fill:#FEFEFE;}
	.st4{fill:#FDFDFD;}
	.st5{fill:#F4F4F4;}
</style>
<g id="Layer_x0020_1">
	<circle class="st0" cx="75" cy="75" r="75"/>
	<path class="st1" d="M88.34,98.656c0,0-2.668-1.245-2.115-3.261c0,0,1.443,0.731,4.348-1.502c2.905-2.233,7.451-4.743,17.036-1.443
		c10.237,3.518,15.079,15.237,2.372,23.636c0,0-0.375,1.7,0.81,3.202l0.83-0.296c0,0-0.158,0.395,1.265,2.49
		c1.403,2.075,4.743,8.656,4.743,8.656H96.008c0,0-0.83-2.688,0.672-5.198c1.482-2.53,0.514-3.794-0.751-3.656
		c-1.265,0.158-6.7,2.154-7.431,0.672c-0.751-1.482,0.217-2.609-0.672-3.043c-0.889-0.455-0.711-1.166-0.277-1.383
		c0,0-0.949-0.474-1.008-1.126c-0.059-0.652,0.929-0.692,0.909-1.877c0,0-2.194-0.889-2.648-1.719
		c-0.435-0.81,2.767-1.561,2.826-4.941C87.708,104.486,86.344,102.549,88.34,98.656z"/>
	<path class="st2" d="M66.976,7.095C46.186,12.727,33.874,34.17,39.506,54.96C43.32,69.032,54.348,79.209,67.53,82.589l8.933,24.881
		l9.19-24.605c0.573-0.119,1.146-0.257,1.719-0.415c20.81-5.632,33.123-27.075,27.49-47.866
		C109.229,13.775,87.787,1.462,66.976,7.095z"/>
	<g id="_676434023664">
		<path class="st3" d="M56.996,61.996c0.04-0.02,4.723-1.601,5.83-1.976c-0.553-1.403-1.917-1.542-3.202-1.621l-0.257,0.909
			c-0.04,0.138-0.178,0.217-0.316,0.178c-0.119-0.04-0.198-0.178-0.158-0.316l0.217-0.791h-0.02c-0.277-0.02-0.553-0.04-0.83-0.059
			l-0.336,0.968c-0.059,0.138-0.198,0.198-0.316,0.158c-0.138-0.04-0.198-0.178-0.158-0.316l0.296-0.85
			c-0.296-0.02-0.613-0.059-0.889-0.099l-0.474,0.988c-0.059,0.119-0.217,0.178-0.336,0.119c-0.119-0.059-0.178-0.217-0.119-0.336
			l0.435-0.87c-0.277-0.059-0.534-0.138-0.771-0.217l-0.692,0.949c-0.079,0.099-0.237,0.138-0.336,0.059
			c-0.119-0.079-0.138-0.237-0.059-0.356l0.632-0.87c-0.217-0.099-0.415-0.217-0.613-0.375l0,0l-0.909,0.771
			c-0.099,0.079-0.257,0.079-0.356-0.02c-0.079-0.119-0.059-0.257,0.04-0.356l0.85-0.711c-0.198-0.178-0.356-0.336-0.514-0.534
			l-1.008,0.534c-0.138,0.059-0.277,0-0.336-0.119c-0.059-0.119-0.02-0.277,0.099-0.336l0.968-0.474
			c-0.158-0.217-0.277-0.455-0.395-0.711l-1.028,0.395c-0.138,0.04-0.277-0.02-0.316-0.138c-0.059-0.138,0.02-0.277,0.138-0.316
			l1.028-0.395c-0.02-0.059-0.04-0.099-0.059-0.158c-0.079-0.217-0.158-0.415-0.217-0.613l-1.047,0.375
			c-0.138,0.04-0.277-0.04-0.316-0.158c-0.04-0.138,0.02-0.277,0.158-0.316l1.047-0.356c-0.119-0.395-0.198-0.613-0.198-0.613
			c-0.316-0.909-0.435-1.285-1.087-1.462c-0.534-0.138-1.245,0.435-1.245,0.435l-3.162,1.957c0.652,1.581,0.929,2.945,1.423,5.119
			c0.356,1.64,0.85,3.043,1.008,3.498l3.221-1.087C52.312,61.482,56.937,61.996,56.996,61.996z"/>
		<path class="st3" d="M63.518,61.66c-0.296-0.257-0.672-0.514-0.672-0.514l-0.929,0.316c0,0,0.277,0.237,0.692,0.692
			c0.395,0.455,0.296,0.949-1.225,1.462c-1.502,0.514-1.779-0.296-1.858-0.553c-0.099-0.257-0.237-0.711-0.237-0.711l-0.751,0.257
			l0.316,0.909c0.257,0.751-0.553,1.028-0.553,1.028l-5,1.7c-1.047,0.356-1.304-0.553-1.304-0.553l-0.455-1.344l-0.85,0.277
			c0,0,0.198,0.553,0.455,1.344c0.277,0.791-0.632,1.028-0.632,1.028l-0.968,0.316l0.02,1.028l13.538-4.585
			c0.514-0.178,1.008-0.494,1.028-1.028C64.17,62.233,63.676,61.798,63.518,61.66z"/>
	</g>
	<g id="_676434022288">
		<path class="st4" d="M87.569,17.53c-0.158,0.138-0.316,0.237-0.474,0.316c-0.415,0.395-0.949,0.534-1.344,0.316
			c-0.553-0.296-0.652-1.166-0.237-1.937c0.138-0.257,0.316-0.455,0.494-0.593l1.423-2.154l0.593-0.889
			c-0.988-1.482-2.767-2.589-5.435-2.668c-3.755-0.099-6.344,2.589-6.937,5.573v0.02c-0.316,1.68,0,3.439,1.107,4.842
			c2.885,3.715,5.079,1.976,6.818-0.099c0.198-0.237,0.593-0.316,0.87-0.237c0.949,0.277,2.905,0.534,4.032-1.719
			c0.316-0.632,0.494-1.364,0.534-2.115L87.569,17.53z M79.625,12.945c0.652,0.119,1.067,0.751,0.949,1.403
			s-0.751,1.067-1.403,0.949s-1.067-0.751-0.949-1.403C78.34,13.261,78.972,12.826,79.625,12.945z M77.925,18.221
			c-0.652-0.119-1.087-0.751-0.949-1.403c0.119-0.652,0.731-1.087,1.383-0.968c0.652,0.138,1.087,0.751,0.968,1.403
			S78.577,18.34,77.925,18.221z M79.802,21.008c-0.652-0.119-1.087-0.751-0.968-1.403c0.119-0.652,0.751-1.067,1.403-0.949
			c0.652,0.119,1.087,0.751,0.968,1.403S80.455,21.126,79.802,21.008z M82.154,13.755c-0.652-0.138-1.087-0.751-0.968-1.403
			s0.751-1.087,1.403-0.968c0.652,0.119,1.087,0.751,0.949,1.403C83.419,13.439,82.787,13.874,82.154,13.755z"/>
		<path class="st4" d="M90.652,10.81c-0.771-0.079-1.482,0.553-1.482,0.553l0,0c-0.04,0.02-0.079,0.059-0.099,0.079
			c-0.652,0.534-0.731,1.462-0.217,2.095c0.534,0.632,1.462,0.731,2.095,0.217c0.237-0.198,0.395-0.435,0.474-0.711
			c0.534-1.265,0.119-2.273,0.119-2.273S91.423,10.909,90.652,10.81z"/>
		<path class="st4" d="M85.889,17.648c0.257,0.217,0.771,0.099,1.146-0.237l1.759-1.64c-0.613-0.277-1.126-0.791-1.443-1.186
			c-0.04-0.04-0.059-0.059-0.099-0.099l-1.304,1.976C85.652,16.897,85.632,17.411,85.889,17.648z"/>
		<path class="st4" d="M88.696,13.676c-0.198-0.237-0.316-0.514-0.375-0.791l-0.593,0.909c0.296,0.435,0.988,1.225,1.739,1.364
			l0.949-0.889C89.802,14.407,89.13,14.209,88.696,13.676z"/>
	</g>
	<g id="_676434022832">
		<path class="st5" d="M98.636,58.32c0.296,0.237,0.415,0.632,0.296,1.008l-0.711,2.055l0.277,0.395
			c0.692,0.929,1.561,1.66,2.589,2.115c1.028,0.474,2.154,0.672,3.32,0.573l0.474-0.059l1.087-1.877
			c0.198-0.316,0.573-0.494,0.949-0.435c1.581,0.296,3.142-0.514,3.794-1.996c0.692-1.561,0.119-3.439-1.344-4.348
			c-0.395-0.237-0.83-0.415-1.304-0.474c-0.237-1.067-0.949-1.937-1.937-2.391s-2.134-0.415-3.083,0.099
			c-0.356-0.316-0.771-0.534-1.225-0.672c-1.64-0.514-3.439,0.277-4.17,1.838C96.976,55.613,97.372,57.312,98.636,58.32z
			 M101.047,62.806c-0.059,0.119-0.198,0.178-0.316,0.119c-0.138-0.059-0.198-0.217-0.138-0.336l0.83-1.798
			c0.059-0.119,0.198-0.178,0.316-0.119c0.138,0.059,0.198,0.198,0.138,0.336L101.047,62.806z M102.391,63.419
			c-0.059,0.119-0.198,0.178-0.316,0.119c-0.138-0.059-0.178-0.198-0.119-0.336l0.81-1.798c0.059-0.119,0.198-0.178,0.336-0.119
			c0.119,0.059,0.178,0.198,0.119,0.336L102.391,63.419z M104.565,61.66c0.079-0.119,0.217-0.158,0.336-0.099
			c0.119,0.079,0.158,0.237,0.079,0.356l-1.047,1.7c-0.059,0.099-0.198,0.138-0.296,0.079c-0.02,0-0.02,0-0.04,0
			c-0.119-0.079-0.158-0.237-0.079-0.356L104.565,61.66z M104.229,53.696c0.553-0.119,1.798-0.059,2.51,1.146
			c0.079,0.119,0.04,0.277-0.079,0.336c-0.079,0.04-0.158,0.04-0.237,0.02c-0.04-0.02-0.079-0.059-0.099-0.099
			c-0.711-1.206-1.976-0.929-1.996-0.909c-0.119,0.02-0.257-0.059-0.296-0.198C104.012,53.854,104.091,53.735,104.229,53.696z
			 M100.356,59.486c0.119,0.04,0.198,0.178,0.158,0.316L99.921,61.7c-0.04,0.138-0.178,0.198-0.316,0.158h-0.02
			c-0.119-0.059-0.178-0.178-0.138-0.296l0.593-1.917C100.079,59.526,100.217,59.447,100.356,59.486z M99.229,54.289
			c0,0,1.067-1.364,2.945-0.494c0.119,0.059,0.178,0.198,0.119,0.336c-0.059,0.119-0.198,0.158-0.336,0.119
			c-1.522-0.731-2.332,0.336-2.332,0.336c-0.079,0.099-0.198,0.138-0.296,0.079c-0.02,0-0.04-0.02-0.059-0.02
			C99.17,54.565,99.15,54.407,99.229,54.289z"/>
		<path class="st5" d="M104.229,64.802c-1.265,0.119-2.451-0.099-3.577-0.593c-1.107-0.514-2.036-1.285-2.787-2.292l-0.079-0.119
			l-0.198,0.613c-0.099,0.277-0.02,0.593,0.198,0.988c0.02,0.02,0.059,0.059,0.079,0.079c0.04,0.059,0.079,0.119,0.119,0.158
			c0.079,0.138,0.158,0.198,0.158,0.198c0.573,0.632,1.245,1.126,2.016,1.482c0.771,0.336,1.581,0.534,2.431,0.553
			c0,0,0.099,0,0.257,0c0.059,0,0.119-0.02,0.198-0.02c0.04,0,0.079,0,0.099-0.02c0.455-0.059,0.751-0.237,0.889-0.474l0.316-0.573
			L104.229,64.802z"/>
	</g>
	<g id="_676434017552">
		<path class="st4" d="M69.13,70.415c1.186,0.395,2.589-0.593,3.123-2.194c0.534-1.601,0-3.221-1.186-3.617
			c-1.206-0.395-2.609,0.573-3.142,2.174C67.391,68.379,67.925,70.02,69.13,70.415z"/>
		<path class="st4" d="M74.605,75.375c-0.02-0.079-0.04-0.158-0.059-0.217c-0.138-1.186-1.047-2.846-3.182-3.597l-0.099-0.02
			c-2.115-0.711-3.814,0-4.704,0.909c-0.02,0.04-0.079,0.079-0.138,0.099c-0.079,0.059-0.138,0.099-0.198,0.138
			c-0.692,0.553-1.166,1.265-1.383,1.996c-0.217,0.771-0.099,1.502,0.336,2.036c0.178,0.217,0.375,0.356,0.632,0.455
			c0.514,0.158,1.087,0.04,1.739-0.119c0.435-0.099,0.85-0.198,1.304-0.237c0.059,0,0.257,0.04,0.553,0.138
			c0.356,0.119,0.593,0.237,0.652,0.277c0.336,0.296,0.593,0.632,0.85,0.968c0.395,0.494,0.771,0.968,1.285,1.146
			c0.237,0.079,0.474,0.079,0.711,0.04c1.344-0.257,2.134-1.957,1.779-3.755C74.664,75.553,74.644,75.455,74.605,75.375z"/>
		<path class="st4" d="M73.735,71.937c1.186,0.395,2.589-0.573,3.123-2.194c0.534-1.601,0-3.221-1.186-3.617
			c-1.206-0.395-2.609,0.593-3.142,2.194C71.996,69.921,72.53,71.542,73.735,71.937z"/>
		<path class="st4" d="M77.787,71.621c-0.968-0.316-2.036,0.435-2.47,1.7c-0.415,1.265,0,2.51,0.968,2.826
			c0.949,0.316,2.036-0.415,2.451-1.7C79.15,73.182,78.735,71.957,77.787,71.621z"/>
		<path class="st4" d="M67.194,70.613c0.435-1.265,0.02-2.51-0.949-2.826c-0.949-0.316-2.036,0.435-2.451,1.7s0,2.51,0.949,2.826
			C65.711,72.628,66.779,71.877,67.194,70.613z"/>
	</g>
	<path class="st5" d="M69.111,29.684c-2.984-1.581-4.269-1.324-4.901-1.047c-1.047,0.415-1.542,1.482-1.64,1.897
		c-0.099,0.474,0.04,0.968-0.099,1.423c-0.178,0.534-0.573,1.107-1.107,1.324c-0.415,0.198-0.988,0.198-1.443,0.455
		c-0.593,0.316-1.542,0.909-1.64,2.194c-0.02,0.296-0.02,2.609,3.182,5.988c0.178,0.178,0.356,0.356,0.534,0.494l0.02,0.02
		c1.719,1.443,3.103,0.949,3.043,0.968c0.474-0.119,1.443-0.494,1.64-1.917c0.119-0.949-0.217-2.115-0.217-2.115
		s-0.237-0.573-0.178-1.028c0.059-0.316,0.415-0.553,0.415-0.553l0.949-1.126c0,0,0.257-0.395,0.573-0.553
		c0.316-0.158,0.692-0.079,0.692-0.079s1.561,0.059,2.648-0.237c0.474-0.119,1.719-1.146,1.482-2.411
		c-0.099-0.494-0.613-1.265-1.561-2.095l-0.277-0.237C70.652,30.593,69.941,30.119,69.111,29.684z M63.854,35.494
		c0.198,0.158,0.217,0.435,0.059,0.632l-0.711,0.85l0.87,0.731c0.198,0.158,0.217,0.435,0.059,0.613l-0.217,0.257
		c-0.158,0.198-0.435,0.217-0.632,0.059l-0.87-0.731l-0.711,0.85c-0.158,0.198-0.435,0.217-0.632,0.059l-0.257-0.217
		c-0.198-0.178-0.217-0.455-0.059-0.632l0.711-0.85l-0.87-0.731c-0.198-0.158-0.217-0.455-0.059-0.632l0.217-0.257
		c0.158-0.198,0.435-0.217,0.632-0.059l0.87,0.731l0.711-0.85c0.158-0.178,0.435-0.198,0.632-0.04L63.854,35.494z M67.075,34.111
		c-0.296,0.356-0.83,0.395-1.186,0.099c-0.356-0.316-0.415-0.83-0.119-1.186s0.83-0.395,1.186-0.099
		C67.312,33.221,67.372,33.755,67.075,34.111z M66.621,31.719c-0.296,0.356-0.83,0.395-1.186,0.099
		c-0.356-0.296-0.395-0.81-0.119-1.166c0.296-0.356,0.83-0.395,1.186-0.099C66.858,30.85,66.897,31.383,66.621,31.719z"/>
	<g id="_676418940864">
		<path class="st4" d="M69.842,45.692L69.842,45.692c-0.178,0-0.375,0.059-0.494,0.198c-0.138,0.138-0.217,0.316-0.217,0.514v10.87
			c0,0.395,0.316,0.711,0.711,0.711c1.7,0,4.526,0.356,6.462,2.391V49.012c0-0.119-0.04-0.257-0.099-0.356
			C74.605,46.087,71.542,45.692,69.842,45.692z"/>
		<path class="st4" d="M84.605,57.273v-10.87c0-0.198-0.059-0.375-0.198-0.514c-0.138-0.138-0.316-0.198-0.514-0.198l0,0
			c-1.7,0-4.763,0.395-6.364,2.964c-0.059,0.099-0.099,0.237-0.099,0.356v11.364c1.957-2.036,4.763-2.391,6.462-2.391
			C84.289,57.984,84.605,57.668,84.605,57.273z"/>
		<path class="st4" d="M86.265,48.182h-0.534v9.091c0,1.008-0.83,1.838-1.838,1.838c-1.423,0-3.794,0.277-5.455,1.858
			c2.885-0.692,5.929-0.237,7.668,0.158c0.217,0.04,0.435,0,0.613-0.138c0.158-0.138,0.257-0.356,0.257-0.573V48.913
			C86.996,48.518,86.66,48.182,86.265,48.182z"/>
		<path class="st4" d="M68.004,57.273v-9.091H67.47c-0.395,0-0.711,0.336-0.711,0.731v11.502c0,0.217,0.099,0.435,0.277,0.573
			c0.158,0.138,0.395,0.178,0.613,0.138c1.719-0.395,4.763-0.85,7.648-0.158c-1.66-1.581-4.012-1.858-5.455-1.858
			C68.834,59.111,68.004,58.281,68.004,57.273z"/>
	</g>
	<g id="_676418940352">
		<path class="st5" d="M100.81,27.352c-1.561,0-2.846,1.285-2.846,2.846c0,1.581,1.285,2.846,2.846,2.846
			c1.581,0,2.846-1.265,2.846-2.846C103.656,28.636,102.391,27.352,100.81,27.352z"/>
		<path class="st5" d="M106.798,26.166h-2.036l-0.949-2.372h-6.008l-0.949,2.372h-0.316V24.98h-1.423v1.186h-0.277
			c-0.632,0-1.146,0.514-1.146,1.146v6.957c0,0.632,0.514,1.146,1.146,1.146h11.937c0.632,0,1.146-0.514,1.146-1.146v-6.957
			C107.925,26.68,107.411,26.166,106.798,26.166z M96.067,26.166h-0.474v-0.711h0.474V26.166z M100.81,34.466
			c-2.352,0-4.269-1.917-4.269-4.269s1.917-4.269,4.269-4.269c2.352,0,4.269,1.917,4.269,4.269S103.162,34.466,100.81,34.466z
			 M106.028,29.012c-0.514,0-0.949-0.415-0.949-0.949c0-0.514,0.435-0.949,0.949-0.949c0.534,0,0.949,0.435,0.949,0.949
			C106.976,28.597,106.561,29.012,106.028,29.012z"/>
	</g>
	<path class="st4" d="M66.403,16.403c-1.364-0.949-3.162-1.008-4.763-0.949c-1.581,0.059-2.194,0.494-2.846,1.581
		c-0.178-0.099-0.336-0.178-0.534-0.198c-0.296-0.02-0.593,0.119-0.81,0.316c-0.079-0.099-0.158-0.198-0.257-0.296
		c-0.534-0.692-1.344-1.087-2.213-1.245c-0.395-0.059-0.573,0.514-0.178,0.593c0.929,0.158,1.66,0.553,2.134,1.364
		c-0.257,0.217-0.435,0.514-0.435,0.909c-0.02,0.494,0.059,0.949,0.375,1.245c-1.225,1.364-2.134,2.984-3.123,4.545
		c-0.099,0.138-0.059,0.277,0.059,0.375c0.435,1.759,1.462,3.221,2.352,4.802c0.099,0.158,0.277,0.198,0.455,0.138
		c2.332-0.949,4.605-2.036,6.858-3.202c1.482-0.751,3.261-1.344,4.625-2.352c0.494-0.356,0.455-1.008,0.395-1.542
		c-0.237-1.917-1.719-3.518-1.957-5.494c-0.02-0.04-0.02-0.079-0.04-0.119C66.601,16.719,66.561,16.502,66.403,16.403z
		 M57.213,19.96c0.04,0.02,0.059,0.04,0.099,0.04c1.126,0.455,2.53-0.672,2.292-1.858c-0.04-0.198-0.138-0.395-0.257-0.593
		c0.83-1.225,1.779-1.403,3.458-1.383c0.83,0,1.64,0.158,2.431,0.375c0.81,0.217-1.206,1.601-1.265,1.66
		c-2.747,2.213-5.968,3.814-9.111,5.435C55.652,22.411,56.462,21.206,57.213,19.96z M67.095,23.854
		c-0.711,0.395-1.522,0.692-2.233,1.047c-2.273,1.146-4.506,2.332-6.818,3.379c-1.028,0.455-1.779,0.02-2.372-0.771
		c2.391-0.435,5.059-1.601,7.233-2.708c1.601-0.81,3.241-1.482,4.842-2.253C67.826,23.063,67.708,23.518,67.095,23.854z
		 M66.561,19.644c-0.059-0.02-0.119-0.02-0.178,0c-0.356,0-0.731,0.178-0.988,0.395c-0.02,0.02-0.04,0.04-0.059,0.059
		c-1.719,0.632-3.557,2.194-5,2.846c-0.85,0.395-3.083,1.067-4.466,1.976c-0.04,0-0.079,0-0.138,0
		c-0.395,0.079-0.751,0.257-1.107,0.455c-0.04,0.02-0.079,0.04-0.099,0.079c-0.119-0.277-0.237-0.534-0.356-0.771
		c4.071-2.154,8.221-4.19,11.7-7.233C66.008,18.221,66.265,18.933,66.561,19.644z"/>
	<path class="st5" d="M53.775,34.091c-0.198-0.158-0.474-0.217-0.711-0.158l-7.154,1.68c-0.375,0.099-0.632,0.435-0.632,0.83v6.028
		c-0.296-0.079-0.553-0.138-0.85-0.138c-1.403,0-2.53,1.126-2.53,2.53c0,1.383,1.126,2.53,2.51,2.53c1.403,0,2.53-1.146,2.53-2.53
		v-4.802l5.474-1.304v2.885c-0.277-0.099-0.553-0.158-0.85-0.158c-1.383,0-2.53,1.146-2.53,2.53c0,1.403,1.146,2.53,2.53,2.53
		c1.403,0,2.53-1.126,2.53-2.53v-9.249C54.091,34.506,53.972,34.249,53.775,34.091z M46.937,38.32v-1.225l5.474-1.285v1.225
		L46.937,38.32z"/>
	<path class="st4" d="M99.743,42.115c-0.02,0.02-0.02,0.04-0.04,0.04l-2.292-2.075l0.375-0.316c0.119-0.099,0.158-0.237,0.158-0.375
		s-0.079-0.277-0.198-0.356l-1.146-0.751c-0.158-0.119-0.375-0.099-0.534,0.04l-1.502,1.265c-0.198,0.158-0.217,0.455-0.059,0.632
		c0.158,0.198,0.455,0.217,0.632,0.059l1.265-1.067l0.356,0.257l-0.316,0.257c-0.099,0.099-0.178,0.198-0.178,0.336
		s0.059,0.257,0.158,0.336l0.949,0.87l-3.696,4.13l-0.455-0.277l0.356-0.652c0.099-0.198,0.059-0.435-0.119-0.573
		c-0.158-0.138-0.395-0.119-0.573,0.02l-1.7,1.423c-0.257,0.237-0.296,0.632-0.079,0.889c0.356,0.415,0.968,0.455,1.364,0.119
		c0.099-0.079,0.158-0.158,0.217-0.257c0,0,0,0,0-0.02l0.099-0.158l0.395,0.237l0,0l0.099,2.016
		c-0.553,0.099-1.087,0.336-1.542,0.711c-0.791,0.632-1.265,1.522-1.344,2.53c-0.059,0.909,0.237,1.798,0.81,2.51l0.04,0.04
		c0.02,0.02,0.04,0.04,0.059,0.059c1.245,1.383,3.36,1.561,4.802,0.395c0.04-0.02,0.059-0.04,0.099-0.059
		c0.731-0.632,1.166-1.522,1.245-2.47c0.04-0.771-0.138-1.522-0.573-2.174l0.474-0.395c0.455,0.158,0.968,0.099,1.364-0.237
		c0.593-0.494,0.652-1.364,0.178-1.937c-0.217-0.257-0.514-0.415-0.83-0.474l0.198-4.605l0.85,0.771
		c-0.87,1.285-0.83,3.024,0.217,4.269c1.245,1.482,3.478,1.68,4.98,0.415c1.482-1.245,1.68-3.478,0.415-4.98
		C103.458,41.047,101.225,40.85,99.743,42.115z M97.352,42.648l-0.178,4.17c-0.079,0.04-0.158,0.079-0.237,0.158
		c-0.099,0.079-0.178,0.158-0.237,0.257l-2.233-1.364L97.352,42.648z M94.111,46.7l2.332,1.423c0.02,0.217,0.099,0.455,0.198,0.613
		l-0.336,0.277c-0.593-0.514-1.364-0.85-2.134-0.909L94.111,46.7z M94.209,49.012c0.514,0.059,1.008,0.277,1.383,0.593l-1.285,1.087
		L94.209,49.012z M96.542,51.818c-0.04,0.731-0.395,1.423-0.988,1.897c-1.087,0.85-2.668,0.711-3.597-0.316
		c-0.474-0.534-0.711-1.225-0.672-1.937c0.059-0.711,0.395-1.364,0.929-1.838c0.04-0.02,0.059-0.04,0.079-0.059
		c0.316-0.237,0.672-0.415,1.047-0.494l0.099,1.838c-0.02,0.02-0.059,0.04-0.079,0.059c-0.375,0.316-0.415,0.889-0.099,1.245
		c0.316,0.375,0.87,0.415,1.245,0.099c0.257-0.217,0.356-0.514,0.296-0.85l1.383-1.166C96.462,50.751,96.581,51.265,96.542,51.818z
		 M103.715,46.838c-1.107,0.929-2.767,0.791-3.696-0.316c-0.771-0.889-0.83-2.154-0.237-3.083l1.917,1.719
		c0.158,0.158,0.415,0.158,0.573,0.02c0.02-0.02,0.04-0.04,0.059-0.059c0.158-0.178,0.138-0.455-0.04-0.632l-1.917-1.719
		c1.107-0.889,2.747-0.751,3.656,0.356C104.98,44.229,104.842,45.889,103.715,46.838z"/>
	<path class="st4" d="M90.217,31.601c0,3.182-2.352,5.85-5.415,6.304c0.02-0.138,0.02-0.277,0-0.435c0,0,0-0.158-0.04-0.356
		c1.087-0.178,2.075-0.692,2.866-1.403c-0.059-0.04-0.099-0.099-0.138-0.158c-0.217-0.296,0.059-0.593,0.059-0.87
		c0-0.257-0.534-0.237-0.553-0.395c-0.059-0.593,0.375-0.613,0.593-0.85c0.237-0.217-0.217-0.751-0.514-0.711
		c-0.296,0.04-1.126-0.138-1.047-0.771c0.079-0.791-1.008-0.711-1.146-1.067c-0.237-0.534,0.138-1.186,0.632-1.344
		c0.692-0.198,1.383-0.771,1.324-1.403c-0.059-0.711-0.375-1.364-0.909-1.739c-0.553-0.217-1.166-0.356-1.779-0.395
		c-0.573,0.02-1.047,0.138-1.028,0.395c0.04,0.632,1.838,0.791,1.542,1.383c-0.158,0.296-1.344,0.731-1.126,1.186
		c0.158,0.296,0.494,0.04,0.375,0.613c-0.059,0.257-0.296,0.751-0.652,0.791c-0.356,0.02-0.652-0.929-1.64-0.968
		c-0.455,0-1.107,0.731-0.553,1.245c0.336,0.316,0.968-0.375,1.146,0.178c0.138,0.375-0.02,1.186,0.593,1.522
		c0.217,0.119,0.573,0.237,0.909,0.395c-0.514,0.119-1.126,0.296-1.858,0.573l-0.613-0.158c0.257-0.217,0.672-0.356,0.573-0.83
		c-0.158-0.672-1.344-0.415-2.154-1.245c-0.257-0.257-0.791-1.087-0.791-2.095c-0.415,0.771-0.652,1.66-0.652,2.609
		c0,0.277,0.02,0.573,0.059,0.85h-0.02c-0.257,0-0.514,0.04-0.751,0.158c-0.04-0.336-0.079-0.672-0.079-1.008
		c0-3.538,2.866-6.403,6.403-6.403C87.352,25.198,90.217,28.063,90.217,31.601z M85.415,33.458l-1.561,0.711l0.04-0.336l1.008-0.455
		c-0.138-0.02-0.296-0.02-0.455-0.02c-0.553,0-1.502,0.296-2.53,0.711l-3.36-0.889c-0.316-0.079-0.652-0.04-0.929,0.138
		l-0.158,0.099c-0.158,0.099-0.158,0.336,0,0.435l2.016,1.304c-0.474,0.257-0.949,0.514-1.344,0.751l-1.028-0.553
		c-0.178-0.099-0.375-0.099-0.553-0.04l-0.099,0.04c-0.099,0.059-0.158,0.138-0.158,0.257l0,0c0,0.04,0.02,0.079,0.04,0.119
		l0.553,1.008h0.02c-0.217,0.198-0.356,0.336-0.356,0.455c0,0.316,0.395,0.395,0.751,0.395c0.613,0,8.715-1.858,8.715-3.538
		C86.028,33.715,85.791,33.557,85.415,33.458z M81.996,36.739l1.798-0.632c0.079-0.02,0.158,0.04,0.158,0.119l0.158,1.324
		c0.04,0.336-0.138,0.672-0.435,0.81l-0.178,0.079c-0.099,0.04-0.217,0.02-0.296-0.059l-1.245-1.423
		C81.897,36.877,81.917,36.779,81.996,36.739z"/>
	<path class="st1" d="M64.15,98.953c0,0,2.688-1.245,2.134-3.261c0,0-1.462,0.731-4.368-1.502
		c-2.885-2.233-7.431-4.743-17.016-1.443c-10.237,3.518-15.099,15.237-2.391,23.636c0,0,0.375,1.7-0.81,3.202l-0.81-0.296
		c0,0,0.138,0.395-1.265,2.49c-1.423,2.075-4.763,8.656-4.763,8.656h21.64c0,0,0.81-2.668-0.672-5.198
		c-1.482-2.53-0.514-3.794,0.751-3.656c1.265,0.158,6.68,2.154,7.431,0.672c0.731-1.482-0.237-2.609,0.672-3.043
		c0.889-0.455,0.692-1.146,0.277-1.383c0,0,0.949-0.474,1.008-1.126c0.04-0.652-0.929-0.692-0.929-1.877
		c0,0,2.194-0.889,2.648-1.719c0.455-0.81-2.747-1.561-2.826-4.941C64.783,104.783,66.166,102.846,64.15,98.953z"/>
	<g id="_676418933120">
		<path class="st4" d="M96.759,70.138c-0.435-0.514-1.107-0.791-1.996-0.81c-0.02-0.217-0.198-0.375-0.415-0.375H85.87
			c-0.237,0-0.415,0.178-0.415,0.415v4.921c0,0.968,0.534,1.838,1.423,2.273c-0.04,0.099-0.079,0.217-0.079,0.316
			c0,0.455,0.375,0.83,0.83,0.83h4.96c0.455,0,0.83-0.375,0.83-0.83c0-0.099-0.04-0.217-0.079-0.316
			c0.751-0.375,1.265-1.067,1.383-1.858c0.731-0.158,1.344-0.573,1.818-1.225c0.415-0.613,0.553-1.206,0.573-1.265v-0.02
			c0.059-0.237,0.079-0.455,0.079-0.672v-0.079C97.194,70.929,97.036,70.494,96.759,70.138z M95.87,71.937
			c0,0.04-0.099,0.415-0.375,0.791c-0.198,0.296-0.455,0.514-0.731,0.632v-2.767c0.316,0.02,0.791,0.079,1.008,0.356
			C95.929,71.146,95.968,71.482,95.87,71.937z"/>
		<path class="st4" d="M88.241,64.19c0.692,0.079,1.383,0.099,1.976,0.099c0.198,0,0.395,0,0.593,0c0.296,0,0.593,0,0.889,0h0.04
			c0.079,0,0.178,0,0.257,0c0.099,0,0.198-0.02,0.296-0.02c-0.178,0.04-0.415,0.079-0.613,0.119
			c-0.395,0.079-0.81,0.158-1.126,0.217l-0.04,0.02c-0.593,0.138-1.482,0.336-1.759,0.968c-0.119,0.257-0.099,0.534,0.02,0.771
			c0.138,0.257,0.375,0.435,0.652,0.474c0.099,0.02,0.217,0.04,0.316,0.04c0.198,0,0.375-0.02,0.553-0.059
			c0.929-0.178,0.929,0.059,0.929,0.099c0,0.138-0.296,0.415-0.435,0.534c-0.02,0.02-0.04,0.04-0.059,0.059
			c-0.04,0.04-0.079,0.079-0.119,0.119c-0.257,0.217-0.632,0.553-0.573,0.909c0,0.04,0.04,0.059,0.079,0.059l0,0
			c0.04,0,0.079-0.02,0.079-0.079c0.02-0.138,0.158-0.257,0.296-0.375c0.119-0.099,0.257-0.198,0.375-0.277
			c0.059-0.04,0.119-0.079,0.178-0.119l0,0c0.237-0.178,0.632-0.474,0.692-0.81c0.02-0.138-0.02-0.277-0.099-0.395
			c-0.257-0.356-0.711-0.375-1.126-0.375h-0.04c-0.059,0-0.138,0-0.217,0c-0.079,0-0.138,0-0.217,0c-0.138,0-0.237,0-0.336-0.02
			c-0.198-0.02-0.257-0.119-0.217-0.198c0.138-0.217,0.81-0.415,2.016-0.573c0.079-0.02,0.119-0.02,0.158-0.02
			c0.079-0.02,0.138-0.04,0.217-0.04c0.435-0.059,0.87-0.138,1.304-0.257c0.751-0.217,0.889-0.613,0.87-0.889l0,0l0,0v-0.02
			c0,0,0,0,0-0.02l0,0l0,0l0,0l0,0c-0.04-0.296-0.237-0.534-0.573-0.672c-0.474-0.178-1.028-0.178-1.522-0.178h-0.138
			c-0.415-0.02-0.85,0-1.265,0c-0.356,0.02-0.731,0.02-1.107,0.02s-0.692,0-0.988-0.02c-0.237-0.02-0.514-0.04-0.791-0.079
			c-0.198-0.04-0.455-0.099-0.632-0.237c-0.138-0.119,0.02-0.395,0.119-0.514c0.316-0.395,0.85-0.553,1.344-0.672
			c0.435-0.099,0.929-0.138,1.542-0.158c0.375,0,0.751,0,1.126,0.02v0.02l0,0c0.04,0,0.079-0.04,0.079-0.099
			c0-0.04-0.02-0.079-0.059-0.079c-0.692-0.198-1.423-0.296-2.134-0.296c-0.217,0-0.435,0-0.632,0.02
			c-0.81,0.079-1.838,0.375-2.174,1.304c-0.119,0.316-0.119,0.613,0.04,0.85C86.621,63.893,87.53,64.111,88.241,64.19z"/>
	</g>
</g>
</svg>
