<?xml version="1.0" encoding="UTF-8" standalone="no"?>
<svg width="150px" height="150px" viewBox="0 0 150 150" version="1.1" xmlns="http://www.w3.org/2000/svg" xmlns:xlink="http://www.w3.org/1999/xlink">
    <!-- Generator: Sketch 40 (33762) - http://www.bohemiancoding.com/sketch -->
    <title>brain</title>
    <desc>Created with Sketch.</desc>
    <defs></defs>
    <g id="LandingPage" stroke="none" stroke-width="1" fill="none" fill-rule="evenodd">
        <g id="Page" transform="translate(-645.000000, -2635.000000)">
            <g id="brain" transform="translate(645.000000, 2635.000000)">
                <g id="Layer_1">
                    <path d="M75.000293,150 C116.308594,150 150,116.308594 150,75.000293 C150,33.6914062 116.308594,0 75.000293,0 C33.6916992,0 0,33.6914062 0,75.000293 C0,116.308594 33.6916992,150 75.000293,150 L75.000293,150 Z" id="Shape" fill="#FFCA4F"></path>
                    <path d="M97.2867188,118.750195 C97.9248047,119.056641 115.652344,127.382812 124.400977,112.868555 C133.310449,98.0871094 126.756445,98.6499023 126.614648,97.4414062 C126.472852,96.2326172 139.588184,82.4953125 123.591211,72.16875 C123.591211,72.16875 104.15332,27.8241211 54.1382813,49.4900391 C54.1382813,49.4900391 38.7486328,47.2623047 31.2568359,64.0693359 C31.2568359,64.0693359 12.6275391,70.9543945 20.3220703,93.0249023 C28.0166016,115.095703 46.443457,105.174902 46.443457,105.174902 C48.9723633,118.929199 64.9420898,122.295703 76.4118164,116.310937 C76.4118164,116.310937 80.259375,120.563086 84.9164062,118.942969 C85.0792969,118.303125 86.3516602,118.778906 85.5114258,116.609766 C86.6874023,114.875391 89.3563477,113.951367 94.134082,116.150098 C94.3851562,116.357227 94.8301758,116.709961 94.7616211,116.667773 L97.2867188,118.750195 L97.2867188,118.750195 Z" id="Shape" fill="#EC4B53"></path>
                    <path d="M32.7386719,64.5832031 C32.5209961,64.9453125 20.493457,67.9628906 19.6456055,79.8547852 C18.3416016,98.1498047 31.2234375,111.09375 46.7167969,103.193262 C49.9505859,116.195508 67.5911133,121.095117 77.1744141,113.426953 C77.1744141,113.426953 79.6863281,119.693555 85.5111328,116.609473 L85.7953125,116.920312 C87.1954102,116.900977 90.8976563,119.205176 94.1337891,116.149805 C94.3579102,116.334961 94.7361328,116.635254 94.7666016,116.667773 C95.2242188,116.717578 95.8737305,116.51748 96.2018555,116.705859 C115.988672,128.063672 128.832422,108.51416 126.662109,100.691016 C126.358301,99.5970703 125.830957,99.402832 124.913965,98.8538086 C124.913965,98.8538086 124.562988,97.4683594 125.885156,95.9071289 C131.499316,89.278418 134.377148,78.9758789 122.676563,73.2451172 C110.825977,47.0021484 81.9114258,35.6616211 53.3030273,50.9080078 C36.5176758,49.9113281 32.9276367,64.2685547 32.7386719,64.5832031 L32.7386719,64.5832031 L32.7386719,64.5832031 Z" id="Shape" fill="#FF5B61"></path>
                    <path d="M63.1382813,54.8844727 C62.5681641,55.0391602 61.9792969,54.702832 61.8243164,54.1327148 C61.6693359,53.5625977 62.0056641,52.9737305 62.5757812,52.819043 C62.6009766,52.8120117 70.9584961,50.465918 72.8917969,57.2762695 C74.0894531,56.6200195 75.9146484,56.0288086 78.018457,56.7366211 C77.7512695,54.4148437 78.421582,51.2050781 83.5549805,49.8855469 C84.1274414,49.7393555 84.7101563,50.0853516 84.8563477,50.6581055 C85.0025391,51.2305664 84.656543,51.8132812 84.0837891,51.9594727 C78.2080078,53.4703125 80.6835938,58.4220703 80.690625,58.4355469 L80.6871094,58.4375977 C80.8614258,58.7967773 80.8262695,59.2400391 80.5602539,59.5734375 C80.1925781,60.0348633 79.51875,60.1101562 79.0579102,59.7413086 C76.4080078,57.6216797 74.100293,58.9379883 73.2503906,59.5810547 C73.219043,63.5668945 67.8401367,64.4648437 67.8243164,64.4671875 L67.8243164,64.4668945 C67.5052734,64.5196289 67.1668945,64.4288086 66.9137695,64.190332 C60.7426758,58.3831055 53.915332,65.7609375 53.8951172,65.7811523 L53.8945313,65.7805664 C53.5602539,66.1368164 53.0121094,66.2276367 52.5726563,65.9704102 C46.4586914,62.3868164 51.7300781,51.7081055 52.9628906,49.4024414 C53.709082,49.4276367 54.1385742,49.4897461 54.1385742,49.4897461 C54.4710938,49.3453125 54.797168,49.2152344 55.1273438,49.0769531 C55.2503906,49.3725586 55.2404297,49.7194336 55.0705078,50.0182617 C55.0535156,50.0490234 49.2395508,60.1511719 53.0173828,63.6500977 C55.105957,61.7583984 61.6511719,56.8013672 67.9549805,62.2441406 C68.990332,61.9766602 71.3121094,61.1581055 71.0850586,59.2318359 L71.0806641,59.1823242 C70.3889648,52.8506836 63.1587891,54.8786133 63.1382813,54.8844727 L63.1382813,54.8844727 L63.1382813,54.8844727 Z M127.404785,98.1624023 L127.404785,98.1624023 C126.986426,97.8864258 126.645703,97.706543 126.614355,97.4411133 C126.589453,97.2310547 126.96416,96.6436523 127.516699,95.7626953 C126.823242,92.455957 124.163086,92.5558594 122.714648,92.8760742 C122.132227,91.55625 121.17627,88.5814453 122.337305,85.050293 C122.354297,85.0083984 122.368652,84.965918 122.380664,84.9228516 C123.884473,80.6466797 130.853027,82.3839844 130.872949,82.3892578 C131.037598,82.4288086 131.202539,82.4276367 131.356641,82.3936523 C131.227734,81.6600586 131.025879,80.9191406 130.741113,80.1758789 C128.853223,79.8360352 123.265723,79.2005859 120.932813,82.9945312 C120.023145,82.4569336 118.676074,81.9638672 117.222656,82.4736328 C115.814648,76.9415039 110.648145,78.9726562 110.632031,78.9788086 C110.078027,79.1841797 109.795898,79.8014648 110.002441,80.3554687 C110.208105,80.9094727 110.825391,81.1913086 111.379102,80.9853516 C111.388184,80.9818359 114.401074,79.7935547 115.21582,83.3557617 C113.339941,83.8766602 109.562402,85.424707 109.02334,89.5151367 C108.946289,90.1013672 109.359668,90.6392578 109.946484,90.7157227 C110.532715,90.7916016 111.070313,90.3782227 111.14707,89.7922852 C111.627832,86.1424805 116.082129,85.3195312 116.553516,85.2424805 C116.784082,85.2155273 116.989453,85.1173828 117.149414,84.9720703 C118.270898,84.0061523 119.469141,84.5648437 120.111328,85.0116211 C119.301855,87.965625 119.706152,90.5733398 120.244922,92.3381836 C115.027148,91.1039062 111.980566,94.7285156 111.574805,95.25 C111.532617,95.3000977 111.493652,95.3542969 111.460254,95.4125977 C108.461426,100.661133 102.383789,98.6270508 100.468945,97.8181641 C100.282031,89.221875 90.5381836,90.993457 90.5094727,90.9984375 C89.9258789,91.1003906 89.5341797,91.6570312 89.6361328,92.240918 C89.7383789,92.8248047 90.2947266,93.215918 90.8786133,93.1139648 C90.899707,93.1107422 97.8451172,91.8498047 98.3050781,97.5322266 C89.9935547,98.6021484 88.5234375,106.046777 88.519043,106.068457 C88.4009766,106.648242 88.7753906,107.214258 89.3542969,107.332031 C89.934082,107.450391 90.4998047,107.076562 90.6178711,106.496777 C90.6216797,106.478906 91.8621094,100.189453 99.1883789,99.5944336 C100.805273,100.340918 109.126172,103.726758 113.290137,96.534668 C113.62793,96.103125 116.526563,92.6660156 121.666699,95.1061523 C121.939453,95.2485352 122.268164,95.2705078 122.564941,95.1495117 L122.566113,95.1515625 C122.574023,95.1489258 125.499023,93.9246094 125.543555,97.452832 C125.550879,98.04375 126.035742,98.5174805 126.626953,98.5101562 C126.936035,98.5081055 127.212305,98.3739258 127.404785,98.1624023 L127.404785,98.1624023 L127.404785,98.1624023 Z M123.975,72.4248047 L123.975,72.4248047 C123.917578,72.4696289 123.853711,72.5097656 123.785156,72.5431641 C121.354102,73.7373047 120.061816,76.546582 120.058301,76.5544922 C119.803418,77.090332 119.162402,77.3179687 118.626563,77.0625 C118.091602,76.8076172 117.863965,76.1666016 118.118848,75.6313477 C118.122949,75.6213867 119.708789,72.16875 122.830371,70.6277344 C123.341895,71.5983398 123.591211,72.1678711 123.591211,72.1678711 C123.723047,72.252832 123.847559,72.3392578 123.975,72.4248047 L123.975,72.4248047 L123.975,72.4248047 Z M31.9640625,62.5828125 L31.9640625,62.5828125 C31.7211914,63.0612305 31.4850586,63.5560547 31.2568359,64.068457 C31.2568359,64.068457 30.8874023,64.2055664 30.2736328,64.5017578 C30.2970703,64.5541992 30.3254883,64.6063477 30.3580078,64.6564453 C30.6826172,65.1527344 31.3476562,65.2916016 31.8442383,64.9675781 C32.044043,64.8363281 32.3516602,64.7015625 32.7386719,64.5832031 C33.796875,64.2594727 35.3320312,64.0854492 36.8833008,64.4144531 C38.3824219,64.7317383 39.8915039,65.5362305 40.959668,67.1692383 C41.1600586,67.4759766 41.3449219,67.8102539 41.5133789,68.1741211 C39.515918,68.6162109 36.0791016,69.9905273 35.5702148,74.2344727 C35.5007812,74.8233398 35.9214844,75.3571289 36.5103516,75.4265625 C37.0992187,75.4957031 37.6333008,75.074707 37.7024414,74.4861328 C38.1524414,70.734668 42.0193359,70.1926758 42.8589844,70.1185547 C46.584082,71.2942383 46.8272461,74.6475586 46.8287109,74.6566406 C46.8793945,75.2455078 47.3985352,75.6817383 47.9871094,75.6307617 C48.5759766,75.5797852 49.0116211,75.0609375 48.9612305,74.4720703 C48.9597656,74.4583008 48.6234375,69.8879883 43.827832,68.1855469 C43.5307617,67.3505859 43.1680664,66.6234375 42.7570312,65.9938477 C41.3291016,63.8106445 39.3208008,62.7369141 37.3286133,62.315332 C35.3882812,61.9037109 33.4549805,62.1257812 32.1181641,62.5344727 L31.9640625,62.5828125 L31.9640625,62.5828125 L31.9640625,62.5828125 Z M24.2633789,100.739062 L24.2633789,100.739062 C24.8100586,101.470605 25.3743164,102.129492 25.9538086,102.718945 C26.1858398,102.529102 26.3370117,102.243164 26.3463867,101.919727 C26.4386719,98.7483398 27.1350586,96.2285156 28.574707,94.5128906 C29.6258789,93.2586914 31.1106445,92.4123047 33.0870117,92.0299805 C33.2370117,94.6954102 34.1742187,96.4579102 35.4413086,97.4683594 C35.4618164,97.4868164 35.4832031,97.5043945 35.5054687,97.5219727 C36.262207,98.1035156 37.1255859,98.41875 38.0097656,98.5019531 C38.8713867,98.5819336 39.749707,98.4386719 40.5641602,98.1032227 C42.2469727,97.4094727 43.6754883,95.8889648 44.1222656,93.8349609 C44.2476562,93.2557617 43.8791016,92.6838867 43.2993164,92.559082 C42.7204102,92.4336914 42.1485352,92.8025391 42.0234375,93.3817383 C41.7363281,94.7036133 40.8234375,95.6794922 39.749707,96.121875 C39.2493164,96.328418 38.7166992,96.4177734 38.203418,96.3694336 C37.7129883,96.3237305 37.2348633,96.1488281 36.815625,95.8265625 C36.7983398,95.812793 36.7795898,95.7999023 36.7620117,95.7873047 C35.9258789,95.1149414 35.3097656,93.8390625 35.2189453,91.8055664 L35.2330078,91.8049805 C37.7794922,91.7332031 38.6080078,91.1074219 38.5734375,89.9147461 C38.5543945,89.2461914 38.15625,88.6625977 37.6541016,87.9275391 C36.6111328,86.4005859 34.9145508,83.9173828 37.8386719,80.3935547 C38.2168945,79.9368164 38.1533203,79.2600586 37.6959961,78.8827148 C37.2395508,78.5041992 36.5625,78.5680664 36.1848633,79.0253906 C32.2306641,83.7908203 34.4920898,87.1004883 35.8833984,89.137207 C36.1898438,89.5851562 36.4324219,89.9405273 36.4333008,89.9733398 C36.4394531,90.2027344 36.1119141,89.6375977 35.1738281,89.6645508 C31.4258789,89.7714844 28.7326172,90.9875977 26.9296875,93.1365234 C25.3473633,95.0223633 24.4998047,97.5946289 24.2633789,100.739062 L24.2633789,100.739062 L24.2633789,100.739062 Z M45.4722656,105.628418 L45.4722656,105.628418 C46.0936523,105.362695 46.443457,105.174316 46.443457,105.174316 C46.509375,105.530566 46.5861328,105.879199 46.6696289,106.221973 L46.7165039,106.21084 C47.2889648,106.060254 47.6308594,105.473437 47.4802734,104.900977 C46.9555664,102.919336 47.2611328,98.9033203 49.3438477,95.2253906 C50.7773437,92.6953125 53.0610352,90.3515625 56.5092773,88.9951172 C56.8344727,88.8931641 57.0770508,88.6491211 57.1901367,88.3517578 C57.4816406,87.7400391 59.8655273,82.9863281 63.2469727,83.7811523 C64.0675781,84.0972656 70.2445312,86.3165039 72.6424805,82.5852539 C75.0849609,82.8477539 82.4232422,82.9833984 83.5614258,75.3383789 C86.6493164,74.9443359 96.6345703,72.9105469 97.4329102,63.0489258 C99.6263672,63.3164062 104.045801,63.1945312 106.750781,58.6300781 C107.051953,58.1200195 106.882617,57.4620117 106.372852,57.1611328 C105.862793,56.8599609 105.204785,57.0292969 104.903027,57.5393555 C102.588281,61.4463867 98.6314453,61.1191406 97.2249023,60.8581055 C94.3256836,53.2552734 87.6079102,57.2475586 87.5879883,57.2592773 C87.0758789,57.553418 86.8995117,58.2076172 87.1933594,58.7197266 C87.4875,59.2321289 88.1422852,59.4087891 88.6543945,59.1143555 C88.6675781,59.1064453 93.3624023,56.3132812 95.3332031,61.9388672 C95.2207031,70.9180664 86.2901367,72.8182617 83.4146484,73.1979492 C80.8183594,63.7274414 72.9887695,68.8294922 72.965918,68.8438477 C72.4652344,69.159082 72.3149414,69.8208984 72.6298828,70.3212891 C72.9451172,70.8219727 73.6072266,70.9722656 74.1079102,70.6573242 C74.1237305,70.6470703 79.7970703,66.9477539 81.5080078,74.4290039 C80.8081055,81.8091797 72.8091797,80.4700195 72.2753906,80.372168 C71.7829102,80.2658203 71.2681641,80.5198242 71.0633789,81.0005859 C69.8077148,83.9557617 64.5553711,81.9911133 64.0022461,81.7751953 C63.9430664,81.7482422 63.880957,81.7262695 63.815625,81.7101562 C63.5414063,81.6418945 63.2739258,81.5958984 63.0114258,81.5692383 C61.3959961,75.3925781 65.0463867,75.4245117 65.0569336,75.4245117 C65.6481445,75.4174805 66.121875,74.9320312 66.1151367,74.3408203 C66.1078125,73.7499023 65.6229492,73.2767578 65.0320313,73.2837891 C65.0129883,73.2837891 58.762207,73.25625 60.8604492,81.7962891 C57.9820313,82.7135742 56.0841797,85.8536133 55.4484375,87.0536133 C51.5173828,87.9793945 50.8338867,85.3423828 50.8318359,85.3347656 L50.8291992,85.3353516 C50.7052734,84.8683594 50.2743164,84.5296875 49.7698242,84.5411133 C47.0803711,84.6137695 47.0783203,81.7130859 47.0783203,81.7054687 C47.0692383,81.1145508 46.5823242,80.6428711 45.9914062,80.6519531 C45.4001953,80.6613281 44.9285156,81.1482422 44.9373047,81.7391602 C44.9373047,81.7523437 44.9378906,86.2807617 49.0716797,86.6583984 C49.4680664,87.4318359 50.3015625,88.5829102 51.8982422,89.119043 C49.968457,90.5589844 48.5267578,92.3200195 47.4802734,94.1674805 C45.0987305,98.372168 44.7808594,103.08252 45.4066406,105.446191 C45.4233398,105.510645 45.4458984,105.571289 45.4722656,105.628418 L45.4722656,105.628418 L45.4722656,105.628418 Z M75.45,116.784668 L75.45,116.784668 C75.253418,116.384766 75.3210937,115.888477 75.6521484,115.555371 C76.359668,114.847852 76.9924805,112.411816 76.8398437,109.814062 C76.7838867,108.858984 76.6130859,107.897168 76.2905273,107.014453 C75.9814453,106.167773 75.5311523,105.392285 74.906543,104.767969 L74.9047852,104.765918 L74.9024414,104.767969 C73.8275391,103.69248 72.1889648,103.030371 69.7854492,103.157227 C69.7420898,103.162207 69.6981445,103.16543 69.6527344,103.16543 C69.5944336,103.16543 69.5370117,103.160156 69.4810547,103.151367 C68.9926758,103.097461 64.7106445,102.71543 64.9918945,106.096289 C65.0405273,106.687207 64.6004883,107.206641 64.0092773,107.25498 C63.4183594,107.30332 62.8998047,106.86416 62.8514648,106.272949 C62.4632812,101.615625 66.4939453,100.983984 68.578125,100.965527 L68.578125,97.1545898 C62.0926758,97.4841797 64.10625,89.8746094 64.1115234,89.8514648 C64.2577148,89.2787109 64.8401367,88.9333008 65.4128906,89.0789063 C65.9856445,89.2250977 66.3313477,89.8075195 66.1854492,90.3802734 C66.1816406,90.3952148 64.7733398,95.7249023 69.4681641,94.8916992 C69.6568359,94.8588867 69.8431641,94.8776367 70.0116211,94.9376953 C70.7203125,95.1366211 77.896582,96.9837891 80.7322266,90.8830078 C78.0864258,88.9538086 75.0459961,90.9117188 75.0336914,90.9196289 C74.5327148,91.2345703 73.8708984,91.0842773 73.5556641,90.5835938 C73.2410156,90.0832031 73.3913086,89.4213867 73.8916992,89.1061523 C73.9166016,89.090332 82.5958008,83.5051758 85.734375,95.4761719 C85.8826172,96.0483398 85.5386719,96.6331055 84.965918,96.7816406 C84.393457,96.9298828 83.8086914,96.5859375 83.6604492,96.0131836 C83.2804687,94.5647461 82.8041016,93.4482422 82.2703125,92.5939453 C79.2547852,97.9883789 73.3913086,97.724707 70.7267578,97.2805664 L70.7267578,101.002441 C73.2697266,101.075977 75.1160156,101.942871 76.4214844,103.248047 L76.4188477,103.250098 C77.2822266,104.11377 77.8945312,105.158203 78.3052734,106.283789 C78.702832,107.373633 78.9120117,108.540234 78.9799805,109.688086 C79.1651367,112.841602 78.225,115.979004 77.1946289,117.04248 C76.6927734,116.621777 76.4115234,116.310645 76.4115234,116.310645 C76.0948242,116.476172 75.7731445,116.63291 75.45,116.784668 L75.45,116.784668 L75.45,116.784668 Z M87.3430664,85.603418 L87.3430664,85.603418 C86.8959961,85.9904297 86.2189453,85.9417969 85.8316406,85.4938477 C85.4449219,85.0461914 85.4935547,84.3697266 85.9412109,83.9827148 C85.9552734,83.9707031 89.0481445,81.2375977 92.6197266,81.5540039 C92.3080078,79.8313477 92.5171875,78.0395508 93.1992188,76.4364258 C94.0151367,74.5192383 95.5063477,72.8648437 97.5890625,71.9129883 C97.9464844,71.7495117 98.3226563,71.606543 98.7169922,71.4867187 C101.327051,70.6924805 102.99873,71.399707 104.051074,72.4256836 C104.632031,70.2521484 105.938965,67.5322266 108.877441,66.0310547 C114.47959,63.1699219 118.486523,68.3575195 118.498535,68.3724609 C118.862402,68.8382812 118.779199,69.5118164 118.313379,69.8753906 C117.847559,70.2389648 117.174902,70.1560547 116.810742,69.6902344 C116.802539,69.6793945 113.869629,65.8845703 109.851855,67.9374023 C106.681055,69.5563477 105.946289,73.10625 105.776953,74.7732422 C108.687012,75.7880859 107.662207,81.2759766 107.658984,81.2932617 C107.557031,81.8774414 107.000391,82.2685547 106.416797,82.1663086 C105.832617,82.0643555 105.441504,81.5085937 105.543457,80.9238281 C105.544922,80.9118164 106.314258,76.6989258 104.690039,76.7548828 C104.163281,76.771582 103.713867,76.4041992 103.608398,75.9061523 L103.606641,75.9073242 C103.60459,75.8973633 102.916113,72.4470703 99.3375,73.5354492 C99.0398438,73.6262695 98.7524414,73.7352539 98.4785156,73.8606445 C96.9120117,74.5769531 95.7887695,75.8258789 95.1717773,77.2760742 C94.5515625,78.7338867 94.4414063,80.3900391 94.9045898,81.9117187 C94.940625,82.0318359 94.9807617,82.1513672 95.0258789,82.2706055 C96.4740234,83.0396484 97.9078125,84.4866211 99.1643555,86.971875 C99.430957,87.5000977 99.2185547,88.1449219 98.6897461,88.4112305 C98.1615234,88.678125 97.5169922,88.4654297 97.2503906,87.9366211 C93.3741211,80.2713867 87.3600586,85.5884766 87.3430664,85.603418 L87.3430664,85.603418 Z M103.710059,110.692383 L103.710059,110.692383 C103.422363,111.208887 102.770508,111.394922 102.253125,111.107812 C101.736621,110.820117 101.550586,110.168262 101.837695,109.650879 C101.849707,109.629785 105.800391,102.365332 111.36416,105.485742 C112.467773,104.312402 114.909082,102.283887 118.479492,102.449121 C124.06084,102.708398 123.386133,107.329687 123.384375,107.342578 C123.30791,107.928809 122.77002,108.342773 122.183789,108.265723 C121.598145,108.189258 121.184473,107.65166 121.260645,107.06543 C121.261816,107.058984 121.606055,104.739258 118.387207,104.590137 C115.676367,104.464453 113.823633,105.989941 112.978125,106.883496 C116.541504,111.553125 111.302344,116.363086 111.28623,116.377441 C110.855273,116.78291 110.176758,116.762109 109.771289,116.331445 C109.365527,115.899902 109.386035,115.221094 109.817578,114.815625 C109.829297,114.804492 113.968945,110.998242 110.870215,107.711719 C106.878809,104.875488 103.718848,110.675684 103.710059,110.692383 L103.710059,110.692383 L103.710059,110.692383 Z" id="Shape" fill="#EC4B53"></path>
                    <path d="M85.5114258,116.609766 C86.2089844,118.150781 85.0792969,118.302832 84.9164063,118.942969 C85.9643555,119.932617 90.5077148,122.37832 93.8208984,125.213965 C97.8398438,128.654297 97.2263672,130.025098 99.8994141,130.18418 C101.258203,130.264746 104.109668,129.666504 103.877344,127.741992 C103.460449,124.295508 97.2676758,118.741406 97.2676758,118.741406 C97.2676758,118.741406 97.2738281,118.744043 97.2867188,118.750488 L94.7616211,116.668066 C91.7663086,118.787402 88.6573242,118.148438 85.5114258,116.609766 L85.5114258,116.609766 Z" id="Shape" fill="#F5A209"></path>
                    <path d="M85.5114258,116.609766 C87.3032227,118.563867 96.4790039,126.125977 98.3411133,128.247949 C100.202637,130.369922 103.613965,128.288086 102.728906,125.890137 C101.843555,123.491309 94.7616211,116.668066 94.7616211,116.668066 C94.8304688,116.710254 94.3851563,116.35752 94.134082,116.150391 C90.1248047,118.412988 87.4792969,116.67627 85.5114258,116.609766 L85.5114258,116.609766 L85.5114258,116.609766 Z" id="Shape" fill="#FBB429"></path>
                    <path d="M31.9555664,11.6964844 C20.2617188,11.6964844 10.7818359,21.1760742 10.7818359,32.8699219 C10.7818359,44.5640625 20.2617188,54.0442383 31.9555664,54.0442383 C35.3490234,54.0442383 38.5564453,53.2450195 41.3988281,51.8255859 L52.1630859,58.0245117 L45.5727539,49.0836914 C50.193457,45.2000977 53.1298828,39.3782227 53.1298828,32.8702148 C53.1295898,21.1760742 43.65,11.6964844 31.9555664,11.6964844 L31.9555664,11.6964844 L31.9555664,11.6964844 Z" id="Shape" fill="#20D0C2"></path>
                    <path d="M22.2161133,26.5412109 C22.2161133,25.3101562 22.6148438,24.0591797 23.4067383,22.7888672 C24.1986328,21.525293 25.3558594,20.4738281 26.8728516,19.6420898 C28.396582,18.8106445 30.1655273,18.3984375 32.1949219,18.3984375 C34.0772461,18.3984375 35.7410156,18.7438477 37.1844727,19.4425781 C38.6217773,20.1342773 39.7324219,21.0791016 40.5175781,22.2767578 C41.3024414,23.4673828 41.6953125,24.7708008 41.6953125,26.1679688 C41.6953125,27.2727539 41.4694336,28.2436523 41.0229492,29.0750977 C40.5779297,29.9071289 40.0453125,30.6251953 39.4271484,31.2240234 C38.8142578,31.8298828 37.7106445,32.8470703 36.1133789,34.2776367 C35.6683594,34.6763672 35.315332,35.0293945 35.0493164,35.3361328 C34.7827148,35.6414063 34.5837891,35.9211914 34.4566406,36.1740234 C34.3245117,36.4268555 34.2246094,36.6796875 34.1513672,36.9319336 C34.0842773,37.1850586 33.9714844,37.630957 33.8323242,38.269043 C33.5856445,39.6196289 32.8139648,40.2919922 31.5099609,40.2919922 C30.8378906,40.2919922 30.2657227,40.0728516 29.8072266,39.6336914 C29.3411133,39.187207 29.1152344,38.5356445 29.1152344,37.6643555 C29.1152344,36.5730469 29.2816406,35.6285156 29.6203125,34.8301758 C29.9604492,34.03125 30.4057617,33.3331055 30.9647461,32.727832 C31.5237305,32.1225586 32.2822266,31.4041992 33.2264648,30.5724609 C34.0579102,29.8476562 34.6637695,29.2948242 35.0293945,28.9291992 C35.4023438,28.5568359 35.7146484,28.14375 35.9668945,27.6919922 C36.2200195,27.2393555 36.3462891,26.7401367 36.3462891,26.2081055 C36.3462891,25.1704102 35.9604492,24.2920898 35.1890625,23.5804688 C34.4103516,22.8682617 33.4192383,22.509375 32.1949219,22.509375 C30.7649414,22.509375 29.7137695,22.8685547 29.0349609,23.5933594 C28.3628906,24.3125977 27.7907227,25.3769531 27.3251953,26.7805664 C26.8792969,28.2442383 26.0416992,28.9754883 24.8103516,28.9754883 C24.0785156,28.9754883 23.4667969,28.7229492 22.9675781,28.2043945 C22.4689453,27.6922852 22.2161133,27.1394531 22.2161133,26.5412109 L22.2161133,26.5412109 Z M31.7229492,47.8962891 L31.7229492,47.8962891 C30.9313477,47.8962891 30.2396484,47.6361328 29.6472656,47.1243164 C29.0557617,46.612207 28.762207,45.8935547 28.762207,44.9686523 C28.762207,44.1506836 29.0484375,43.4651367 29.6203125,42.9061523 C30.1924805,42.3474609 30.8915039,42.0679687 31.7229492,42.0679687 C32.5415039,42.0679687 33.2326172,42.3474609 33.7921875,42.9061523 C34.350293,43.4648438 34.6300781,44.1503906 34.6300781,44.9686523 C34.6300781,45.8806641 34.3376953,46.5987305 33.7523438,47.1175781 C33.1661133,47.6361328 32.4946289,47.8962891 31.7229492,47.8962891 L31.7229492,47.8962891 Z" id="Shape" fill="#FFFFFF"></path>
                    <path d="M118.044141,11.6964844 C129.738574,11.6964844 139.218457,21.1760742 139.218457,32.8699219 C139.218457,44.5640625 129.738574,54.0442383 118.044141,54.0442383 C114.650684,54.0442383 111.444141,53.2450195 108.601758,51.8255859 L97.837207,58.0245117 L104.427246,49.0836914 C99.8068359,45.2000977 96.8707031,39.3782227 96.8707031,32.8702148 C96.8707031,21.1760742 106.350293,11.6964844 118.044141,11.6964844 L118.044141,11.6964844 L118.044141,11.6964844 Z" id="Shape" fill="#20D0C2"></path>
                    <g id="Group" transform="translate(59.179688, 6.445312)" fill="#FFFFFF">
                        <path d="M56.2514648,28.4941406 L55.5984375,18.7546875 C55.4806641,16.8580078 55.4182617,15.4898438 55.4182617,14.6630859 C55.4182617,13.5375 55.7100586,12.6624023 56.3000977,12.0304688 C56.8907227,11.3982422 57.6618164,11.0853516 58.6204102,11.0853516 C59.7873047,11.0853516 60.5657227,11.4884766 60.9544922,12.2944336 C61.3505859,13.1003906 61.5451172,14.2672852 61.5451172,15.7819336 C61.5451172,16.677832 61.4967773,17.5880859 61.405957,18.5115234 L60.5305664,28.5360352 C60.4338867,29.7304688 60.2317383,30.6477539 59.9194336,31.2867188 C59.6138672,31.9189453 59.100293,32.2385742 58.3775391,32.2385742 C57.6486328,32.2385742 57.1412109,31.9327148 56.8564453,31.3145508 C56.578418,30.6960938 56.3698242,29.7583008 56.2514648,28.4941406 L56.2514648,28.4941406 L56.2514648,28.4941406 Z M58.5026367,41.8875 L58.5026367,41.8875 C57.6755859,41.8875 56.953125,41.6165039 56.3419922,41.081543 C55.7238281,40.546582 55.4182617,39.796582 55.4182617,38.8306641 C55.4182617,37.9904297 55.7100586,37.2744141 56.3000977,36.684082 C56.8907227,36.094043 57.6064453,35.8022461 58.4607422,35.8022461 C59.3150391,35.8022461 60.0375,36.094043 60.6416016,36.684082 C61.2462891,37.274707 61.5451172,37.9904297 61.5451172,38.8306641 C61.5451172,39.7828125 61.2392578,40.5325195 60.6351563,41.0748047 C60.0234375,41.6165039 59.3150391,41.8875 58.5026367,41.8875 L58.5026367,41.8875 L58.5026367,41.8875 Z" id="Shape"></path>
                        <path d="M15.7886719,32.7547852 C15.7051758,32.8412109 15.5882812,32.8951172 15.4587891,32.8951172 L15.4467773,32.8951172 L14.9958984,32.8951172 C14.8582031,32.8951172 14.7348633,32.8344727 14.6507813,32.7383789 C14.5335938,32.7152344 14.4231445,32.6674805 14.3241211,32.6009766 C14.2599609,32.5570313 14.2007813,32.5045898 14.1495117,32.4459961 C13.9957031,32.3994141 13.8597656,32.3124023 13.7513672,32.1960938 C13.6066406,32.0408203 13.5125977,31.8316406 13.4988281,31.6025391 L13.4736328,31.6025391 C13.2199219,31.6025391 12.9887695,31.4929688 12.8238281,31.3154297 C12.6673828,31.1469727 12.5695312,30.9158203 12.5695312,30.6647461 C12.5695312,30.5639648 12.5862305,30.4655273 12.6172852,30.3714844 C12.4875,30.2162109 12.4107422,30.0257813 12.4107422,29.8192383 C12.4107422,29.64375 12.4652344,29.4820313 12.5601562,29.3425781 C12.4652344,29.2037109 12.4107422,29.0411133 12.4107422,28.865625 C12.4107422,28.6901367 12.4646484,28.5275391 12.5598633,28.3889648 C12.4646484,28.2498047 12.4107422,28.087207 12.4107422,27.9120117 C12.4107422,27.6462891 12.5270508,27.6878906 12.4892578,27.674707 L12.487793,27.6735352 L12.4875,27.674707 C12.2329102,27.5835938 11.9923828,27.4974609 11.9923828,26.7609375 L11.9923828,23.6604492 C10.7375977,22.9728516 9.6796875,21.9591797 8.93173828,20.7313477 C8.15830078,19.4619141 7.71123047,17.9648438 7.71123047,16.3643555 C7.71123047,14.0821289 8.61796875,12.0134766 10.0842773,10.5146484 C11.5520508,9.01494141 13.5805664,8.08681641 15.8203125,8.08681641 C18.0597656,8.08681641 20.0882812,9.01464844 21.5563477,10.5146484 C23.0226563,12.0134766 23.9302734,14.081543 23.9302734,16.3643555 C23.9302734,17.8813477 23.5291992,19.3048828 22.8298828,20.5286133 L22.8137695,20.5543945 C22.1352539,21.7321289 21.1787109,22.7235352 20.0375977,23.4336914 L20.0375977,26.7606445 C20.0375977,27.9313477 19.5697266,27.8874023 19.1162109,27.8446289 L19.1144531,27.8443359 L19.1144531,27.8446289 C19.0561523,27.8393555 19.2292969,27.8560547 19.2292969,27.9117187 C19.2292969,28.0869141 19.1762695,28.2495117 19.0810547,28.3886719 C19.1759766,28.5272461 19.2292969,28.6898438 19.2292969,28.865332 C19.2292969,29.0396484 19.1753906,29.2025391 19.0807617,29.3416992 C19.1753906,29.4805664 19.2292969,29.643457 19.2292969,29.8189453 C19.2292969,30.0254883 19.1525391,30.215332 19.0239258,30.3708984 C19.0543945,30.4640625 19.0705078,30.5630859 19.0705078,30.6644531 C19.0705078,30.9149414 18.9732422,31.1446289 18.8170898,31.3133789 L18.815625,31.3139648 L18.8170898,31.3154297 C18.6521484,31.4917969 18.4224609,31.6019531 18.1666992,31.6019531 L18.1417969,31.6019531 C18.1283203,31.8295898 18.0342773,32.0378906 17.8901367,32.1931641 L17.8886719,32.1946289 L17.8901367,32.1952148 C17.7823242,32.3112305 17.6466797,32.3979492 17.4943359,32.4448242 C17.4418945,32.5051758 17.3824219,32.5582031 17.3165039,32.6024414 L17.2740234,32.6285156 C17.1837891,32.6827148 17.0844727,32.7210938 16.9801758,32.7404297 C16.8963867,32.8356445 16.7736328,32.8948242 16.6371094,32.8948242 L16.6253906,32.8948242 L16.1739258,32.8948242 C16.0444336,32.8948242 15.927832,32.840918 15.844043,32.7544922 L15.7886719,32.7544922 L15.7886719,32.7547852 L15.7886719,32.7547852 Z M14.9833008,31.8395508 L14.9833008,31.8395508 L14.9956055,31.8395508 C15.0793945,31.8395508 15.1584961,31.8624023 15.2273438,31.9025391 C15.2950195,31.8624023 15.3738281,31.8395508 15.4587891,31.8395508 L16.1625,31.8395508 L16.1739258,31.8395508 C16.2588867,31.8395508 16.3382812,31.8624023 16.4056641,31.9025391 C16.4739258,31.8624023 16.5527344,31.8395508 16.6371094,31.8395508 L16.8079102,31.8395508 C16.8791016,31.6795898 17.0384766,31.5682617 17.2239258,31.5667969 C17.2259766,31.5618164 17.2277344,31.5544922 17.2277344,31.5457031 C17.2277344,31.5375 17.2259766,31.5298828 17.2239258,31.5249023 L17.2212891,31.5210937 C17.1020508,31.4387695 17.0232422,31.3001953 17.0232422,31.1446289 C17.0232422,30.8917969 17.2286133,30.6867188 17.4814453,30.6867188 L18.1511719,30.6867188 C18.1532227,30.6808594 18.1546875,30.6732422 18.1546875,30.6647461 L18.1532227,30.6498047 L18.149707,30.6433594 L18.1476563,30.6389648 L18.1482422,30.6386719 C18.065918,30.5844727 18.0008789,30.5033203 17.9668945,30.402832 C17.887207,30.1634766 18.0155273,29.9044922 18.2548828,29.8250977 L18.2686523,29.8195312 C18.2402344,29.8083984 18.2050781,29.8016602 18.1649414,29.8004883 L18.1587891,29.8004883 L18.1587891,29.3487305 C18.1262695,29.2529297 18.1274414,29.1503906 18.1587891,29.0566406 L18.1587891,28.8849609 L18.1646484,28.8849609 C18.2030273,28.884375 18.2364258,28.8770508 18.2651367,28.8662109 C18.2367188,28.8544922 18.2030273,28.8477539 18.1646484,28.8474609 L18.1587891,28.8474609 L18.1587891,28.4006836 C18.1239258,28.3022461 18.1248047,28.1953125 18.1587891,28.0977539 L18.1587891,27.9310547 L18.1649414,27.9310547 C18.2179688,27.9307617 18.2636719,27.9181641 18.2956055,27.8991211 L18.309668,27.8874023 L18.3099609,27.8879883 L18.3111328,27.890625 L18.3125977,27.8926758 L18.3125977,27.890918 L18.3102539,27.8876953 L18.3125977,27.890918 C18.318457,26.8532227 18.7526367,26.8942383 19.1994141,26.9364258 C19.2307617,26.9396484 19.1214844,26.9261719 19.1214844,26.7609375 L19.1214844,23.1767578 L19.1220703,23.1767578 C19.1223633,23.0185547 19.2038086,22.865918 19.35,22.780957 C20.4550781,22.1431641 21.3793945,21.2144531 22.021582,20.0991211 L22.0350586,20.0742188 C22.6567383,18.9858398 23.0132813,17.7178711 23.0132813,16.3646484 C23.0132813,14.3285156 22.2073242,12.4866211 20.9050781,11.1556641 C19.603125,9.82587891 17.8057617,9.00292969 15.8197266,9.00292969 C13.8339844,9.00292969 12.0363281,9.82587891 10.7349609,11.1556641 C9.43212891,12.4866211 8.62587891,14.3285156 8.62587891,16.3646484 C8.62587891,17.7949219 9.02314453,19.1285156 9.71103516,20.2555664 C10.4147461,21.4104492 11.4222656,22.3511719 12.6169922,22.9599609 C12.7875,23.0270508 12.9070313,23.1922852 12.9070313,23.3862305 L12.9070313,26.7615234 C12.9070313,26.8529297 12.7359375,26.7925781 12.7939453,26.8130859 L12.7939453,26.8133789 C13.0491211,26.9044922 13.3201172,27.0041016 13.3256836,27.8856445 L13.3283203,27.8876953 C13.3617188,27.9134766 13.4132813,27.9304688 13.4745117,27.9310547 L13.4803711,27.9310547 L13.4803711,28.3836914 C13.5123047,28.4789063 13.5117188,28.5802734 13.4803711,28.6740234 L13.4803711,28.8474609 L13.4745117,28.8474609 C13.4355469,28.8477539 13.4012695,28.8544922 13.3722656,28.865918 C13.4012695,28.8770508 13.4361328,28.8834961 13.4745117,28.8849609 L13.4803711,28.8849609 L13.4803711,29.3375977 C13.5123047,29.4322266 13.5117188,29.5341797 13.4803711,29.6276367 L13.4803711,29.8001953 L13.4745117,29.8001953 C13.4352539,29.8013672 13.4009766,29.8083984 13.3719727,29.8198242 L13.3746094,29.8209961 C13.4724609,29.8514648 13.5600586,29.9138672 13.6204102,30.0049805 C13.7592773,30.215332 13.7018555,30.4992188 13.4912109,30.6386719 L13.4891602,30.6430664 L13.4874023,30.6418945 L13.4874023,30.6430664 C13.4856445,30.6457031 13.4850586,30.6539063 13.4850586,30.6644531 C13.4850586,30.6729492 13.4865234,30.6811523 13.4885742,30.6864258 L14.1574219,30.6864258 L14.1574219,30.6875977 C14.3018555,30.6875977 14.4439453,30.7567383 14.5330078,30.8847656 C14.6756836,31.0921875 14.6238281,31.3760742 14.4169922,31.519043 L14.4164063,31.5208008 L14.4158203,31.5246094 L14.4146484,31.5243164 C14.4128906,31.5287109 14.4123047,31.5357422 14.4123047,31.5454102 C14.4123047,31.5553711 14.4140625,31.5626953 14.4164063,31.5685547 C14.5901367,31.5691406 14.7550781,31.6705078 14.8303711,31.8386719 L14.830957,31.8392578 L14.9833008,31.8395508 L14.9833008,31.8395508 L14.9833008,31.8395508 Z M13.3265625,27.9123047 L13.3265625,27.9123047 C13.3265625,27.928418 13.3277344,27.8885742 13.3289063,27.8891602 L13.3265625,27.8929688 L13.3265625,27.9123047 L13.3265625,27.9123047 Z M18.3117188,29.8429688 L18.3117188,29.8429688 L18.3111328,29.8426758 L18.3108398,29.8432617 L18.3117188,29.8429688 L18.3117188,29.8429688 L18.3117188,29.8429688 Z M18.1479492,30.693457 L18.1479492,30.693457 L18.1485352,30.6931641 L18.1470703,30.6925781 L18.1479492,30.693457 L18.1479492,30.693457 L18.1479492,30.693457 Z M17.2212891,31.5732422 L17.2212891,31.5732422 L17.221582,31.5729492 L17.2201172,31.5729492 L17.2212891,31.5732422 L17.2212891,31.5732422 Z" id="Shape"></path>
                        <polygon id="Shape" points="13.4938477 16.3646484 14.8145508 26.0648438 15.8203125 26.0648438 16.8260742 26.0648438 18.1995117 16.1704102 18.7174805 16.1039062 17.2951172 26.3522461 17.2646484 26.5699219 17.0455078 26.5699219 15.8203125 26.5699219 14.5948242 26.5699219 14.3759766 26.5699219 14.3455078 26.3522461 12.9946289 16.434375 13.4938477 16.3646484"></polygon>
                        <polygon id="Shape" points="16.5459961 14.9106445 16.3842773 16.0177734 20.5400391 15.3969727 14.906543 17.7477539 15.1139648 16.2251953 11.4178711 16.9262695 16.5459961 14.9106445"></polygon>
                        <path d="M6.45585937,29.3402344 L9.91640625,24.5876953 C10.0479492,24.4075195 10.302832,24.3673828 10.4838867,24.4989258 L10.4844727,24.4995117 C10.6646484,24.6307617 10.7053711,24.8856445 10.5735352,25.0669922 L7.11181641,29.8183594 C6.98056641,29.999707 6.72568359,30.0398437 6.54521484,29.9077148 L6.54492188,29.9074219 C6.36386719,29.7758789 6.3234375,29.5209961 6.45585937,29.3402344 L6.45585937,29.3402344 L6.45585937,29.3402344 Z M26.4987305,23.9578125 L26.4987305,23.9578125 L24.0908203,22.2711914 C23.9074219,22.143457 23.6255859,22.1709961 23.5250977,22.3710937 L23.5248047,22.3725586 C23.4249023,22.5717773 23.4416016,22.809668 23.625,22.9371094 L26.0320313,24.6237305 C26.2151367,24.7517578 26.4990234,24.7245117 26.5977539,24.5241211 L26.5992187,24.5235352 C26.6976562,24.3231445 26.6824219,24.0858398 26.4987305,23.9578125 L26.4987305,23.9578125 Z M25.1850586,29.3402344 L25.1850586,29.3402344 C25.3166016,29.5212891 25.2764648,29.7761719 25.0957031,29.9077148 L25.0954102,29.9080078 C24.9143555,30.0398437 24.6594727,30 24.5279297,29.8186523 L21.0670898,25.0672852 C20.9352539,24.8859375 20.9750977,24.6310547 21.1564453,24.4998047 L21.1564453,24.4992187 C21.337793,24.3676758 21.5926758,24.4078125 21.7239258,24.5879883 L25.1850586,29.3402344 L25.1850586,29.3402344 L25.1850586,29.3402344 Z M25.9552734,8.00009766 L25.9552734,8.00009766 L23.7260742,9.91611328 C23.5561523,10.0617188 23.5139648,10.3429688 23.6821289,10.4897461 L23.6835938,10.4897461 C23.8523438,10.6359375 24.0867187,10.678418 24.2557617,10.5328125 L26.484668,8.61650391 C26.6540039,8.47148438 26.6976562,8.18994141 26.5280273,8.04404297 L26.5277344,8.04257813 C26.3583984,7.89785156 26.1249023,7.85419922 25.9552734,8.00009766 L25.9552734,8.00009766 L25.9552734,8.00009766 Z M28.9646484,15.9632812 L28.9646484,15.9632812 L26.0279297,16.0910156 C25.8049805,16.1006836 25.5972656,16.2952148 25.6400391,16.5146484 L25.640332,16.5152344 C25.6825195,16.734375 25.8401367,16.9130859 26.0630859,16.903125 L28.9995117,16.7750977 C29.2224609,16.7654297 29.4310547,16.5714844 29.3879883,16.3520508 L29.3885742,16.350293 C29.3449219,16.1311523 29.1887695,15.9530273 28.9646484,15.9632812 L28.9646484,15.9632812 L28.9646484,15.9632812 Z M24.2009766,2.67275391 L24.2009766,2.67275391 C24.3146484,2.4796875 24.5642578,2.41435547 24.7570312,2.52832031 C24.9498047,2.64140625 25.0154297,2.89042969 24.9026367,3.08408203 L21.9272461,8.15507813 C21.8141602,8.34726563 21.5654297,8.41347656 21.3714844,8.30039063 L21.3717773,8.29892578 C21.178125,8.18642578 21.1130859,7.93710938 21.2267578,7.74404297 L24.2009766,2.67275391 L24.2009766,2.67275391 L24.2009766,2.67275391 Z M30.8463867,10.6025391 L30.8463867,10.6025391 C31.0538086,10.5193359 31.2908203,10.621582 31.3734375,10.8301758 C31.4563477,11.0375977 31.3549805,11.2749023 31.1475586,11.3578125 L25.6869141,13.5369141 C25.4800781,13.6201172 25.2424805,13.5181641 25.1598633,13.3110352 L25.1601562,13.3095703 C25.0766602,13.1021484 25.1777344,12.8648438 25.3857422,12.7825195 L30.8463867,10.6025391 L30.8463867,10.6025391 L30.8463867,10.6025391 Z M31.2272461,20.9419922 L31.2272461,20.9419922 L25.5782227,19.3130859 C25.3640625,19.2509766 25.1375977,19.3754883 25.0763672,19.5908203 L25.0751953,19.5914062 C25.0136719,19.8061523 25.1387695,20.0320312 25.3529297,20.0938477 L31.0019531,21.7230469 C31.2169922,21.7848633 31.4422852,21.6600586 31.5046875,21.4450195 L31.5043945,21.4444336 C31.5670898,21.2299805 31.4422852,21.0038086 31.2272461,20.9419922 L31.2272461,20.9419922 Z M18.7374023,3.61669922 L18.7374023,3.61669922 L18.1538086,6.49716797 C18.1092773,6.7171875 18.2481445,6.96474609 18.4710937,6.97675781 L18.4713867,6.97646484 C18.6943359,6.98789063 18.9055664,6.87832031 18.9503906,6.65917969 L19.5336914,3.77900391 C19.5779297,3.55986328 19.4396484,3.30996094 19.2164062,3.29970703 L19.2149414,3.29912109 C18.9922852,3.28857422 18.7813477,3.39697266 18.7374023,3.61669922 L18.7374023,3.61669922 L18.7374023,3.61669922 Z M15.3908203,0.418652344 L15.3908203,0.418652344 L15.4371094,6.29736328 C15.4385742,6.5203125 15.6225586,6.70136719 15.8469727,6.69931641 L15.8472656,6.69990234 C16.0710937,6.69785156 16.2509766,6.51328125 16.2495117,6.29033203 L16.2035156,0.411035156 C16.2017578,0.1875 16.0168945,0.0076171875 15.7936523,0.00908203125 C15.5698242,0.00966796875 15.3890625,0.193359375 15.3908203,0.418652344 L15.3908203,0.418652344 L15.3908203,0.418652344 Z M12.9032227,3.61669922 L12.9032227,3.61669922 L13.4862305,6.49716797 C13.5316406,6.7171875 13.3921875,6.96474609 13.1695313,6.97675781 L13.1683594,6.97646484 C12.9454102,6.98789063 12.7341797,6.87832031 12.6899414,6.65917969 L12.1063477,3.77900391 C12.0618164,3.55986328 12.2006836,3.30996094 12.4236328,3.29970703 L12.4250977,3.29912109 C12.6483398,3.28857422 12.8592773,3.39697266 12.9032227,3.61669922 L12.9032227,3.61669922 L12.9032227,3.61669922 Z M7.43964844,2.67275391 L7.43964844,2.67275391 L10.4135742,7.74404297 C10.5269531,7.93710938 10.4616211,8.18642578 10.2679687,8.29892578 L10.2685547,8.30039063 C10.0751953,8.41347656 9.82587891,8.34726563 9.71337891,8.15507813 L6.73798828,3.08408203 C6.62490234,2.89072266 6.69082031,2.64140625 6.88359375,2.52832031 C7.07636719,2.41435547 7.32597656,2.4796875 7.43964844,2.67275391 L7.43964844,2.67275391 L7.43964844,2.67275391 Z M5.68535156,8.00009766 L5.68535156,8.00009766 C5.51572266,7.85390625 5.28222656,7.89785156 5.11289062,8.04257813 L5.11259766,8.04404297 C4.94238281,8.19023438 4.98603516,8.47148438 5.15537109,8.61650391 L7.38486328,10.5328125 C7.55419922,10.678125 7.78857422,10.6356445 7.95703125,10.4897461 L7.95761719,10.4897461 C8.12636719,10.3429688 8.08447266,10.0620117 7.91367187,9.91611328 L5.68535156,8.00009766 L5.68535156,8.00009766 L5.68535156,8.00009766 Z M0.794238281,10.6025391 L0.794238281,10.6025391 L6.25517578,12.7828125 C6.46230469,12.8651367 6.56455078,13.1021484 6.48076172,13.3098633 L6.48105469,13.3113281 C6.39785156,13.518457 6.16083984,13.6204102 5.95400391,13.537207 L0.493066406,11.3581055 C0.284765625,11.2751953 0.183984375,11.0378906 0.2671875,10.8304688 C0.349511719,10.621582 0.586523437,10.5193359 0.794238281,10.6025391 L0.794238281,10.6025391 L0.794238281,10.6025391 Z M2.67568359,15.9632812 L2.67568359,15.9632812 L5.61210937,16.0910156 C5.8359375,16.1006836 6.04277344,16.2952148 6.00058594,16.5146484 L6.00029297,16.5152344 C5.95810547,16.734375 5.79990234,16.9130859 5.57695312,16.903125 L2.64052734,16.7750977 C2.41757812,16.7654297 2.20927734,16.5714844 2.25234375,16.3520508 L2.25175781,16.350293 C2.29541016,16.1311523 2.45185547,15.9530273 2.67568359,15.9632812 L2.67568359,15.9632812 L2.67568359,15.9632812 Z M0.413085937,20.9419922 L0.413085937,20.9419922 L6.06181641,19.3130859 C6.2765625,19.2509766 6.50302734,19.3754883 6.56455078,19.5908203 L6.56455078,19.5914062 C6.62666016,19.8061523 6.5015625,20.0320312 6.28681641,20.0938477 L0.637792969,21.7230469 C0.423046875,21.7848633 0.198046875,21.6600586 0.135644531,21.4450195 L0.1359375,21.4444336 C0.0735351562,21.2299805 0.198339844,21.0038086 0.413085937,20.9419922 L0.413085937,20.9419922 Z M5.1421875,23.9578125 L5.1421875,23.9578125 C4.95849609,24.0858398 4.94238281,24.3231445 5.04199219,24.5235352 L5.04257812,24.5241211 C5.1421875,24.7245117 5.42548828,24.7517578 5.60800781,24.6237305 L8.01591797,22.9371094 C8.19814453,22.809668 8.21484375,22.5717773 8.11582031,22.3725586 L8.11464844,22.3710937 C8.01445312,22.1712891 7.73232422,22.143457 7.54921875,22.2711914 L5.1421875,23.9578125 L5.1421875,23.9578125 Z" id="Shape"></path>
                    </g>
                </g>
            </g>
        </g>
    </g>
</svg>