<?xml version="1.0" encoding="UTF-8" standalone="no"?>
<svg width="200px" height="200px" viewBox="0 0 200 200" version="1.1" xmlns="http://www.w3.org/2000/svg" xmlns:xlink="http://www.w3.org/1999/xlink">
    <!-- Generator: Sketch 40 (33762) - http://www.bohemiancoding.com/sketch -->
    <title>piggy bank</title>
    <desc>Created with Sketch.</desc>
    <defs></defs>
    <g id="LandingPage" stroke="none" stroke-width="1" fill="none" fill-rule="evenodd">
        <g id="Page" transform="translate(-448.000000, -4078.000000)">
            <g id="piggy-bank" transform="translate(448.000000, 4078.000000)">
                <g id="Layer_1">
                    <path d="M100,0 C155.228516,0 200,44.7714844 200,100 C200,155.228516 155.228516,200 100,200 C44.7714844,200 0,155.228516 0,100 C0,44.7714844 44.7714844,0 100,0 L100,0 Z" id="Shape" fill="#5DDDD3"></path>
                    <path d="M156.883203,105.320703 C156.897656,105.327734 160.01875,107.126562 163.163672,108.721484 C163.214062,107.817578 163.454297,106.967969 163.833203,106.224609 C164.2625,105.3875 164.870703,104.673047 165.592187,104.140625 C167.255859,102.915625 169.505469,102.614453 171.618359,103.868359 C173.537891,105.006641 174.391406,106.573047 174.517578,108.169531 C174.591406,109.109375 174.400391,110.044141 174.016016,110.888281 C173.649609,111.692969 173.099609,112.430859 172.435547,113.026172 C171.964453,113.448437 171.432422,113.801953 170.862109,114.058203 C178.185547,117.863281 178.856641,111.436719 178.867187,111.420312 C179.321875,110.162891 180.590234,111.200391 180.252734,112.477734 C180.474609,111.525 179.38125,120.601953 168.807031,116.908984 C166.813281,115.797656 165.427734,114.532812 164.527344,113.232031 C160.473437,111.420703 155.089453,112.2125 155.071484,112.201953 L156.883203,105.320703 L156.883203,105.320703 Z M166.959375,110.496875 L166.959375,110.496875 C167.513281,110.722266 168.007812,110.899219 168.415234,111.012891 C168.961719,111.160937 169.598828,110.899219 170.116406,110.433594 C170.417578,110.164844 170.670312,109.825391 170.838281,109.455859 C170.987891,109.123828 171.063672,108.775781 171.038672,108.44375 C170.997266,107.907812 170.647266,107.344922 169.846094,106.870312 C169.070312,106.410156 168.253125,106.512891 167.655859,106.953125 C167.360156,107.171484 167.109375,107.463672 166.933984,107.808203 C166.75,108.167187 166.641797,108.583984 166.636328,109.031641 C166.630859,109.491797 166.732031,109.985937 166.960937,110.496484 L166.959375,110.496484 L166.959375,110.496875 Z" id="Shape" fill="#FF816F"></path>
                    <path d="M158.237891,114.612109 C158.237891,130.719922 150.182031,143.661719 138.270703,152.453516 L137.581641,173.762891 L136.289844,179.018359 L128.055469,179.391797 L133.251563,172.463672 L125.444922,159.73125 C111.738281,165.573437 95.6554687,167.121094 81.140625,163.446094 L78.4074219,173.111328 L76.240625,178.958594 L66.7144531,179.391406 L71.9105469,172.463281 L67.6382812,158.186719 C58.1425781,152.992578 50.1410156,144.895312 45.1542969,133.528516 C38.3234375,133.158594 32.0792969,132.985547 29.5296875,132.328906 C26.9804687,131.672266 28.0175781,131.055078 27.478125,129.469141 L39.8550781,125.263672 L26.4480469,124.879297 C25.3332031,117.534375 25.3511719,107.762891 25.9105469,104.591016 C26.4699219,101.421094 38.90625,101.942578 41.5691406,101.170312 C57.6046875,44.0117187 158.237891,47.7195312 158.237891,114.612109 L158.237891,114.612109 Z" id="Shape" fill="#FF5B61"></path>
                    <path d="M138.270703,152.453906 L137.581641,173.763281 L136.289844,179.01875 L128.055469,179.392188 L133.251563,172.464063 L125.444922,159.731641 C111.738281,165.573828 95.6554688,167.121484 81.140625,163.446484 L78.4074219,173.111719 L76.240625,178.958984 L66.7144531,179.391797 L71.9105469,172.463672 L67.6382813,158.187109 C58.1425781,152.992969 50.1410156,144.895703 45.1542969,133.528906 C77.8878906,180.182031 160.313281,163.467969 156.405469,99.8136719 C157.592578,104.345703 158.236719,109.276563 158.236719,114.613672 C158.236719,130.721484 150.180859,143.663281 138.269531,152.455078 L138.270703,152.453906 L138.270703,152.453906 Z" id="Shape" fill="#EC4B53"></path>
                    <path d="M47.2289063,67.4414062 L48.3457031,92.3628906 L70.7195313,91.6917969 C65.3609375,79.8996094 57.2042969,72.3054688 47.2269531,67.4433594 L47.2289063,67.4414062 L47.2289063,67.4414062 Z" id="Shape" fill="#FF5B61"></path>
                    <g id="Group" transform="translate(43.750000, 67.187500)" fill="#EC4B53">
                        <path d="M3.47890625,0.25390625 C3.47890625,0.25390625 7.62695313,5.740625 8.81757813,14.0757812 C10.0066406,22.4128906 4.59570313,25.1753906 4.59570313,25.1753906 L3.47890625,0.25390625 L3.47890625,0.25390625 Z" id="Shape"></path>
                        <path d="M7.83398437,28.0222656 C12.034375,28.0222656 15.4386719,31.4285156 15.4386719,35.6289062 C15.4386719,39.8292969 12.0324219,43.2335937 7.83398437,43.2335937 C3.63359375,43.2335937 0.22734375,39.8273437 0.22734375,35.6289062 C0.227734375,31.4285156 3.63398437,28.0222656 7.83398437,28.0222656 L7.83398437,28.0222656 Z" id="Shape"></path>
                    </g>
                    <path d="M51.5839844,95.9132813 C55.3945312,95.9132813 58.4851562,99.0039063 58.4851562,102.816016 C58.4851562,106.626563 55.3945312,109.717188 51.5839844,109.717188 C47.771875,109.717188 44.68125,106.626563 44.68125,102.816016 C44.68125,99.0054688 47.771875,95.9132813 51.5839844,95.9132813 L51.5839844,95.9132813 Z" id="Shape" fill="#FFFFFF"></path>
                    <path d="M52.1144531,96.9726562 C53.8015625,96.9726562 55.1691406,98.3402344 55.1691406,100.027344 C55.1691406,101.714453 53.8015625,103.082031 52.1144531,103.082031 C50.4273438,103.082031 49.0597656,101.714453 49.0597656,100.027344 C49.0597656,98.3402344 50.4277344,96.9726562 52.1144531,96.9726562 L52.1144531,96.9726562 Z" id="Shape" fill="#807D7D"></path>
                    <path d="M127.985156,71.8382813 L130.727734,77.115625 C115.1375,69.2132813 87.8039062,69.103125 73.3140625,75.8039063 L75.3960937,70.7613281 C90.3691406,64.1289063 113.012109,64.5222656 127.983203,71.8382813 L127.985156,71.8382813 L127.985156,71.8382813 Z" id="Shape" fill="#EC4B53"></path>
                    <path d="M74.1347656,43.3152344 C74.1347656,28.5207031 86.1292969,16.5261719 100.923828,16.5261719 C115.718359,16.5261719 127.7125,28.5207031 127.7125,43.3152344 C127.7125,58.1097656 115.719922,70.1042969 100.923828,70.1042969 C86.1292969,70.1042969 74.1347656,58.1097656 74.1347656,43.3152344 L74.1347656,43.3152344 Z" id="Shape" fill="#ECF0F1"></path>
                    <path d="M77.7414062,43.3152344 C77.7414062,30.5125 88.1191406,20.1347656 100.923828,20.1347656 C113.726562,20.1347656 124.104297,30.5125 124.104297,43.3152344 C124.104297,56.1179688 113.726562,66.4976563 100.923828,66.4976563 C88.1210937,66.4976563 77.7414062,56.1199219 77.7414062,43.3152344 L77.7414062,43.3152344 Z" id="Shape" fill="#FFFFFF"></path>
                    <g id="Group" transform="translate(99.609375, 25.781250)" fill="#807D7D">
                        <path d="M1.31445312,0.1703125 C2.0234375,0.1703125 2.60273437,0.749609375 2.60273437,1.45859375 L2.60273437,16.0925781 L0.024609375,16.0925781 L0.024609375,1.45859375 C0.024609375,0.749609375 0.60546875,0.1703125 1.31289062,0.1703125 L1.31445312,0.1703125 L1.31445312,0.1703125 Z" id="Shape"></path>
                        <path d="M15.8742187,18.0214844 C15.809375,18.9199219 15.0191406,19.6328125 14.1167969,19.6074219 L1.3125,19.2429687 L1.54882812,15.9773437 L14.353125,16.3417969 C15.2550781,16.3671875 15.9371094,17.1230469 15.8722656,18.0214844 L15.8742187,18.0214844 L15.8742187,18.0214844 Z" id="Shape"></path>
                    </g>
                    <polygon id="Shape" fill="#FF5B61" points="89.1152344 57.6949219 88.1121094 56.7839844 100.277734 43.4023438 101.280859 44.3132812"></polygon>
                    <path d="M100.923828,39.9398438 C102.789453,39.9398438 104.301172,41.4519531 104.301172,43.315625 C104.301172,45.18125 102.789062,46.6929688 100.923828,46.6929688 C99.0582031,46.6929688 97.5464844,45.1808594 97.5464844,43.315625 C97.5464844,41.4503906 99.0582031,39.9398438 100.923828,39.9398438 L100.923828,39.9398438 Z" id="Shape" fill="#EC4B53"></path>
                    <g id="Group" transform="translate(80.078125, 22.656250)" fill="#FF5B61">
                        <path d="M20.6851563,17.4132813 C22.3722656,17.4132813 23.7414063,18.7828125 23.7414063,20.4695313 C23.7414063,22.15625 22.371875,23.5257813 20.6851563,23.5257813 C18.9964844,23.5257813 17.6289062,22.1582031 17.6289062,20.4695313 C17.6289062,18.7828125 18.9964844,17.4132813 20.6851563,17.4132813 L20.6851563,17.4132813 Z" id="Shape"></path>
                        <polygon id="Shape" points="20.3351562 0.201171875 21.3546875 0.201171875 21.3546875 2.14960937 20.3351562 2.14960937"></polygon>
                        <polygon id="Shape" points="0.3859375 21.1679688 0.3859375 20.1484375 2.334375 20.1484375 2.334375 21.1679688"></polygon>
                        <polygon id="Shape" points="21.3542969 41.1171875 20.3347656 41.1171875 20.3347656 39.16875 21.3542969 39.16875"></polygon>
                        <polygon id="Shape" points="41.3035156 20.1503906 41.3035156 21.1699219 39.3550781 21.1699219 39.3550781 20.1503906"></polygon>
                    </g>
                    <g id="Group" transform="translate(81.640625, 23.828125)" fill="#807D7D">
                        <polygon id="Shape" points="12.8925781 0.440234375 13.2445313 0.3265625 13.6179687 1.47773438 13.2660156 1.59335938 12.8925781 0.4421875"></polygon>
                        <polygon id="Shape" points="7.31210937 3.346875 7.61171875 3.13046875 8.32421875 4.11015625 8.02460937 4.32851562 7.31367187 3.34882812"></polygon>
                        <polygon id="Shape" points="2.90273438 7.83945312 3.11914063 7.53984375 4.096875 8.25078125 3.88046875 8.55039062"></polygon>
                        <polygon id="Shape" points="0.097265625 13.471875 0.212890625 13.1199219 1.3640625 13.4933594 1.25039062 13.8453125 0.09921875 13.471875"></polygon>
                        <polygon id="Shape" points="0.2109375 25.9011719 0.097265625 25.5492188 1.2484375 25.1757812 1.36210937 25.5277344"></polygon>
                        <polygon id="Shape" points="3.12109375 31.4816406 2.9046875 31.1820313 3.88242188 30.4710938 4.09882813 30.7707031"></polygon>
                        <polygon id="Shape" points="7.60976562 35.8910156 7.31210937 35.6726562 8.02304687 34.6949219 8.32265625 34.9113281"></polygon>
                        <polygon id="Shape" points="13.2425781 38.6949219 12.8925781 38.58125 13.2660156 37.4300781 13.6179688 37.5457031 13.2445313 38.696875"></polygon>
                        <polygon id="Shape" points="25.6734375 38.58125 25.3214844 38.6949219 24.9480469 37.54375 25.3 37.4300781"></polygon>
                        <polygon id="Shape" points="31.2539062 35.6726562 30.9542969 35.8890625 30.2433594 34.909375 30.5429687 34.6929687 31.2554687 35.6726562"></polygon>
                        <polygon id="Shape" points="35.6617188 31.1820312 35.4453125 31.4816406 34.465625 30.7691406 34.6820313 30.4714844"></polygon>
                        <polygon id="Shape" points="38.4671875 25.5496094 38.3515625 25.9015625 37.2003906 25.528125 37.3140625 25.1761719 38.4652344 25.5496094"></polygon>
                        <polygon id="Shape" points="38.3535156 13.1203125 38.4671875 13.4722656 37.3160156 13.8457031 37.2023437 13.4957031 38.3535156 13.1222656"></polygon>
                        <polygon id="Shape" points="35.4453125 7.53984375 35.6617188 7.83945313 34.6839844 8.55039063 34.4675781 8.25078125 35.4453125 7.53828125"></polygon>
                        <polygon id="Shape" points="30.9546875 3.13046875 31.2542969 3.346875 30.5433594 4.3265625 30.24375 4.11015625 30.95625 3.13046875"></polygon>
                        <polygon id="Shape" points="25.321875 0.3265625 25.6738281 0.440234375 25.3003906 1.59140625 24.9484375 1.47773438"></polygon>
                    </g>
                </g>
            </g>
        </g>
    </g>
</svg>