<?xml version="1.0" encoding="UTF-8" standalone="no"?>
<svg width="50px" height="60px" viewBox="0 0 50 60" version="1.1" xmlns="http://www.w3.org/2000/svg" xmlns:xlink="http://www.w3.org/1999/xlink">
    <!-- Generator: Sketch 40 (33762) - http://www.bohemiancoding.com/sketch -->
    <title>coffee to go</title>
    <desc>Created with Sketch.</desc>
    <defs></defs>
    <g id="LandingPage" stroke="none" stroke-width="1" fill="none" fill-rule="evenodd">
        <g id="Page" transform="translate(-679.000000, -6188.000000)">
            <g id="coffee-to-go" transform="translate(679.000000, 6188.000000)">
                <g id="Group">
                    <polygon id="Shape" fill="#FFC107" points="3.57166667 15 6.66666667 36.6666667 43.3333333 36.6666667 46.4283333 15"></polygon>
                    <g transform="translate(0.000000, 8.333333)">
                        <path d="M50,6.66666667 L50,2.5 C50,1.12 48.88,0 47.5,0 L2.5,0 C1.12,0 0,1.12 0,2.5 L0,6.66666667 L50,6.66666667 L50,6.66666667 Z" id="Shape" fill="#795548"></path>
                        <polygon id="Shape" fill="#77574F" points="6.905 30 10 51.6666667 40 51.6666667 43.095 30"></polygon>
                        <ellipse id="Oval" fill="#77574F" cx="25" cy="28.3333333" rx="8.33333333" ry="8.33333333"></ellipse>
                    </g>
                    <g transform="translate(3.333333, 0.000000)" id="Shape" fill="#4E342E">
                        <path d="M15,36.6666667 C15,35.4466667 15.3516667,34.3183333 15.925,33.3333333 L2.85833333,33.3333333 L4.04833333,41.6666667 L17.3,41.6666667 C15.9016667,40.445 15,38.6683333 15,36.6666667 L15,36.6666667 Z"></path>
                        <path d="M27.4083333,33.3333333 C27.9816667,34.3183333 28.3333333,35.4466667 28.3333333,36.6666667 C28.3333333,38.6683333 27.4316667,40.445 26.0333333,41.6666667 L39.285,41.6666667 L40.475,33.3333333 L27.4083333,33.3333333 L27.4083333,33.3333333 Z"></path>
                        <polygon points="41.6666667 0 1.66666667 0 0 8.33333333 43.3333333 8.33333333"></polygon>
                    </g>
                    <path d="M25,25 C31.4433333,25 36.6666667,30.2233333 36.6666667,36.6666667 C36.6666667,43.11 31.4433333,48.3333333 25,48.3333333 C18.5566667,48.3333333 13.3333333,43.11 13.3333333,36.6666667 C13.3333333,30.2233333 18.5566667,25 25,25 L25,25 Z M25,23.3333333 C17.6483333,23.3333333 11.6666667,29.315 11.6666667,36.6666667 C11.6666667,44.0183333 17.6483333,50 25,50 C32.3516667,50 38.3333333,44.0183333 38.3333333,36.6666667 C38.3333333,29.315 32.3516667,23.3333333 25,23.3333333 L25,23.3333333 L25,23.3333333 Z" id="Shape" fill="#5D4037"></path>
                    <path d="M25,25 C18.5566667,25 13.3333333,30.2233333 13.3333333,36.6666667 C13.3333333,43.11 18.5566667,48.3333333 25,48.3333333 C31.4433333,48.3333333 36.6666667,43.11 36.6666667,36.6666667 C36.6666667,30.2233333 31.4433333,25 25,25 L25,25 Z M25,43.3333333 C21.3183333,43.3333333 18.3333333,40.3483333 18.3333333,36.6666667 C18.3333333,32.985 21.3183333,30 25,30 C28.6816667,30 31.6666667,32.985 31.6666667,36.6666667 C31.6666667,40.3483333 28.6816667,43.3333333 25,43.3333333 L25,43.3333333 Z" id="Shape" fill="#FFF3E0"></path>
                </g>
            </g>
        </g>
    </g>
</svg>