<?xml version="1.0" encoding="UTF-8" standalone="no"?>
<svg width="84px" height="60px" viewBox="0 0 84 60" version="1.1" xmlns="http://www.w3.org/2000/svg" xmlns:xlink="http://www.w3.org/1999/xlink">
    <!-- Generator: Sketch 40 (33762) - http://www.bohemiancoding.com/sketch -->
    <title>aquarium</title>
    <desc>Created with Sketch.</desc>
    <defs></defs>
    <g id="LandingPage" stroke="none" stroke-width="1" fill="none" fill-rule="evenodd">
        <g id="Page" transform="translate(-1158.000000, -6188.000000)">
            <g id="aquarium" transform="translate(1158.000000, 6188.000000)">
                <g id="Group">
                    <g id="Shape" fill="#BBDEFB">
                        <path d="M60.4166667,58.3333333 C60.4166667,59.255 59.4854167,60 58.3333333,60 L25,60 C23.85,60 22.9166667,59.255 22.9166667,58.3333333 L22.9166667,50 C22.9166667,49.0783333 23.85,48.3333333 25,48.3333333 L58.3333333,48.3333333 C59.4854167,48.3333333 60.4166667,49.0783333 60.4166667,50 L60.4166667,58.3333333 L60.4166667,58.3333333 Z"></path>
                        <path d="M68.61875,0 L14.7145833,0 C5.72291667,6.11333333 0,15.2133333 0,25.3966667 C0,43.8083333 18.6541667,58.73 41.6666667,58.73 C64.6791667,58.73 83.3333333,43.8083333 83.3333333,25.3966667 C83.3333333,15.2133333 77.6125,6.11333333 68.61875,0 L68.61875,0 Z"></path>
                    </g>
                    <path d="M75.1375,11.9766667 C66.3729167,16.3566667 54.0291667,17.1316667 43.75,16.6666667 C31.7916667,16.125 24.6666667,11.84 12.6166667,11.3016667 C11.2479167,11.24 9.90833333,11.2783333 8.58125,11.36 C5.73541667,15.6383333 4.16666667,20.4366667 4.16666667,25.3966667 C4.16666667,41.94 20.9895833,55.3966667 41.6666667,55.3966667 C62.3458333,55.3966667 79.1666667,41.94 79.1666667,25.3966667 C79.1666667,20.67 77.73125,16.0966667 75.1375,11.9766667 L75.1375,11.9766667 Z" id="Shape" fill="#1E88E5"></path>
                    <g transform="translate(15.583333, 30.000000)" id="Shape" fill="#FFEB3B">
                        <path d="M20.6458333,0 C13.3541667,0 7.68125,4.53666667 7.68125,4.53666667 L5.25,5.83666667 L7.68125,7.22666667 C10.9416667,9.08666667 14.9875,11.6666667 20.6458333,11.6666667 C26.3166667,11.6666667 34.4166667,7.12833333 34.4166667,5.18666667 C34.4166667,3.24 26.3145833,0 20.6458333,0 L20.6458333,0 Z"></path>
                        <path d="M0.952083333,0 C1.86458333,0.73 2.775,4.135 2.775,5.83333333 C2.775,7.52 1.8625,10.9383333 0.952083333,11.6666667 C3.6875,10.9366667 6.60416667,8.555 7.30416667,7.38666667 C7.31458333,7.39166667 8.375,5.83666667 8.375,5.83666667 L7.33333333,4.375 C7.33333333,4.375 5.51041667,1.45833333 0.952083333,0 L0.952083333,0 Z"></path>
                    </g>
                    <ellipse id="Oval" fill="#37474F" cx="42.7875" cy="33.72" rx="1.60416667" ry="1.28333333"></ellipse>
                    <ellipse id="Oval" fill="#90CAF9" cx="60.4166667" cy="23.3366667" rx="4.16666667" ry="3.33333333"></ellipse>
                    <g transform="translate(45.833333, 20.000000)" id="Oval" fill="#64B5F6">
                        <ellipse cx="10.4166667" cy="10.0033333" rx="2.08333333" ry="1.66666667"></ellipse>
                        <ellipse cx="3.125" cy="2.5" rx="3.125" ry="2.5"></ellipse>
                    </g>
                </g>
            </g>
        </g>
    </g>
</svg>