<?xml version="1.0" encoding="UTF-8" standalone="no"?>
<svg width="40px" height="40px" viewBox="0 0 40 40" version="1.1" xmlns="http://www.w3.org/2000/svg" xmlns:xlink="http://www.w3.org/1999/xlink">
    <!-- Generator: Sketch 40 (33762) - http://www.bohemiancoding.com/sketch -->
    <title>book.1</title>
    <desc>Created with Sketch.</desc>
    <defs></defs>
    <g id="LandingPage" stroke="none" stroke-width="1" fill="none" fill-rule="evenodd">
        <g id="Деловой-английский" transform="translate(-687.000000, -733.000000)">
            <g id="Group-3-Copy" transform="translate(333.000000, 732.000000)">
                <g id="book.1" transform="translate(354.000000, 1.000000)">
                    <g id="Layer_1">
                        <path d="M20.0000781,40 C31.015625,40 40,31.0157031 40,20.0000781 C40,8.984375 31.015625,0 20.0000781,0 C8.98445312,0 0,8.984375 0,20.0000781 C0,31.0157031 8.98445312,40 20.0000781,40 L20.0000781,40 Z" id="Shape" fill="#FFCA4F"></path>
                        <path d="M11.4411719,7.8375 L31.3761719,7.8375 L35.8996875,28.4432812 L34.2429687,28.4521875 L34.2032812,35.7272656 L35.9107812,35.7361719 L35.8996094,36.951875 L8.951875,36.951875 C6.40140625,36.7476562 6.62890625,32.0695312 6.4925,30.8173437 L8.76296875,9.87046875 C8.77171875,8.93960937 9.7103125,7.8375 11.4411719,7.8375 L11.4411719,7.8375 L11.4411719,7.8375 Z" id="Shape" fill="#20D0C2"></path>
                        <path d="M11.4411719,7.8375 L13.3503906,7.8375 L11.6126563,36.951875 L8.63273438,36.8661719 C6.14085938,36.7682812 5.76867188,30.81125 6.60046875,28.6514844 L8.76304688,9.87039062 C8.77179688,8.93960937 9.71046875,7.8375 11.4411719,7.8375 L11.4411719,7.8375 L11.4411719,7.8375 Z" id="Shape" fill="#FF5B61"></path>
                        <path d="M9.29890625,28.4410156 L35.3830469,28.4410156 C34.1994531,30.9364844 34.2301563,33.3975 35.3830469,35.8258594 L9.29890625,35.8258594 C6.50085938,35.8259375 6.50125,28.4410156 9.29890625,28.4410156 L9.29890625,28.4410156 Z" id="Shape" fill="#FFFFFF"></path>
                        <path d="M7.40226562,30.4711719 L34.6849219,30.4711719 C34.6689844,30.5450781 34.6542969,30.6190625 34.6405469,30.6928125 L7.34984375,30.6928125 C7.36617187,30.6180469 7.38335937,30.5439063 7.40226562,30.4711719 L7.40226562,30.4711719 L7.40226562,30.4711719 Z M34.5572656,31.2480469 L34.5572656,31.2480469 C34.5486719,31.3219531 34.5413281,31.3958594 34.5350781,31.4696875 L7.23085938,31.4696875 C7.23757813,31.3953906 7.24601563,31.3214063 7.25539063,31.2480469 L34.5572656,31.2480469 L34.5572656,31.2480469 Z M34.5077344,32.0249219 L34.5077344,32.0249219 C34.5066406,32.0988281 34.5066406,32.1726563 34.5077344,32.2465625 L7.201875,32.2465625 C7.20078125,32.1726563 7.20078125,32.0988281 7.201875,32.0249219 L34.5077344,32.0249219 L34.5077344,32.0249219 Z M34.5354688,32.8016406 L34.5354688,32.8016406 C34.5419531,32.8757813 34.5492188,32.9495313 34.5576563,33.0233594 L7.25578125,33.0233594 C7.24648438,32.9498438 7.23828125,32.8758594 7.23148438,32.8016406 L34.5354688,32.8016406 L34.5354688,32.8016406 Z M34.6410156,33.5785156 L34.6410156,33.5785156 C34.6546094,33.6522656 34.6694531,33.72625 34.6853906,33.8001563 L7.40335937,33.8001563 C7.38414062,33.7271875 7.36695312,33.6532813 7.35070312,33.5785156 L34.6410156,33.5785156 L34.6410156,33.5785156 Z M34.8240625,34.3551563 L34.8240625,34.3551563 C34.8450781,34.4290625 34.8672656,34.5030469 34.8905469,34.5767969 L7.67921875,34.5767969 C7.64578125,34.5052344 7.61375,34.4310938 7.58390625,34.3551563 L34.8240625,34.3551563 L34.8240625,34.3551563 L34.8240625,34.3551563 Z M35.0846094,35.1320313 L35.0846094,35.1320313 C35.1132031,35.2059375 35.1428125,35.2799219 35.1733594,35.3536719 L8.205,35.3536719 C8.136875,35.2860156 8.07226562,35.2117969 8.0109375,35.1320313 L35.0846094,35.1320313 L35.0846094,35.1320313 Z" id="Shape" fill="#ECF0F1"></path>
                        <polygon id="Shape" fill="#FF5B61" points="10.4733594 32.2624219 14.5494531 32.2624219 14.5494531 40 12.4944531 37.4757812 10.4733594 40 10.4733594 32.2624219"></polygon>
                        <path d="M12.0282031,29.989375 L33.0367188,29.989375 L34.2346094,29.989375 L34.8025,29.989375 C34.9438281,29.4763281 35.1361719,28.9621875 35.3807031,28.4461719 C35.3813281,28.4445312 35.3822656,28.4427344 35.3832031,28.4410937 L33.51875,28.4410937 L12.1207031,28.4410937 L9.29875,28.4410937 C6.70976563,28.4410937 6.51632813,34.7650781 8.71929688,35.7088281 C7.97328125,33.5307812 8.56921875,29.989375 10.5066406,29.989375 L12.0282031,29.989375 L12.0282031,29.989375 L12.0282031,29.989375 Z" id="Shape" fill="#DFE1E3"></path>
                        <g id="Group" transform="translate(19.531250, 23.984375)" fill="#ECF0F1">
                            <polygon id="Shape" points="0.018203125 0.60890625 7.8759375 0.60890625 7.8759375 0.045390625 0.018203125 0.045390625"></polygon>
                            <polygon id="Shape" points="0.650703125 1.75265625 7.24359375 1.75265625 7.24359375 1.25265625 0.650703125 1.25265625"></polygon>
                        </g>
                        <path d="M20.0405836,13.5045936 C20.0129416,13.583746 19.9844762,13.6587747 19.9551827,13.729682 C19.9257964,13.8005893 19.8958252,13.8657241 19.8652703,13.9250883 L18.0218824,17.4572438 L20.923463,17.4572438 L20.0978903,13.9201413 C20.0737208,13.8047108 20.0545893,13.6661963 20.0405836,13.5045936 Z M21.7260902,19.9628975 C21.6980712,19.9381624 21.6771689,19.9060073 21.6633798,19.8664311 L21.0309491,17.8332155 L17.8075713,17.8332155 L16.602241,19.8664311 C16.5813723,19.9027093 16.5516584,19.9340399 16.513081,19.960424 C16.4744548,19.9868081 16.4320379,20 16.3858657,20 L16,20 L19.9178866,13 L20.3150006,13 L22.2282686,20 L21.8374558,20 C21.7912836,20 21.7541516,19.9876326 21.7260902,19.9628975 Z M25.2301154,17.264311 L23.1115567,17.264311 L23.1228252,16.8636042 L25.2144659,16.8636042 L25.2301154,17.264311 Z M26.8942449,19.5795053 L31.3173299,19.5795053 L31.406596,20 L26.2518257,20 L26.2400161,19.8169611 C26.2376736,19.780683 26.2413268,19.7485278 26.2509619,19.7204947 C26.2605781,19.6924616 26.2726792,19.6652534 26.2872609,19.6388693 L29.4604977,13.4204947 L25.9216578,13.4204947 L25.8916336,13 L29.9138867,13 L29.9525476,13.1731449 C29.9665282,13.2358071 29.9630474,13.3034154 29.941953,13.3759717 L26.8942449,19.5795053 Z" id="A-Z" fill="#FFFFFF"></path>
                    </g>
                    <g id="Layer_1" opacity="0.5" fill="#000000">
                        <path d="M20.0000781,40 C31.015625,40 40,31.0157031 40,20.0000781 C40,8.984375 31.015625,0 20.0000781,0 C8.98445312,0 0,8.984375 0,20.0000781 C0,31.0157031 8.98445312,40 20.0000781,40 L20.0000781,40 Z" id="Shape"></path>
                        <path d="M11.4411719,7.8375 L31.3761719,7.8375 L35.8996875,28.4432812 L34.2429688,28.4521875 L34.2032813,35.7272656 L35.9107813,35.7361719 L35.8996094,36.951875 L8.951875,36.951875 C6.40140625,36.7476562 6.62890625,32.0695312 6.4925,30.8173437 L8.76296875,9.87046875 C8.77171875,8.93960937 9.7103125,7.8375 11.4411719,7.8375 L11.4411719,7.8375 L11.4411719,7.8375 Z" id="Shape"></path>
                        <path d="M11.4411719,7.8375 L13.3503906,7.8375 L11.6126562,36.951875 L8.63273437,36.8661719 C6.14085937,36.7682812 5.76867187,30.81125 6.60046875,28.6514844 L8.76304687,9.87039062 C8.77179687,8.93960937 9.71046875,7.8375 11.4411719,7.8375 L11.4411719,7.8375 L11.4411719,7.8375 Z" id="Shape"></path>
                        <path d="M9.29890625,28.4410156 L35.3830469,28.4410156 C34.1994531,30.9364844 34.2301562,33.3975 35.3830469,35.8258594 L9.29890625,35.8258594 C6.50085937,35.8259375 6.50125,28.4410156 9.29890625,28.4410156 L9.29890625,28.4410156 Z" id="Shape"></path>
                        <path d="M7.40226562,30.4711719 L34.6849219,30.4711719 C34.6689844,30.5450781 34.6542969,30.6190625 34.6405469,30.6928125 L7.34984375,30.6928125 C7.36617187,30.6180469 7.38335937,30.5439063 7.40226562,30.4711719 L7.40226562,30.4711719 L7.40226562,30.4711719 Z M34.5572656,31.2480469 L34.5572656,31.2480469 C34.5486719,31.3219531 34.5413281,31.3958594 34.5350781,31.4696875 L7.23085937,31.4696875 C7.23757812,31.3953906 7.24601562,31.3214063 7.25539062,31.2480469 L34.5572656,31.2480469 L34.5572656,31.2480469 Z M34.5077344,32.0249219 L34.5077344,32.0249219 C34.5066406,32.0988281 34.5066406,32.1726563 34.5077344,32.2465625 L7.201875,32.2465625 C7.20078125,32.1726563 7.20078125,32.0988281 7.201875,32.0249219 L34.5077344,32.0249219 L34.5077344,32.0249219 Z M34.5354687,32.8016406 L34.5354687,32.8016406 C34.5419531,32.8757813 34.5492187,32.9495313 34.5576562,33.0233594 L7.25578125,33.0233594 C7.24648437,32.9498438 7.23828125,32.8758594 7.23148437,32.8016406 L34.5354687,32.8016406 L34.5354687,32.8016406 Z M34.6410156,33.5785156 L34.6410156,33.5785156 C34.6546094,33.6522656 34.6694531,33.72625 34.6853906,33.8001563 L7.40335937,33.8001563 C7.38414062,33.7271875 7.36695312,33.6532813 7.35070312,33.5785156 L34.6410156,33.5785156 L34.6410156,33.5785156 Z M34.8240625,34.3551563 L34.8240625,34.3551563 C34.8450781,34.4290625 34.8672656,34.5030469 34.8905469,34.5767969 L7.67921875,34.5767969 C7.64578125,34.5052344 7.61375,34.4310938 7.58390625,34.3551563 L34.8240625,34.3551563 L34.8240625,34.3551563 L34.8240625,34.3551563 Z M35.0846094,35.1320313 L35.0846094,35.1320313 C35.1132031,35.2059375 35.1428125,35.2799219 35.1733594,35.3536719 L8.205,35.3536719 C8.136875,35.2860156 8.07226562,35.2117969 8.0109375,35.1320313 L35.0846094,35.1320313 L35.0846094,35.1320313 Z" id="Shape"></path>
                        <polygon id="Shape" points="10.4733594 32.2624219 14.5494531 32.2624219 14.5494531 40 12.4944531 37.4757812 10.4733594 40 10.4733594 32.2624219"></polygon>
                        <path d="M12.0282031,29.989375 L33.0367188,29.989375 L34.2346094,29.989375 L34.8025,29.989375 C34.9438281,29.4763281 35.1361719,28.9621875 35.3807031,28.4461719 C35.3813281,28.4445312 35.3822656,28.4427344 35.3832031,28.4410937 L33.51875,28.4410937 L12.1207031,28.4410937 L9.29875,28.4410937 C6.70976563,28.4410937 6.51632813,34.7650781 8.71929688,35.7088281 C7.97328125,33.5307812 8.56921875,29.989375 10.5066406,29.989375 L12.0282031,29.989375 L12.0282031,29.989375 L12.0282031,29.989375 Z" id="Shape"></path>
                        <path d="M20.0405836,13.5045936 C20.0129416,13.583746 19.9844762,13.6587747 19.9551827,13.729682 C19.9257964,13.8005893 19.8958252,13.8657241 19.8652703,13.9250883 L18.0218824,17.4572438 L20.923463,17.4572438 L20.0978903,13.9201413 C20.0737208,13.8047108 20.0545893,13.6661963 20.0405836,13.5045936 Z M21.7260902,19.9628975 C21.6980712,19.9381624 21.6771689,19.9060073 21.6633798,19.8664311 L21.0309491,17.8332155 L17.8075713,17.8332155 L16.602241,19.8664311 C16.5813723,19.9027093 16.5516584,19.9340399 16.513081,19.960424 C16.4744548,19.9868081 16.4320379,20 16.3858657,20 L16,20 L19.9178866,13 L20.3150006,13 L22.2282686,20 L21.8374558,20 C21.7912836,20 21.7541516,19.9876326 21.7260902,19.9628975 Z M25.2301154,17.264311 L23.1115567,17.264311 L23.1228252,16.8636042 L25.2144659,16.8636042 L25.2301154,17.264311 Z M26.8942449,19.5795053 L31.3173299,19.5795053 L31.406596,20 L26.2518257,20 L26.2400161,19.8169611 C26.2376736,19.780683 26.2413268,19.7485278 26.2509619,19.7204947 C26.2605781,19.6924616 26.2726792,19.6652534 26.2872609,19.6388693 L29.4604977,13.4204947 L25.9216578,13.4204947 L25.8916336,13 L29.9138867,13 L29.9525476,13.1731449 C29.9665282,13.2358071 29.9630474,13.3034154 29.941953,13.3759717 L26.8942449,19.5795053 Z" id="A-Z"></path>
                    </g>
                </g>
            </g>
        </g>
    </g>
</svg>