<?xml version="1.0" encoding="UTF-8" standalone="no"?>
<svg width="40px" height="40px" viewBox="0 0 40 40" version="1.1" xmlns="http://www.w3.org/2000/svg" xmlns:xlink="http://www.w3.org/1999/xlink">
    <!-- Generator: Sketch 40 (33762) - http://www.bohemiancoding.com/sketch -->
    <title>Layer_1</title>
    <desc>Created with Sketch.</desc>
    <defs></defs>
    <g id="LandingPage" stroke="none" stroke-width="1" fill="none" fill-rule="evenodd">
        <g id="Развитие-разговорных-навыков" transform="translate(-477.000000, -732.000000)">
            <g id="Group-3-Copy" transform="translate(333.000000, 732.000000)">
                <g id="book.1-copy-2" transform="translate(144.000000, 0.000000)">
                    <g id="Layer_1">
                        <path d="M20.0000781,40 C31.015625,40 40,31.0157031 40,20.0000781 C40,8.984375 31.015625,0 20.0000781,0 C8.98445312,0 0,8.984375 0,20.0000781 C0,31.0157031 8.98445312,40 20.0000781,40 L20.0000781,40 Z" id="Shape" fill="#FFCA4F"></path>
                        <g id="Group-7" transform="translate(5.000000, 12.000000)">
                            <path d="M18.1347043,13.984142 C18.1347043,13.984142 13.1979032,14.8255253 10.2962,11.0729257 C7.72593908,7.74824092 8.27482437,0.443299776 18.4851464,0.0183737809 C25.6407107,-0.28002091 29.6871564,3.0880033 28.9013004,7.79506746 C28.0568615,12.8518363 21.3404055,13.3913378 21.3404055,13.3913378 C21.3404055,13.3913378 20.1006636,16.4873696 22.4793425,18.5053944 C22.4793425,18.5053944 19.1976417,17.2241404 18.1347043,13.984142 Z" id="Shape-Copy-7" fill="#5BD0C4"></path>
                            <path d="M8.08930454,19.1800784 C8.08930454,19.1800784 9.73015491,18.5145436 10.3365676,16.6942862 C10.3365676,16.6942862 15.5193114,17.4385294 17.917518,13.6585312 C20.3531965,9.81925261 18.8632896,3.08619311 9.67421083,3.00100865 C2.53553535,2.93276145 -1.22274559,6.33316572 0.357410726,11.5777388 C1.53962521,15.5031982 7.95261099,16.4486959 7.95261099,16.4486959 C7.95261099,16.4486959 8.91685468,17.7458909 8.08930454,19.1800784 L8.08930454,19.1800784 Z" id="Shape-Copy-8" fill="#F44C52"></path>
                            <polygon id="Shape-Copy-9" fill="#FFFFFF" points="6 9.90514717 6 9 6.85393885 9 6.85393885 9.90514717"></polygon>
                            <polygon id="Shape-Copy-10" fill="#FFFFFF" points="9 9.90514717 9 9 9.85393885 9 9.85393885 9.90514717"></polygon>
                            <polygon id="Shape-Copy-11" fill="#FFFFFF" points="11 9 11.8539389 9 11.8539389 9.90514717 11 9.90514717"></polygon>
                            <polygon id="Shape-Copy-13" fill="#FFFFFF" points="21 9.90464901 21 9 21.8523555 9 21.8523555 9.90514717 21 9.90514717"></polygon>
                            <polygon id="Shape-Copy-14" fill="#FFFFFF" points="24 9.90464901 24 9 24.8539389 9 24.8539389 9.90514717 24 9.90514717"></polygon>
                        </g>
                    </g>
                </g>
            </g>
        </g>
    </g>
</svg>