<?xml version="1.0" encoding="UTF-8" standalone="no"?>
<svg width="40px" height="40px" viewBox="0 0 40 40" version="1.1" xmlns="http://www.w3.org/2000/svg" xmlns:xlink="http://www.w3.org/1999/xlink">
    <!-- Generator: Sketch 40 (33762) - http://www.bohemiancoding.com/sketch -->
    <title>book.1 copy</title>
    <desc>Created with Sketch.</desc>
    <defs></defs>
    <g id="LandingPage" stroke="none" stroke-width="1" fill="none" fill-rule="evenodd">
        <g id="Деловой-английский" transform="translate(-547.000000, -732.000000)">
            <g id="Group-3-Copy" transform="translate(333.000000, 732.000000)">
                <g id="book.1-copy" transform="translate(214.000000, 0.000000)">
                    <g id="Layer_1">
                        <path d="M20.0000781,40 C31.015625,40 40,31.0157031 40,20.0000781 C40,8.984375 31.015625,0 20.0000781,0 C8.98445312,0 0,8.984375 0,20.0000781 C0,31.0157031 8.98445312,40 20.0000781,40 L20.0000781,40 Z" id="Shape" fill="#FFCA4F"></path>
                        <g id="airplane-front-view" transform="translate(3.000000, 8.000000)">
                            <g id="Group">
                                <path d="M24.7916667,9.5 L10.2083333,9.5 L24.7916667,9.5 Z M17.5,0 L16.7708333,9.5 L18.2291667,9.5 L17.5,0 L17.5,0 Z" id="Shape" stroke="#15BDB1" stroke-width="2"></path>
                                <path d="M13.125,13.8846154 L13.125,15.3461538 C13.125,15.5653846 13.0520833,15.7115385 12.90625,15.8576923 C12.7604167,16.0038462 12.6145833,16.0769231 12.3958333,16.0769231 L12.3958333,16.0769231 C12.1770833,16.0769231 6.19791667,15.8576923 0.4375,13.0807692 C0.0729166667,12.9346154 -0.0729166667,12.5692308 0.0729166667,12.2038462 C0.21875,11.8384615 0.510416667,11.6192308 0.875,11.6923077 C0.947916667,11.6923077 8.38541667,13.1538462 12.3958333,13.1538462 C12.8333333,13.1538462 13.125,13.4461538 13.125,13.8846154 L13.125,13.8846154 Z M34.9270833,12.2038462 C34.78125,11.8384615 34.4895833,11.6192308 34.125,11.6923077 C34.0520833,11.6923077 26.6145833,13.1538462 22.6041667,13.1538462 C22.1666667,13.1538462 21.875,13.4461538 21.875,13.8846154 L21.875,15.3461538 C21.875,15.5653846 21.9479167,15.7115385 22.09375,15.8576923 C22.2395833,16.0038462 22.3854167,16.0769231 22.6041667,16.0769231 L22.6041667,16.0769231 C22.8229167,16.0769231 28.8020833,15.8576923 34.5625,13.0807692 C34.9270833,12.9346154 35.0729167,12.5692308 34.9270833,12.2038462 L34.9270833,12.2038462 Z" id="Shape" fill="#15BDB1"></path>
                                <path d="M19.6875,18.2692308 L15.3125,18.2692308 C13.7083333,18.2692308 12.3958333,16.9538462 12.3958333,15.3461538 L12.3958333,13.1538462 C12.3958333,11.9846154 13.4166667,10.9615385 14.5833333,10.9615385 L20.4166667,10.9615385 C21.5833333,10.9615385 22.6041667,11.9846154 22.6041667,13.1538462 L22.6041667,15.3461538 C22.6041667,16.9538462 21.2916667,18.2692308 19.6875,18.2692308 L19.6875,18.2692308 Z" id="Shape" fill="#15BDB1"></path>
                                <path d="M9.47916667,16.4423077 C9.47916667,17.8307692 8.3125,19 6.92708333,19 C5.54166667,19 4.375,17.8307692 4.375,16.4423077 C4.375,15.0538462 5.54166667,13.8846154 6.92708333,13.8846154 C8.3125,13.8846154 9.47916667,15.0538462 9.47916667,16.4423077 L9.47916667,16.4423077 Z M17.5,8.03846154 C14.65625,8.03846154 12.3958333,10.3038462 12.3958333,13.1538462 C12.3958333,16.0038462 16.2604167,18.2692308 17.5,18.2692308 C18.7395833,18.2692308 22.6041667,16.0038462 22.6041667,13.1538462 C22.6041667,10.3038462 20.34375,8.03846154 17.5,8.03846154 L17.5,8.03846154 Z M25.5208333,16.4423077 C25.5208333,17.8307692 26.6875,19 28.0729167,19 C29.4583333,19 30.625,17.8307692 30.625,16.4423077 C30.625,15.0538462 29.4583333,13.8846154 28.0729167,13.8846154 C26.6875,13.8846154 25.5208333,15.0538462 25.5208333,16.4423077 L25.5208333,16.4423077 Z" id="Shape" fill="#20D0C2"></path>
                                <path d="M28.0729167,14.6153846 C29.09375,14.6153846 29.8958333,15.4192308 29.8958333,16.4423077 C29.8958333,17.4653846 29.09375,18.2692308 28.0729167,18.2692308 C27.0520833,18.2692308 26.25,17.4653846 26.25,16.4423077 C26.25,15.4192308 27.0520833,14.6153846 28.0729167,14.6153846 L28.0729167,14.6153846 Z M6.92708333,14.6153846 C5.90625,14.6153846 5.10416667,15.4192308 5.10416667,16.4423077 C5.10416667,17.4653846 5.90625,18.2692308 6.92708333,18.2692308 C7.94791667,18.2692308 8.75,17.4653846 8.75,16.4423077 C8.75,15.4192308 7.94791667,14.6153846 6.92708333,14.6153846 L6.92708333,14.6153846 Z" id="Shape" fill="#1B6D7A"></path>
                                <path d="M18.2291667,10.2307692 L19.46875,10.2307692 C20.0520833,10.2307692 20.5625,10.5230769 20.8541667,11.1076923 L21.1458333,11.6923077 L18.2291667,11.6923077 L18.2291667,10.2307692 L18.2291667,10.2307692 Z M16.7708333,10.2307692 L15.53125,10.2307692 C14.9479167,10.2307692 14.4375,10.5230769 14.1458333,11.1076923 L13.8541667,11.6923077 L16.7708333,11.6923077 L16.7708333,10.2307692 L16.7708333,10.2307692 Z" id="Shape" fill="#37474F"></path>
                                <path d="M22.53125,12.5692308 C21.21875,13.3 18.9583333,14.6153846 17.5,14.6153846 C16.0416667,14.6153846 13.78125,13.3 12.46875,12.5692308 C12.46875,12.7884615 12.3958333,13.0076923 12.3958333,13.1538462 C12.3958333,16.0038462 15.6041667,18.2692308 17.5,18.2692308 C19.3958333,18.2692308 22.6041667,16.0038462 22.6041667,13.1538462 C22.6041667,12.9346154 22.6041667,12.7153846 22.53125,12.5692308 L22.53125,12.5692308 Z" id="Shape" fill="#1B6D7A"></path>
                            </g>
                        </g>
                    </g>
                    <g id="Layer_1" opacity="0.5">
                        <path d="M20.0000781,40 C31.015625,40 40,31.0157031 40,20.0000781 C40,8.984375 31.015625,0 20.0000781,0 C8.98445312,0 0,8.984375 0,20.0000781 C0,31.0157031 8.98445312,40 20.0000781,40 L20.0000781,40 Z" id="Shape" fill="#000000"></path>
                        <g id="airplane-front-view" transform="translate(3.000000, 8.000000)">
                            <g id="Group">
                                <path d="M24.7916667,9.5 L10.2083333,9.5 L24.7916667,9.5 Z M17.5,0 L16.7708333,9.5 L18.2291667,9.5 L17.5,0 L17.5,0 Z" id="Shape" stroke="#000000" stroke-width="2"></path>
                                <path d="M13.125,13.8846154 L13.125,15.3461538 C13.125,15.5653846 13.0520833,15.7115385 12.90625,15.8576923 C12.7604167,16.0038462 12.6145833,16.0769231 12.3958333,16.0769231 L12.3958333,16.0769231 C12.1770833,16.0769231 6.19791667,15.8576923 0.4375,13.0807692 C0.0729166667,12.9346154 -0.0729166667,12.5692308 0.0729166667,12.2038462 C0.21875,11.8384615 0.510416667,11.6192308 0.875,11.6923077 C0.947916667,11.6923077 8.38541667,13.1538462 12.3958333,13.1538462 C12.8333333,13.1538462 13.125,13.4461538 13.125,13.8846154 L13.125,13.8846154 Z M34.9270833,12.2038462 C34.78125,11.8384615 34.4895833,11.6192308 34.125,11.6923077 C34.0520833,11.6923077 26.6145833,13.1538462 22.6041667,13.1538462 C22.1666667,13.1538462 21.875,13.4461538 21.875,13.8846154 L21.875,15.3461538 C21.875,15.5653846 21.9479167,15.7115385 22.09375,15.8576923 C22.2395833,16.0038462 22.3854167,16.0769231 22.6041667,16.0769231 L22.6041667,16.0769231 C22.8229167,16.0769231 28.8020833,15.8576923 34.5625,13.0807692 C34.9270833,12.9346154 35.0729167,12.5692308 34.9270833,12.2038462 L34.9270833,12.2038462 Z" id="Shape" fill="#000000"></path>
                                <path d="M19.6875,18.2692308 L15.3125,18.2692308 C13.7083333,18.2692308 12.3958333,16.9538462 12.3958333,15.3461538 L12.3958333,13.1538462 C12.3958333,11.9846154 13.4166667,10.9615385 14.5833333,10.9615385 L20.4166667,10.9615385 C21.5833333,10.9615385 22.6041667,11.9846154 22.6041667,13.1538462 L22.6041667,15.3461538 C22.6041667,16.9538462 21.2916667,18.2692308 19.6875,18.2692308 L19.6875,18.2692308 Z" id="Shape" fill="#000000"></path>
                                <path d="M9.47916667,16.4423077 C9.47916667,17.8307692 8.3125,19 6.92708333,19 C5.54166667,19 4.375,17.8307692 4.375,16.4423077 C4.375,15.0538462 5.54166667,13.8846154 6.92708333,13.8846154 C8.3125,13.8846154 9.47916667,15.0538462 9.47916667,16.4423077 L9.47916667,16.4423077 Z M17.5,8.03846154 C14.65625,8.03846154 12.3958333,10.3038462 12.3958333,13.1538462 C12.3958333,16.0038462 16.2604167,18.2692308 17.5,18.2692308 C18.7395833,18.2692308 22.6041667,16.0038462 22.6041667,13.1538462 C22.6041667,10.3038462 20.34375,8.03846154 17.5,8.03846154 L17.5,8.03846154 Z M25.5208333,16.4423077 C25.5208333,17.8307692 26.6875,19 28.0729167,19 C29.4583333,19 30.625,17.8307692 30.625,16.4423077 C30.625,15.0538462 29.4583333,13.8846154 28.0729167,13.8846154 C26.6875,13.8846154 25.5208333,15.0538462 25.5208333,16.4423077 L25.5208333,16.4423077 Z" id="Shape" fill="#000000"></path>
                                <path d="M28.0729167,14.6153846 C29.09375,14.6153846 29.8958333,15.4192308 29.8958333,16.4423077 C29.8958333,17.4653846 29.09375,18.2692308 28.0729167,18.2692308 C27.0520833,18.2692308 26.25,17.4653846 26.25,16.4423077 C26.25,15.4192308 27.0520833,14.6153846 28.0729167,14.6153846 L28.0729167,14.6153846 Z M6.92708333,14.6153846 C5.90625,14.6153846 5.10416667,15.4192308 5.10416667,16.4423077 C5.10416667,17.4653846 5.90625,18.2692308 6.92708333,18.2692308 C7.94791667,18.2692308 8.75,17.4653846 8.75,16.4423077 C8.75,15.4192308 7.94791667,14.6153846 6.92708333,14.6153846 L6.92708333,14.6153846 Z" id="Shape" fill="#000000"></path>
                                <path d="M18.2291667,10.2307692 L19.46875,10.2307692 C20.0520833,10.2307692 20.5625,10.5230769 20.8541667,11.1076923 L21.1458333,11.6923077 L18.2291667,11.6923077 L18.2291667,10.2307692 L18.2291667,10.2307692 Z M16.7708333,10.2307692 L15.53125,10.2307692 C14.9479167,10.2307692 14.4375,10.5230769 14.1458333,11.1076923 L13.8541667,11.6923077 L16.7708333,11.6923077 L16.7708333,10.2307692 L16.7708333,10.2307692 Z" id="Shape" fill="#000000"></path>
                                <path d="M22.53125,12.5692308 C21.21875,13.3 18.9583333,14.6153846 17.5,14.6153846 C16.0416667,14.6153846 13.78125,13.3 12.46875,12.5692308 C12.46875,12.7884615 12.3958333,13.0076923 12.3958333,13.1538462 C12.3958333,16.0038462 15.6041667,18.2692308 17.5,18.2692308 C19.3958333,18.2692308 22.6041667,16.0038462 22.6041667,13.1538462 C22.6041667,12.9346154 22.6041667,12.7153846 22.53125,12.5692308 L22.53125,12.5692308 Z" id="Shape" fill="#000000"></path>
                            </g>
                        </g>
                    </g>
                </g>
            </g>
        </g>
    </g>
</svg>