<?xml version="1.0" encoding="UTF-8" standalone="no"?>
<svg width="40px" height="40px" viewBox="0 0 40 40" version="1.1" xmlns="http://www.w3.org/2000/svg" xmlns:xlink="http://www.w3.org/1999/xlink">
    <!-- Generator: Sketch 40 (33762) - http://www.bohemiancoding.com/sketch -->
    <title>book.1 copy 3</title>
    <desc>Created with Sketch.</desc>
    <defs>
        <path d="M14,0 C6.26788235,0 0,6.26788235 0,14 C0,21.7321176 6.26788235,28 14,28 C21.7321176,28 28,21.7321176 28,14 C28,6.26788235 21.7321176,0 14,0 L14,0 Z M14,21.4117647 C9.90623529,21.4117647 6.58823529,18.0937647 6.58823529,14 C6.58823529,9.90623529 9.90623529,6.58823529 14,6.58823529 C18.0937647,6.58823529 21.4117647,9.90623529 21.4117647,14 C21.4117647,18.0937647 18.0937647,21.4117647 14,21.4117647 L14,21.4117647 Z" id="path-1"></path>
    </defs>
    <g id="LandingPage" stroke="none" stroke-width="1" fill="none" fill-rule="evenodd">
        <g id="Разбор-непонятных-тем" transform="translate(-410.000000, -732.000000)">
            <g id="Group-3-Copy" transform="translate(333.000000, 732.000000)">
                <g id="book.1-copy-3" transform="translate(77.000000, 0.000000)">
                    <g id="Layer_1">
                        <path d="M20.0000781,40 C31.015625,40 40,31.0157031 40,20.0000781 C40,8.984375 31.015625,0 20.0000781,0 C8.98445312,0 0,8.984375 0,20.0000781 C0,31.0157031 8.98445312,40 20.0000781,40 L20.0000781,40 Z" id="Shape" fill="#20D0C2"></path>
                        <g id="lifebuoy" transform="translate(6.000000, 6.000000)">
                            <g id="Group">
                                <g>
                                    <mask id="mask-2" fill="white">
                                        <use xlink:href="#path-1"></use>
                                    </mask>
                                    <use id="Mask" fill="#FFCA4F" xlink:href="#path-1"></use>
                                    <g mask="url(#mask-2)" fill="#F44336">
                                        <g transform="translate(-1.647059, -1.647059)">
                                            <path d="M8.61329412,18.1176471 L1.86941176,18.1176471 C1.73352941,17.3122353 1.64705882,16.4903529 1.64705882,15.6470588 C1.64705882,14.8037647 1.73352941,13.9818824 1.86941176,13.1764706 L8.61329412,13.1764706 C8.36870588,13.9563529 8.23529412,14.7864706 8.23529412,15.6470588 C8.23529412,16.5076471 8.36870588,17.3377647 8.61329412,18.1176471 L8.61329412,18.1176471 Z M23.0588235,15.6470588 C23.0588235,16.5076471 22.9254118,17.3377647 22.6808235,18.1176471 L29.4247059,18.1176471 C29.5597647,17.3122353 29.6470588,16.4903529 29.6470588,15.6470588 C29.6470588,14.8037647 29.5605882,13.9818824 29.4247059,13.1764706 L22.6808235,13.1764706 C22.9254118,13.9563529 23.0588235,14.7864706 23.0588235,15.6470588 L23.0588235,15.6470588 Z M18.1176471,29.4247059 L18.1176471,22.6808235 C17.3377647,22.9254118 16.5076471,23.0588235 15.6470588,23.0588235 C14.7864706,23.0588235 13.9563529,22.9254118 13.1764706,22.6808235 L13.1764706,29.4247059 C13.9818824,29.5597647 14.8037647,29.6470588 15.6470588,29.6470588 C16.4903529,29.6470588 17.3122353,29.5605882 18.1176471,29.4247059 L18.1176471,29.4247059 Z M13.1764706,1.86941176 L13.1764706,8.61329412 C13.9563529,8.36870588 14.7864706,8.23529412 15.6470588,8.23529412 C16.5076471,8.23529412 17.3377647,8.36870588 18.1176471,8.61329412 L18.1176471,1.86941176 C17.3122353,1.73352941 16.4903529,1.64705882 15.6470588,1.64705882 C14.8037647,1.64705882 13.9818824,1.73352941 13.1764706,1.86941176 L13.1764706,1.86941176 Z" id="Shape"></path>
                                            <rect id="Rectangle-path" x="13.1764706" y="0" width="4.94117647" height="5.76470588"></rect>
                                            <rect id="Rectangle-path" x="26.3529412" y="13.1764706" width="4.94117647" height="4.94117647"></rect>
                                            <rect id="Rectangle-path" x="0" y="13.1764706" width="4.11764706" height="4.94117647"></rect>
                                            <rect id="Rectangle-path" x="13.1764706" y="27.1764706" width="4.94117647" height="4.11764706"></rect>
                                        </g>
                                    </g>
                                </g>
                            </g>
                        </g>
                    </g>
                </g>
            </g>
        </g>
    </g>
</svg>