<?xml version="1.0" encoding="UTF-8" standalone="no"?>
<svg width="40px" height="40px" viewBox="0 0 40 40" version="1.1" xmlns="http://www.w3.org/2000/svg" xmlns:xlink="http://www.w3.org/1999/xlink">
    <!-- Generator: Sketch 40 (33762) - http://www.bohemiancoding.com/sketch -->
    <title>book.1 copy 4</title>
    <desc>Created with Sketch.</desc>
    <defs></defs>
    <g id="LandingPage" stroke="none" stroke-width="1" fill="none" fill-rule="evenodd">
        <g id="Деловой-английский" transform="translate(-617.000000, -732.000000)">
            <g id="Group-3-Copy" transform="translate(333.000000, 732.000000)">
                <g id="book.1-copy-4" transform="translate(284.000000, 0.000000)">
                    <g id="Layer_1">
                        <path d="M20.0000781,40 C31.015625,40 40,31.0157031 40,20.0000781 C40,8.984375 31.015625,0 20.0000781,0 C8.98445312,0 0,8.984375 0,20.0000781 C0,31.0157031 8.98445312,40 20.0000781,40 L20.0000781,40 Z" id="Shape" fill="#FF5B61"></path>
                        <g id="briefcase" transform="translate(10.000000, 11.000000)">
                            <g id="Group">
                                <path d="M11.5,0 L8.5,0 C7.65,0 7,0.65 7,1.5 L7,3 L8,3 L8,1.5 C8,1.2 8.2,1 8.5,1 L11.5,1 C11.8,1 12,1.2 12,1.5 L12,3 L13,3 L13,1.5 C13,0.65 12.35,0 11.5,0 L11.5,0 Z" id="Shape" fill="#1B6D7A"></path>
                                <path d="M18,18 L2,18 C0.9,18 0,17.1 0,16 L0,4 C0,2.9 0.9,2 2,2 L18,2 C19.1,2 20,2.9 20,4 L20,16 C20,17.1 19.1,18 18,18 L18,18 Z" id="Shape" fill="#20D0C2"></path>
                                <path d="M18,10.5 L2,10.5 C0.9,10.5 0,9.6 0,8.5 L0,4 C0,2.9 0.9,2 2,2 L18,2 C19.1,2 20,2.9 20,4 L20,8.5 C20,9.6 19.1,10.5 18,10.5 L18,10.5 Z" id="Shape" fill="#15BDB1"></path>
                                <path d="M11,9.5 L9,9.5 C8.7,9.5 8.5,9.3 8.5,9 L8.5,8 C8.5,7.7 8.7,7.5 9,7.5 L11,7.5 C11.3,7.5 11.5,7.7 11.5,8 L11.5,9 C11.5,9.3 11.3,9.5 11,9.5 L11,9.5 Z" id="Shape" fill="#1B6D7A"></path>
                            </g>
                        </g>
                    </g>
                </g>
            </g>
        </g>
    </g>
</svg>