<?xml version="1.0" encoding="UTF-8" standalone="no"?>
<svg width="200px" height="200px" viewBox="0 0 200 200" version="1.1" xmlns="http://www.w3.org/2000/svg" xmlns:xlink="http://www.w3.org/1999/xlink">
    <!-- Generator: Sketch 40 (33762) - http://www.bohemiancoding.com/sketch -->
    <title>video chat copy 4</title>
    <desc>Created with Sketch.</desc>
    <defs>
        <path d="M100.000391,200.000381 C155.078125,200.000381 200,155.07833 200,99.9999901 C200,44.9224312 155.078125,0.000380766956 100.000391,0.000380766956 C44.9222656,0.000380766956 0,44.9224312 0,99.9999901 C0,155.07833 44.9222656,200.000381 100.000391,200.000381 L100.000391,200.000381 Z" id="path-1"></path>
    </defs>
    <g id="LandingPage" stroke="none" stroke-width="1" fill="none" fill-rule="evenodd">
        <g id="Развитие-разговорных-навыков" transform="translate(-158.000000, -404.000000)">
            <g id="video-chat-copy-4" transform="translate(158.000000, 404.000000)">
                <g id="Layer_1">
                    <g id="развиттие_разг_навыков-[преобразованный]" transform="translate(7.570978, 22.082019)"></g>
                    <g id="Layer_2">
                        <mask id="mask-2" fill="white">
                            <use xlink:href="#path-1"></use>
                        </mask>
                        <use id="Mask" fill="#FFCA4F" xlink:href="#path-1"></use>
                        <g mask="url(#mask-2)">
                            <g transform="translate(7.000000, 36.000000)">
                                <path d="M117.443182,144.892314 L116.027118,150.581074 C116.027118,150.581074 115.316012,150.158469 114.104877,149.403523 C107.356541,145.181573 85.0622348,130.5463 83.857248,120.590457 C83.5785435,118.292797 105.620786,95.2587558 105.620786,95.2587558 C105.620786,95.2587558 107.848372,96.5840132 110.36286,98.2682801 C114.035201,100.730059 118.322331,103.991915 117.160379,105.013553 C115.199202,106.736798 93.6692837,122.941455 93.6692837,122.941455 C98.7105552,124.26261 107.469252,133.404014 112.830214,139.466144 C113.389672,140.104155 113.914292,140.697033 114.389729,141.257088 C116.262787,143.43371 117.443182,144.892314 117.443182,144.892314 L117.443182,144.892314 Z" id="Shape" fill="#F9C182"></path>
                                <path d="M114.104877,149.397369 C107.356541,145.175419 85.0622348,130.540145 83.857248,120.584302 C83.5785435,118.286642 105.620786,95.2526013 105.620786,95.2526013 C105.620786,95.2526013 107.848372,96.5840132 110.36286,98.2682801 C110.608776,99.0888729 110.729684,99.6817512 110.588283,99.6817512 C110.102599,99.6920086 86.3123062,121.039731 86.3123062,121.039731 C86.3123062,121.039731 108.067647,144.13942 110.004233,144.861542 C111.043227,145.249272 112.08427,142.299241 112.828165,139.476401 L114.38768,141.267345 C114.502441,144.032743 114.492194,147.120224 114.104877,149.397369 L114.104877,149.397369 Z" id="Shape" fill="#E5A567"></path>
                                <path d="M116.406238,86.2219771 L116.338611,96.9553315 L116.273034,107.089653 L106.13311,114.269841 L102.77841,109.278585 L97.5486036,101.497313 C106.887252,93.0985451 116.406238,86.2219771 116.406238,86.2219771 L116.406238,86.2219771 Z" id="Shape" fill="#5BD0C4"></path>
                                <path d="M115.340603,92.1835841 L116.273034,107.089653 L106.13311,114.269841 L102.77841,109.278585 C107.717217,111.631635 114.233983,97.6528354 115.340603,92.1835841 L115.340603,92.1835841 Z" id="Shape" fill="#20626E"></path>
                                <path d="M192.402381,130.991471 C190.041591,140.052868 168.564954,148.018773 160.638272,150.669288 C158.820545,151.284732 157.718023,151.604763 157.718023,151.604763 L157.092988,145.940621 C157.092988,145.940621 158.134031,145.08105 159.816504,143.776308 C159.823465,143.768656 159.831809,143.762391 159.841095,143.757844 C164.995078,139.759506 176.106369,131.596658 181.842352,130.899155 C181.842352,130.899155 164.704078,108.49697 163.037999,106.582937 C162.093273,105.489497 166.234903,103.081057 169.981019,101.203951 C171.425773,100.477726 172.815197,99.8376639 173.82755,99.3801834 C174.805065,98.9350117 175.436248,98.6683191 175.436248,98.6683191 C175.436248,98.6683191 176.973221,101.314731 179.124984,105.097664 C184.24003,114.064692 192.804043,129.450808 192.402381,130.991471 L192.402381,130.991471 Z" id="Shape" fill="#F9C182"></path>
                                <path d="M192.402381,130.991471 C190.041591,140.052868 168.564954,148.018773 160.638272,150.669288 C160.714096,149.824077 157.687284,144.992837 157.511044,143.813234 C157.496699,143.708609 161.859653,143.089061 162.552316,148.164428 C162.816675,150.10513 189.777231,131.096097 189.777231,131.096097 L169.983068,101.242929 L169.983068,101.203951 L170.575315,95.8700975 L173.835747,99.3801834 L179.131132,105.097664 C184.24003,114.064692 192.804043,129.450808 192.402381,130.991471 L192.402381,130.991471 Z" id="Shape" fill="#E5A567"></path>
                                <path d="M162.564612,105.670028 C160.277596,119.451884 157.701629,145.991908 157.968038,163.300263 L115.635702,163.300263 C116.176717,150.209756 116.684942,131.574092 114.461455,117.111143 C112.572003,104.820714 115.914407,90.1731316 116.398041,86.2219771 C116.398041,86.2219771 137.45867,81.5692157 165.876276,87.4815871 C165.884473,87.4815871 164.304465,95.119255 162.564612,105.670028 L162.564612,105.670028 Z" id="Shape" fill="#5CD7CC"></path>
                                <path d="M145.315676,84.4761658 C146.082113,86.4661035 145.223457,87.7585372 143.676238,88.4888648 C139.987503,90.2223672 132.372314,88.6755497 133.722801,85.4547228 C134.23745,84.1921765 134.564708,82.8610132 134.694168,81.5035682 C134.921746,78.9968944 134.713739,76.4697005 134.079378,74.0341219 L145.795211,72.1754791 C145.795211,72.1754791 143.948794,80.9209473 145.315676,84.4761658 L145.315676,84.4761658 Z" id="Shape" fill="#F9C182"></path>
                                <path d="M145.315676,84.4761658 C146.082113,86.4661035 145.223457,87.7585372 143.676238,88.4888648 C143.688534,86.1317119 143.282773,81.4604871 141.565462,82.2441533 C136.475007,84.566431 134.690069,81.5056197 134.690069,81.5056197 C134.917647,78.9989459 134.709641,76.471752 134.07528,74.0361733 L145.791113,72.1775306 C145.791113,72.1775306 143.948794,80.9209473 145.315676,84.4761658 L145.315676,84.4761658 Z" id="Shape" fill="#E5A567"></path>
                                <path d="M137.300874,80.6255339 C132.321081,80.0900971 128.732762,78.2376087 126.197781,75.5768364 C115.008617,63.8362043 124.267343,36.3135203 124.267343,36.3135203 C137.960748,31.6505014 149.238031,34.3728182 155.463796,37.9157278 C158.306172,39.5302442 160.095208,41.3150337 160.58704,42.6443941 C162.154752,46.9053224 164.396683,83.54069 137.300874,80.6255339 L137.300874,80.6255339 Z" id="Shape" fill="#FCC98D"></path>
                                <path d="M151.518899,72.1816335 C160.351371,61.6554788 153.816161,42.3346203 152.678801,38.5004002 C153.596092,38.2587327 154.525786,38.0669802 155.463796,37.9259852 C158.306172,39.5405016 160.095208,41.3252911 160.58704,42.6546515 C162.154752,46.9053224 164.396683,83.54069 137.300874,80.6255339 C132.321081,80.0900971 146.018585,78.7361189 151.518899,72.1816335 Z" id="Shape" fill="#EBAF72"></path>
                                <path d="M113.301552,37.7495578 L113.430658,37.9218823 C113.575624,38.0942271 113.740751,38.2485102 113.92249,38.3814142 C116.361153,40.1908215 122.119679,39.2020071 120.945432,39.5897372 C112.543312,42.3551351 121.222087,43.5737155 126.136302,41.8463675 C126.966267,41.5550571 122.795947,45.0425767 123.822645,45.1984893 C127.271613,45.7421321 131.948109,45.2374675 138.21691,42.771586 C145.354612,39.9672099 155.049838,42.6136218 155.049838,42.6136218 C156.367536,46.7781305 158.738573,48.3064847 157.679087,57.7597143 C157.55408,58.8593087 157.869671,59.6060482 158.45782,59.9609546 C158.867795,60.1919591 159.346382,60.2697488 159.808307,60.1804632 C162.542069,59.8029905 167.00339,55.3225535 167.800566,45.7749558 C169.079328,30.3560162 159.054165,34.1922878 157.361446,31.6853766 C150.580321,21.670041 134.079378,23.2168585 126.365823,29.7487775 C118.840803,36.1083721 112.076073,35.9791287 113.301552,37.7495578 L113.301552,37.7495578 Z" id="Shape" fill="#5B5B5B"></path>
                                <path d="M151.957449,163.300263 C152.055815,157.677151 152.061963,152.817189 151.787357,152.708461 C145.377155,150.140005 146.334177,142.61722 153.775175,137.921378 C153.775175,137.921378 156.623699,94.9571879 160.414899,93.166244 C161.570702,92.6205498 161.347329,100.35874 162.558464,105.680285 C160.271448,119.451884 157.695481,145.991908 157.96189,163.300263 L151.957449,163.300263 Z" id="Shape" fill="#1B6D7A"></path>
                                <path d="M181.932521,105.858764 L170.556871,118.438452 C170.556871,118.438452 162.931436,111.133124 161.08092,108.168733 C151.988188,93.6196216 165.89472,87.4815871 165.89472,87.4815871 C165.89472,87.4815871 175.413706,97.0373908 181.932521,105.858764 L181.932521,105.858764 Z" id="Shape" fill="#1B6D7A"></path>
                                <path d="M147.217424,138.817875 C147.217424,138.817875 151.912364,138.011643 152.268942,138.202431 C153.23621,138.717353 160.035779,144.317899 160.035779,144.317899 C160.035779,144.317899 162.777739,148.186994 161.517421,150.144108 C160.257103,152.101222 156.244579,153.110551 154.123556,149.961526 C154.123556,149.961526 151.678744,150.297969 151.25454,150.320536 C151.25454,150.320536 148.62939,152.289958 148.065833,150.576971 L150.061848,148.829108 L152.793562,147.458718 L150.287271,147.26793 C150.166363,147.243313 146.424346,149.39942 146.188676,147.097657 L150.082341,144.861542 L153.641971,145.132337 L149.748306,143.940426 C149.748306,143.940426 144.817697,146.798141 144.817697,144.350723 L149.576165,141.460184 L152.873484,141.78637 L151.438976,140.329818 C151.438976,140.329818 146.543205,141.006807 147.217424,138.817875 L147.217424,138.817875 Z" id="Shape" fill="#F9C182"></path>
                                <path d="M118.486275,136.261729 C118.486275,136.261729 115.377491,136.672025 115.002469,137.492618 C114.627448,138.313211 112.815869,142.272571 112.57815,143.991713 C112.373221,145.499553 112.875299,148.230075 114.113074,149.88357 C115.35085,151.537065 116.672647,151.077533 116.135731,148.297774 L117.746478,147.700793 C118.760881,148.835263 120.615495,149.243508 120.847065,148.059802 L118.695303,146.114997 L116.031217,145.563149 L117.453429,144.479966 C118.642021,144.779482 120.847065,145.563149 121.027403,143.583468 L117.805908,142.089989 L116.135731,142.805957 L117.453429,141.493008 C117.453429,141.493008 120.310149,142.149482 120.660579,140.095949 L117.123492,138.926604 L116.330414,139.642571 L116.63371,138.688632 C116.63371,138.688632 119.465839,138.081393 118.486275,136.261729 L118.486275,136.261729 Z" id="Shape" fill="#FEAD6C"></path>
                                <path d="M159.402546,59.9055646 C160.329868,57.7187084 162.076443,55.9827921 164.267578,55.0702212 C165.376248,54.6147922 166.726735,54.4137469 167.714496,55.0968905 C168.792426,55.84363 169.017849,57.3535208 168.849807,58.6623664 C168.394495,61.854615 166.257615,64.5542339 163.257274,65.7276708 C161.990808,66.2036146 160.388258,66.3061887 159.455828,65.3173744 C158.765214,64.5808923 158.677095,63.4710405 158.769313,62.4576083 L159.402546,59.9055646 Z" id="Shape" fill="#F9C182"></path>
                                <path d="M161.478484,60.541524 C161.478484,60.541524 166.241051,54.1634661 167.011587,58.0017892 C167.011587,58.0017892 162.951929,58.6008219 163.818782,60.3733025 C165.72053,64.2813759 159.453778,65.3255803 161.478484,60.541524 L161.478484,60.541524 Z" id="Shape" fill="#E5A567"></path>
                                <path d="M95.4796152,35.4752459 C95.4796152,35.4752459 83.090243,37.6096837 75.8081424,28.0900152 C69.3578278,19.6558897 70.7353078,1.12457157 96.3590832,0.0466109682 C114.316653,-0.710362541 124.471594,7.8337074 122.499414,19.7746802 C120.380214,32.6027905 103.524628,33.9714087 103.524628,33.9714087 C103.524628,33.9714087 100.413377,41.8254828 106.382899,46.9448478 C106.382899,46.9448478 98.1471581,43.6945376 95.4796152,35.4752459 Z" id="Shape" fill="#5BD0C4"></path>
                                <path d="M73.9181558,129.001534 C72.4836476,135.8063 61.5752378,131.783343 61.5752378,131.783343 C61.5752378,131.783343 54.5932817,112.638912 59.5689757,110.696159 C59.5689757,110.696159 68.585884,106.42087 66.8029953,106.42087 C65.8541707,106.422921 74.6231141,125.637103 73.9181558,129.001534 L73.9181558,129.001534 Z" id="Shape" fill="#DF9A5D"></path>
                                <path d="M71.948781,113.984685 L59.0136161,120.695082 L49.5253693,110.540246 L54.6486127,102.256361 L58.0033125,93.9601676 C58.0033125,93.9601676 67.7477214,101.796829 71.948781,113.984685 L71.948781,113.984685 Z" id="Shape" fill="#E5454C"></path>
                                <path d="M60.0853986,123.643062 C57.1549034,140.670364 58.6324468,154.983555 59.1837078,163.300263 L12.7896648,163.300263 C14.6955114,151.077533 11.3182693,128.459942 8.3816262,112.651221 C6.50242052,102.510745 9.55997218,95.1725935 9.55997218,95.1725935 C12.6120591,94.6063845 15.5370895,94.1359113 18.3350635,93.7611739 C22.0422424,93.2565093 25.5178507,92.9036543 28.7495927,92.6697854 C47.4637761,91.3281161 58.0033125,93.9601676 58.0033125,93.9601676 C58.5197354,97.757461 62.114203,111.83268 60.0853986,123.643062 L60.0853986,123.643062 Z" id="Shape" fill="#FA5359"></path>
                                <path d="M27.4872255,92.2820552 C26.7248869,94.263787 33.934315,98.6293409 35.4794852,99.3514626 L36.5779086,99.1134907 C36.5779086,99.1134907 39.8567844,95.1910569 39.0370654,93.2565093 C38.5253703,91.9990663 38.2001876,90.6734495 38.0718463,89.3217666 C37.8459487,86.8245944 38.0539546,84.3071218 38.6866356,81.8810409 L27.0056406,80.034707 C27.0056406,80.034707 28.8479589,88.7411971 27.4872255,92.2820552 L27.4872255,92.2820552 Z" id="Shape" fill="#F9C182"></path>
                                <path d="M27.4872255,92.2820552 C26.7248869,94.263787 27.5794439,95.5644266 29.1266634,96.2783424 C29.1143676,93.9293954 29.5180792,89.2745825 31.2292425,90.0561972 C36.2992041,92.370269 38.0779942,89.3217666 38.0779942,89.3217666 C37.8520966,86.8245944 38.0601025,84.3071218 38.6927834,81.8810409 L27.0117885,80.034707 C27.0117885,80.034707 28.8479589,88.7411971 27.4872255,92.2820552 L27.4872255,92.2820552 Z" id="Shape" fill="#E5A567"></path>
                                <path d="M51.6463921,71.6379908 C51.0008634,76.1307366 49.4782355,80.3219145 46.5231487,83.4155496 C43.9984143,86.0660645 40.4285383,87.9082954 35.4569429,88.4396293 C23.7616029,89.7053937 17.4743586,83.5488959 14.4004125,75.8250657 L14.4004125,75.8250657 C10.3018178,65.7461341 11.3838468,53.0125847 12.2732419,50.6144021 C12.7671226,49.2911961 14.547962,47.5125611 17.3759923,45.8959932 C23.5792154,42.3653925 34.8155128,39.6533332 48.4576854,44.2978887 C48.4576854,44.3143005 53.4477244,59.1362588 51.6463921,71.6379908 L51.6463921,71.6379908 Z" id="Shape" fill="#F9C182"></path>
                                <path d="M35.4692387,88.4416807 C40.4305876,87.9082954 44.0045622,86.064013 46.5354444,83.4114466 C36.9037469,89.1227728 26.7904644,86.5604716 21.3085939,80.0285526 C12.5048125,69.5475305 19.0174795,50.2964223 20.1507409,46.4745112 C19.2368269,46.2337087 18.3105537,46.0426409 17.3759923,45.9021477 C14.5438634,47.5105096 12.7609747,49.2891446 12.2691433,50.6205565 C10.7014308,54.8507126 8.47589388,91.3506824 35.4692387,88.4416807 L35.4692387,88.4416807 Z" id="Shape" fill="#E5A567"></path>
                                <path d="M48.461784,46.8068513 C45.0619996,50.1179434 38.6026144,52.2884115 34.5675479,50.733388 C27.4380423,47.988505 26.8867814,46.835572 21.8475592,46.9976391 C17.4989502,47.1350884 13.44544,55.3307595 15.1299624,67.2457676 C16.3062591,75.5255494 14.1381025,68.511532 12.4166927,67.9268596 C9.68907792,66.9995897 5.83230029,62.5253072 5.10070113,53.7265004 C3.82603817,38.3650024 13.8143135,42.1869136 15.5008852,39.6882083 C22.2512707,29.6995419 43.2955053,33.7389102 48.8654955,38.7609384 C51.7611527,41.3868355 50.9250394,44.4004628 48.461784,46.8068513 L48.461784,46.8068513 Z" id="Shape" fill="#515151"></path>
                                <path d="M46.5333951,83.417601 C46.0513408,83.9191287 45.535778,84.3872625 44.9902742,84.8187633 C44.8413586,84.9377493 44.6883444,85.0533161 44.5312316,85.1654638 C42.1847862,86.8661425 39.1559247,88.0375388 35.3770203,88.4478352 C34.5996535,88.5257915 33.8482445,88.5784462 33.1227932,88.6057993 C32.6268633,88.6160567 32.1370812,88.6057993 31.6657428,88.6057993 L31.2558833,88.5914389 L30.8890591,88.5688726 C21.3393334,87.9226558 16.2857661,81.5179286 13.7528346,74.1223356 C13.1582906,71.6606985 12.8149802,69.1449868 12.7281859,66.6139111 L16.8472736,67.7545351 C19.0318246,70.2163137 22.7902359,74.01771 25.2104561,73.9766804 C28.7803321,73.9089815 33.0264762,68.690011 44.2217877,72.009309 C47.5539452,72.9858145 49.9516231,72.6247537 51.6463921,71.6359393 C51.0008634,76.1307366 49.4802848,80.3219145 46.5333951,83.417601 Z" id="Shape" fill="#515151"></path>
                                <path d="M21.4356504,163.300263 L12.6052281,163.300263 C14.5295183,151.07343 11.2219523,128.457891 8.28530923,112.64917 C9.58866235,107.547134 9.4698031,100.040761 10.6809378,100.633639 C24.3292583,107.327625 22.7615458,146.568375 21.4356504,163.300263 L21.4356504,163.300263 Z" id="Shape" fill="#E5454C"></path>
                                <path d="M19.5871842,144.590746 C19.5871842,144.590746 19.2695431,149.282486 24.0239129,150.667236 C24.0239129,150.667236 58.8947568,139.32254 58.8947568,128.847672 C58.8947568,127.497797 27.0445773,134.913905 25.7412241,140.017993 C26.7166897,140.017993 23.7062719,141.862275 19.5871842,144.590746 L19.5871842,144.590746 Z" id="Shape" fill="#D9431C"></path>
                                <polygon id="Shape" fill="#E5454C" points="45.2546336 101.255238 38.055452 97.6487325 36.5717607 99.1134907 37.5226347 95.349021"></polygon>
                                <path d="M35.471288,99.3514626 L32.8440888,99.0314314 L28.1184091,106.182898 L18.3350635,93.7550194 C22.0422424,93.2503548 25.5076042,92.8585217 28.7495927,92.6246528 L34.2355617,95.1028432 L35.471288,99.3514626 Z" id="Shape" fill="#E5454C"></path>
                                <polygon id="Shape" fill="#FA5359" points="21.2225235 93.3919071 28.1184091 103.634957 34.2355617 95.1089976 24.5382866 89.5966652"></polygon>
                                <polygon id="Shape" fill="#FA5359" points="38.7686075 89.5966652 37.5226347 95.349021 45.2546336 101.255238 43.1950897 92.0953704"></polygon>
                                <path d="M73.774705,130.929927 C72.3401968,137.734693 35.9077883,140.017993 35.9077883,140.017993 C35.9077883,140.017993 55.7634305,128.059903 60.7391244,126.119201 C60.7391244,126.119201 65.6574381,123.766151 67.4362282,123.593827 C72.8771127,123.066596 74.4776139,127.565496 73.774705,130.929927 L73.774705,130.929927 Z" id="Shape" fill="#DF9A5D"></path>
                                <path d="M1.36483204,113.791845 C1.36483204,113.791845 12.7240873,150.031277 22.6098978,146.853531 C43.0372939,140.288788 50.5889546,132.023367 56.9028398,128.849724 C56.9028398,128.849724 52.7017802,123.593827 22.6098978,133.95176 L9.89195836,111.723951 L1.36483204,113.791845 Z" id="Shape" fill="#F9C182"></path>
                                <path d="M4.97364469,132.472641 L19.5810363,126.113047 L15.4660472,113.982633 C13.1298482,95.1089976 9.55997218,95.174645 9.55997218,95.174645 C9.55997218,95.174645 -7.98406251,100.60697 4.97364469,132.472641 L4.97364469,132.472641 Z" id="Shape" fill="#FA5359"></path>
                                <path d="M11.5908259,128.660988 C11.5908259,128.660988 15.3389907,125.747883 15.7427023,125.747883 C16.8329285,125.747883 25.4358788,126.049451 25.4358788,126.049451 C25.4358788,126.049451 31.9464965,129.368749 34.2355617,130.281658 L22.8824543,133.787641 C22.8824543,133.787641 21.5258195,134.735426 20.529861,135.449342 C20.529861,135.449342 19.1445359,138.413733 17.8473307,137.170535 L18.7818103,134.696448 L20.5483046,132.210052 L18.2571902,133.219381 C18.2571902,133.219381 15.8595123,136.912049 14.5684549,134.995964 L16.9374427,131.206877 L20.1937762,129.770839 L16.2181393,130.548351 C16.2181393,130.548351 13.2220666,135.375488 12.0765093,133.215278 L14.9045397,128.439427 L17.9518449,127.194178 L16.0070617,128.014771 C16.0070617,128.014771 12.0252769,130.901206 11.5908259,128.660988 L11.5908259,128.660988 Z" id="Shape" fill="#E5A567"></path>
                                <path d="M68.2129119,116.085402 C68.2129119,116.085402 63.499528,115.617664 63.1490981,115.83307 C62.224865,116.413639 51.6484414,128.687657 51.6484414,128.687657 C51.6484414,128.687657 53.9416051,127.836292 55.3371766,129.690832 L61.3887517,126.443335 C61.3887517,126.443335 62.9031825,126.420769 63.7577395,125.788913 C63.7577395,125.788913 67.3112211,127.052626 67.7497707,125.308866 L65.6328465,123.706658 L62.5240624,123.850262 L65.001663,123.50151 C65.8685157,123.343546 68.9916449,125.347844 69.0654196,123.041978 L65.0446982,121.097173 L61.5342518,121.610044 L65.3131562,120.149388 C65.3131562,120.149388 70.4159066,122.637836 70.2417163,120.204778 L65.3070083,117.671198 L62.0527241,118.229201 L64.1348102,117.886603 C64.1348102,117.886603 69.0367295,118.212789 68.2129119,116.085402 L68.2129119,116.085402 Z" id="Shape" fill="#F9C182"></path>
                                <path d="M13.4515879,67.8099251 C12.5271256,65.631121 10.7864305,63.9018271 8.60295032,62.9930451 C7.49837904,62.5396676 6.14379348,62.3386223 5.17037724,63.0197144 C4.09449612,63.7644024 3.87112271,65.2763447 4.0391651,66.5728814 C4.49305928,69.7531442 6.62206997,72.4425238 9.61120462,73.6115165 C10.8735718,74.0874604 12.4556294,74.1695197 13.3983061,73.2012201 C14.9516735,71.6174759 13.4515879,67.8099251 13.4515879,67.8099251 L13.4515879,67.8099251 Z" id="Shape" fill="#F9C182"></path>
                                <path d="M11.3838468,68.4376787 C11.3838468,68.4376787 6.63767415,62.0780841 5.88148342,65.9061497 C5.88148342,65.9061497 9.92679641,66.503131 9.06199292,68.2694571 C7.15819568,72.1631702 13.4003554,73.2032716 11.3838468,68.4376787 L11.3838468,68.4376787 Z" id="Shape" fill="#E5A567"></path>
                                <path d="M69.5122365,41.6768553 C69.5122365,41.6768553 73.6301068,39.9885137 75.1519572,35.3708489 C75.1519572,35.3708489 88.1585464,37.2588596 94.177074,27.669686 C100.289641,17.9301287 96.5505778,0.849571194 73.4897098,0.633473581 C55.5745239,0.460342745 46.14276,9.08655505 50.1083127,22.3910911 C53.0751925,32.3492735 69.169191,34.7478306 69.169191,34.7478306 C69.169191,34.7478306 71.5890524,38.0385802 69.5122365,41.6768553 L69.5122365,41.6768553 Z" id="Shape" fill="#F44C52"></path>
                                <polygon id="Shape" fill="#FFFFFF" points="55.5205047 19.3308954 55.5205047 17.0347003 57.6635456 17.0347003 57.6635456 19.3308954"></polygon>
                                <polygon id="Shape" fill="#FFFFFF" points="61.829653 19.3308954 61.829653 17.0347003 63.9726939 17.0347003 63.9726939 19.3308954"></polygon>
                                <polygon id="Shape" fill="#FFFFFF" points="68.1388013 17.0347003 70.2818421 17.0347003 70.2818421 19.3308954 68.1388013 19.3308954"></polygon>
                                <polygon id="Shape" fill="#FFFFFF" points="102.208202 19.3296317 102.208202 17.0347003 104.351243 17.0347003 104.351243 19.3308954 102.208202 19.3308954"></polygon>
                                <polygon id="Shape" fill="#FFFFFF" points="108.51735 19.3296317 108.51735 17.0347003 110.656418 17.0347003 110.656418 19.3308954 108.51735 19.3308954"></polygon>
                                <polygon id="Shape" fill="#FFFFFF" points="114.195584 19.3296317 114.195584 17.0347003 116.338624 17.0347003 116.338624 19.3308954 114.195584 19.3308954"></polygon>
                                <g id="Group-7" stroke-width="1" fill="none" transform="translate(77.602524, 9.463722)">
                                    <path d="M11.2663327,14.511041 L7.8358779,14.511041 C7.68957768,14.511041 7.57097792,14.6241991 7.57097792,14.7637868 C7.57097792,14.9033744 7.68957768,15.0165325 7.8358779,15.0165325 L8.12461888,15.0165325 L8.12461888,15.2819155 C7.8597189,15.2996077 7.8729639,15.4146071 7.8729639,15.5548809 C7.8729639,15.6951548 7.8597189,15.8076267 8.12461888,15.8278463 L8.12461888,16.533007 L11.0385187,16.533007 L11.0385187,15.8278463 C11.3034187,15.8101541 11.2901737,15.6951548 11.2901737,15.5548809 C11.2901737,15.4146071 11.3034187,15.3021352 11.0385187,15.2819155 L11.0385187,15.0165325 L11.2663327,15.0165325 C11.4126329,15.0165325 11.5312327,14.9033744 11.5312327,14.7637868 C11.5312327,14.6241991 11.4126329,14.511041 11.2663327,14.511041 L11.2663327,14.511041 Z" id="Shape" fill="#FFFFFF"></path>
                                    <path d="M14.4173983,7.86448934 C14.4173983,7.75075375 14.4173983,7.63196325 14.4081268,7.51064529 L14.3975308,7.50179919 C14.154981,5.38864483 12.2853363,3.78775974 10.0573224,3.78549137 C7.8293085,3.783223 5.95608732,5.38029743 5.70881136,7.49295309 L5.68894386,7.51064529 C5.65557992,7.97987103 5.70028323,8.45117799 5.82139385,8.90706554 C5.93284613,9.33369392 6.11481674,9.740659 6.36046532,10.1126627 C6.7578153,10.7735929 7.27039676,11.3511169 7.68496524,12.1864416 C7.99733648,12.8355066 8.23278953,13.5158143 8.38695019,14.2147262 L11.711445,14.2147262 C11.8668808,13.5156615 12.1036682,12.8353491 12.4174034,12.1864416 C12.8015084,11.4105122 13.2677324,10.8418342 13.6544864,10.2314532 C14.153462,9.54252215 14.4200927,8.72465984 14.4187228,7.88723646 C14.4187228,7.8758629 14.4187228,7.87459917 14.4173983,7.86448934 L14.4173983,7.86448934 Z" id="Shape" fill="#FFFFFF"></path>
                                    <path d="M6.41358804,3.43044174 C6.29552258,3.36474988 6.20266966,3.26464024 6.14868806,3.14483905 L5.10100862,0.857490048 C5.00920816,0.657029913 5.03646807,0.425069235 5.17251979,0.248985356 C5.30857152,0.0729014767 5.53274557,-0.0205542733 5.76059776,0.00382198236 C5.98844994,0.028198238 6.18536409,0.166703166 6.27716455,0.367163301 L7.32484399,2.6545123 C7.43847205,2.8975613 7.37434137,3.18281868 7.16623366,3.36002126 C6.95812594,3.53722384 6.65380987,3.56569685 6.41358804,3.43044174 L6.41358804,3.43044174 Z" id="Shape" fill="#FFFFFF"></path>
                                    <path d="M12.9542697,3.43044174 C13.0723351,3.36474988 13.165188,3.26464024 13.2191696,3.14483905 L14.2668491,0.857490048 C14.3586495,0.657029913 14.3313896,0.425069235 14.1953379,0.248985356 C14.0592862,0.0729014767 13.8351121,-0.0205542733 13.6072599,0.00382198236 C13.3794078,0.028198238 13.1824936,0.166703166 13.0906932,0.367163301 L12.0430137,2.6545123 C11.9293857,2.8975613 11.9935163,3.18281868 12.2016241,3.36002126 C12.4097318,3.53722384 12.7140478,3.56569685 12.9542697,3.43044174 L12.9542697,3.43044174 Z" id="Shape" fill="#FFFFFF"></path>
                                    <path d="M3.53982502,7.16131358 C3.41859956,7.22447359 3.27917476,7.24841857 3.14247505,7.22955493 L0.554402207,6.89719427 C0.203281692,6.85113034 -0.0422197973,6.54220867 0.00605927396,6.20719839 C0.0543383452,5.87218811 0.378115676,5.6379508 0.729236196,5.68401469 L3.31995804,6.01258416 C3.59834418,6.04512994 3.82223514,6.24656201 3.87262048,6.50980809 C3.92300582,6.77305416 3.78818592,7.03698777 3.53982502,7.16131358 L3.53982502,7.16131358 Z" id="Shape" fill="#FFFFFF"></path>
                                    <path d="M16.1163866,7.16131358 C16.237612,7.22447359 16.3770368,7.24841857 16.5137365,7.22955493 L19.1018094,6.89719427 C19.4529299,6.85113034 19.6984314,6.54220867 19.6501523,6.20719839 C19.6018732,5.87218811 19.2780959,5.6379508 18.9269754,5.68401469 L16.334929,6.01258416 C16.0567465,6.04556024 15.8332818,6.24716335 15.7832165,6.51032261 C15.7331512,6.77348188 15.8680978,7.03715812 16.1163866,7.16131358 L16.1163866,7.16131358 Z" id="Shape" fill="#FFFFFF"></path>
                                    <path d="M4.63846381,11.3564768 C4.50155349,11.3566539 4.3683141,11.398734 4.25833233,11.4765311 L2.15370196,12.9588849 C1.96915464,13.0886873 1.87120476,13.3025672 1.89674909,13.519958 C1.92229342,13.7373489 2.06745117,13.9252239 2.27754282,14.0128123 C2.48763447,14.1004007 2.7307421,14.0743957 2.91528942,13.9445933 L5.01991979,12.4622395 C5.24463865,12.305822 5.337991,12.0289811 5.25102522,11.7768851 C5.16405945,11.5247892 4.9166224,11.3549702 4.63846381,11.3564768 L4.63846381,11.3564768 Z" id="Shape" fill="#FFFFFF"></path>
                                    <path d="M14.5248672,11.3564768 C14.6617775,11.3566539 14.7950169,11.398734 14.9049987,11.4765311 L17.0096291,12.9588849 C17.2949145,13.1595421 17.3556969,13.5428652 17.1453903,13.8150611 C16.9350837,14.0872569 16.5333271,14.1452505 16.2480416,13.9445933 L14.1434113,12.4622395 C13.9186924,12.305822 13.82534,12.0289811 13.9123058,11.7768851 C13.9992716,11.5247892 14.2467086,11.3549702 14.5248672,11.3564768 L14.5248672,11.3564768 Z" id="Shape" fill="#FFFFFF"></path>
                                </g>
                            </g>
                        </g>
                    </g>
                </g>
            </g>
        </g>
    </g>
</svg>