<?xml version="1.0" encoding="UTF-8" standalone="no"?>
<svg width="200px" height="200px" viewBox="0 0 200 200" version="1.1" xmlns="http://www.w3.org/2000/svg" xmlns:xlink="http://www.w3.org/1999/xlink">
    <!-- Generator: Sketch 40 (33762) - http://www.bohemiancoding.com/sketch -->
    <title>video chat copy 5</title>
    <desc>Created with Sketch.</desc>
    <defs>
        <path d="M100.000391,199.999609 C155.078125,199.999609 200,155.077734 200,99.9996094 C200,44.9222656 155.078125,0.000390625 100.000391,0.000390625 C44.9222656,0.000390625 0,44.9222656 0,99.9996094 C0,155.077734 44.9222656,199.999609 100.000391,199.999609 L100.000391,199.999609 Z" id="path-1"></path>
        <path d="M50.8046754,0.164107718 L50.8046754,27.4278699 C50.8046754,30.3664317 53.1822693,32.7486068 56.1151799,32.7486068 L76.334407,32.7486068 C82.3109994,32.7486068 86.4749591,36.6543704 86.4749591,42.0553378 L86.4749591,62.6709139 L70.4597297,62.6709139 L69.8809975,118.288843 C69.8809975,118.288843 61.5494384,121.523588 43.4085513,121.523588 C25.7117228,121.523588 16.9397449,118.288843 16.9397449,118.288843 L16.3610128,62.6709139 L0.313024938,62.6709139 L0.313024938,42.0553378 C0.313024938,36.7382477 5.00839901,32.7486068 10.6792461,32.7486068 L30.6728041,32.7486068 C33.6057147,32.7486068 35.9833086,30.3664317 35.9833086,27.4278699 L35.9833086,0.164107718 L50.8046754,0.164107718 L50.8046754,0.164107718 Z" id="path-3"></path>
        <path d="M37.9233352,49.6371143 C37.9233352,57.3465302 29.449823,63.6008577 18.996246,63.6008577 C8.54266895,63.6008577 0.0691566724,57.3465302 0.0691566724,49.6371143 C0.0691566724,41.9276984 11.3926518,0.065643087 21.8389492,0.065643087 C32.2852465,0.065643087 37.9233352,41.9386389 37.9233352,49.6371143 L37.9233352,49.6371143 Z" id="path-5"></path>
        <path d="M49.068479,46.4424841 C49.3470309,59.0467913 39.3798799,69.4934533 26.8000305,69.7822484 L23.9500476,69.8478914 C17.9087727,69.9858289 12.0603006,67.7132992 7.69153263,63.530351 C3.32276464,59.3474028 0.791661448,53.5967714 0.655168475,47.5438292 L0.0400380735,20.9219106 C0.0400380735,14.2773714 9.71833238,0.433973742 22.3121264,0.134933012 L25.1584694,0.0729367634 C37.7449838,-0.21881029 48.4751875,16.4071249 48.4751875,19.7986844 L49.068479,46.4424841 Z" id="path-7"></path>
        <path d="M22.2975671,0.309981244 C16.2517517,0.447676014 10.5082858,2.98661791 6.33122504,7.36802163 C2.15416434,11.7494254 -0.114159803,17.6142126 0.025478774,23.6716266 L0.251147915,33.0512943 L48.6608186,33.0512943 L48.4424291,22.5556941 C48.1502372,9.95246509 37.7232104,-0.0311343717 25.1439101,0.247984995 L22.2975671,0.309981244 Z" id="path-9"></path>
    </defs>
    <g id="LandingPage" stroke="none" stroke-width="1" fill="none" fill-rule="evenodd">
        <g id="Page" transform="translate(-155.000000, -5150.000000)">
            <g id="video-chat-copy-5" transform="translate(155.000000, 5150.000000)">
                <g id="Layer_1">
                    <g id="Layer_2">
                        <mask id="mask-2" fill="white">
                            <use xlink:href="#path-1"></use>
                        </mask>
                        <use id="Mask" fill="#FFCA4F" xlink:href="#path-1"></use>
                        <g id="Group" mask="url(#mask-2)">
                            <g transform="translate(22.653722, 37.540453)">
                                <path d="M99.0032362,133.233586 C96.6434506,133.224547 94.3542571,132.426213 92.4988692,130.965252 C86.9080982,126.683864 84.4912545,117.275022 86.0272606,105.802069 L93.0958005,106.753894 C91.7781839,116.574829 94.020316,123.142784 96.8302608,125.290772 C98.0204835,126.206129 99.2871426,126.330121 100.834068,125.680984 C106.734224,123.186546 114.876512,109.897468 118.388943,80.6534729 L125.468403,81.5104799 C122.127044,109.303034 114.155827,127.803444 103.603975,132.263527 C102.151075,132.893468 100.586308,133.223397 99.0032362,133.233586 L99.0032362,133.233586 Z" id="Shape" fill="#FCC98D"></path>
                                <polygon id="Shape" fill="#F4C0A4" points="84.2837845 110.590367 84.5713307 115.130681 96.7392652 115.130681 97.1833238 110.532018"></polygon>
                                <path d="M82.2600419,104.263103 C82.2600419,107.464541 80.9907216,110.534855 78.731317,112.798613 C76.4719124,115.062372 73.4075022,116.334138 70.2122216,116.334138 L34.0542014,116.334138 C30.8582902,116.335105 27.7929448,115.063766 25.5327529,112.799903 C23.2725611,110.53604 22.0027411,107.465173 22.0027413,104.263103 L22.0027413,88.5525244 C22.0027413,81.8838621 27.3983638,76.4778432 34.0542014,76.4778432 L70.2013021,76.4778432 C73.3988092,76.4759081 76.4660157,77.747204 78.7276776,80.0118557 C80.9893395,82.2765075 82.2600425,85.3488557 82.2600419,88.5525244 L82.2600419,104.263103 L82.2600419,104.263103 Z" id="Shape" fill="#1B6D7A"></path>
                                <g id="Group" stroke-width="1" fill="none" transform="translate(8.735580, 51.055734)">
                                    <mask id="mask-4" fill="white">
                                        <use xlink:href="#path-3"></use>
                                    </mask>
                                    <use id="Mask" fill="#5CD7CC" xlink:href="#path-3"></use>
                                    <g mask="url(#mask-4)" id="Shape">
                                        <g transform="translate(24.386827, -19.328242)">
                                            <g>
                                                <mask id="mask-6" fill="white">
                                                    <use xlink:href="#path-5"></use>
                                                </mask>
                                                <use id="Mask" fill="#FCC98D" xlink:href="#path-5"></use>
                                                <path d="M14.9414811,46.2929637 L11.6219608,46.2929637 C-3.03857195,46.2929637 -14.9232819,34.385354 -14.9232819,19.6965729 L-14.9232819,-11.3307262 C-14.9232819,-26.0195072 -3.03857195,-37.927117 11.6219608,-37.927117 L14.9414811,-37.927117 C21.9817172,-37.927117 28.7336035,-35.1250053 33.7118022,-30.1372145 C38.6900009,-25.1494237 41.4867238,-18.3845276 41.4867238,-11.3307262 L41.4867238,19.6965729 C41.4814547,34.3802833 29.6005923,46.2889361 14.9414811,46.2929637 Z" fill="#EBAF72" mask="url(#mask-6)"></path>
                                            </g>
                                        </g>
                                    </g>
                                </g>
                                <path d="M75.8066324,118.270609 C76.4326823,125.112077 77.1424481,131.47581 79.1079536,131.47581 C81.2518104,131.47581 85.3138549,124.258717 85.3138549,119.743931 L85.3138549,83.5125941 C85.3148229,82.8652394 85.0585853,82.2441196 84.6017162,81.7863702 C84.1448471,81.3286208 83.5249219,81.0718895 82.8788121,81.0728593 L76.4581611,81.0728593 C75.8114213,81.0709185 75.1905591,81.3272211 74.7329016,81.785076 C74.275244,82.242931 74.0185073,82.864606 74.0194784,83.5125941 C74.0194784,83.5125941 74.9403541,108.839885 75.8066324,118.270609 L75.8066324,118.270609 Z" id="Shape" fill="#15BDB1"></path>
                                <path d="M28.4488711,118.270609 C27.8228212,125.112077 27.1094156,131.47581 25.14755,131.47581 C23.0036931,131.47581 18.9380088,124.258717 18.9380088,119.743931 L18.9380088,83.5125941 C18.938008,82.8649038 19.195056,82.2437944 19.6525027,81.7861505 C20.1099493,81.3285065 20.7302475,81.0718912 21.3766914,81.0728593 L27.7937026,81.0728593 C28.4401466,81.0718912 29.0604447,81.3285065 29.5178914,81.7861505 C29.975338,82.2437944 30.232386,82.8649038 30.2323853,83.5125941 C30.2323853,83.5125941 29.3151494,108.839885 28.4488711,118.270609 L28.4488711,118.270609 Z" id="Shape" fill="#15BDB1"></path>
                                <path d="M24.980118,137.164877 C22.5997848,137.216117 20.2465534,136.650857 18.1481668,135.5238 C10.6756063,131.391932 10.1405521,121.158904 10.4026195,113.726648 L17.4966381,113.726648 C17.2018123,122.304012 18.5885856,127.613808 21.5950809,129.269473 C29.1331582,133.448749 50.7136798,119.838749 66.2884904,109.248331 L70.2922977,115.159856 C47.965612,130.337996 34.1561165,137.164877 24.980118,137.164877 L24.980118,137.164877 Z" id="Shape" fill="#FCC98D"></path>
                                <polygon id="Shape" fill="#F4C0A4" points="7.45436132 110.586721 7.74190748 115.127034 19.9062022 115.127034 20.3502608 110.524724"></polygon>
                                <path d="M79.7121645,102.56003 C80.1236595,103.178474 80.1600779,103.974206 79.8067999,104.627787 L71.9338587,109.908409 C71.1959928,109.985227 70.4762239,109.646927 70.0634943,109.029315 C69.6507648,108.411703 69.6127511,107.616051 69.9647135,106.961763 L77.8449343,101.681142 C78.5811264,101.608777 79.2977668,101.946093 79.7121645,102.56003 L79.7121645,102.56003 Z" id="Shape" fill="#FCC98D"></path>
                                <path d="M80.4947268,106.96541 C80.9012409,107.575783 80.9390227,108.360914 80.5930021,109.00764 L73.8884447,113.489604 C73.1567141,113.570038 72.4411529,113.235602 72.0324732,112.622168 C71.6237934,112.008734 71.589983,111.218353 71.9447782,110.572133 L78.6311365,106.086522 C79.3673559,106.00809 80.0859002,106.346963 80.4947268,106.96541 L80.4947268,106.96541 Z" id="Shape" fill="#FCC98D"></path>
                                <path d="M81.05162,111.345263 C81.4172465,111.897454 81.4507972,112.606178 81.1389758,113.190563 L76.105098,116.567535 C75.4464815,116.637028 74.8036614,116.335158 74.4356019,115.783535 C74.0675424,115.231912 74.0348528,114.521374 74.3507025,113.938165 L79.3809404,110.56484 C80.037865,110.502271 80.6771267,110.800889 81.05162,111.345263 L81.05162,111.345263 Z" id="Shape" fill="#FCC98D"></path>
                                <path d="M75.3443746,98.5156863 C74.9552742,98.7767754 74.6856597,99.1820692 74.594869,99.6423691 C74.5040783,100.102669 74.599552,100.580251 74.8602779,100.970008 L74.8602779,100.970008 C75.4041349,101.780036 76.4993736,101.996897 77.3098801,101.455038 L83.5703788,97.2575271 C84.3822608,96.7239438 84.6101681,95.6327739 84.0799543,94.8177924 L84.0799543,94.8177924 C83.8200457,94.4281851 83.4161692,94.1581265 82.957348,94.0671431 C82.4985268,93.9761598 82.0224273,94.071721 81.633992,94.3327629 L75.3443746,98.5156863 Z" id="Shape" fill="#FCC98D"></path>
                                <path d="M78.0706035,98.2859355 L79.3008643,100.109355 L73.0585646,104.299572 L79.6502875,114.171563 L73.7100933,118.157557 L72.8256158,118.751991 L71.5735161,119.587117 C69.2112698,121.169845 65.9463468,120.42589 64.2938664,117.927806 L61.8115058,114.211678 C60.1408262,111.71724 60.6686008,108.376737 63.034487,106.779422 L77.7430192,96.9329585 C77.6949451,97.4081891 77.8105364,97.8856002 78.0706035,98.2859355 L78.0706035,98.2859355 Z" id="Shape" fill="#FCC98D"></path>
                                <path d="M48.0129298,2.12245981 C48.0234085,2.5525897 48.2043201,2.96085458 48.5157252,3.2571226 C48.8271303,3.55339063 49.2434197,3.71329745 49.6726899,3.70154074 L53.6582981,3.61036979 C54.5500755,3.58649986 55.2547075,2.84463999 55.2343423,1.95105842 L55.2343423,1.95105842 C55.2124795,1.05556558 54.4720725,0.346340057 53.578222,0.364683817 L49.5744146,0.463148447 C48.6861117,0.485055609 47.9820911,1.22138466 47.9983705,2.1115193 L47.9983705,2.1115193 L48.0129298,2.12245981 Z" id="Shape" fill="#E5173F"></path>
                                <path d="M80.906027,50.5743517 C80.9294565,51.5838367 80.551298,52.5612283 79.8548898,53.2911296 C79.1584816,54.0210308 78.2009826,54.443534 77.1934057,54.465528 L77.1934057,54.465528 C76.1865528,54.4899808 75.2114101,54.1118026 74.4833799,53.4145304 C73.7553497,52.7172582 73.3343412,51.75827 73.3133524,50.7494 L73.1604797,43.7110023 C73.1370433,42.7011682 73.5150885,41.7233924 74.2113965,40.9929122 C74.9077045,40.262432 75.8651967,39.839127 76.8731011,39.8161791 L76.8731011,39.8161791 C78.9698146,39.7692934 80.7087761,41.431668 80.760434,43.5323072 L80.906027,50.5743517 Z" id="Shape" fill="#EBAF72"></path>
                                <path d="M32.4745174,51.6866374 C32.4979404,52.6977081 32.1189016,53.6765713 31.4210277,54.4072615 C30.7231538,55.1379517 29.7637961,55.560421 28.7546164,55.5814605 L28.7546164,55.5814605 C26.6572783,55.6283652 24.9172725,53.9665482 24.8636436,51.8653324 L24.710771,44.8232879 C24.6873343,43.8144209 25.064996,42.8375726 25.7606214,42.1077763 C26.4562468,41.3779799 27.4128134,40.9550592 28.4197525,40.9321116 L28.4197525,40.9321116 C29.4276446,40.90863 30.40354,41.2874037 31.1326154,41.9850533 C31.8616908,42.682703 32.2841817,43.6420401 32.3070855,44.6518865 L32.4745174,51.6866374 Z" id="Shape" fill="#EBAF72"></path>
                                <g id="Shape-+-Shape-Mask" stroke-width="1" fill="none" transform="translate(28.026651, 3.646838)">
                                    <mask id="mask-8" fill="white">
                                        <use xlink:href="#path-7"></use>
                                    </mask>
                                    <use id="Mask" fill="#FCC98D" xlink:href="#path-7"></use>
                                    <path d="M59.7186065,41.3660853 C59.755713,42.8952746 59.1840358,44.376419 58.1297082,45.4827225 C57.0753807,46.589026 55.6250512,47.2295686 54.0987169,47.2630227 L50.6445231,47.3468999 C47.4704508,47.4100445 44.8434235,44.8888487 44.7698458,41.7088881 L44.3694651,24.2879422 C44.296252,21.1027161 46.8139012,18.4610297 49.9929945,18.387358 L53.4471883,18.3107744 C56.6234742,18.2415095 59.2555925,20.7628328 59.3291453,23.9451394 L59.7186065,41.3660853 Z" id="Shape" fill="#5B5B5B" mask="url(#mask-8)"></path>
                                    <path d="M4.21127737,42.6388319 C4.24741598,44.1680962 3.67552805,45.6490684 2.62150581,46.7557355 C1.56748357,47.8624026 0.117730688,48.5040453 -1.40861222,48.539416 L-4.86280602,48.6196465 C-8.04174403,48.6909874 -10.6781909,46.1701974 -10.7556825,42.9852815 L-11.1524234,25.5643356 C-11.2256364,22.3791094 -8.70798722,19.7374231 -5.52889397,19.6637514 L-2.07470017,19.583521 C1.10641041,19.5101674 3.74464578,22.0343001 3.81817628,25.2215328 L4.21127737,42.6388319 Z" id="Shape" fill="#5B5B5B" mask="url(#mask-8)"></path>
                                </g>
                                <g id="Group" stroke-width="1" fill="none" transform="translate(16.743194, 21.881029)"></g>
                                <g id="Shape" stroke-width="1" fill="none" transform="translate(28.026651, 2.188103)">
                                    <mask id="mask-10" fill="white">
                                        <use xlink:href="#path-9"></use>
                                    </mask>
                                    <use id="Mask" fill="#FA5359" xlink:href="#path-9"></use>
                                    <path d="M60.06075,26.6693275 C60.06075,22.7234486 56.7084713,19.5215247 52.5699905,19.5215247 C48.4315096,19.5215247 45.0792309,22.7234486 45.0792309,26.6693275 C45.0803447,27.5444396 45.2496459,28.411149 45.5778869,29.2221142 L59.5584542,29.2221142 C59.8882921,28.4115015 60.0588444,27.5447143 60.06075,26.6693275 Z" fill="#494949" mask="url(#mask-10)"></path>
                                </g>
                                <path d="M35.4482543,25.6919749 C35.1754361,13.9616519 43.822123,3.93430808 55.4454521,2.50173098 C54.6956482,2.44702841 53.9349248,2.42150054 53.1669218,2.43973473 L50.3205787,2.50173098 C44.2747633,2.63942575 38.5312974,5.17836765 34.3542367,9.55977137 C30.177176,13.9411751 27.9088518,19.8059624 28.0484904,25.8633763 L28.2741595,35.2430441 L35.6702836,35.2430441 L35.4482543,25.6919749 Z" id="Shape" fill="#E5454C"></path>
                                <path d="M30.4434951,26.6219186 L0.12011422,26.6219186 C0.939074814,32.3438077 5.97659242,35.2284567 10.3662212,35.2284567 L31.4772054,35.2284567 L30.4434951,26.6219186 Z" id="Shape" fill="#E5454C"></path>
                                <path d="M126.301923,39.1159862 C125.565549,39.123106 124.871069,39.4603101 124.409214,40.0349894 L124.2709,40.202744 L124.2709,47.2083201 L124.409214,47.3760746 C124.87074,47.9511685 125.565428,48.2884738 126.301923,48.2950779 C127.457925,48.2930346 128.460448,47.4940025 128.722406,46.3659005 L128.791563,46.3659005 L128.791563,41.6031298 C128.787551,40.2283394 127.674075,39.1159803 126.301923,39.1159862 L126.301923,39.1159862 Z" id="Shape" fill="#FCC98D"></path>
                                <path d="M121.934133,36.9205896 C121.050905,36.9250047 120.211986,37.3087563 119.630124,37.9745258 L119.469971,38.1495741 L119.469971,48.5357692 L119.630124,48.7108174 C120.306211,49.4843711 121.323517,49.868062 122.3409,49.7332243 C123.358284,49.5983866 124.241029,48.9628747 124.69312,48.0397992 L124.762277,47.908513 L124.762277,39.2071572 C124.754997,37.7775966 123.317266,36.9205896 121.934133,36.9205896 L121.934133,36.9205896 Z" id="Shape" fill="#FCC98D"></path>
                                <path d="M119.928589,44.7795259 L119.928589,37.9015891 C119.709173,36.621385 118.679888,35.6355771 117.393558,35.473637 C116.107228,35.3116968 114.866523,36.0117286 114.337818,37.1977493 L114.290501,44.7795259 L114.290501,44.7795259 L114.290501,49.5204155 L114.348738,49.779341 C114.889804,50.9772803 116.157571,51.6710701 117.455973,51.4797856 C118.754375,51.2885011 119.769155,50.2584396 119.943149,48.9551556 L119.943149,44.7795259 L119.943149,44.7795259 L119.928589,44.7795259 Z" id="Shape" fill="#FCC98D"></path>
                                <path d="M114.621725,37.679132 C114.079462,36.9379378 113.220335,36.4960604 112.303156,36.4866159 C110.667666,36.4866109 109.340713,37.8128585 109.336699,39.4514953 L109.336699,46.7232906 L109.380377,46.7232906 C109.597474,48.1686185 110.833461,49.2398073 112.292237,49.2469026 C113.209416,49.2374581 114.068543,48.7955807 114.610805,48.0543865 L114.734559,47.8902788 L114.734559,37.8432397 L114.621725,37.679132 Z" id="Shape" fill="#FCC98D"></path>
                                <polygon id="Shape" fill="#FFFFFF" points="146.270002 139.017471 91.8073025 139.017471 91.8073025 42.2960291 154.557883 42.2960291 154.557883 129.907669"></polygon>
                                <path d="M125.748669,39.7250082 C125.19377,39.730517 124.670929,39.9864122 124.325498,40.4215543 L124.325498,47.7152306 C124.670929,48.1503726 125.19377,48.4062679 125.748669,48.4117767 C126.246786,48.4127448 126.724885,48.2154155 127.077789,47.8631992 C127.430693,47.5109829 127.629494,47.0327314 127.630459,46.533655 L127.630459,41.6104235 C127.631428,41.1100834 127.433479,40.6299564 127.080365,40.2761619 C126.727251,39.9223673 126.248047,39.7240376 125.748669,39.7250082 L125.748669,39.7250082 Z" id="Shape" fill="#FCC98D"></path>
                                <path d="M121.355401,37.5296116 C120.645245,37.5355593 119.971321,37.8446494 119.50273,38.3793249 L119.50273,48.7472858 C120.042928,49.3752735 120.862689,49.6881105 121.682979,49.5793119 C122.503269,49.4705133 123.21355,48.9547401 123.572054,48.2075538 L123.572054,38.9227038 C123.155275,38.0759694 122.297661,37.5369883 121.355401,37.5296116 L121.355401,37.5296116 Z" id="Shape" fill="#FCC98D"></path>
                                <path d="M116.474396,36.0672295 C115.554594,36.0726418 114.721296,36.6117024 114.337818,37.4493812 L114.337818,49.0536202 C114.762088,49.9803438 115.736892,50.5246635 116.746703,50.3987152 C117.756515,50.2727668 118.568373,49.5056064 118.752926,48.5029476 L118.752926,38.0182879 C118.559156,36.9043461 117.602808,36.0854451 116.474396,36.0672295 L116.474396,36.0672295 Z" id="Shape" fill="#FCC98D"></path>
                                <path d="M111.742623,37.0956379 C110.444253,37.0956239 109.390028,38.1469907 109.384017,39.4478485 L109.384017,46.7962274 C109.390028,48.0970851 110.444253,49.1484519 111.742623,49.148438 C112.464759,49.1350113 113.138675,48.7825495 113.562536,48.1966132 L113.562536,38.0474626 C113.139058,37.4610817 112.464904,37.1084951 111.742623,37.0956379 L111.742623,37.0956379 Z" id="Shape" fill="#FCC98D"></path>
                                <polygon id="Shape" fill="#D1D3D4" points="154.557883 129.907669 146.270002 139.017471 146.251803 138.805954 145.527478 130.720914 154.332214 129.92955"></polygon>
                                <rect id="Rectangle-path" fill="#BCBEC0" x="105.893425" y="51.9090945" width="34.5783362" height="2.1881029"></rect>
                                <rect id="Rectangle-path" fill="#D1D3D4" x="97.8384923" y="58.6411578" width="24.2703522" height="2.1881029"></rect>
                                <rect id="Rectangle-path" fill="#E6E7E8" x="100.437327" y="62.9152521" width="31.6664763" height="1.27639336"></rect>
                                <rect id="Rectangle-path" fill="#E6E7E8" x="100.437327" y="69.6655495" width="25.8427565" height="1.27639336"></rect>
                                <rect id="Rectangle-path" fill="#E6E7E8" x="100.437327" y="66.1791722" width="42.9499334" height="1.27639336"></rect>
                                <rect id="Rectangle-path" fill="#D1D3D4" x="97.8384923" y="76.0256353" width="24.2703522" height="2.1881029"></rect>
                                <rect id="Rectangle-path" fill="#E6E7E8" x="100.437327" y="80.2997296" width="31.6664763" height="1.27639336"></rect>
                                <rect id="Rectangle-path" fill="#E6E7E8" x="100.437327" y="87.0500271" width="34.5746964" height="1.27639336"></rect>
                                <rect id="Rectangle-path" fill="#E6E7E8" x="100.437327" y="83.5636498" width="25.5442909" height="1.27639336"></rect>
                                <rect id="Rectangle-path" fill="#D1D3D4" x="97.8384923" y="93.4392876" width="24.2703522" height="2.12610665"></rect>
                                <rect id="Rectangle-path" fill="#E6E7E8" x="100.437327" y="97.6842072" width="24.3176699" height="1.27639336"></rect>
                                <rect id="Rectangle-path" fill="#E6E7E8" x="100.437327" y="104.434505" width="25.8427565" height="1.27639336"></rect>
                                <rect id="Rectangle-path" fill="#E6E7E8" x="100.437327" y="100.948127" width="36.0015077" height="1.27639336"></rect>
                                <path d="M128.005361,129.984253 C128.44578,127.362176 128.8498,124.721865 129.577765,122.169079 C129.96861,120.838469 130.545808,119.570114 131.292123,118.401895 C131.466834,118.128382 131.354,118.135676 131.506872,118.500359 C131.616805,118.793246 131.703222,119.09446 131.7653,119.401128 C132.493265,122.42071 132.358591,125.640869 132.522383,128.722447 C132.562421,129.451814 133.712606,129.451814 133.672568,128.722447 C133.570653,126.855266 133.530615,124.988085 133.392302,123.12455 C133.264908,121.395949 133.261268,119.113028 132.325833,117.595944 C131.273923,115.885576 129.919909,118.401895 129.519528,119.175025 C127.859768,122.384242 127.473946,126.162366 126.880655,129.674272 C126.756901,130.403639 127.867047,130.71362 127.972602,129.980606 L127.972602,129.980606 L128.005361,129.984253 Z" id="Shape" fill="#D31140"></path>
                                <path d="M126.301923,126.231656 C128.514936,124.645282 130.578717,122.98597 133.279467,122.366008 C134.007432,122.198253 133.694407,121.089615 132.973722,121.271956 C130.171057,121.917447 128.02356,123.605933 125.723191,125.254304 C125.126259,125.684631 125.701352,126.683864 126.305563,126.249891 L126.305563,126.249891 L126.301923,126.231656 Z" id="Shape" fill="#D31140"></path>
                                <path d="M135.30321,121.829923 C136.228819,121.309189 137.23147,120.939857 138.273307,120.735871 C139.001272,120.571764 138.688247,119.459478 137.967561,119.64182 C136.827852,119.871411 135.731893,120.281341 134.720838,120.856217 C134.087508,121.220901 134.6626,122.234722 135.30321,121.851804 L135.30321,121.851804 L135.30321,121.829923 Z" id="Shape" fill="#D31140"></path>
                                <path d="M136.071213,118.412835 C135.743628,119.915333 135.92198,121.425124 135.936539,122.945855 C135.936539,123.264082 136.194017,123.522056 136.511631,123.522056 C136.829246,123.522056 137.086724,123.264082 137.086724,122.945855 C137.086724,121.538176 136.875614,120.112262 137.181359,118.71917 C137.337872,117.989802 136.227725,117.687115 136.071213,118.412835 L136.071213,118.412835 L136.071213,118.412835 Z" id="Shape" fill="#D31140"></path>
                                <path d="M129.723358,114.03663 C126.997129,115.648532 125.068022,118.350839 123.721287,121.169845 C122.578382,123.565818 121.599269,126.909968 122.855009,129.455461 C125.654034,135.122648 133.62525,133.084065 137.516223,129.896729 C141.982288,126.249891 144.584763,119.113028 140.555477,114.113213 C138.673687,111.779237 135.590756,110.364263 132.573341,110.801884 C128.933516,111.327029 126.021656,113.686533 123.612092,116.330491 C123.113436,116.877516 123.925117,117.694408 124.423773,117.147382 C128.300187,112.895169 134.698999,109.339502 139.44897,114.565421 C143.343583,118.854103 140.9049,125.418411 137.108563,128.751622 C133.83272,131.647211 125.927021,134.145295 123.746766,128.605748 C122.767653,126.114958 124.06707,122.978677 125.202696,120.77234 C126.371079,118.500359 128.092717,116.341431 130.29845,115.032216 C130.572845,114.871089 130.664918,114.5176 130.5041,114.242676 C130.343283,113.967752 129.990473,113.875502 129.716078,114.03663 L129.716078,114.03663 L129.723358,114.03663 Z" id="Shape" fill="#D31140"></path>
                            </g>
                        </g>
                    </g>
                </g>
            </g>
        </g>
    </g>
</svg>